<svg width="48" height="48" viewBox="0 0 48 48" fill="none" xmlns="http://www.w3.org/2000/svg">
<g clip-path="url(#clip0_181_202)">
<rect width="48" height="48" rx="24" fill="#5ECBA1"/>
<path d="M24.3084 38C22.3613 38 20.6228 37.6624 19.093 36.9871C17.5631 36.3119 16.2766 35.3523 15.2336 34.1085C14.1905 32.8291 13.3908 31.3009 12.8345 29.5239C12.2782 27.7114 12 25.7034 12 23.5C12 21.2966 12.2782 19.3064 12.8345 17.5294C13.3908 15.7169 14.1905 14.1887 15.2336 12.9449C16.2766 11.6654 17.5631 10.6881 19.093 10.0129C20.6228 9.33762 22.3613 9 24.3084 9C27.0204 9 29.2457 9.62194 30.9841 10.8658C32.7226 12.1097 33.9917 13.7623 34.7914 15.8235L30.0975 18.0625C29.715 16.7831 29.037 15.7702 28.0635 15.0239C27.1247 14.242 25.873 13.8511 24.3084 13.8511C22.2222 13.8511 20.6402 14.5263 19.5624 15.8768C18.5193 17.1918 17.9977 18.9154 17.9977 21.0478V26.0055C17.9977 28.1379 18.5193 29.8793 19.5624 31.2298C20.6402 32.5447 22.2222 33.2022 24.3084 33.2022C25.9773 33.2022 27.2986 32.7935 28.2721 31.9761C29.2804 31.1232 30.0801 30.0037 30.6712 28.6176L35 30.9632C34.096 33.2377 32.74 34.9792 30.932 36.1875C29.124 37.3958 26.9161 38 24.3084 38Z" fill="black"/>
</g>
<defs>
<clipPath id="clip0_181_202">
<rect width="48" height="48" rx="24" fill="white"/>
</clipPath>
</defs>
</svg>
