<svg width="73" height="73" viewBox="0 0 73 73" fill="none" xmlns="http://www.w3.org/2000/svg">
<ellipse cx="37" cy="36.5" rx="30" ry="30.5" fill="white"/>
<path d="M59.9877 13.0125C53.7921 6.81693 45.557 3.40625 36.7969 3.40625C18.92 3.40625 4 18.3262 4 36.2032C4 54.0801 18.92 69.0001 36.7969 69.0001C54.6739 69.0001 69.5939 54.0801 69.5939 36.2032C69.5939 27.4431 66.1835 19.2078 59.9877 13.0125ZM36.7969 66.4767C20.6241 66.4767 7.07963 53.2891 7.07963 37.0362C7.07963 20.6509 20.4109 7.31892 36.7969 7.31892C53.1829 7.31892 66.5142 20.6502 66.5142 37.0362C66.5142 53.291 52.9704 66.4767 36.7969 66.4767Z" fill="#5ECBA1"/>
<path d="M31.8705 28.2618C31.8705 31.7465 29.6746 34.5701 26.9663 34.5701C24.2555 34.5701 22.0596 31.7465 22.0596 28.2618C22.0596 24.7797 24.2555 21.9561 26.9663 21.9561C29.6746 21.9561 31.8705 24.7797 31.8705 28.2618Z" fill="#5ECBA1"/>
<path d="M51.5346 28.2618C51.5346 31.7465 49.3387 34.5701 46.6278 34.5701C43.9195 34.5701 41.7236 31.7465 41.7236 28.2618C41.7236 24.7797 43.9195 21.9561 46.6278 21.9561C49.3387 21.9561 51.5346 24.7797 51.5346 28.2618Z" fill="#5ECBA1"/>
<path d="M59.4039 37.7916C58.5583 37.7916 57.8717 37.1049 57.8717 36.2594C57.8717 35.4856 57.2439 34.8578 56.4701 34.8578C55.6963 34.8578 55.0686 35.4856 55.0686 36.2594C55.0686 37.4355 55.54 38.5014 56.301 39.2829C54.5484 48.2587 46.1058 55.4813 36.8839 55.5023C27.7906 55.574 19.2169 47.9793 17.3133 39.2625C18.064 38.4836 18.5279 37.4228 18.5279 36.257C18.5279 35.4832 17.9001 34.8555 17.1263 34.8555C16.3525 34.8555 15.7248 35.4832 15.7248 36.257C15.7248 37.1026 15.0381 37.7892 14.1926 37.7892C13.4187 37.7892 12.791 38.417 12.791 39.1908C12.791 39.9646 13.4188 40.5923 14.1926 40.5923C14.5923 40.5923 14.9792 40.5359 15.3481 40.436C16.8419 50.5598 26.6782 59.0201 36.9042 58.9794C47.2149 58.8974 56.995 50.811 58.2911 40.4491C58.6473 40.5439 59.0214 40.5952 59.4057 40.5952C60.1795 40.5952 60.8072 39.9674 60.8072 39.1936C60.8047 38.4198 60.1769 37.7921 59.4031 37.7921L59.4039 37.7916Z" fill="#5ECBA1"/>
</svg>
