<svg width="1920" height="565" viewBox="0 0 1920 565" fill="none" xmlns="http://www.w3.org/2000/svg">
<rect width="1920" height="565" fill="#D8DF69"/>
<rect x="349" y="253" width="1516" height="80" fill="#06584B"/>
<path d="M702 291.5C701.172 291.5 700.5 292.172 700.5 293C700.5 293.828 701.172 294.5 702 294.5V291.5ZM889.061 294.061C889.646 293.475 889.646 292.525 889.061 291.939L879.515 282.393C878.929 281.808 877.979 281.808 877.393 282.393C876.808 282.979 876.808 283.929 877.393 284.515L885.879 293L877.393 301.485C876.808 302.071 876.808 303.021 877.393 303.607C877.979 304.192 878.929 304.192 879.515 303.607L889.061 294.061ZM702 294.5H707.167V291.5H702V294.5ZM717.5 294.5H727.833V291.5H717.5V294.5ZM738.167 294.5H748.5V291.5H738.167V294.5ZM758.833 294.5H769.167V291.5H758.833V294.5ZM779.5 294.5H789.833V291.5H779.5V294.5ZM800.167 294.5H810.5V291.5H800.167V294.5ZM820.833 294.5H831.167V291.5H820.833V294.5ZM841.5 294.5H851.833V291.5H841.5V294.5ZM862.167 294.5H872.5V291.5H862.167V294.5ZM882.833 294.5H888V291.5H882.833V294.5Z" fill="white"/>
<path d="M1381 291.5C1380.17 291.5 1379.5 292.172 1379.5 293C1379.5 293.828 1380.17 294.5 1381 294.5V291.5ZM1568.06 294.061C1568.65 293.475 1568.65 292.525 1568.06 291.939L1558.51 282.393C1557.93 281.808 1556.98 281.808 1556.39 282.393C1555.81 282.979 1555.81 283.929 1556.39 284.515L1564.88 293L1556.39 301.485C1555.81 302.071 1555.81 303.021 1556.39 303.607C1556.98 304.192 1557.93 304.192 1558.51 303.607L1568.06 294.061ZM1381 294.5H1386.17V291.5H1381V294.5ZM1396.5 294.5H1406.83V291.5H1396.5V294.5ZM1417.17 294.5H1427.5V291.5H1417.17V294.5ZM1437.83 294.5H1448.17V291.5H1437.83V294.5ZM1458.5 294.5H1468.83V291.5H1458.5V294.5ZM1479.17 294.5H1489.5V291.5H1479.17V294.5ZM1499.83 294.5H1510.17V291.5H1499.83V294.5ZM1520.5 294.5H1530.83V291.5H1520.5V294.5ZM1541.17 294.5H1551.5V291.5H1541.17V294.5ZM1561.83 294.5H1567V291.5H1561.83V294.5Z" fill="white"/>
<rect width="206" height="80" transform="translate(455 253)" fill="#FDFBF3"/>
<path d="M500.77 304.36C499.35 304.36 498.07 304.14 496.93 303.7C495.79 303.24 494.82 302.57 494.02 301.69C493.22 300.79 492.6 299.68 492.16 298.36C491.72 297.02 491.5 295.46 491.5 293.68C491.5 291.92 491.72 290.36 492.16 289C492.6 287.62 493.22 286.47 494.02 285.55C494.82 284.61 495.79 283.9 496.93 283.42C498.07 282.94 499.35 282.7 500.77 282.7C502.71 282.7 504.31 283.1 505.57 283.9C506.83 284.68 507.84 285.92 508.6 287.62L504.67 289.66C504.39 288.78 503.95 288.08 503.35 287.56C502.77 287.02 501.91 286.75 500.77 286.75C499.43 286.75 498.35 287.19 497.53 288.07C496.73 288.93 496.33 290.19 496.33 291.85V295.21C496.33 296.87 496.73 298.14 497.53 299.02C498.35 299.88 499.43 300.31 500.77 300.31C501.89 300.31 502.78 300.01 503.44 299.41C504.12 298.79 504.62 298.05 504.94 297.19L508.66 299.35C507.88 300.95 506.85 302.19 505.57 303.07C504.31 303.93 502.71 304.36 500.77 304.36ZM524.391 295.42H516.411V304H511.851V283.06H516.411V291.4H524.391V283.06H528.951V304H524.391V295.42ZM546.46 304L544.96 299.02H537.97L536.47 304H531.85L538.75 283.06H544.39L551.2 304H546.46ZM541.51 287.2H541.36L539.05 295.15H543.85L541.51 287.2ZM560.864 287.11V304H556.304V287.11H550.634V283.06H566.534V287.11H560.864ZM582.182 300.67H582.032C581.872 301.73 581.332 302.61 580.412 303.31C579.492 304.01 578.242 304.36 576.662 304.36C575.462 304.36 574.342 304.13 573.302 303.67C572.262 303.21 571.352 302.53 570.572 301.63C569.792 300.73 569.182 299.61 568.742 298.27C568.302 296.93 568.082 295.38 568.082 293.62C568.082 291.86 568.312 290.3 568.772 288.94C569.232 287.58 569.872 286.44 570.692 285.52C571.532 284.6 572.532 283.9 573.692 283.42C574.852 282.94 576.142 282.7 577.562 282.7C579.442 282.7 581.062 283.11 582.422 283.93C583.782 284.73 584.852 285.94 585.632 287.56L581.912 289.69C581.592 288.87 581.092 288.18 580.412 287.62C579.732 287.04 578.782 286.75 577.562 286.75C576.142 286.75 575.012 287.16 574.172 287.98C573.332 288.8 572.912 290.09 572.912 291.85V295.21C572.912 296.95 573.332 298.24 574.172 299.08C575.012 299.9 576.142 300.31 577.562 300.31C578.122 300.31 578.652 300.25 579.152 300.13C579.652 299.99 580.092 299.79 580.472 299.53C580.852 299.25 581.142 298.92 581.342 298.54C581.562 298.16 581.672 297.71 581.672 297.19V296.14H577.772V292.33H586.022V304H582.182V300.67ZM590.455 304V283.06H600.355C601.335 283.06 602.215 283.23 602.995 283.57C603.775 283.89 604.435 284.34 604.975 284.92C605.535 285.5 605.965 286.21 606.265 287.05C606.565 287.87 606.715 288.77 606.715 289.75C606.715 290.75 606.565 291.66 606.265 292.48C605.965 293.3 605.535 294 604.975 294.58C604.435 295.16 603.775 295.62 602.995 295.96C602.215 296.28 601.335 296.44 600.355 296.44H595.015V304H590.455ZM595.015 292.48H599.815C600.495 292.48 601.025 292.31 601.405 291.97C601.805 291.61 602.005 291.09 602.005 290.41V289.09C602.005 288.41 601.805 287.9 601.405 287.56C601.025 287.2 600.495 287.02 599.815 287.02H595.015V292.48ZM618.872 287.11V304H614.312V287.11H608.642V283.06H624.542V287.11H618.872Z" fill="#06584B"/>
<rect width="411" height="80" transform="translate(929 253)" fill="#FDFBF3"/>
<path d="M965.5 304V300.37H968.2V286.69H965.5V283.06H975.46V286.69H972.76V300.37H975.46V304H965.5ZM979.259 283.06H989.429C991.169 283.06 992.519 283.55 993.479 284.53C994.459 285.51 994.949 286.81 994.949 288.43C994.949 289.23 994.839 289.91 994.619 290.47C994.419 291.03 994.139 291.49 993.779 291.85C993.439 292.21 993.029 292.48 992.549 292.66C992.089 292.82 991.589 292.91 991.049 292.93V293.11C991.549 293.11 992.069 293.2 992.609 293.38C993.169 293.56 993.679 293.85 994.139 294.25C994.599 294.63 994.979 295.13 995.279 295.75C995.599 296.37 995.759 297.13 995.759 298.03C995.759 298.85 995.619 299.63 995.339 300.37C995.079 301.09 994.709 301.72 994.229 302.26C993.749 302.8 993.179 303.23 992.519 303.55C991.859 303.85 991.139 304 990.359 304H979.259V283.06ZM983.819 300.16H989.069C989.669 300.16 990.139 300 990.479 299.68C990.839 299.34 991.019 298.87 991.019 298.27V297.25C991.019 296.65 990.839 296.19 990.479 295.87C990.139 295.53 989.669 295.36 989.069 295.36H983.819V300.16ZM983.819 291.64H988.349C988.949 291.64 989.419 291.47 989.759 291.13C990.099 290.79 990.269 290.32 990.269 289.72V288.82C990.269 288.22 990.099 287.75 989.759 287.41C989.419 287.07 988.949 286.9 988.349 286.9H983.819V291.64ZM1014.93 290.26H1014.84L1013.31 293.32L1009.23 300.73L1005.24 293.35L1003.65 290.05H1003.56V304H999.269V283.06H1004.1L1009.23 292.87H1009.29L1014.36 283.06H1019.22V304H1014.93V290.26ZM1044.89 309.52H1042.07C1040.45 309.52 1039.27 309.14 1038.53 308.38C1037.79 307.62 1037.42 306.52 1037.42 305.08V304.21C1035.18 303.81 1033.4 302.72 1032.08 300.94C1030.78 299.14 1030.13 296.67 1030.13 293.53C1030.13 291.75 1030.35 290.19 1030.79 288.85C1031.23 287.49 1031.85 286.36 1032.65 285.46C1033.45 284.54 1034.42 283.85 1035.56 283.39C1036.7 282.93 1037.96 282.7 1039.34 282.7C1040.72 282.7 1041.98 282.93 1043.12 283.39C1044.26 283.85 1045.23 284.54 1046.03 285.46C1046.83 286.36 1047.45 287.49 1047.89 288.85C1048.33 290.19 1048.55 291.75 1048.55 293.53C1048.55 296.57 1047.93 298.98 1046.69 300.76C1045.47 302.54 1043.8 303.66 1041.68 304.12V305.8H1044.89V309.52ZM1039.34 300.31C1040.72 300.31 1041.79 299.86 1042.55 298.96C1043.33 298.06 1043.72 296.77 1043.72 295.09V291.97C1043.72 290.29 1043.33 289 1042.55 288.1C1041.79 287.2 1040.72 286.75 1039.34 286.75C1037.96 286.75 1036.88 287.2 1036.1 288.1C1035.34 289 1034.96 290.29 1034.96 291.97V295.09C1034.96 296.77 1035.34 298.06 1036.1 298.96C1036.88 299.86 1037.96 300.31 1039.34 300.31ZM1061.41 301.36H1061.26C1061.12 301.76 1060.93 302.14 1060.69 302.5C1060.47 302.86 1060.18 303.18 1059.82 303.46C1059.46 303.74 1059.03 303.96 1058.53 304.12C1058.05 304.28 1057.49 304.36 1056.85 304.36C1055.23 304.36 1054 303.83 1053.16 302.77C1052.34 301.69 1051.93 300.15 1051.93 298.15V288.25H1056.37V297.76C1056.37 298.72 1056.54 299.46 1056.88 299.98C1057.22 300.5 1057.8 300.76 1058.62 300.76C1058.96 300.76 1059.3 300.71 1059.64 300.61C1059.98 300.51 1060.28 300.37 1060.54 300.19C1060.8 299.99 1061.01 299.75 1061.17 299.47C1061.33 299.19 1061.41 298.86 1061.41 298.48V288.25H1065.85V304H1061.41V301.36ZM1081.63 304C1080.83 304 1080.16 303.75 1079.62 303.25C1079.1 302.75 1078.77 302.08 1078.63 301.24H1078.45C1078.21 302.26 1077.68 303.04 1076.86 303.58C1076.04 304.1 1075.03 304.36 1073.83 304.36C1072.25 304.36 1071.04 303.94 1070.2 303.1C1069.36 302.26 1068.94 301.15 1068.94 299.77C1068.94 298.11 1069.54 296.88 1070.74 296.08C1071.96 295.26 1073.61 294.85 1075.69 294.85H1078.18V293.86C1078.18 293.1 1077.98 292.5 1077.58 292.06C1077.18 291.6 1076.51 291.37 1075.57 291.37C1074.69 291.37 1073.99 291.56 1073.47 291.94C1072.95 292.32 1072.52 292.75 1072.18 293.23L1069.54 290.89C1070.18 289.95 1070.98 289.22 1071.94 288.7C1072.92 288.16 1074.24 287.89 1075.9 287.89C1078.14 287.89 1079.82 288.38 1080.94 289.36C1082.06 290.34 1082.62 291.77 1082.62 293.65V300.55H1084.09V304H1081.63ZM1075.48 301.27C1076.22 301.27 1076.85 301.11 1077.37 300.79C1077.91 300.47 1078.18 299.95 1078.18 299.23V297.37H1076.02C1074.28 297.37 1073.41 297.96 1073.41 299.14V299.59C1073.41 300.17 1073.59 300.6 1073.95 300.88C1074.31 301.14 1074.82 301.27 1075.48 301.27ZM1087.07 304V288.25H1091.51V290.92H1091.69C1091.97 290.1 1092.46 289.39 1093.16 288.79C1093.86 288.19 1094.83 287.89 1096.07 287.89C1097.69 287.89 1098.91 288.43 1099.73 289.51C1100.57 290.59 1100.99 292.13 1100.99 294.13V304H1096.55V294.49C1096.55 293.47 1096.39 292.72 1096.07 292.24C1095.75 291.74 1095.18 291.49 1094.36 291.49C1094 291.49 1093.65 291.54 1093.31 291.64C1092.97 291.72 1092.66 291.86 1092.38 292.06C1092.12 292.26 1091.91 292.51 1091.75 292.81C1091.59 293.09 1091.51 293.42 1091.51 293.8V304H1087.07ZM1110.46 304C1108.92 304 1107.75 303.61 1106.95 302.83C1106.17 302.05 1105.78 300.91 1105.78 299.41V291.7H1103.56V288.25H1104.67C1105.27 288.25 1105.68 288.11 1105.9 287.83C1106.12 287.53 1106.23 287.11 1106.23 286.57V283.99H1110.22V288.25H1113.34V291.7H1110.22V300.55H1113.1V304H1110.46ZM1125.72 301.36H1125.57C1125.43 301.76 1125.24 302.14 1125 302.5C1124.78 302.86 1124.49 303.18 1124.13 303.46C1123.77 303.74 1123.34 303.96 1122.84 304.12C1122.36 304.28 1121.8 304.36 1121.16 304.36C1119.54 304.36 1118.31 303.83 1117.47 302.77C1116.65 301.69 1116.24 300.15 1116.24 298.15V288.25H1120.68V297.76C1120.68 298.72 1120.85 299.46 1121.19 299.98C1121.53 300.5 1122.11 300.76 1122.93 300.76C1123.27 300.76 1123.61 300.71 1123.95 300.61C1124.29 300.51 1124.59 300.37 1124.85 300.19C1125.11 299.99 1125.32 299.75 1125.48 299.47C1125.64 299.19 1125.72 298.86 1125.72 298.48V288.25H1130.16V304H1125.72V301.36ZM1134.29 304V288.25H1138.73V290.92H1138.91C1139.19 290.08 1139.67 289.37 1140.35 288.79C1141.03 288.19 1141.96 287.89 1143.14 287.89C1144.22 287.89 1145.14 288.16 1145.9 288.7C1146.66 289.24 1147.21 290.03 1147.55 291.07H1147.64C1147.78 290.63 1147.99 290.22 1148.27 289.84C1148.57 289.44 1148.93 289.1 1149.35 288.82C1149.77 288.54 1150.24 288.32 1150.76 288.16C1151.28 287.98 1151.84 287.89 1152.44 287.89C1153.96 287.89 1155.12 288.43 1155.92 289.51C1156.74 290.59 1157.15 292.13 1157.15 294.13V304H1152.71V294.49C1152.71 292.49 1151.99 291.49 1150.55 291.49C1149.89 291.49 1149.29 291.68 1148.75 292.06C1148.21 292.44 1147.94 293.02 1147.94 293.8V304H1143.5V294.49C1143.5 292.49 1142.78 291.49 1141.34 291.49C1141.02 291.49 1140.7 291.54 1140.38 291.64C1140.08 291.72 1139.8 291.86 1139.54 292.06C1139.3 292.26 1139.1 292.51 1138.94 292.81C1138.8 293.09 1138.73 293.42 1138.73 293.8V304H1134.29ZM1175.21 304.36C1173.37 304.36 1171.81 304.05 1170.53 303.43C1169.25 302.79 1168.16 301.97 1167.26 300.97L1170.26 297.94C1171.68 299.54 1173.43 300.34 1175.51 300.34C1176.63 300.34 1177.46 300.11 1178 299.65C1178.54 299.19 1178.81 298.58 1178.81 297.82C1178.81 297.24 1178.65 296.76 1178.33 296.38C1178.01 295.98 1177.36 295.71 1176.38 295.57L1174.31 295.3C1172.09 295.02 1170.46 294.35 1169.42 293.29C1168.4 292.23 1167.89 290.82 1167.89 289.06C1167.89 288.12 1168.07 287.26 1168.43 286.48C1168.79 285.7 1169.3 285.03 1169.96 284.47C1170.64 283.91 1171.46 283.48 1172.42 283.18C1173.4 282.86 1174.51 282.7 1175.75 282.7C1177.33 282.7 1178.72 282.95 1179.92 283.45C1181.12 283.95 1182.15 284.68 1183.01 285.64L1179.98 288.7C1179.48 288.12 1178.87 287.65 1178.15 287.29C1177.45 286.91 1176.56 286.72 1175.48 286.72C1174.46 286.72 1173.7 286.9 1173.2 287.26C1172.7 287.62 1172.45 288.12 1172.45 288.76C1172.45 289.48 1172.64 290 1173.02 290.32C1173.42 290.64 1174.06 290.87 1174.94 291.01L1177.01 291.34C1179.17 291.68 1180.77 292.35 1181.81 293.35C1182.85 294.33 1183.37 295.73 1183.37 297.55C1183.37 298.55 1183.19 299.47 1182.83 300.31C1182.47 301.15 1181.94 301.87 1181.24 302.47C1180.56 303.07 1179.71 303.54 1178.69 303.88C1177.67 304.2 1176.51 304.36 1175.21 304.36ZM1189.13 286.57C1188.23 286.57 1187.57 286.37 1187.15 285.97C1186.75 285.55 1186.55 285.02 1186.55 284.38V283.72C1186.55 283.08 1186.75 282.56 1187.15 282.16C1187.57 281.74 1188.23 281.53 1189.13 281.53C1190.03 281.53 1190.68 281.74 1191.08 282.16C1191.5 282.56 1191.71 283.08 1191.71 283.72V284.38C1191.71 285.02 1191.5 285.55 1191.08 285.97C1190.68 286.37 1190.03 286.57 1189.13 286.57ZM1186.91 288.25H1191.35V304H1186.91V288.25ZM1195.49 304V288.25H1199.93V290.92H1200.11C1200.39 290.08 1200.87 289.37 1201.55 288.79C1202.23 288.19 1203.16 287.89 1204.34 287.89C1205.42 287.89 1206.34 288.16 1207.1 288.7C1207.86 289.24 1208.41 290.03 1208.75 291.07H1208.84C1208.98 290.63 1209.19 290.22 1209.47 289.84C1209.77 289.44 1210.13 289.1 1210.55 288.82C1210.97 288.54 1211.44 288.32 1211.96 288.16C1212.48 287.98 1213.04 287.89 1213.64 287.89C1215.16 287.89 1216.32 288.43 1217.12 289.51C1217.94 290.59 1218.35 292.13 1218.35 294.13V304H1213.91V294.49C1213.91 292.49 1213.19 291.49 1211.75 291.49C1211.09 291.49 1210.49 291.68 1209.95 292.06C1209.41 292.44 1209.14 293.02 1209.14 293.8V304H1204.7V294.49C1204.7 292.49 1203.98 291.49 1202.54 291.49C1202.22 291.49 1201.9 291.54 1201.58 291.64C1201.28 291.72 1201 291.86 1200.74 292.06C1200.5 292.26 1200.3 292.51 1200.14 292.81C1200 293.09 1199.93 293.42 1199.93 293.8V304H1195.49ZM1231.6 301.36H1231.45C1231.31 301.76 1231.12 302.14 1230.88 302.5C1230.66 302.86 1230.37 303.18 1230.01 303.46C1229.65 303.74 1229.22 303.96 1228.72 304.12C1228.24 304.28 1227.68 304.36 1227.04 304.36C1225.42 304.36 1224.19 303.83 1223.35 302.77C1222.53 301.69 1222.12 300.15 1222.12 298.15V288.25H1226.56V297.76C1226.56 298.72 1226.73 299.46 1227.07 299.98C1227.41 300.5 1227.99 300.76 1228.81 300.76C1229.15 300.76 1229.49 300.71 1229.83 300.61C1230.17 300.51 1230.47 300.37 1230.73 300.19C1230.99 299.99 1231.2 299.75 1231.36 299.47C1231.52 299.19 1231.6 298.86 1231.6 298.48V288.25H1236.04V304H1231.6V301.36ZM1244.58 304C1243.06 304 1241.94 303.63 1241.22 302.89C1240.52 302.15 1240.17 301.08 1240.17 299.68V281.8H1244.61V300.55H1246.59V304H1244.58ZM1260.89 304C1260.09 304 1259.42 303.75 1258.88 303.25C1258.36 302.75 1258.03 302.08 1257.89 301.24H1257.71C1257.47 302.26 1256.94 303.04 1256.12 303.58C1255.3 304.1 1254.29 304.36 1253.09 304.36C1251.51 304.36 1250.3 303.94 1249.46 303.1C1248.62 302.26 1248.2 301.15 1248.2 299.77C1248.2 298.11 1248.8 296.88 1250 296.08C1251.22 295.26 1252.87 294.85 1254.95 294.85H1257.44V293.86C1257.44 293.1 1257.24 292.5 1256.84 292.06C1256.44 291.6 1255.77 291.37 1254.83 291.37C1253.95 291.37 1253.25 291.56 1252.73 291.94C1252.21 292.32 1251.78 292.75 1251.44 293.23L1248.8 290.89C1249.44 289.95 1250.24 289.22 1251.2 288.7C1252.18 288.16 1253.5 287.89 1255.16 287.89C1257.4 287.89 1259.08 288.38 1260.2 289.36C1261.32 290.34 1261.88 291.77 1261.88 293.65V300.55H1263.35V304H1260.89ZM1254.74 301.27C1255.48 301.27 1256.11 301.11 1256.63 300.79C1257.17 300.47 1257.44 299.95 1257.44 299.23V297.37H1255.28C1253.54 297.37 1252.67 297.96 1252.67 299.14V299.59C1252.67 300.17 1252.85 300.6 1253.21 300.88C1253.57 301.14 1254.08 301.27 1254.74 301.27ZM1271.68 304C1270.14 304 1268.97 303.61 1268.17 302.83C1267.39 302.05 1267 300.91 1267 299.41V291.7H1264.78V288.25H1265.89C1266.49 288.25 1266.9 288.11 1267.12 287.83C1267.34 287.53 1267.45 287.11 1267.45 286.57V283.99H1271.44V288.25H1274.56V291.7H1271.44V300.55H1274.32V304H1271.68ZM1283.92 304.36C1282.76 304.36 1281.72 304.17 1280.8 303.79C1279.9 303.41 1279.13 302.86 1278.49 302.14C1277.87 301.42 1277.39 300.55 1277.05 299.53C1276.71 298.51 1276.54 297.37 1276.54 296.11C1276.54 294.85 1276.71 293.71 1277.05 292.69C1277.39 291.67 1277.87 290.81 1278.49 290.11C1279.13 289.39 1279.9 288.84 1280.8 288.46C1281.72 288.08 1282.76 287.89 1283.92 287.89C1285.08 287.89 1286.11 288.08 1287.01 288.46C1287.93 288.84 1288.7 289.39 1289.32 290.11C1289.96 290.81 1290.45 291.67 1290.79 292.69C1291.13 293.71 1291.3 294.85 1291.3 296.11C1291.3 297.37 1291.13 298.51 1290.79 299.53C1290.45 300.55 1289.96 301.42 1289.32 302.14C1288.7 302.86 1287.93 303.41 1287.01 303.79C1286.11 304.17 1285.08 304.36 1283.92 304.36ZM1283.92 300.85C1284.8 300.85 1285.48 300.58 1285.96 300.04C1286.44 299.5 1286.68 298.73 1286.68 297.73V294.52C1286.68 293.52 1286.44 292.75 1285.96 292.21C1285.48 291.67 1284.8 291.4 1283.92 291.4C1283.04 291.4 1282.36 291.67 1281.88 292.21C1281.4 292.75 1281.16 293.52 1281.16 294.52V297.73C1281.16 298.73 1281.4 299.5 1281.88 300.04C1282.36 300.58 1283.04 300.85 1283.92 300.85ZM1294.46 304V288.25H1298.9V291.67H1299.05C1299.13 291.23 1299.27 290.81 1299.47 290.41C1299.67 289.99 1299.93 289.62 1300.25 289.3C1300.59 288.98 1300.99 288.73 1301.45 288.55C1301.91 288.35 1302.45 288.25 1303.07 288.25H1303.85V292.39H1302.74C1301.44 292.39 1300.47 292.56 1299.83 292.9C1299.21 293.24 1298.9 293.87 1298.9 294.79V304H1294.46Z" fill="#06584B"/>
<rect width="257" height="80" transform="translate(1608 253)" fill="#FDFBF3"/>
<path d="M1649.63 283.06V295.9C1649.63 297.38 1649.92 298.49 1650.5 299.23C1651.08 299.95 1652.05 300.31 1653.41 300.31C1654.77 300.31 1655.74 299.95 1656.32 299.23C1656.9 298.49 1657.19 297.38 1657.19 295.9V283.06H1661.63V295.42C1661.63 296.96 1661.48 298.3 1661.18 299.44C1660.9 300.56 1660.43 301.49 1659.77 302.23C1659.11 302.95 1658.26 303.49 1657.22 303.85C1656.18 304.19 1654.91 304.36 1653.41 304.36C1651.91 304.36 1650.64 304.19 1649.6 303.85C1648.56 303.49 1647.71 302.95 1647.05 302.23C1646.39 301.49 1645.91 300.56 1645.61 299.44C1645.33 298.3 1645.19 296.96 1645.19 295.42V283.06H1649.63ZM1671.24 304.36C1669.72 304.36 1668.44 304.12 1667.4 303.64C1666.36 303.14 1665.43 302.44 1664.61 301.54L1667.22 298.9C1667.78 299.52 1668.4 300.01 1669.08 300.37C1669.76 300.73 1670.53 300.91 1671.39 300.91C1672.27 300.91 1672.88 300.78 1673.22 300.52C1673.56 300.24 1673.73 299.87 1673.73 299.41C1673.73 298.67 1673.2 298.23 1672.14 298.09L1670.43 297.88C1666.89 297.44 1665.12 295.82 1665.12 293.02C1665.12 292.26 1665.26 291.57 1665.54 290.95C1665.84 290.31 1666.25 289.77 1666.77 289.33C1667.31 288.87 1667.95 288.52 1668.69 288.28C1669.45 288.02 1670.3 287.89 1671.24 287.89C1672.06 287.89 1672.78 287.95 1673.4 288.07C1674.04 288.17 1674.6 288.33 1675.08 288.55C1675.58 288.75 1676.03 289.01 1676.43 289.33C1676.85 289.63 1677.26 289.97 1677.66 290.35L1675.11 292.96C1674.61 292.46 1674.04 292.07 1673.4 291.79C1672.78 291.49 1672.14 291.34 1671.48 291.34C1670.72 291.34 1670.18 291.46 1669.86 291.7C1669.54 291.94 1669.38 292.26 1669.38 292.66C1669.38 293.08 1669.49 293.41 1669.71 293.65C1669.95 293.87 1670.39 294.03 1671.03 294.13L1672.8 294.37C1676.26 294.83 1677.99 296.41 1677.99 299.11C1677.99 299.87 1677.83 300.57 1677.51 301.21C1677.19 301.85 1676.73 302.41 1676.13 302.89C1675.55 303.35 1674.84 303.71 1674 303.97C1673.18 304.23 1672.26 304.36 1671.24 304.36ZM1687.59 304.36C1686.39 304.36 1685.32 304.17 1684.38 303.79C1683.44 303.39 1682.64 302.84 1681.98 302.14C1681.34 301.42 1680.85 300.55 1680.51 299.53C1680.19 298.51 1680.03 297.37 1680.03 296.11C1680.03 294.87 1680.19 293.75 1680.51 292.75C1680.83 291.73 1681.3 290.86 1681.92 290.14C1682.56 289.42 1683.34 288.87 1684.26 288.49C1685.18 288.09 1686.23 287.89 1687.41 287.89C1688.71 287.89 1689.82 288.11 1690.74 288.55C1691.68 288.99 1692.44 289.58 1693.02 290.32C1693.62 291.06 1694.05 291.92 1694.31 292.9C1694.59 293.86 1694.73 294.87 1694.73 295.93V297.25H1684.62V297.49C1684.62 298.53 1684.9 299.36 1685.46 299.98C1686.02 300.58 1686.9 300.88 1688.1 300.88C1689.02 300.88 1689.77 300.7 1690.35 300.34C1690.93 299.96 1691.47 299.51 1691.97 298.99L1694.19 301.75C1693.49 302.57 1692.57 303.21 1691.43 303.67C1690.31 304.13 1689.03 304.36 1687.59 304.36ZM1687.5 291.16C1686.6 291.16 1685.89 291.46 1685.37 292.06C1684.87 292.64 1684.62 293.42 1684.62 294.4V294.64H1690.14V294.37C1690.14 293.41 1689.92 292.64 1689.48 292.06C1689.06 291.46 1688.4 291.16 1687.5 291.16ZM1697.86 304V288.25H1702.3V291.67H1702.45C1702.53 291.23 1702.67 290.81 1702.87 290.41C1703.07 289.99 1703.33 289.62 1703.65 289.3C1703.99 288.98 1704.39 288.73 1704.85 288.55C1705.31 288.35 1705.85 288.25 1706.47 288.25H1707.25V292.39H1706.14C1704.84 292.39 1703.87 292.56 1703.23 292.9C1702.61 293.24 1702.3 293.87 1702.3 294.79V304H1697.86ZM1729.59 283.06V297.94C1729.59 298.9 1729.43 299.78 1729.11 300.58C1728.81 301.36 1728.36 302.03 1727.76 302.59C1727.16 303.13 1726.43 303.56 1725.57 303.88C1724.73 304.18 1723.77 304.33 1722.69 304.33C1721.65 304.33 1720.73 304.19 1719.93 303.91C1719.15 303.63 1718.47 303.23 1717.89 302.71C1717.33 302.19 1716.87 301.57 1716.51 300.85C1716.15 300.13 1715.9 299.33 1715.76 298.45L1720.02 297.61C1720.36 299.43 1721.23 300.34 1722.63 300.34C1723.29 300.34 1723.85 300.13 1724.31 299.71C1724.79 299.29 1725.03 298.63 1725.03 297.73V286.72H1718.67V283.06H1729.59ZM1740.23 304.36C1739.07 304.36 1738.03 304.17 1737.11 303.79C1736.21 303.41 1735.44 302.86 1734.8 302.14C1734.18 301.42 1733.7 300.55 1733.36 299.53C1733.02 298.51 1732.85 297.37 1732.85 296.11C1732.85 294.85 1733.02 293.71 1733.36 292.69C1733.7 291.67 1734.18 290.81 1734.8 290.11C1735.44 289.39 1736.21 288.84 1737.11 288.46C1738.03 288.08 1739.07 287.89 1740.23 287.89C1741.39 287.89 1742.42 288.08 1743.32 288.46C1744.24 288.84 1745.01 289.39 1745.63 290.11C1746.27 290.81 1746.76 291.67 1747.1 292.69C1747.44 293.71 1747.61 294.85 1747.61 296.11C1747.61 297.37 1747.44 298.51 1747.1 299.53C1746.76 300.55 1746.27 301.42 1745.63 302.14C1745.01 302.86 1744.24 303.41 1743.32 303.79C1742.42 304.17 1741.39 304.36 1740.23 304.36ZM1740.23 300.85C1741.11 300.85 1741.79 300.58 1742.27 300.04C1742.75 299.5 1742.99 298.73 1742.99 297.73V294.52C1742.99 293.52 1742.75 292.75 1742.27 292.21C1741.79 291.67 1741.11 291.4 1740.23 291.4C1739.35 291.4 1738.67 291.67 1738.19 292.21C1737.71 292.75 1737.47 293.52 1737.47 294.52V297.73C1737.47 298.73 1737.71 299.5 1738.19 300.04C1738.67 300.58 1739.35 300.85 1740.23 300.85ZM1760.07 301.36H1759.92C1759.78 301.76 1759.59 302.14 1759.35 302.5C1759.13 302.86 1758.84 303.18 1758.48 303.46C1758.12 303.74 1757.69 303.96 1757.19 304.12C1756.71 304.28 1756.15 304.36 1755.51 304.36C1753.89 304.36 1752.66 303.83 1751.82 302.77C1751 301.69 1750.59 300.15 1750.59 298.15V288.25H1755.03V297.76C1755.03 298.72 1755.2 299.46 1755.54 299.98C1755.88 300.5 1756.46 300.76 1757.28 300.76C1757.62 300.76 1757.96 300.71 1758.3 300.61C1758.64 300.51 1758.94 300.37 1759.2 300.19C1759.46 299.99 1759.67 299.75 1759.83 299.47C1759.99 299.19 1760.07 298.86 1760.07 298.48V288.25H1764.51V304H1760.07V301.36ZM1768.64 304V288.25H1773.08V291.67H1773.23C1773.31 291.23 1773.45 290.81 1773.65 290.41C1773.85 289.99 1774.11 289.62 1774.43 289.3C1774.77 288.98 1775.17 288.73 1775.63 288.55C1776.09 288.35 1776.63 288.25 1777.25 288.25H1778.03V292.39H1776.92C1775.62 292.39 1774.65 292.56 1774.01 292.9C1773.39 293.24 1773.08 293.87 1773.08 294.79V304H1768.64ZM1780.77 304V288.25H1785.21V290.92H1785.39C1785.67 290.1 1786.16 289.39 1786.86 288.79C1787.56 288.19 1788.53 287.89 1789.77 287.89C1791.39 287.89 1792.61 288.43 1793.43 289.51C1794.27 290.59 1794.69 292.13 1794.69 294.13V304H1790.25V294.49C1790.25 293.47 1790.09 292.72 1789.77 292.24C1789.45 291.74 1788.88 291.49 1788.06 291.49C1787.7 291.49 1787.35 291.54 1787.01 291.64C1786.67 291.72 1786.36 291.86 1786.08 292.06C1785.82 292.26 1785.61 292.51 1785.45 292.81C1785.29 293.09 1785.21 293.42 1785.21 293.8V304H1780.77ZM1805.21 304.36C1804.01 304.36 1802.94 304.17 1802 303.79C1801.06 303.39 1800.26 302.84 1799.6 302.14C1798.96 301.42 1798.47 300.55 1798.13 299.53C1797.81 298.51 1797.65 297.37 1797.65 296.11C1797.65 294.87 1797.81 293.75 1798.13 292.75C1798.45 291.73 1798.92 290.86 1799.54 290.14C1800.18 289.42 1800.96 288.87 1801.88 288.49C1802.8 288.09 1803.85 287.89 1805.03 287.89C1806.33 287.89 1807.44 288.11 1808.36 288.55C1809.3 288.99 1810.06 289.58 1810.64 290.32C1811.24 291.06 1811.67 291.92 1811.93 292.9C1812.21 293.86 1812.35 294.87 1812.35 295.93V297.25H1802.24V297.49C1802.24 298.53 1802.52 299.36 1803.08 299.98C1803.64 300.58 1804.52 300.88 1805.72 300.88C1806.64 300.88 1807.39 300.7 1807.97 300.34C1808.55 299.96 1809.09 299.51 1809.59 298.99L1811.81 301.75C1811.11 302.57 1810.19 303.21 1809.05 303.67C1807.93 304.13 1806.65 304.36 1805.21 304.36ZM1805.12 291.16C1804.22 291.16 1803.51 291.46 1802.99 292.06C1802.49 292.64 1802.24 293.42 1802.24 294.4V294.64H1807.76V294.37C1807.76 293.41 1807.54 292.64 1807.1 292.06C1806.68 291.46 1806.02 291.16 1805.12 291.16ZM1824.91 288.25H1829.05L1822.99 306.43C1822.59 307.65 1822.02 308.55 1821.28 309.13C1820.56 309.71 1819.52 310 1818.16 310H1815.4V306.55H1818.37L1818.91 304.81L1813.39 288.25H1817.8L1820.11 295.6L1821.25 300.16H1821.43L1822.6 295.6L1824.91 288.25Z" fill="#06584B"/>
<rect width="135" height="80" transform="translate(52 253)" fill="#FDFBF3"/>
<path d="M93.63 283.06V295.9C93.63 297.38 93.92 298.49 94.5 299.23C95.08 299.95 96.05 300.31 97.41 300.31C98.77 300.31 99.74 299.95 100.32 299.23C100.9 298.49 101.19 297.38 101.19 295.9V283.06H105.63V295.42C105.63 296.96 105.48 298.3 105.18 299.44C104.9 300.56 104.43 301.49 103.77 302.23C103.11 302.95 102.26 303.49 101.22 303.85C100.18 304.19 98.91 304.36 97.41 304.36C95.91 304.36 94.64 304.19 93.6 303.85C92.56 303.49 91.71 302.95 91.05 302.23C90.39 301.49 89.91 300.56 89.61 299.44C89.33 298.3 89.19 296.96 89.19 295.42V283.06H93.63ZM115.24 304.36C113.72 304.36 112.44 304.12 111.4 303.64C110.36 303.14 109.43 302.44 108.61 301.54L111.22 298.9C111.78 299.52 112.4 300.01 113.08 300.37C113.76 300.73 114.53 300.91 115.39 300.91C116.27 300.91 116.88 300.78 117.22 300.52C117.56 300.24 117.73 299.87 117.73 299.41C117.73 298.67 117.2 298.23 116.14 298.09L114.43 297.88C110.89 297.44 109.12 295.82 109.12 293.02C109.12 292.26 109.26 291.57 109.54 290.95C109.84 290.31 110.25 289.77 110.77 289.33C111.31 288.87 111.95 288.52 112.69 288.28C113.45 288.02 114.3 287.89 115.24 287.89C116.06 287.89 116.78 287.95 117.4 288.07C118.04 288.17 118.6 288.33 119.08 288.55C119.58 288.75 120.03 289.01 120.43 289.33C120.85 289.63 121.26 289.97 121.66 290.35L119.11 292.96C118.61 292.46 118.04 292.07 117.4 291.79C116.78 291.49 116.14 291.34 115.48 291.34C114.72 291.34 114.18 291.46 113.86 291.7C113.54 291.94 113.38 292.26 113.38 292.66C113.38 293.08 113.49 293.41 113.71 293.65C113.95 293.87 114.39 294.03 115.03 294.13L116.8 294.37C120.26 294.83 121.99 296.41 121.99 299.11C121.99 299.87 121.83 300.57 121.51 301.21C121.19 301.85 120.73 302.41 120.13 302.89C119.55 303.35 118.84 303.71 118 303.97C117.18 304.23 116.26 304.36 115.24 304.36ZM131.587 304.36C130.387 304.36 129.317 304.17 128.377 303.79C127.437 303.39 126.637 302.84 125.977 302.14C125.337 301.42 124.847 300.55 124.507 299.53C124.187 298.51 124.027 297.37 124.027 296.11C124.027 294.87 124.187 293.75 124.507 292.75C124.827 291.73 125.297 290.86 125.917 290.14C126.557 289.42 127.337 288.87 128.257 288.49C129.177 288.09 130.227 287.89 131.407 287.89C132.707 287.89 133.817 288.11 134.737 288.55C135.677 288.99 136.437 289.58 137.017 290.32C137.617 291.06 138.047 291.92 138.307 292.9C138.587 293.86 138.727 294.87 138.727 295.93V297.25H128.617V297.49C128.617 298.53 128.897 299.36 129.457 299.98C130.017 300.58 130.897 300.88 132.097 300.88C133.017 300.88 133.767 300.7 134.347 300.34C134.927 299.96 135.467 299.51 135.967 298.99L138.187 301.75C137.487 302.57 136.567 303.21 135.427 303.67C134.307 304.13 133.027 304.36 131.587 304.36ZM131.497 291.16C130.597 291.16 129.887 291.46 129.367 292.06C128.867 292.64 128.617 293.42 128.617 294.4V294.64H134.137V294.37C134.137 293.41 133.917 292.64 133.477 292.06C133.057 291.46 132.397 291.16 131.497 291.16ZM141.863 304V288.25H146.303V291.67H146.453C146.533 291.23 146.673 290.81 146.873 290.41C147.073 289.99 147.333 289.62 147.653 289.3C147.993 288.98 148.393 288.73 148.853 288.55C149.313 288.35 149.853 288.25 150.473 288.25H151.253V292.39H150.143C148.843 292.39 147.873 292.56 147.233 292.9C146.613 293.24 146.303 293.87 146.303 294.79V304H141.863Z" fill="#06584B"/>
<path d="M52 423.5C51.1716 423.5 50.5 424.172 50.5 425C50.5 425.828 51.1716 426.5 52 426.5L52 423.5ZM1868.06 426.061C1868.65 425.475 1868.65 424.525 1868.06 423.939L1858.51 414.393C1857.93 413.807 1856.98 413.807 1856.39 414.393C1855.81 414.979 1855.81 415.929 1856.39 416.515L1864.88 425L1856.39 433.485C1855.81 434.071 1855.81 435.021 1856.39 435.606C1856.98 436.192 1857.93 436.192 1858.51 435.606L1868.06 426.061ZM52 426.5L56.9863 426.5L56.9863 423.5L52 423.5L52 426.5ZM66.9588 426.5L76.9313 426.5L76.9313 423.5L66.9588 423.5L66.9588 426.5ZM86.9038 426.5L96.8764 426.5L96.8764 423.5L86.9038 423.5L86.9038 426.5ZM106.849 426.5L116.821 426.5L116.821 423.5L106.849 423.5L106.849 426.5ZM126.794 426.5L136.766 426.5L136.766 423.5L126.794 423.5L126.794 426.5ZM146.739 426.5L156.712 426.5L156.712 423.5L146.739 423.5L146.739 426.5ZM166.684 426.5L176.657 426.5L176.657 423.5L166.684 423.5L166.684 426.5ZM186.629 426.5L196.602 426.5L196.602 423.5L186.629 423.5L186.629 426.5ZM206.574 426.5L216.547 426.5L216.547 423.5L206.574 423.5L206.574 426.5ZM226.519 426.5L236.492 426.5L236.492 423.5L226.519 423.5L226.519 426.5ZM246.464 426.5L256.437 426.5L256.437 423.5L246.464 423.5L246.464 426.5ZM266.409 426.5L276.382 426.5L276.382 423.5L266.409 423.5L266.409 426.5ZM286.354 426.5L296.327 426.5L296.327 423.5L286.354 423.5L286.354 426.5ZM306.3 426.5L316.272 426.5L316.272 423.5L306.3 423.5L306.3 426.5ZM326.245 426.5L336.217 426.5L336.217 423.5L326.245 423.5L326.245 426.5ZM346.19 426.5L356.162 426.5L356.162 423.5L346.19 423.5L346.19 426.5ZM366.135 426.5L376.107 426.5L376.107 423.5L366.135 423.5L366.135 426.5ZM386.08 426.5L396.052 426.5L396.052 423.5L386.08 423.5L386.08 426.5ZM406.025 426.5L415.997 426.5L415.997 423.5L406.025 423.5L406.025 426.5ZM425.97 426.5L435.942 426.5L435.942 423.5L425.97 423.5L425.97 426.5ZM445.915 426.5L455.888 426.5L455.888 423.5L445.915 423.5L445.915 426.5ZM465.86 426.5L475.833 426.5L475.833 423.5L465.86 423.5L465.86 426.5ZM485.805 426.5L495.778 426.5L495.778 423.5L485.805 423.5L485.805 426.5ZM505.75 426.5L515.723 426.5L515.723 423.5L505.75 423.5L505.75 426.5ZM525.695 426.5L535.668 426.5L535.668 423.5L525.695 423.5L525.695 426.5ZM545.64 426.5L555.613 426.5L555.613 423.5L545.64 423.5L545.64 426.5ZM565.585 426.5L575.558 426.5L575.558 423.5L565.585 423.5L565.585 426.5ZM585.53 426.5L595.503 426.5L595.503 423.5L585.53 423.5L585.53 426.5ZM605.476 426.5L615.448 426.5L615.448 423.5L605.476 423.5L605.476 426.5ZM625.421 426.5L635.393 426.5L635.393 423.5L625.421 423.5L625.421 426.5ZM645.366 426.5L655.338 426.5L655.338 423.5L645.366 423.5L645.366 426.5ZM665.311 426.5L675.283 426.5L675.283 423.5L665.311 423.5L665.311 426.5ZM685.256 426.5L695.228 426.5L695.228 423.5L685.256 423.5L685.256 426.5ZM705.201 426.5L715.173 426.5L715.173 423.5L705.201 423.5L705.201 426.5ZM725.146 426.5L735.118 426.5L735.118 423.5L725.146 423.5L725.146 426.5ZM745.091 426.5L755.064 426.5L755.064 423.5L745.091 423.5L745.091 426.5ZM765.036 426.5L775.009 426.5L775.009 423.5L765.036 423.5L765.036 426.5ZM784.981 426.5L794.954 426.5L794.954 423.5L784.981 423.5L784.981 426.5ZM804.926 426.5L814.899 426.5L814.899 423.5L804.926 423.5L804.926 426.5ZM824.871 426.5L834.844 426.5L834.844 423.5L824.871 423.5L824.871 426.5ZM844.816 426.5L854.789 426.5L854.789 423.5L844.816 423.5L844.816 426.5ZM864.761 426.5L874.734 426.5L874.734 423.5L864.761 423.5L864.761 426.5ZM884.707 426.5L894.679 426.5L894.679 423.5L884.707 423.5L884.707 426.5ZM904.652 426.5L914.624 426.5L914.624 423.5L904.652 423.5L904.652 426.5ZM924.597 426.5L934.569 426.5L934.569 423.5L924.597 423.5L924.597 426.5ZM944.542 426.5L954.514 426.5L954.514 423.5L944.542 423.5L944.542 426.5ZM964.487 426.5L974.459 426.5L974.459 423.5L964.487 423.5L964.487 426.5ZM984.432 426.5L994.404 426.5L994.404 423.5L984.432 423.5L984.432 426.5ZM1004.38 426.5L1014.35 426.5L1014.35 423.5L1004.38 423.5L1004.38 426.5ZM1024.32 426.5L1034.29 426.5L1034.29 423.5L1024.32 423.5L1024.32 426.5ZM1044.27 426.5L1054.24 426.5L1054.24 423.5L1044.27 423.5L1044.27 426.5ZM1064.21 426.5L1074.18 426.5L1074.18 423.5L1064.21 423.5L1064.21 426.5ZM1084.16 426.5L1094.13 426.5L1094.13 423.5L1084.16 423.5L1084.16 426.5ZM1104.1 426.5L1114.07 426.5L1114.07 423.5L1104.1 423.5L1104.1 426.5ZM1124.05 426.5L1134.02 426.5L1134.02 423.5L1124.05 423.5L1124.05 426.5ZM1143.99 426.5L1153.96 426.5L1153.96 423.5L1143.99 423.5L1143.99 426.5ZM1163.94 426.5L1173.91 426.5L1173.91 423.5L1163.94 423.5L1163.94 426.5ZM1183.88 426.5L1193.85 426.5L1193.85 423.5L1183.88 423.5L1183.88 426.5ZM1203.83 426.5L1213.8 426.5L1213.8 423.5L1203.83 423.5L1203.83 426.5ZM1223.77 426.5L1233.75 426.5L1233.75 423.5L1223.77 423.5L1223.77 426.5ZM1243.72 426.5L1253.69 426.5L1253.69 423.5L1243.72 423.5L1243.72 426.5ZM1263.66 426.5L1273.64 426.5L1273.64 423.5L1263.66 423.5L1263.66 426.5ZM1283.61 426.5L1293.58 426.5L1293.58 423.5L1283.61 423.5L1283.61 426.5ZM1303.55 426.5L1313.53 426.5L1313.53 423.5L1303.55 423.5L1303.55 426.5ZM1323.5 426.5L1333.47 426.5L1333.47 423.5L1323.5 423.5L1323.5 426.5ZM1343.44 426.5L1353.42 426.5L1353.42 423.5L1343.44 423.5L1343.44 426.5ZM1363.39 426.5L1373.36 426.5L1373.36 423.5L1363.39 423.5L1363.39 426.5ZM1383.33 426.5L1393.31 426.5L1393.31 423.5L1383.33 423.5L1383.33 426.5ZM1403.28 426.5L1413.25 426.5L1413.25 423.5L1403.28 423.5L1403.28 426.5ZM1423.22 426.5L1433.2 426.5L1433.2 423.5L1423.22 423.5L1423.22 426.5ZM1443.17 426.5L1453.14 426.5L1453.14 423.5L1443.17 423.5L1443.17 426.5ZM1463.11 426.5L1473.09 426.5L1473.09 423.5L1463.11 423.5L1463.11 426.5ZM1483.06 426.5L1493.03 426.5L1493.03 423.5L1483.06 423.5L1483.06 426.5ZM1503 426.5L1512.98 426.5L1512.98 423.5L1503 423.5L1503 426.5ZM1522.95 426.5L1532.92 426.5L1532.92 423.5L1522.95 423.5L1522.95 426.5ZM1542.89 426.5L1552.87 426.5L1552.87 423.5L1542.89 423.5L1542.89 426.5ZM1562.84 426.5L1572.81 426.5L1572.81 423.5L1562.84 423.5L1562.84 426.5ZM1582.78 426.5L1592.76 426.5L1592.76 423.5L1582.78 423.5L1582.78 426.5ZM1602.73 426.5L1612.7 426.5L1612.7 423.5L1602.73 423.5L1602.73 426.5ZM1622.67 426.5L1632.65 426.5L1632.65 423.5L1622.67 423.5L1622.67 426.5ZM1642.62 426.5L1652.59 426.5L1652.59 423.5L1642.62 423.5L1642.62 426.5ZM1662.56 426.5L1672.54 426.5L1672.54 423.5L1662.56 423.5L1662.56 426.5ZM1682.51 426.5L1692.48 426.5L1692.48 423.5L1682.51 423.5L1682.51 426.5ZM1702.45 426.5L1712.43 426.5L1712.43 423.5L1702.45 423.5L1702.45 426.5ZM1722.4 426.5L1732.37 426.5L1732.37 423.5L1722.4 423.5L1722.4 426.5ZM1742.34 426.5L1752.32 426.5L1752.32 423.5L1742.34 423.5L1742.34 426.5ZM1762.29 426.5L1772.26 426.5L1772.26 423.5L1762.29 423.5L1762.29 426.5ZM1782.23 426.5L1792.21 426.5L1792.21 423.5L1782.23 423.5L1782.23 426.5ZM1802.18 426.5L1812.15 426.5L1812.15 423.5L1802.18 423.5L1802.18 426.5ZM1822.12 426.5L1832.1 426.5L1832.1 423.5L1822.12 423.5L1822.12 426.5ZM1842.07 426.5L1852.04 426.5L1852.04 423.5L1842.07 423.5L1842.07 426.5ZM1862.01 426.5L1867 426.5L1867 423.5L1862.01 423.5L1862.01 426.5Z" fill="#06584B"/>
<path d="M59.59 470C58.05 470 56.88 469.61 56.08 468.83C55.3 468.05 54.91 466.91 54.91 465.41V457.7H52.69V454.25H53.8C54.4 454.25 54.81 454.11 55.03 453.83C55.25 453.53 55.36 453.11 55.36 452.57V449.99H59.35V454.25H62.47V457.7H59.35V466.55H62.23V470H59.59ZM67.7744 452.57C66.8744 452.57 66.2144 452.37 65.7944 451.97C65.3944 451.55 65.1944 451.02 65.1944 450.38V449.72C65.1944 449.08 65.3944 448.56 65.7944 448.16C66.2144 447.74 66.8744 447.53 67.7744 447.53C68.6744 447.53 69.3244 447.74 69.7244 448.16C70.1444 448.56 70.3544 449.08 70.3544 449.72V450.38C70.3544 451.02 70.1444 451.55 69.7244 451.97C69.3244 452.37 68.6744 452.57 67.7744 452.57ZM65.5544 454.25H69.9944V470H65.5544V454.25ZM74.1384 470V454.25H78.5784V456.92H78.7584C79.0384 456.08 79.5184 455.37 80.1984 454.79C80.8784 454.19 81.8084 453.89 82.9884 453.89C84.0684 453.89 84.9884 454.16 85.7484 454.7C86.5084 455.24 87.0584 456.03 87.3984 457.07H87.4884C87.6284 456.63 87.8384 456.22 88.1184 455.84C88.4184 455.44 88.7784 455.1 89.1984 454.82C89.6184 454.54 90.0884 454.32 90.6084 454.16C91.1284 453.98 91.6884 453.89 92.2884 453.89C93.8084 453.89 94.9684 454.43 95.7684 455.51C96.5884 456.59 96.9984 458.13 96.9984 460.13V470H92.5584V460.49C92.5584 458.49 91.8384 457.49 90.3984 457.49C89.7384 457.49 89.1384 457.68 88.5984 458.06C88.0584 458.44 87.7884 459.02 87.7884 459.8V470H83.3484V460.49C83.3484 458.49 82.6284 457.49 81.1884 457.49C80.8684 457.49 80.5484 457.54 80.2284 457.64C79.9284 457.72 79.6484 457.86 79.3884 458.06C79.1484 458.26 78.9484 458.51 78.7884 458.81C78.6484 459.09 78.5784 459.42 78.5784 459.8V470H74.1384ZM107.515 470.36C106.315 470.36 105.245 470.17 104.305 469.79C103.365 469.39 102.565 468.84 101.905 468.14C101.265 467.42 100.775 466.55 100.435 465.53C100.115 464.51 99.955 463.37 99.955 462.11C99.955 460.87 100.115 459.75 100.435 458.75C100.755 457.73 101.225 456.86 101.845 456.14C102.485 455.42 103.265 454.87 104.185 454.49C105.105 454.09 106.155 453.89 107.335 453.89C108.635 453.89 109.745 454.11 110.665 454.55C111.605 454.99 112.365 455.58 112.945 456.32C113.545 457.06 113.975 457.92 114.235 458.9C114.515 459.86 114.655 460.87 114.655 461.93V463.25H104.545V463.49C104.545 464.53 104.825 465.36 105.385 465.98C105.945 466.58 106.825 466.88 108.025 466.88C108.945 466.88 109.695 466.7 110.275 466.34C110.855 465.96 111.395 465.51 111.895 464.99L114.115 467.75C113.415 468.57 112.495 469.21 111.355 469.67C110.235 470.13 108.955 470.36 107.515 470.36ZM107.425 457.16C106.525 457.16 105.815 457.46 105.295 458.06C104.795 458.64 104.545 459.42 104.545 460.4V460.64H110.065V460.37C110.065 459.41 109.845 458.64 109.405 458.06C108.985 457.46 108.325 457.16 107.425 457.16Z" fill="#06584B"/>
<rect x="349" y="81" width="1515" height="80" fill="#06584B"/>
<rect width="330" height="80" transform="translate(455 81)" fill="#FDFBF3"/>
<path d="M492.31 111.06H500.2C501.58 111.06 502.84 111.28 503.98 111.72C505.12 112.16 506.09 112.82 506.89 113.7C507.69 114.56 508.31 115.65 508.75 116.97C509.19 118.27 509.41 119.79 509.41 121.53C509.41 123.27 509.19 124.8 508.75 126.12C508.31 127.42 507.69 128.51 506.89 129.39C506.09 130.25 505.12 130.9 503.98 131.34C502.84 131.78 501.58 132 500.2 132H492.31V111.06ZM500.2 127.95C501.56 127.95 502.63 127.57 503.41 126.81C504.19 126.05 504.58 124.83 504.58 123.15V119.91C504.58 118.23 504.19 117.01 503.41 116.25C502.63 115.49 501.56 115.11 500.2 115.11H496.87V127.95H500.2ZM515.208 114.57C514.308 114.57 513.648 114.37 513.228 113.97C512.828 113.55 512.628 113.02 512.628 112.38V111.72C512.628 111.08 512.828 110.56 513.228 110.16C513.648 109.74 514.308 109.53 515.208 109.53C516.108 109.53 516.758 109.74 517.158 110.16C517.578 110.56 517.788 111.08 517.788 111.72V112.38C517.788 113.02 517.578 113.55 517.158 113.97C516.758 114.37 516.108 114.57 515.208 114.57ZM512.988 116.25H517.428V132H512.988V116.25ZM521.572 132V116.25H526.012V119.67H526.162C526.242 119.23 526.382 118.81 526.582 118.41C526.782 117.99 527.042 117.62 527.362 117.3C527.702 116.98 528.102 116.73 528.562 116.55C529.022 116.35 529.562 116.25 530.182 116.25H530.962V120.39H529.852C528.552 120.39 527.582 120.56 526.942 120.9C526.322 121.24 526.012 121.87 526.012 122.79V132H521.572ZM540.124 132.36C538.924 132.36 537.854 132.17 536.914 131.79C535.974 131.39 535.174 130.84 534.514 130.14C533.874 129.42 533.384 128.55 533.044 127.53C532.724 126.51 532.564 125.37 532.564 124.11C532.564 122.87 532.724 121.75 533.044 120.75C533.364 119.73 533.834 118.86 534.454 118.14C535.094 117.42 535.874 116.87 536.794 116.49C537.714 116.09 538.764 115.89 539.944 115.89C541.244 115.89 542.354 116.11 543.274 116.55C544.214 116.99 544.974 117.58 545.554 118.32C546.154 119.06 546.584 119.92 546.844 120.9C547.124 121.86 547.264 122.87 547.264 123.93V125.25H537.154V125.49C537.154 126.53 537.434 127.36 537.994 127.98C538.554 128.58 539.434 128.88 540.634 128.88C541.554 128.88 542.304 128.7 542.884 128.34C543.464 127.96 544.004 127.51 544.504 126.99L546.724 129.75C546.024 130.57 545.104 131.21 543.964 131.67C542.844 132.13 541.564 132.36 540.124 132.36ZM540.034 119.16C539.134 119.16 538.424 119.46 537.904 120.06C537.404 120.64 537.154 121.42 537.154 122.4V122.64H542.674V122.37C542.674 121.41 542.454 120.64 542.014 120.06C541.594 119.46 540.934 119.16 540.034 119.16ZM556.76 132.36C555.58 132.36 554.53 132.17 553.61 131.79C552.69 131.39 551.92 130.84 551.3 130.14C550.68 129.42 550.21 128.55 549.89 127.53C549.57 126.51 549.41 125.37 549.41 124.11C549.41 122.85 549.57 121.72 549.89 120.72C550.21 119.7 550.68 118.83 551.3 118.11C551.92 117.39 552.69 116.84 553.61 116.46C554.53 116.08 555.58 115.89 556.76 115.89C558.36 115.89 559.69 116.25 560.75 116.97C561.83 117.69 562.6 118.7 563.06 120L559.46 121.56C559.32 120.96 559.03 120.45 558.59 120.03C558.15 119.61 557.54 119.4 556.76 119.4C555.86 119.4 555.18 119.7 554.72 120.3C554.26 120.88 554.03 121.67 554.03 122.67V125.61C554.03 126.61 554.26 127.4 554.72 127.98C555.18 128.56 555.86 128.85 556.76 128.85C557.56 128.85 558.19 128.64 558.65 128.22C559.13 127.78 559.48 127.21 559.7 126.51L563.15 128.01C562.63 129.51 561.82 130.61 560.72 131.31C559.64 132.01 558.32 132.36 556.76 132.36ZM571.418 132C569.878 132 568.708 131.61 567.908 130.83C567.128 130.05 566.738 128.91 566.738 127.41V119.7H564.518V116.25H565.628C566.228 116.25 566.638 116.11 566.858 115.83C567.078 115.53 567.188 115.11 567.188 114.57V111.99H571.178V116.25H574.298V119.7H571.178V128.55H574.058V132H571.418ZM590.862 132.36C589.702 132.36 588.662 132.17 587.742 131.79C586.842 131.41 586.072 130.86 585.432 130.14C584.812 129.42 584.332 128.55 583.992 127.53C583.652 126.51 583.482 125.37 583.482 124.11C583.482 122.85 583.652 121.71 583.992 120.69C584.332 119.67 584.812 118.81 585.432 118.11C586.072 117.39 586.842 116.84 587.742 116.46C588.662 116.08 589.702 115.89 590.862 115.89C592.022 115.89 593.052 116.08 593.952 116.46C594.872 116.84 595.642 117.39 596.262 118.11C596.902 118.81 597.392 119.67 597.732 120.69C598.072 121.71 598.242 122.85 598.242 124.11C598.242 125.37 598.072 126.51 597.732 127.53C597.392 128.55 596.902 129.42 596.262 130.14C595.642 130.86 594.872 131.41 593.952 131.79C593.052 132.17 592.022 132.36 590.862 132.36ZM590.862 128.85C591.742 128.85 592.422 128.58 592.902 128.04C593.382 127.5 593.622 126.73 593.622 125.73V122.52C593.622 121.52 593.382 120.75 592.902 120.21C592.422 119.67 591.742 119.4 590.862 119.4C589.982 119.4 589.302 119.67 588.822 120.21C588.342 120.75 588.102 121.52 588.102 122.52V125.73C588.102 126.73 588.342 127.5 588.822 128.04C589.302 128.58 589.982 128.85 590.862 128.85ZM601.406 109.8H605.846V118.89H605.996C606.216 118.01 606.716 117.29 607.496 116.73C608.296 116.17 609.206 115.89 610.226 115.89C612.226 115.89 613.736 116.59 614.756 117.99C615.776 119.39 616.286 121.43 616.286 124.11C616.286 126.79 615.776 128.84 614.756 130.26C613.736 131.66 612.226 132.36 610.226 132.36C609.706 132.36 609.216 132.28 608.756 132.12C608.296 131.98 607.876 131.78 607.496 131.52C607.136 131.24 606.826 130.92 606.566 130.56C606.306 130.18 606.116 129.78 605.996 129.36H605.846V132H601.406V109.8ZM608.756 128.76C609.596 128.76 610.286 128.47 610.826 127.89C611.386 127.29 611.666 126.49 611.666 125.49V122.76C611.666 121.76 611.386 120.97 610.826 120.39C610.286 119.79 609.596 119.49 608.756 119.49C607.916 119.49 607.216 119.7 606.656 120.12C606.116 120.52 605.846 121.08 605.846 121.8V126.45C605.846 127.17 606.116 127.74 606.656 128.16C607.216 128.56 607.916 128.76 608.756 128.76ZM624.998 132.36C623.478 132.36 622.198 132.12 621.158 131.64C620.118 131.14 619.188 130.44 618.368 129.54L620.978 126.9C621.538 127.52 622.158 128.01 622.838 128.37C623.518 128.73 624.288 128.91 625.148 128.91C626.028 128.91 626.638 128.78 626.978 128.52C627.318 128.24 627.488 127.87 627.488 127.41C627.488 126.67 626.958 126.23 625.898 126.09L624.188 125.88C620.648 125.44 618.878 123.82 618.878 121.02C618.878 120.26 619.018 119.57 619.298 118.95C619.598 118.31 620.008 117.77 620.528 117.33C621.068 116.87 621.708 116.52 622.448 116.28C623.208 116.02 624.058 115.89 624.998 115.89C625.818 115.89 626.538 115.95 627.158 116.07C627.798 116.17 628.358 116.33 628.838 116.55C629.338 116.75 629.788 117.01 630.188 117.33C630.608 117.63 631.018 117.97 631.418 118.35L628.868 120.96C628.368 120.46 627.798 120.07 627.158 119.79C626.538 119.49 625.898 119.34 625.238 119.34C624.478 119.34 623.938 119.46 623.618 119.7C623.298 119.94 623.138 120.26 623.138 120.66C623.138 121.08 623.248 121.41 623.468 121.65C623.708 121.87 624.148 122.03 624.788 122.13L626.558 122.37C630.018 122.83 631.748 124.41 631.748 127.11C631.748 127.87 631.588 128.57 631.268 129.21C630.948 129.85 630.488 130.41 629.888 130.89C629.308 131.35 628.598 131.71 627.758 131.97C626.938 132.23 626.018 132.36 624.998 132.36ZM641.345 132.36C640.145 132.36 639.075 132.17 638.135 131.79C637.195 131.39 636.395 130.84 635.735 130.14C635.095 129.42 634.605 128.55 634.265 127.53C633.945 126.51 633.785 125.37 633.785 124.11C633.785 122.87 633.945 121.75 634.265 120.75C634.585 119.73 635.055 118.86 635.675 118.14C636.315 117.42 637.095 116.87 638.015 116.49C638.935 116.09 639.985 115.89 641.165 115.89C642.465 115.89 643.575 116.11 644.495 116.55C645.435 116.99 646.195 117.58 646.775 118.32C647.375 119.06 647.805 119.92 648.065 120.9C648.345 121.86 648.485 122.87 648.485 123.93V125.25H638.375V125.49C638.375 126.53 638.655 127.36 639.215 127.98C639.775 128.58 640.655 128.88 641.855 128.88C642.775 128.88 643.525 128.7 644.105 128.34C644.685 127.96 645.225 127.51 645.725 126.99L647.945 129.75C647.245 130.57 646.325 131.21 645.185 131.67C644.065 132.13 642.785 132.36 641.345 132.36ZM641.255 119.16C640.355 119.16 639.645 119.46 639.125 120.06C638.625 120.64 638.375 121.42 638.375 122.4V122.64H643.895V122.37C643.895 121.41 643.675 120.64 643.235 120.06C642.815 119.46 642.155 119.16 641.255 119.16ZM651.621 132V116.25H656.061V119.67H656.211C656.291 119.23 656.431 118.81 656.631 118.41C656.831 117.99 657.091 117.62 657.411 117.3C657.751 116.98 658.151 116.73 658.611 116.55C659.071 116.35 659.611 116.25 660.231 116.25H661.011V120.39H659.901C658.601 120.39 657.631 120.56 656.991 120.9C656.371 121.24 656.061 121.87 656.061 122.79V132H651.621ZM667.315 132L662.155 116.25H666.535L668.485 122.61L669.955 128.31H670.195L671.665 122.61L673.555 116.25H677.755L672.595 132H667.315ZM691.474 132C690.674 132 690.004 131.75 689.464 131.25C688.944 130.75 688.614 130.08 688.474 129.24H688.294C688.054 130.26 687.524 131.04 686.704 131.58C685.884 132.1 684.874 132.36 683.674 132.36C682.094 132.36 680.884 131.94 680.044 131.1C679.204 130.26 678.784 129.15 678.784 127.77C678.784 126.11 679.384 124.88 680.584 124.08C681.804 123.26 683.454 122.85 685.534 122.85H688.024V121.86C688.024 121.1 687.824 120.5 687.424 120.06C687.024 119.6 686.354 119.37 685.414 119.37C684.534 119.37 683.834 119.56 683.314 119.94C682.794 120.32 682.364 120.75 682.024 121.23L679.384 118.89C680.024 117.95 680.824 117.22 681.784 116.7C682.764 116.16 684.084 115.89 685.744 115.89C687.984 115.89 689.664 116.38 690.784 117.36C691.904 118.34 692.464 119.77 692.464 121.65V128.55H693.934V132H691.474ZM685.324 129.27C686.064 129.27 686.694 129.11 687.214 128.79C687.754 128.47 688.024 127.95 688.024 127.23V125.37H685.864C684.124 125.37 683.254 125.96 683.254 127.14V127.59C683.254 128.17 683.434 128.6 683.794 128.88C684.154 129.14 684.664 129.27 685.324 129.27ZM702.258 132C700.718 132 699.548 131.61 698.748 130.83C697.968 130.05 697.578 128.91 697.578 127.41V119.7H695.358V116.25H696.468C697.068 116.25 697.478 116.11 697.698 115.83C697.918 115.53 698.028 115.11 698.028 114.57V111.99H702.018V116.25H705.138V119.7H702.018V128.55H704.898V132H702.258ZM710.442 114.57C709.542 114.57 708.882 114.37 708.462 113.97C708.062 113.55 707.862 113.02 707.862 112.38V111.72C707.862 111.08 708.062 110.56 708.462 110.16C708.882 109.74 709.542 109.53 710.442 109.53C711.342 109.53 711.992 109.74 712.392 110.16C712.812 110.56 713.022 111.08 713.022 111.72V112.38C713.022 113.02 712.812 113.55 712.392 113.97C711.992 114.37 711.342 114.57 710.442 114.57ZM708.222 116.25H712.662V132H708.222V116.25ZM723.196 132.36C722.036 132.36 720.996 132.17 720.076 131.79C719.176 131.41 718.406 130.86 717.766 130.14C717.146 129.42 716.666 128.55 716.326 127.53C715.986 126.51 715.816 125.37 715.816 124.11C715.816 122.85 715.986 121.71 716.326 120.69C716.666 119.67 717.146 118.81 717.766 118.11C718.406 117.39 719.176 116.84 720.076 116.46C720.996 116.08 722.036 115.89 723.196 115.89C724.356 115.89 725.386 116.08 726.286 116.46C727.206 116.84 727.976 117.39 728.596 118.11C729.236 118.81 729.726 119.67 730.066 120.69C730.406 121.71 730.576 122.85 730.576 124.11C730.576 125.37 730.406 126.51 730.066 127.53C729.726 128.55 729.236 129.42 728.596 130.14C727.976 130.86 727.206 131.41 726.286 131.79C725.386 132.17 724.356 132.36 723.196 132.36ZM723.196 128.85C724.076 128.85 724.756 128.58 725.236 128.04C725.716 127.5 725.956 126.73 725.956 125.73V122.52C725.956 121.52 725.716 120.75 725.236 120.21C724.756 119.67 724.076 119.4 723.196 119.4C722.316 119.4 721.636 119.67 721.156 120.21C720.676 120.75 720.436 121.52 720.436 122.52V125.73C720.436 126.73 720.676 127.5 721.156 128.04C721.636 128.58 722.316 128.85 723.196 128.85ZM733.74 132V116.25H738.18V118.92H738.36C738.64 118.1 739.13 117.39 739.83 116.79C740.53 116.19 741.5 115.89 742.74 115.89C744.36 115.89 745.58 116.43 746.4 117.51C747.24 118.59 747.66 120.13 747.66 122.13V132H743.22V122.49C743.22 121.47 743.06 120.72 742.74 120.24C742.42 119.74 741.85 119.49 741.03 119.49C740.67 119.49 740.32 119.54 739.98 119.64C739.64 119.72 739.33 119.86 739.05 120.06C738.79 120.26 738.58 120.51 738.42 120.81C738.26 121.09 738.18 121.42 738.18 121.8V132H733.74Z" fill="#06584B"/>
<rect width="256" height="80" transform="translate(1608 81)" fill="#FDFBF3"/>
<path d="M1658.21 132L1656.71 127.02H1649.72L1648.22 132H1643.6L1650.5 111.06H1656.14L1662.95 132H1658.21ZM1653.26 115.2H1653.11L1650.8 123.15H1655.6L1653.26 115.2ZM1675.27 129.36H1675.12C1675 129.78 1674.81 130.18 1674.55 130.56C1674.29 130.92 1673.97 131.24 1673.59 131.52C1673.23 131.78 1672.81 131.98 1672.33 132.12C1671.87 132.28 1671.39 132.36 1670.89 132.36C1668.89 132.36 1667.38 131.66 1666.36 130.26C1665.34 128.84 1664.83 126.79 1664.83 124.11C1664.83 121.43 1665.34 119.39 1666.36 117.99C1667.38 116.59 1668.89 115.89 1670.89 115.89C1671.91 115.89 1672.81 116.17 1673.59 116.73C1674.39 117.29 1674.9 118.01 1675.12 118.89H1675.27V109.8H1679.71V132H1675.27V129.36ZM1672.36 128.76C1673.2 128.76 1673.89 128.56 1674.43 128.16C1674.99 127.74 1675.27 127.17 1675.27 126.45V121.8C1675.27 121.08 1674.99 120.52 1674.43 120.12C1673.89 119.7 1673.2 119.49 1672.36 119.49C1671.52 119.49 1670.82 119.79 1670.26 120.39C1669.72 120.97 1669.45 121.76 1669.45 122.76V125.49C1669.45 126.49 1669.72 127.29 1670.26 127.89C1670.82 128.47 1671.52 128.76 1672.36 128.76ZM1693.52 129.36H1693.37C1693.25 129.78 1693.06 130.18 1692.8 130.56C1692.54 130.92 1692.22 131.24 1691.84 131.52C1691.48 131.78 1691.06 131.98 1690.58 132.12C1690.12 132.28 1689.64 132.36 1689.14 132.36C1687.14 132.36 1685.63 131.66 1684.61 130.26C1683.59 128.84 1683.08 126.79 1683.08 124.11C1683.08 121.43 1683.59 119.39 1684.61 117.99C1685.63 116.59 1687.14 115.89 1689.14 115.89C1690.16 115.89 1691.06 116.17 1691.84 116.73C1692.64 117.29 1693.15 118.01 1693.37 118.89H1693.52V109.8H1697.96V132H1693.52V129.36ZM1690.61 128.76C1691.45 128.76 1692.14 128.56 1692.68 128.16C1693.24 127.74 1693.52 127.17 1693.52 126.45V121.8C1693.52 121.08 1693.24 120.52 1692.68 120.12C1692.14 119.7 1691.45 119.49 1690.61 119.49C1689.77 119.49 1689.07 119.79 1688.51 120.39C1687.97 120.97 1687.7 121.76 1687.7 122.76V125.49C1687.7 126.49 1687.97 127.29 1688.51 127.89C1689.07 128.47 1689.77 128.76 1690.61 128.76ZM1704.33 114.57C1703.43 114.57 1702.77 114.37 1702.35 113.97C1701.95 113.55 1701.75 113.02 1701.75 112.38V111.72C1701.75 111.08 1701.95 110.56 1702.35 110.16C1702.77 109.74 1703.43 109.53 1704.33 109.53C1705.23 109.53 1705.88 109.74 1706.28 110.16C1706.7 110.56 1706.91 111.08 1706.91 111.72V112.38C1706.91 113.02 1706.7 113.55 1706.28 113.97C1705.88 114.37 1705.23 114.57 1704.33 114.57ZM1702.11 116.25H1706.55V132H1702.11V116.25ZM1710.7 132V116.25H1715.14V118.92H1715.32C1715.6 118.1 1716.09 117.39 1716.79 116.79C1717.49 116.19 1718.46 115.89 1719.7 115.89C1721.32 115.89 1722.54 116.43 1723.36 117.51C1724.2 118.59 1724.62 120.13 1724.62 122.13V132H1720.18V122.49C1720.18 121.47 1720.02 120.72 1719.7 120.24C1719.38 119.74 1718.81 119.49 1717.99 119.49C1717.63 119.49 1717.28 119.54 1716.94 119.64C1716.6 119.72 1716.29 119.86 1716.01 120.06C1715.75 120.26 1715.54 120.51 1715.38 120.81C1715.22 121.09 1715.14 121.42 1715.14 121.8V132H1710.7ZM1743.15 133.14C1743.15 133.98 1743 134.72 1742.7 135.36C1742.42 136 1741.95 136.54 1741.29 136.98C1740.63 137.44 1739.75 137.78 1738.65 138C1737.57 138.24 1736.23 138.36 1734.63 138.36C1733.27 138.36 1732.11 138.27 1731.15 138.09C1730.21 137.93 1729.44 137.69 1728.84 137.37C1728.26 137.07 1727.83 136.69 1727.55 136.23C1727.29 135.79 1727.16 135.28 1727.16 134.7C1727.16 133.82 1727.42 133.13 1727.94 132.63C1728.46 132.13 1729.18 131.82 1730.1 131.7V131.37C1729.34 131.23 1728.77 130.91 1728.39 130.41C1728.01 129.89 1727.82 129.29 1727.82 128.61C1727.82 128.19 1727.9 127.83 1728.06 127.53C1728.24 127.21 1728.46 126.94 1728.72 126.72C1729 126.48 1729.32 126.29 1729.68 126.15C1730.04 126.01 1730.4 125.9 1730.76 125.82V125.7C1729.8 125.26 1729.09 124.66 1728.63 123.9C1728.17 123.12 1727.94 122.22 1727.94 121.2C1727.94 119.6 1728.49 118.32 1729.59 117.36C1730.71 116.38 1732.41 115.89 1734.69 115.89C1735.73 115.89 1736.62 115.99 1737.36 116.19V115.59C1737.36 114.75 1737.56 114.15 1737.96 113.79C1738.38 113.41 1738.97 113.22 1739.73 113.22H1742.22V116.52H1738.74V116.7C1739.66 117.14 1740.34 117.75 1740.78 118.53C1741.22 119.29 1741.44 120.18 1741.44 121.2C1741.44 122.78 1740.88 124.05 1739.76 125.01C1738.66 125.95 1736.97 126.42 1734.69 126.42C1733.67 126.42 1732.74 126.31 1731.9 126.09C1731.44 126.39 1731.21 126.81 1731.21 127.35C1731.21 127.73 1731.35 128.03 1731.63 128.25C1731.93 128.45 1732.42 128.55 1733.1 128.55H1737.66C1739.58 128.55 1740.97 128.95 1741.83 129.75C1742.71 130.55 1743.15 131.68 1743.15 133.14ZM1738.98 133.74C1738.98 133.28 1738.8 132.93 1738.44 132.69C1738.08 132.45 1737.45 132.33 1736.55 132.33H1731.15C1730.95 132.53 1730.8 132.75 1730.7 132.99C1730.62 133.25 1730.58 133.5 1730.58 133.74C1730.58 134.32 1730.83 134.74 1731.33 135C1731.83 135.28 1732.68 135.42 1733.88 135.42H1735.68C1736.88 135.42 1737.73 135.28 1738.23 135C1738.73 134.74 1738.98 134.32 1738.98 133.74ZM1734.69 123.51C1735.57 123.51 1736.22 123.33 1736.64 122.97C1737.08 122.59 1737.3 122.05 1737.3 121.35V120.99C1737.3 120.29 1737.08 119.76 1736.64 119.4C1736.22 119.02 1735.57 118.83 1734.69 118.83C1733.81 118.83 1733.15 119.02 1732.71 119.4C1732.29 119.76 1732.08 120.29 1732.08 120.99V121.35C1732.08 122.05 1732.29 122.59 1732.71 122.97C1733.15 123.33 1733.81 123.51 1734.69 123.51ZM1752.21 132V116.25H1756.65V118.92H1756.83C1757.11 118.1 1757.6 117.39 1758.3 116.79C1759 116.19 1759.97 115.89 1761.21 115.89C1762.83 115.89 1764.05 116.43 1764.87 117.51C1765.71 118.59 1766.13 120.13 1766.13 122.13V132H1761.69V122.49C1761.69 121.47 1761.53 120.72 1761.21 120.24C1760.89 119.74 1760.32 119.49 1759.5 119.49C1759.14 119.49 1758.79 119.54 1758.45 119.64C1758.11 119.72 1757.8 119.86 1757.52 120.06C1757.26 120.26 1757.05 120.51 1756.89 120.81C1756.73 121.09 1756.65 121.42 1756.65 121.8V132H1752.21ZM1776.47 132.36C1775.31 132.36 1774.27 132.17 1773.35 131.79C1772.45 131.41 1771.68 130.86 1771.04 130.14C1770.42 129.42 1769.94 128.55 1769.6 127.53C1769.26 126.51 1769.09 125.37 1769.09 124.11C1769.09 122.85 1769.26 121.71 1769.6 120.69C1769.94 119.67 1770.42 118.81 1771.04 118.11C1771.68 117.39 1772.45 116.84 1773.35 116.46C1774.27 116.08 1775.31 115.89 1776.47 115.89C1777.63 115.89 1778.66 116.08 1779.56 116.46C1780.48 116.84 1781.25 117.39 1781.87 118.11C1782.51 118.81 1783 119.67 1783.34 120.69C1783.68 121.71 1783.85 122.85 1783.85 124.11C1783.85 125.37 1783.68 126.51 1783.34 127.53C1783 128.55 1782.51 129.42 1781.87 130.14C1781.25 130.86 1780.48 131.41 1779.56 131.79C1778.66 132.17 1777.63 132.36 1776.47 132.36ZM1776.47 128.85C1777.35 128.85 1778.03 128.58 1778.51 128.04C1778.99 127.5 1779.23 126.73 1779.23 125.73V122.52C1779.23 121.52 1778.99 120.75 1778.51 120.21C1778.03 119.67 1777.35 119.4 1776.47 119.4C1775.59 119.4 1774.91 119.67 1774.43 120.21C1773.95 120.75 1773.71 121.52 1773.71 122.52V125.73C1773.71 126.73 1773.95 127.5 1774.43 128.04C1774.91 128.58 1775.59 128.85 1776.47 128.85ZM1792.36 132C1790.82 132 1789.65 131.61 1788.85 130.83C1788.07 130.05 1787.68 128.91 1787.68 127.41V119.7H1785.46V116.25H1786.57C1787.17 116.25 1787.58 116.11 1787.8 115.83C1788.02 115.53 1788.13 115.11 1788.13 114.57V111.99H1792.12V116.25H1795.24V119.7H1792.12V128.55H1795V132H1792.36ZM1804.77 132.36C1803.57 132.36 1802.5 132.17 1801.56 131.79C1800.62 131.39 1799.82 130.84 1799.16 130.14C1798.52 129.42 1798.03 128.55 1797.69 127.53C1797.37 126.51 1797.21 125.37 1797.21 124.11C1797.21 122.87 1797.37 121.75 1797.69 120.75C1798.01 119.73 1798.48 118.86 1799.1 118.14C1799.74 117.42 1800.52 116.87 1801.44 116.49C1802.36 116.09 1803.41 115.89 1804.59 115.89C1805.89 115.89 1807 116.11 1807.92 116.55C1808.86 116.99 1809.62 117.58 1810.2 118.32C1810.8 119.06 1811.23 119.92 1811.49 120.9C1811.77 121.86 1811.91 122.87 1811.91 123.93V125.25H1801.8V125.49C1801.8 126.53 1802.08 127.36 1802.64 127.98C1803.2 128.58 1804.08 128.88 1805.28 128.88C1806.2 128.88 1806.95 128.7 1807.53 128.34C1808.11 127.96 1808.65 127.51 1809.15 126.99L1811.37 129.75C1810.67 130.57 1809.75 131.21 1808.61 131.67C1807.49 132.13 1806.21 132.36 1804.77 132.36ZM1804.68 119.16C1803.78 119.16 1803.07 119.46 1802.55 120.06C1802.05 120.64 1801.8 121.42 1801.8 122.4V122.64H1807.32V122.37C1807.32 121.41 1807.1 120.64 1806.66 120.06C1806.24 119.46 1805.58 119.16 1804.68 119.16ZM1820.39 132.36C1818.87 132.36 1817.59 132.12 1816.55 131.64C1815.51 131.14 1814.58 130.44 1813.76 129.54L1816.37 126.9C1816.93 127.52 1817.55 128.01 1818.23 128.37C1818.91 128.73 1819.68 128.91 1820.54 128.91C1821.42 128.91 1822.03 128.78 1822.37 128.52C1822.71 128.24 1822.88 127.87 1822.88 127.41C1822.88 126.67 1822.35 126.23 1821.29 126.09L1819.58 125.88C1816.04 125.44 1814.27 123.82 1814.27 121.02C1814.27 120.26 1814.41 119.57 1814.69 118.95C1814.99 118.31 1815.4 117.77 1815.92 117.33C1816.46 116.87 1817.1 116.52 1817.84 116.28C1818.6 116.02 1819.45 115.89 1820.39 115.89C1821.21 115.89 1821.93 115.95 1822.55 116.07C1823.19 116.17 1823.75 116.33 1824.23 116.55C1824.73 116.75 1825.18 117.01 1825.58 117.33C1826 117.63 1826.41 117.97 1826.81 118.35L1824.26 120.96C1823.76 120.46 1823.19 120.07 1822.55 119.79C1821.93 119.49 1821.29 119.34 1820.63 119.34C1819.87 119.34 1819.33 119.46 1819.01 119.7C1818.69 119.94 1818.53 120.26 1818.53 120.66C1818.53 121.08 1818.64 121.41 1818.86 121.65C1819.1 121.87 1819.54 122.03 1820.18 122.13L1821.95 122.37C1825.41 122.83 1827.14 124.41 1827.14 127.11C1827.14 127.87 1826.98 128.57 1826.66 129.21C1826.34 129.85 1825.88 130.41 1825.28 130.89C1824.7 131.35 1823.99 131.71 1823.15 131.97C1822.33 132.23 1821.41 132.36 1820.39 132.36Z" fill="#06584B"/>
<rect width="230" height="80" transform="translate(52 81)" fill="#FDFBF3"/>
<path d="M93.87 132H89.31V111.06H99.24C100.2 111.06 101.07 111.22 101.85 111.54C102.63 111.86 103.29 112.32 103.83 112.92C104.39 113.5 104.82 114.2 105.12 115.02C105.42 115.84 105.57 116.75 105.57 117.75C105.57 119.17 105.25 120.41 104.61 121.47C103.99 122.53 103.04 123.3 101.76 123.78L105.87 132H100.8L97.14 124.32H93.87V132ZM98.67 120.48C99.35 120.48 99.88 120.31 100.26 119.97C100.66 119.61 100.86 119.09 100.86 118.41V117.09C100.86 116.41 100.66 115.9 100.26 115.56C99.88 115.2 99.35 115.02 98.67 115.02H93.87V120.48H98.67ZM115.415 132.36C114.215 132.36 113.145 132.17 112.205 131.79C111.265 131.39 110.465 130.84 109.805 130.14C109.165 129.42 108.675 128.55 108.335 127.53C108.015 126.51 107.855 125.37 107.855 124.11C107.855 122.87 108.015 121.75 108.335 120.75C108.655 119.73 109.125 118.86 109.745 118.14C110.385 117.42 111.165 116.87 112.085 116.49C113.005 116.09 114.055 115.89 115.235 115.89C116.535 115.89 117.645 116.11 118.565 116.55C119.505 116.99 120.265 117.58 120.845 118.32C121.445 119.06 121.875 119.92 122.135 120.9C122.415 121.86 122.555 122.87 122.555 123.93V125.25H112.445V125.49C112.445 126.53 112.725 127.36 113.285 127.98C113.845 128.58 114.725 128.88 115.925 128.88C116.845 128.88 117.595 128.7 118.175 128.34C118.755 127.96 119.295 127.51 119.795 126.99L122.015 129.75C121.315 130.57 120.395 131.21 119.255 131.67C118.135 132.13 116.855 132.36 115.415 132.36ZM115.325 119.16C114.425 119.16 113.715 119.46 113.195 120.06C112.695 120.64 112.445 121.42 112.445 122.4V122.64H117.965V122.37C117.965 121.41 117.745 120.64 117.305 120.06C116.885 119.46 116.225 119.16 115.325 119.16ZM131.031 132.36C129.511 132.36 128.231 132.12 127.191 131.64C126.151 131.14 125.221 130.44 124.401 129.54L127.011 126.9C127.571 127.52 128.191 128.01 128.871 128.37C129.551 128.73 130.321 128.91 131.181 128.91C132.061 128.91 132.671 128.78 133.011 128.52C133.351 128.24 133.521 127.87 133.521 127.41C133.521 126.67 132.991 126.23 131.931 126.09L130.221 125.88C126.681 125.44 124.911 123.82 124.911 121.02C124.911 120.26 125.051 119.57 125.331 118.95C125.631 118.31 126.041 117.77 126.561 117.33C127.101 116.87 127.741 116.52 128.481 116.28C129.241 116.02 130.091 115.89 131.031 115.89C131.851 115.89 132.571 115.95 133.191 116.07C133.831 116.17 134.391 116.33 134.871 116.55C135.371 116.75 135.821 117.01 136.221 117.33C136.641 117.63 137.051 117.97 137.451 118.35L134.901 120.96C134.401 120.46 133.831 120.07 133.191 119.79C132.571 119.49 131.931 119.34 131.271 119.34C130.511 119.34 129.971 119.46 129.651 119.7C129.331 119.94 129.171 120.26 129.171 120.66C129.171 121.08 129.281 121.41 129.501 121.65C129.741 121.87 130.181 122.03 130.821 122.13L132.591 122.37C136.051 122.83 137.781 124.41 137.781 127.11C137.781 127.87 137.621 128.57 137.301 129.21C136.981 129.85 136.521 130.41 135.921 130.89C135.341 131.35 134.631 131.71 133.791 131.97C132.971 132.23 132.051 132.36 131.031 132.36ZM147.378 132.36C146.178 132.36 145.108 132.17 144.168 131.79C143.228 131.39 142.428 130.84 141.768 130.14C141.128 129.42 140.638 128.55 140.298 127.53C139.978 126.51 139.818 125.37 139.818 124.11C139.818 122.87 139.978 121.75 140.298 120.75C140.618 119.73 141.088 118.86 141.708 118.14C142.348 117.42 143.128 116.87 144.048 116.49C144.968 116.09 146.018 115.89 147.198 115.89C148.498 115.89 149.608 116.11 150.528 116.55C151.468 116.99 152.228 117.58 152.808 118.32C153.408 119.06 153.838 119.92 154.098 120.9C154.378 121.86 154.518 122.87 154.518 123.93V125.25H144.408V125.49C144.408 126.53 144.688 127.36 145.248 127.98C145.808 128.58 146.688 128.88 147.888 128.88C148.808 128.88 149.558 128.7 150.138 128.34C150.718 127.96 151.258 127.51 151.758 126.99L153.978 129.75C153.278 130.57 152.358 131.21 151.218 131.67C150.098 132.13 148.818 132.36 147.378 132.36ZM147.288 119.16C146.388 119.16 145.678 119.46 145.158 120.06C144.658 120.64 144.408 121.42 144.408 122.4V122.64H149.928V122.37C149.928 121.41 149.708 120.64 149.268 120.06C148.848 119.46 148.188 119.16 147.288 119.16ZM169.294 132C168.494 132 167.824 131.75 167.284 131.25C166.764 130.75 166.434 130.08 166.294 129.24H166.114C165.874 130.26 165.344 131.04 164.524 131.58C163.704 132.1 162.694 132.36 161.494 132.36C159.914 132.36 158.704 131.94 157.864 131.1C157.024 130.26 156.604 129.15 156.604 127.77C156.604 126.11 157.204 124.88 158.404 124.08C159.624 123.26 161.274 122.85 163.354 122.85H165.844V121.86C165.844 121.1 165.644 120.5 165.244 120.06C164.844 119.6 164.174 119.37 163.234 119.37C162.354 119.37 161.654 119.56 161.134 119.94C160.614 120.32 160.184 120.75 159.844 121.23L157.204 118.89C157.844 117.95 158.644 117.22 159.604 116.7C160.584 116.16 161.904 115.89 163.564 115.89C165.804 115.89 167.484 116.38 168.604 117.36C169.724 118.34 170.284 119.77 170.284 121.65V128.55H171.754V132H169.294ZM163.144 129.27C163.884 129.27 164.514 129.11 165.034 128.79C165.574 128.47 165.844 127.95 165.844 127.23V125.37H163.684C161.944 125.37 161.074 125.96 161.074 127.14V127.59C161.074 128.17 161.254 128.6 161.614 128.88C161.974 129.14 162.484 129.27 163.144 129.27ZM174.734 132V116.25H179.174V119.67H179.324C179.404 119.23 179.544 118.81 179.744 118.41C179.944 117.99 180.204 117.62 180.524 117.3C180.864 116.98 181.264 116.73 181.724 116.55C182.184 116.35 182.724 116.25 183.344 116.25H184.124V120.39H183.014C181.714 120.39 180.744 120.56 180.104 120.9C179.484 121.24 179.174 121.87 179.174 122.79V132H174.734ZM193.076 132.36C191.896 132.36 190.846 132.17 189.926 131.79C189.006 131.39 188.236 130.84 187.616 130.14C186.996 129.42 186.526 128.55 186.206 127.53C185.886 126.51 185.726 125.37 185.726 124.11C185.726 122.85 185.886 121.72 186.206 120.72C186.526 119.7 186.996 118.83 187.616 118.11C188.236 117.39 189.006 116.84 189.926 116.46C190.846 116.08 191.896 115.89 193.076 115.89C194.676 115.89 196.006 116.25 197.066 116.97C198.146 117.69 198.916 118.7 199.376 120L195.776 121.56C195.636 120.96 195.346 120.45 194.906 120.03C194.466 119.61 193.856 119.4 193.076 119.4C192.176 119.4 191.496 119.7 191.036 120.3C190.576 120.88 190.346 121.67 190.346 122.67V125.61C190.346 126.61 190.576 127.4 191.036 127.98C191.496 128.56 192.176 128.85 193.076 128.85C193.876 128.85 194.506 128.64 194.966 128.22C195.446 127.78 195.796 127.21 196.016 126.51L199.466 128.01C198.946 129.51 198.136 130.61 197.036 131.31C195.956 132.01 194.636 132.36 193.076 132.36ZM202.215 109.8H206.655V118.92H206.835C207.115 118.1 207.605 117.39 208.305 116.79C209.005 116.19 209.975 115.89 211.215 115.89C212.835 115.89 214.055 116.43 214.875 117.51C215.715 118.59 216.135 120.13 216.135 122.13V132H211.695V122.49C211.695 121.47 211.535 120.72 211.215 120.24C210.895 119.74 210.325 119.49 209.505 119.49C209.145 119.49 208.795 119.54 208.455 119.64C208.115 119.72 207.805 119.86 207.525 120.06C207.265 120.26 207.055 120.51 206.895 120.81C206.735 121.09 206.655 121.42 206.655 121.8V132H202.215V109.8ZM226.656 132.36C225.456 132.36 224.386 132.17 223.446 131.79C222.506 131.39 221.706 130.84 221.046 130.14C220.406 129.42 219.916 128.55 219.576 127.53C219.256 126.51 219.096 125.37 219.096 124.11C219.096 122.87 219.256 121.75 219.576 120.75C219.896 119.73 220.366 118.86 220.986 118.14C221.626 117.42 222.406 116.87 223.326 116.49C224.246 116.09 225.296 115.89 226.476 115.89C227.776 115.89 228.886 116.11 229.806 116.55C230.746 116.99 231.506 117.58 232.086 118.32C232.686 119.06 233.116 119.92 233.376 120.9C233.656 121.86 233.796 122.87 233.796 123.93V125.25H223.686V125.49C223.686 126.53 223.966 127.36 224.526 127.98C225.086 128.58 225.966 128.88 227.166 128.88C228.086 128.88 228.836 128.7 229.416 128.34C229.996 127.96 230.536 127.51 231.036 126.99L233.256 129.75C232.556 130.57 231.636 131.21 230.496 131.67C229.376 132.13 228.096 132.36 226.656 132.36ZM226.566 119.16C225.666 119.16 224.956 119.46 224.436 120.06C223.936 120.64 223.686 121.42 223.686 122.4V122.64H229.206V122.37C229.206 121.41 228.986 120.64 228.546 120.06C228.126 119.46 227.466 119.16 226.566 119.16ZM236.931 132V116.25H241.371V119.67H241.521C241.601 119.23 241.741 118.81 241.941 118.41C242.141 117.99 242.401 117.62 242.721 117.3C243.061 116.98 243.461 116.73 243.921 116.55C244.381 116.35 244.921 116.25 245.541 116.25H246.321V120.39H245.211C243.911 120.39 242.941 120.56 242.301 120.9C241.681 121.24 241.371 121.87 241.371 122.79V132H236.931Z" fill="#06584B"/>
<path d="M1738.5 161C1738.5 160.172 1737.83 159.5 1737 159.5C1736.17 159.5 1735.5 160.172 1735.5 161L1738.5 161ZM1735.94 238.061C1736.53 238.646 1737.47 238.646 1738.06 238.061L1747.61 228.515C1748.19 227.929 1748.19 226.979 1747.61 226.393C1747.02 225.808 1746.07 225.808 1745.49 226.393L1737 234.879L1728.51 226.393C1727.93 225.808 1726.98 225.808 1726.39 226.393C1725.81 226.979 1725.81 227.929 1726.39 228.515L1735.94 238.061ZM1735.5 161L1735.5 165.75L1738.5 165.75L1738.5 161L1735.5 161ZM1735.5 175.25L1735.5 184.75L1738.5 184.75L1738.5 175.25L1735.5 175.25ZM1735.5 194.25L1735.5 203.75L1738.5 203.75L1738.5 194.25L1735.5 194.25ZM1735.5 213.25L1735.5 222.75L1738.5 222.75L1738.5 213.25L1735.5 213.25ZM1735.5 232.25L1735.5 237L1738.5 237L1738.5 232.25L1735.5 232.25Z" fill="#06584B"/>
</svg>
