<svg width="1265" height="1080" viewBox="0 0 1265 1080" fill="none" xmlns="http://www.w3.org/2000/svg">
<rect width="1265" height="1080" fill="#FAFFE3"/>
<path d="M504 237V828" stroke="#D8DF69" stroke-width="3"/>
<path d="M771 237V828" stroke="#D8DF69" stroke-width="3"/>
<circle opacity="0.4" cx="263.5" cy="531.5" r="172.5" fill="#D8DF69"/>
<circle opacity="0.4" cx="1002.5" cy="531.5" r="172.5" fill="#D8DF69"/>
<mask id="path-5-outside-1_2651_133" maskUnits="userSpaceOnUse" x="960" y="474" width="85" height="116" fill="black">
<rect fill="white" x="960" y="474" width="85" height="116"/>
<path d="M964.712 525.462C964.959 525.462 965.206 525.437 965.453 525.387C965.654 525.347 965.876 525.304 966.105 525.259V528.224C966.105 530.083 967.635 531.596 969.516 531.596H971.474V537.294C971.474 540.47 972.625 543.507 974.682 545.887H972.849C970.841 545.887 969.207 547.502 969.207 549.488V550.182C969.207 552.168 970.841 553.783 972.849 553.783H984.524V562.9H981.531C979.523 562.9 977.889 564.515 977.889 566.501V567.196C977.889 569.182 979.523 570.797 981.531 570.797H989.488L994.931 578.141L991.314 587.779C991.209 588.057 991.25 588.367 991.421 588.611C991.593 588.855 991.872 589 992.172 589H1012.82C1013.12 589 1013.4 588.855 1013.57 588.611C1013.74 588.367 1013.78 588.057 1013.68 587.779L1010.06 578.141L1015.5 570.797H1023.46C1025.47 570.797 1027.1 569.182 1027.1 567.196V566.501C1027.1 564.515 1025.47 562.9 1023.46 562.9H1020.47V553.783H1032.14C1034.15 553.783 1035.79 552.168 1035.79 550.182V549.488C1035.79 547.502 1034.15 545.887 1032.14 545.887H1030.32C1032.37 543.507 1033.53 540.47 1033.53 537.294V531.596H1035.48C1037.36 531.596 1038.89 530.083 1038.89 528.224V525.259C1039.12 525.304 1039.34 525.347 1039.54 525.387C1040.98 525.677 1042.46 525.1 1043.32 523.908C1044.39 522.422 1044.18 520.359 1042.83 519.111L1039.57 516.078C1039.68 512.782 1040.24 492.17 1036.71 486.327C1034.26 482.258 1026.92 479.497 1022.77 478.212C1016.28 476.201 1008.7 475 1002.5 475H1002.5C996.304 475 988.726 476.201 982.229 478.212C978.077 479.497 970.745 482.261 968.29 486.327C964.764 492.17 965.318 512.782 965.43 516.078L962.165 519.111C960.82 520.359 960.612 522.422 961.685 523.917C962.39 524.899 963.524 525.462 964.714 525.462H964.712ZM973.307 537.296V531.599H977.674V537.296C977.674 539.363 978.582 541.327 980.168 542.677L983.931 545.887H977.251C974.746 543.718 973.309 540.592 973.309 537.294L973.307 537.296ZM1010.4 545.887V544.012C1010.4 541.684 1008.49 539.791 1006.13 539.791H999.646V531.599H1025.5V537.296C1025.5 538.839 1024.83 540.3 1023.65 541.306L1018.28 545.887H1010.41H1010.4ZM999.644 541.6H1006.13C1007.47 541.6 1008.57 542.682 1008.57 544.012V545.887H999.641V541.598L999.644 541.6ZM997.813 545.887H994.309V531.596H997.813V545.887ZM992.478 539.067C990.801 538.117 989.735 536.351 989.735 534.372V531.599H992.478V539.067ZM992.478 541.076V545.887H986.731L984.341 543.846V531.596H987.905V534.369C987.905 537.355 989.719 539.979 992.478 541.073V541.076ZM982.511 542.288L981.362 541.309C980.182 540.302 979.504 538.839 979.504 537.298V531.601H982.511V542.29V542.288ZM986.359 553.785H992.478V562.903H986.359V553.785ZM1003.42 562.9V553.783H1010.69V562.9H1003.42ZM1001.59 562.9H994.309V553.783H1001.59V562.9ZM991.76 570.797H996.04L999.353 577.094H996.427L991.76 570.797ZM1003.43 578.903L1005.59 587.188H999.406L1001.57 578.903H1003.43ZM1001.42 577.094L998.104 570.797H1006.9L1003.58 577.094H1001.42ZM996.601 578.903H999.68L997.516 587.188H993.49L996.599 578.903H996.601ZM1011.51 587.188H1007.48L1005.32 578.903H1008.4L1011.51 587.188H1011.51ZM1008.57 577.094H1005.65L1008.96 570.797H1013.24L1008.57 577.094ZM1025.28 566.504V567.198C1025.28 568.186 1024.47 568.989 1023.47 568.989H981.536C980.536 568.989 979.724 568.186 979.724 567.198V566.504C979.724 565.515 980.536 564.712 981.536 564.712H1023.47C1024.47 564.712 1025.28 565.515 1025.28 566.504ZM1018.64 562.9H1012.52V553.783H1018.64V562.9ZM1033.96 549.49V550.184C1033.96 551.173 1033.15 551.976 1032.15 551.976H972.854C971.854 551.976 971.042 551.173 971.042 550.184V549.49C971.042 548.501 971.854 547.698 972.854 547.698H1032.15C1033.15 547.698 1033.96 548.501 1033.96 549.49ZM1031.7 537.296C1031.7 540.592 1030.26 543.718 1027.76 545.889H1021.08L1024.84 542.677C1026.42 541.327 1027.33 539.363 1027.33 537.296V531.599H1031.7V537.296ZM1037.07 528.226C1037.07 529.088 1036.36 529.789 1035.49 529.789H969.518C968.647 529.789 967.937 529.088 967.937 528.226V524.917C974.325 523.763 986.844 521.956 1002.5 521.956C1018.16 521.956 1030.68 523.766 1037.07 524.919V528.226ZM963.417 520.429L966.983 517.116C967.176 516.937 967.281 516.684 967.272 516.421C967.263 516.188 966.379 493.02 969.859 487.257C973.353 481.469 990.573 476.809 1002.5 476.809C1014.43 476.809 1031.65 481.469 1035.14 487.255C1038.62 493.016 1037.74 516.186 1037.73 516.419C1037.72 516.682 1037.82 516.935 1038.02 517.114L1041.59 520.427C1042.27 521.061 1042.37 522.105 1041.83 522.868C1041.4 523.467 1040.65 523.761 1039.92 523.614C1034.73 522.571 1020.71 520.144 1002.5 520.144C984.297 520.144 970.276 522.571 965.091 523.614C964.359 523.761 963.609 523.469 963.172 522.861C962.632 522.108 962.737 521.063 963.419 520.429H963.417ZM971.513 515.795C973.895 507.605 974.512 499.032 973.346 490.317C973.279 489.822 973.632 489.367 974.133 489.302C974.634 489.236 975.094 489.584 975.16 490.08C976.359 499.044 975.723 507.863 973.27 516.295C973.156 516.691 972.79 516.951 972.392 516.951C972.307 516.951 972.222 516.939 972.138 516.915C971.653 516.777 971.371 516.274 971.511 515.795H971.513ZM976.009 517.073C975.908 516.584 976.228 516.105 976.722 516.005C976.775 515.994 982.037 514.947 989.566 514.255C990.069 514.209 990.515 514.573 990.561 515.071C990.607 515.569 990.239 516.01 989.735 516.055C982.314 516.738 977.139 517.767 977.086 517.776C977.024 517.788 976.963 517.794 976.903 517.794C976.478 517.794 976.096 517.498 976.006 517.068L976.009 517.073ZM1019.02 515.535C1019.08 515.039 1019.54 514.687 1020.04 514.748C1025.02 515.356 1028.25 515.998 1028.28 516.005C1028.78 516.105 1029.09 516.582 1028.99 517.073C1028.9 517.503 1028.52 517.799 1028.1 517.799C1028.04 517.799 1027.98 517.792 1027.91 517.781C1027.88 517.774 1024.72 517.143 1019.82 516.546C1019.32 516.485 1018.96 516.032 1019.02 515.537V515.535Z"/>
</mask>
<path d="M964.712 525.462C964.959 525.462 965.206 525.437 965.453 525.387C965.654 525.347 965.876 525.304 966.105 525.259V528.224C966.105 530.083 967.635 531.596 969.516 531.596H971.474V537.294C971.474 540.47 972.625 543.507 974.682 545.887H972.849C970.841 545.887 969.207 547.502 969.207 549.488V550.182C969.207 552.168 970.841 553.783 972.849 553.783H984.524V562.9H981.531C979.523 562.9 977.889 564.515 977.889 566.501V567.196C977.889 569.182 979.523 570.797 981.531 570.797H989.488L994.931 578.141L991.314 587.779C991.209 588.057 991.25 588.367 991.421 588.611C991.593 588.855 991.872 589 992.172 589H1012.82C1013.12 589 1013.4 588.855 1013.57 588.611C1013.74 588.367 1013.78 588.057 1013.68 587.779L1010.06 578.141L1015.5 570.797H1023.46C1025.47 570.797 1027.1 569.182 1027.1 567.196V566.501C1027.1 564.515 1025.47 562.9 1023.46 562.9H1020.47V553.783H1032.14C1034.15 553.783 1035.79 552.168 1035.79 550.182V549.488C1035.79 547.502 1034.15 545.887 1032.14 545.887H1030.32C1032.37 543.507 1033.53 540.47 1033.53 537.294V531.596H1035.48C1037.36 531.596 1038.89 530.083 1038.89 528.224V525.259C1039.12 525.304 1039.34 525.347 1039.54 525.387C1040.98 525.677 1042.46 525.1 1043.32 523.908C1044.39 522.422 1044.18 520.359 1042.83 519.111L1039.57 516.078C1039.68 512.782 1040.24 492.17 1036.71 486.327C1034.26 482.258 1026.92 479.497 1022.77 478.212C1016.28 476.201 1008.7 475 1002.5 475H1002.5C996.304 475 988.726 476.201 982.229 478.212C978.077 479.497 970.745 482.261 968.29 486.327C964.764 492.17 965.318 512.782 965.43 516.078L962.165 519.111C960.82 520.359 960.612 522.422 961.685 523.917C962.39 524.899 963.524 525.462 964.714 525.462H964.712ZM973.307 537.296V531.599H977.674V537.296C977.674 539.363 978.582 541.327 980.168 542.677L983.931 545.887H977.251C974.746 543.718 973.309 540.592 973.309 537.294L973.307 537.296ZM1010.4 545.887V544.012C1010.4 541.684 1008.49 539.791 1006.13 539.791H999.646V531.599H1025.5V537.296C1025.5 538.839 1024.83 540.3 1023.65 541.306L1018.28 545.887H1010.41H1010.4ZM999.644 541.6H1006.13C1007.47 541.6 1008.57 542.682 1008.57 544.012V545.887H999.641V541.598L999.644 541.6ZM997.813 545.887H994.309V531.596H997.813V545.887ZM992.478 539.067C990.801 538.117 989.735 536.351 989.735 534.372V531.599H992.478V539.067ZM992.478 541.076V545.887H986.731L984.341 543.846V531.596H987.905V534.369C987.905 537.355 989.719 539.979 992.478 541.073V541.076ZM982.511 542.288L981.362 541.309C980.182 540.302 979.504 538.839 979.504 537.298V531.601H982.511V542.29V542.288ZM986.359 553.785H992.478V562.903H986.359V553.785ZM1003.42 562.9V553.783H1010.69V562.9H1003.42ZM1001.59 562.9H994.309V553.783H1001.59V562.9ZM991.76 570.797H996.04L999.353 577.094H996.427L991.76 570.797ZM1003.43 578.903L1005.59 587.188H999.406L1001.57 578.903H1003.43ZM1001.42 577.094L998.104 570.797H1006.9L1003.58 577.094H1001.42ZM996.601 578.903H999.68L997.516 587.188H993.49L996.599 578.903H996.601ZM1011.51 587.188H1007.48L1005.32 578.903H1008.4L1011.51 587.188H1011.51ZM1008.57 577.094H1005.65L1008.96 570.797H1013.24L1008.57 577.094ZM1025.28 566.504V567.198C1025.28 568.186 1024.47 568.989 1023.47 568.989H981.536C980.536 568.989 979.724 568.186 979.724 567.198V566.504C979.724 565.515 980.536 564.712 981.536 564.712H1023.47C1024.47 564.712 1025.28 565.515 1025.28 566.504ZM1018.64 562.9H1012.52V553.783H1018.64V562.9ZM1033.96 549.49V550.184C1033.96 551.173 1033.15 551.976 1032.15 551.976H972.854C971.854 551.976 971.042 551.173 971.042 550.184V549.49C971.042 548.501 971.854 547.698 972.854 547.698H1032.15C1033.15 547.698 1033.96 548.501 1033.96 549.49ZM1031.7 537.296C1031.7 540.592 1030.26 543.718 1027.76 545.889H1021.08L1024.84 542.677C1026.42 541.327 1027.33 539.363 1027.33 537.296V531.599H1031.7V537.296ZM1037.07 528.226C1037.07 529.088 1036.36 529.789 1035.49 529.789H969.518C968.647 529.789 967.937 529.088 967.937 528.226V524.917C974.325 523.763 986.844 521.956 1002.5 521.956C1018.16 521.956 1030.68 523.766 1037.07 524.919V528.226ZM963.417 520.429L966.983 517.116C967.176 516.937 967.281 516.684 967.272 516.421C967.263 516.188 966.379 493.02 969.859 487.257C973.353 481.469 990.573 476.809 1002.5 476.809C1014.43 476.809 1031.65 481.469 1035.14 487.255C1038.62 493.016 1037.74 516.186 1037.73 516.419C1037.72 516.682 1037.82 516.935 1038.02 517.114L1041.59 520.427C1042.27 521.061 1042.37 522.105 1041.83 522.868C1041.4 523.467 1040.65 523.761 1039.92 523.614C1034.73 522.571 1020.71 520.144 1002.5 520.144C984.297 520.144 970.276 522.571 965.091 523.614C964.359 523.761 963.609 523.469 963.172 522.861C962.632 522.108 962.737 521.063 963.419 520.429H963.417ZM971.513 515.795C973.895 507.605 974.512 499.032 973.346 490.317C973.279 489.822 973.632 489.367 974.133 489.302C974.634 489.236 975.094 489.584 975.16 490.08C976.359 499.044 975.723 507.863 973.27 516.295C973.156 516.691 972.79 516.951 972.392 516.951C972.307 516.951 972.222 516.939 972.138 516.915C971.653 516.777 971.371 516.274 971.511 515.795H971.513ZM976.009 517.073C975.908 516.584 976.228 516.105 976.722 516.005C976.775 515.994 982.037 514.947 989.566 514.255C990.069 514.209 990.515 514.573 990.561 515.071C990.607 515.569 990.239 516.01 989.735 516.055C982.314 516.738 977.139 517.767 977.086 517.776C977.024 517.788 976.963 517.794 976.903 517.794C976.478 517.794 976.096 517.498 976.006 517.068L976.009 517.073ZM1019.02 515.535C1019.08 515.039 1019.54 514.687 1020.04 514.748C1025.02 515.356 1028.25 515.998 1028.28 516.005C1028.78 516.105 1029.09 516.582 1028.99 517.073C1028.9 517.503 1028.52 517.799 1028.1 517.799C1028.04 517.799 1027.98 517.792 1027.91 517.781C1027.88 517.774 1024.72 517.143 1019.82 516.546C1019.32 516.485 1018.96 516.032 1019.02 515.537V515.535Z" fill="#06584B"/>
<path d="M964.712 525.462C964.959 525.462 965.206 525.437 965.453 525.387C965.654 525.347 965.876 525.304 966.105 525.259V528.224C966.105 530.083 967.635 531.596 969.516 531.596H971.474V537.294C971.474 540.47 972.625 543.507 974.682 545.887H972.849C970.841 545.887 969.207 547.502 969.207 549.488V550.182C969.207 552.168 970.841 553.783 972.849 553.783H984.524V562.9H981.531C979.523 562.9 977.889 564.515 977.889 566.501V567.196C977.889 569.182 979.523 570.797 981.531 570.797H989.488L994.931 578.141L991.314 587.779C991.209 588.057 991.25 588.367 991.421 588.611C991.593 588.855 991.872 589 992.172 589H1012.82C1013.12 589 1013.4 588.855 1013.57 588.611C1013.74 588.367 1013.78 588.057 1013.68 587.779L1010.06 578.141L1015.5 570.797H1023.46C1025.47 570.797 1027.1 569.182 1027.1 567.196V566.501C1027.1 564.515 1025.47 562.9 1023.46 562.9H1020.47V553.783H1032.14C1034.15 553.783 1035.79 552.168 1035.79 550.182V549.488C1035.79 547.502 1034.15 545.887 1032.14 545.887H1030.32C1032.37 543.507 1033.53 540.47 1033.53 537.294V531.596H1035.48C1037.36 531.596 1038.89 530.083 1038.89 528.224V525.259C1039.12 525.304 1039.34 525.347 1039.54 525.387C1040.98 525.677 1042.46 525.1 1043.32 523.908C1044.39 522.422 1044.18 520.359 1042.83 519.111L1039.57 516.078C1039.68 512.782 1040.24 492.17 1036.71 486.327C1034.26 482.258 1026.92 479.497 1022.77 478.212C1016.28 476.201 1008.7 475 1002.5 475H1002.5C996.304 475 988.726 476.201 982.229 478.212C978.077 479.497 970.745 482.261 968.29 486.327C964.764 492.17 965.318 512.782 965.43 516.078L962.165 519.111C960.82 520.359 960.612 522.422 961.685 523.917C962.39 524.899 963.524 525.462 964.714 525.462H964.712ZM973.307 537.296V531.599H977.674V537.296C977.674 539.363 978.582 541.327 980.168 542.677L983.931 545.887H977.251C974.746 543.718 973.309 540.592 973.309 537.294L973.307 537.296ZM1010.4 545.887V544.012C1010.4 541.684 1008.49 539.791 1006.13 539.791H999.646V531.599H1025.5V537.296C1025.5 538.839 1024.83 540.3 1023.65 541.306L1018.28 545.887H1010.41H1010.4ZM999.644 541.6H1006.13C1007.47 541.6 1008.57 542.682 1008.57 544.012V545.887H999.641V541.598L999.644 541.6ZM997.813 545.887H994.309V531.596H997.813V545.887ZM992.478 539.067C990.801 538.117 989.735 536.351 989.735 534.372V531.599H992.478V539.067ZM992.478 541.076V545.887H986.731L984.341 543.846V531.596H987.905V534.369C987.905 537.355 989.719 539.979 992.478 541.073V541.076ZM982.511 542.288L981.362 541.309C980.182 540.302 979.504 538.839 979.504 537.298V531.601H982.511V542.29V542.288ZM986.359 553.785H992.478V562.903H986.359V553.785ZM1003.42 562.9V553.783H1010.69V562.9H1003.42ZM1001.59 562.9H994.309V553.783H1001.59V562.9ZM991.76 570.797H996.04L999.353 577.094H996.427L991.76 570.797ZM1003.43 578.903L1005.59 587.188H999.406L1001.57 578.903H1003.43ZM1001.42 577.094L998.104 570.797H1006.9L1003.58 577.094H1001.42ZM996.601 578.903H999.68L997.516 587.188H993.49L996.599 578.903H996.601ZM1011.51 587.188H1007.48L1005.32 578.903H1008.4L1011.51 587.188H1011.51ZM1008.57 577.094H1005.65L1008.96 570.797H1013.24L1008.57 577.094ZM1025.28 566.504V567.198C1025.28 568.186 1024.47 568.989 1023.47 568.989H981.536C980.536 568.989 979.724 568.186 979.724 567.198V566.504C979.724 565.515 980.536 564.712 981.536 564.712H1023.47C1024.47 564.712 1025.28 565.515 1025.28 566.504ZM1018.64 562.9H1012.52V553.783H1018.64V562.9ZM1033.96 549.49V550.184C1033.96 551.173 1033.15 551.976 1032.15 551.976H972.854C971.854 551.976 971.042 551.173 971.042 550.184V549.49C971.042 548.501 971.854 547.698 972.854 547.698H1032.15C1033.15 547.698 1033.96 548.501 1033.96 549.49ZM1031.7 537.296C1031.7 540.592 1030.26 543.718 1027.76 545.889H1021.08L1024.84 542.677C1026.42 541.327 1027.33 539.363 1027.33 537.296V531.599H1031.7V537.296ZM1037.07 528.226C1037.07 529.088 1036.36 529.789 1035.49 529.789H969.518C968.647 529.789 967.937 529.088 967.937 528.226V524.917C974.325 523.763 986.844 521.956 1002.5 521.956C1018.16 521.956 1030.68 523.766 1037.07 524.919V528.226ZM963.417 520.429L966.983 517.116C967.176 516.937 967.281 516.684 967.272 516.421C967.263 516.188 966.379 493.02 969.859 487.257C973.353 481.469 990.573 476.809 1002.5 476.809C1014.43 476.809 1031.65 481.469 1035.14 487.255C1038.62 493.016 1037.74 516.186 1037.73 516.419C1037.72 516.682 1037.82 516.935 1038.02 517.114L1041.59 520.427C1042.27 521.061 1042.37 522.105 1041.83 522.868C1041.4 523.467 1040.65 523.761 1039.92 523.614C1034.73 522.571 1020.71 520.144 1002.5 520.144C984.297 520.144 970.276 522.571 965.091 523.614C964.359 523.761 963.609 523.469 963.172 522.861C962.632 522.108 962.737 521.063 963.419 520.429H963.417ZM971.513 515.795C973.895 507.605 974.512 499.032 973.346 490.317C973.279 489.822 973.632 489.367 974.133 489.302C974.634 489.236 975.094 489.584 975.16 490.08C976.359 499.044 975.723 507.863 973.27 516.295C973.156 516.691 972.79 516.951 972.392 516.951C972.307 516.951 972.222 516.939 972.138 516.915C971.653 516.777 971.371 516.274 971.511 515.795H971.513ZM976.009 517.073C975.908 516.584 976.228 516.105 976.722 516.005C976.775 515.994 982.037 514.947 989.566 514.255C990.069 514.209 990.515 514.573 990.561 515.071C990.607 515.569 990.239 516.01 989.735 516.055C982.314 516.738 977.139 517.767 977.086 517.776C977.024 517.788 976.963 517.794 976.903 517.794C976.478 517.794 976.096 517.498 976.006 517.068L976.009 517.073ZM1019.02 515.535C1019.08 515.039 1019.54 514.687 1020.04 514.748C1025.02 515.356 1028.25 515.998 1028.28 516.005C1028.78 516.105 1029.09 516.582 1028.99 517.073C1028.9 517.503 1028.52 517.799 1028.1 517.799C1028.04 517.799 1027.98 517.792 1027.91 517.781C1027.88 517.774 1024.72 517.143 1019.82 516.546C1019.32 516.485 1018.96 516.032 1019.02 515.537V515.535Z" stroke="#06584B" stroke-width="2" mask="url(#path-5-outside-1_2651_133)"/>
<path d="M274.707 501.529C277.428 498.711 279.109 494.878 279.109 490.657C279.109 482.025 272.11 475 263.5 475C254.894 475 247.89 482.021 247.89 490.657C247.89 494.878 249.571 498.711 252.292 501.529C244.3 502.202 238 508.929 238 517.12V540.272C238 545.255 242.043 549.31 247.012 549.31H247.89V579.961C247.89 584.945 251.933 589 256.907 589C259.509 589 261.856 587.877 263.5 586.101C265.148 587.877 267.491 589 270.093 589C275.062 589 279.11 584.945 279.11 579.961V549.31H279.988C284.957 549.31 289 545.255 289 540.272V517.12C289 508.933 282.699 502.206 274.707 501.529ZM263.499 479.851C269.436 479.851 274.273 484.697 274.273 490.657C274.273 496.617 269.441 501.463 263.499 501.463C257.562 501.463 252.726 496.617 252.726 490.657C252.726 484.697 257.558 479.851 263.499 479.851ZM284.163 540.272C284.163 542.583 282.288 544.459 279.988 544.459H279.11V523.733C279.11 522.392 278.028 521.307 276.691 521.307C275.355 521.307 274.273 522.392 274.273 523.733V579.961C274.273 582.273 272.398 584.149 270.093 584.149C267.788 584.149 265.918 582.268 265.918 579.961V546.885C265.918 545.544 264.836 544.459 263.5 544.459C262.163 544.459 261.082 545.544 261.082 546.885V579.961C261.082 582.273 259.206 584.149 256.906 584.149C254.601 584.149 252.726 582.268 252.726 579.961V523.733C252.726 522.392 251.645 521.307 250.308 521.307C248.971 521.307 247.89 522.392 247.89 523.733V544.459H247.011C244.707 544.459 242.836 542.579 242.836 540.272V517.12C242.836 511.165 247.668 506.313 253.61 506.313H273.394C279.331 506.313 284.168 511.16 284.168 517.12V540.272H284.163Z" fill="#06584B"/>
<path d="M529.588 520.8H533.428V534.18H533.578L535.648 531.36L539.158 527.34H543.508L538.108 533.4L544.078 543H539.518L535.498 535.98L533.428 538.23V543H529.588V520.8ZM546.434 543V527.34H550.274V529.95H550.424C550.744 529.11 551.244 528.41 551.924 527.85C552.624 527.27 553.584 526.98 554.804 526.98C556.424 526.98 557.664 527.51 558.524 528.57C559.384 529.63 559.814 531.14 559.814 533.1V543H555.974V533.49C555.974 532.37 555.774 531.53 555.374 530.97C554.974 530.41 554.314 530.13 553.394 530.13C552.994 530.13 552.604 530.19 552.224 530.31C551.864 530.41 551.534 530.57 551.234 530.79C550.954 530.99 550.724 531.25 550.544 531.57C550.364 531.87 550.274 532.23 550.274 532.65V543H546.434ZM570.281 543.36C569.161 543.36 568.151 543.17 567.251 542.79C566.371 542.41 565.611 541.86 564.971 541.14C564.351 540.42 563.871 539.56 563.531 538.56C563.191 537.54 563.021 536.4 563.021 535.14C563.021 533.88 563.191 532.75 563.531 531.75C563.871 530.75 564.351 529.9 564.971 529.2C565.611 528.48 566.371 527.93 567.251 527.55C568.151 527.17 569.161 526.98 570.281 526.98C571.401 526.98 572.411 527.17 573.311 527.55C574.211 527.93 574.971 528.48 575.591 529.2C576.231 529.9 576.721 530.75 577.061 531.75C577.401 532.75 577.571 533.88 577.571 535.14C577.571 536.4 577.401 537.54 577.061 538.56C576.721 539.56 576.231 540.42 575.591 541.14C574.971 541.86 574.211 542.41 573.311 542.79C572.411 543.17 571.401 543.36 570.281 543.36ZM570.281 540.27C571.301 540.27 572.101 539.96 572.681 539.34C573.261 538.72 573.551 537.81 573.551 536.61V533.7C573.551 532.52 573.261 531.62 572.681 531C572.101 530.38 571.301 530.07 570.281 530.07C569.281 530.07 568.491 530.38 567.911 531C567.331 531.62 567.041 532.52 567.041 533.7V536.61C567.041 537.81 567.331 538.72 567.911 539.34C568.491 539.96 569.281 540.27 570.281 540.27ZM579.181 527.34H582.871L584.461 533.79L585.691 539.16H585.811L587.251 533.79L589.081 527.34H592.561L594.451 533.79L595.921 539.16H596.041L597.271 533.79L598.831 527.34H602.401L598.111 543H593.971L591.961 536.1L590.791 531.84H590.701L589.561 536.1L587.581 543H583.501L579.181 527.34ZM609.131 543C607.811 543 606.841 542.67 606.221 542.01C605.601 541.35 605.291 540.42 605.291 539.22V520.8H609.131V539.94H611.201V543H609.131ZM620.44 543.36C619.28 543.36 618.24 543.17 617.32 542.79C616.42 542.39 615.65 541.84 615.01 541.14C614.39 540.42 613.91 539.56 613.57 538.56C613.23 537.54 613.06 536.4 613.06 535.14C613.06 533.9 613.22 532.78 613.54 531.78C613.88 530.78 614.36 529.93 614.98 529.23C615.6 528.51 616.36 527.96 617.26 527.58C618.16 527.18 619.18 526.98 620.32 526.98C621.54 526.98 622.6 527.19 623.5 527.61C624.4 528.03 625.14 528.6 625.72 529.32C626.3 530.04 626.73 530.88 627.01 531.84C627.31 532.78 627.46 533.79 627.46 534.87V536.13H617.05V536.52C617.05 537.66 617.37 538.58 618.01 539.28C618.65 539.96 619.6 540.3 620.86 540.3C621.82 540.3 622.6 540.1 623.2 539.7C623.82 539.3 624.37 538.79 624.85 538.17L626.92 540.48C626.28 541.38 625.4 542.09 624.28 542.61C623.18 543.11 621.9 543.36 620.44 543.36ZM620.38 529.86C619.36 529.86 618.55 530.2 617.95 530.88C617.35 531.56 617.05 532.44 617.05 533.52V533.76H623.47V533.49C623.47 532.41 623.2 531.54 622.66 530.88C622.14 530.2 621.38 529.86 620.38 529.86ZM640.558 540.39H640.408C640.128 541.29 639.598 542.01 638.818 542.55C638.038 543.09 637.128 543.36 636.088 543.36C634.108 543.36 632.588 542.65 631.528 541.23C630.488 539.81 629.968 537.78 629.968 535.14C629.968 532.52 630.488 530.51 631.528 529.11C632.588 527.69 634.108 526.98 636.088 526.98C637.128 526.98 638.038 527.25 638.818 527.79C639.598 528.31 640.128 529.02 640.408 529.92H640.558V520.8H644.398V543H640.558V540.39ZM637.318 540.18C638.238 540.18 639.008 539.96 639.628 539.52C640.248 539.08 640.558 538.45 640.558 537.63V532.65C640.558 531.89 640.248 531.28 639.628 530.82C639.008 530.36 638.238 530.13 637.318 530.13C636.318 530.13 635.508 530.47 634.888 531.15C634.288 531.81 633.988 532.7 633.988 533.82V536.52C633.988 537.64 634.288 538.53 634.888 539.19C635.508 539.85 636.318 540.18 637.318 540.18ZM662.956 544.32C662.956 545.14 662.806 545.86 662.506 546.48C662.226 547.12 661.756 547.65 661.096 548.07C660.436 548.49 659.586 548.81 658.546 549.03C657.506 549.25 656.236 549.36 654.736 549.36C653.416 549.36 652.296 549.27 651.376 549.09C650.456 548.93 649.696 548.69 649.096 548.37C648.516 548.07 648.096 547.69 647.836 547.23C647.576 546.77 647.446 546.25 647.446 545.67C647.446 544.79 647.686 544.1 648.166 543.6C648.666 543.12 649.356 542.81 650.236 542.67V542.34C649.596 542.18 649.096 541.87 648.736 541.41C648.396 540.93 648.226 540.37 648.226 539.73C648.226 539.33 648.306 538.98 648.466 538.68C648.626 538.36 648.836 538.09 649.096 537.87C649.376 537.65 649.686 537.47 650.026 537.33C650.366 537.17 650.726 537.05 651.106 536.97V536.85C650.146 536.41 649.426 535.8 648.946 535.02C648.486 534.24 648.256 533.33 648.256 532.29C648.256 530.69 648.806 529.41 649.906 528.45C651.006 527.47 652.616 526.98 654.736 526.98C655.216 526.98 655.686 527.01 656.146 527.07C656.626 527.13 657.066 527.23 657.466 527.37V526.86C657.466 525.34 658.206 524.58 659.686 524.58H662.116V527.52H658.786V527.94C659.606 528.4 660.216 529 660.616 529.74C661.016 530.48 661.216 531.33 661.216 532.29C661.216 533.87 660.666 535.14 659.566 536.1C658.486 537.06 656.876 537.54 654.736 537.54C653.816 537.54 653.016 537.45 652.336 537.27C652.036 537.41 651.776 537.6 651.556 537.84C651.336 538.06 651.226 538.34 651.226 538.68C651.226 539.46 651.906 539.85 653.266 539.85H657.466C659.386 539.85 660.776 540.25 661.636 541.05C662.516 541.83 662.956 542.92 662.956 544.32ZM659.356 544.77C659.356 544.27 659.156 543.88 658.756 543.6C658.356 543.32 657.666 543.18 656.686 543.18H651.346C650.806 543.58 650.536 544.12 650.536 544.8C650.536 545.4 650.786 545.87 651.286 546.21C651.786 546.55 652.636 546.72 653.836 546.72H655.756C657.016 546.72 657.926 546.56 658.486 546.24C659.066 545.92 659.356 545.43 659.356 544.77ZM654.736 534.93C656.616 534.93 657.556 534.13 657.556 532.53V532.02C657.556 530.42 656.616 529.62 654.736 529.62C652.856 529.62 651.916 530.42 651.916 532.02V532.53C651.916 534.13 652.856 534.93 654.736 534.93ZM671.328 543.36C670.168 543.36 669.128 543.17 668.208 542.79C667.308 542.39 666.538 541.84 665.898 541.14C665.278 540.42 664.798 539.56 664.458 538.56C664.118 537.54 663.948 536.4 663.948 535.14C663.948 533.9 664.108 532.78 664.428 531.78C664.768 530.78 665.248 529.93 665.868 529.23C666.488 528.51 667.248 527.96 668.148 527.58C669.048 527.18 670.068 526.98 671.208 526.98C672.428 526.98 673.488 527.19 674.388 527.61C675.288 528.03 676.028 528.6 676.608 529.32C677.188 530.04 677.618 530.88 677.898 531.84C678.198 532.78 678.348 533.79 678.348 534.87V536.13H667.938V536.52C667.938 537.66 668.258 538.58 668.898 539.28C669.538 539.96 670.488 540.3 671.748 540.3C672.708 540.3 673.488 540.1 674.088 539.7C674.708 539.3 675.258 538.79 675.738 538.17L677.808 540.48C677.168 541.38 676.288 542.09 675.168 542.61C674.068 543.11 672.788 543.36 671.328 543.36ZM671.268 529.86C670.248 529.86 669.438 530.2 668.838 530.88C668.238 531.56 667.938 532.44 667.938 533.52V533.76H674.358V533.49C674.358 532.41 674.088 531.54 673.548 530.88C673.028 530.2 672.268 529.86 671.268 529.86ZM702.947 544.32C702.947 545.14 702.797 545.86 702.497 546.48C702.217 547.12 701.747 547.65 701.087 548.07C700.427 548.49 699.577 548.81 698.537 549.03C697.497 549.25 696.227 549.36 694.727 549.36C693.407 549.36 692.287 549.27 691.367 549.09C690.447 548.93 689.687 548.69 689.087 548.37C688.507 548.07 688.087 547.69 687.827 547.23C687.567 546.77 687.437 546.25 687.437 545.67C687.437 544.79 687.677 544.1 688.157 543.6C688.657 543.12 689.347 542.81 690.227 542.67V542.34C689.587 542.18 689.087 541.87 688.727 541.41C688.387 540.93 688.217 540.37 688.217 539.73C688.217 539.33 688.297 538.98 688.457 538.68C688.617 538.36 688.827 538.09 689.087 537.87C689.367 537.65 689.677 537.47 690.017 537.33C690.357 537.17 690.717 537.05 691.097 536.97V536.85C690.137 536.41 689.417 535.8 688.937 535.02C688.477 534.24 688.247 533.33 688.247 532.29C688.247 530.69 688.797 529.41 689.897 528.45C690.997 527.47 692.607 526.98 694.727 526.98C695.207 526.98 695.677 527.01 696.137 527.07C696.617 527.13 697.057 527.23 697.457 527.37V526.86C697.457 525.34 698.197 524.58 699.677 524.58H702.107V527.52H698.777V527.94C699.597 528.4 700.207 529 700.607 529.74C701.007 530.48 701.207 531.33 701.207 532.29C701.207 533.87 700.657 535.14 699.557 536.1C698.477 537.06 696.867 537.54 694.727 537.54C693.807 537.54 693.007 537.45 692.327 537.27C692.027 537.41 691.767 537.6 691.547 537.84C691.327 538.06 691.217 538.34 691.217 538.68C691.217 539.46 691.897 539.85 693.257 539.85H697.457C699.377 539.85 700.767 540.25 701.627 541.05C702.507 541.83 702.947 542.92 702.947 544.32ZM699.347 544.77C699.347 544.27 699.147 543.88 698.747 543.6C698.347 543.32 697.657 543.18 696.677 543.18H691.337C690.797 543.58 690.527 544.12 690.527 544.8C690.527 545.4 690.777 545.87 691.277 546.21C691.777 546.55 692.627 546.72 693.827 546.72H695.747C697.007 546.72 697.917 546.56 698.477 546.24C699.057 545.92 699.347 545.43 699.347 544.77ZM694.727 534.93C696.607 534.93 697.547 534.13 697.547 532.53V532.02C697.547 530.42 696.607 529.62 694.727 529.62C692.847 529.62 691.907 530.42 691.907 532.02V532.53C691.907 534.13 692.847 534.93 694.727 534.93ZM716.626 543C715.786 543 715.116 542.76 714.616 542.28C714.136 541.78 713.836 541.12 713.716 540.3H713.536C713.276 541.32 712.746 542.09 711.946 542.61C711.146 543.11 710.156 543.36 708.976 543.36C707.376 543.36 706.146 542.94 705.286 542.1C704.426 541.26 703.996 540.14 703.996 538.74C703.996 537.12 704.576 535.92 705.736 535.14C706.896 534.34 708.546 533.94 710.686 533.94H713.356V532.8C713.356 531.92 713.126 531.24 712.666 530.76C712.206 530.28 711.466 530.04 710.446 530.04C709.546 530.04 708.816 530.24 708.256 530.64C707.716 531.02 707.256 531.48 706.876 532.02L704.596 529.98C705.176 529.08 705.946 528.36 706.906 527.82C707.866 527.26 709.136 526.98 710.716 526.98C712.836 526.98 714.446 527.46 715.546 528.42C716.646 529.38 717.196 530.76 717.196 532.56V539.94H718.756V543H716.626ZM710.266 540.57C711.126 540.57 711.856 540.38 712.456 540C713.056 539.62 713.356 539.06 713.356 538.32V536.25H710.896C708.896 536.25 707.896 536.89 707.896 538.17V538.68C707.896 539.32 708.096 539.8 708.496 540.12C708.916 540.42 709.506 540.57 710.266 540.57ZM721.864 527.34H725.704V529.92H725.824C726.104 529.02 726.634 528.31 727.414 527.79C728.194 527.25 729.104 526.98 730.144 526.98C732.144 526.98 733.664 527.69 734.704 529.11C735.764 530.51 736.294 532.52 736.294 535.14C736.294 537.78 735.764 539.81 734.704 541.23C733.664 542.65 732.144 543.36 730.144 543.36C729.104 543.36 728.194 543.09 727.414 542.55C726.654 542.01 726.124 541.29 725.824 540.39H725.704V549H721.864V527.34ZM728.914 540.18C729.914 540.18 730.724 539.85 731.344 539.19C731.964 538.53 732.274 537.64 732.274 536.52V533.82C732.274 532.7 731.964 531.81 731.344 531.15C730.724 530.47 729.914 530.13 728.914 530.13C727.994 530.13 727.224 530.36 726.604 530.82C726.004 531.28 725.704 531.89 725.704 532.65V537.63C725.704 538.45 726.004 539.08 726.604 539.52C727.224 539.96 727.994 540.18 728.914 540.18Z" fill="#06584B"/>
</svg>
