<svg width="640" height="640" viewBox="0 0 640 640" fill="none" xmlns="http://www.w3.org/2000/svg">
<rect width="640" height="640" fill="#FDFBF3"/>
<path d="M542.337 39.74V51H539.297V39.74H535.517V37.04H546.117V39.74H542.337ZM548.196 51V37.04H557.696V39.74H551.236V42.6H556.776V45.28H551.236V48.3H557.696V51H548.196ZM564.865 51.24C563.638 51.24 562.598 51.0333 561.745 50.62C560.891 50.1933 560.165 49.6467 559.565 48.98L561.565 46.96C562.511 48.0267 563.678 48.56 565.065 48.56C565.811 48.56 566.365 48.4067 566.725 48.1C567.085 47.7933 567.265 47.3867 567.265 46.88C567.265 46.4933 567.158 46.1733 566.945 45.92C566.731 45.6533 566.298 45.4733 565.645 45.38L564.265 45.2C562.785 45.0133 561.698 44.5667 561.005 43.86C560.325 43.1533 559.985 42.2133 559.985 41.04C559.985 40.4133 560.105 39.84 560.345 39.32C560.585 38.8 560.925 38.3533 561.365 37.98C561.818 37.6067 562.365 37.32 563.005 37.12C563.658 36.9067 564.398 36.8 565.225 36.8C566.278 36.8 567.205 36.9667 568.005 37.3C568.805 37.6333 569.491 38.12 570.065 38.76L568.045 40.8C567.711 40.4133 567.305 40.1 566.825 39.86C566.358 39.6067 565.765 39.48 565.045 39.48C564.365 39.48 563.858 39.6 563.525 39.84C563.191 40.08 563.025 40.4133 563.025 40.84C563.025 41.32 563.151 41.6667 563.405 41.88C563.671 42.0933 564.098 42.2467 564.685 42.34L566.065 42.56C567.505 42.7867 568.571 43.2333 569.265 43.9C569.958 44.5533 570.305 45.4867 570.305 46.7C570.305 47.3667 570.185 47.98 569.945 48.54C569.705 49.1 569.351 49.58 568.885 49.98C568.431 50.38 567.865 50.6933 567.185 50.92C566.505 51.1333 565.731 51.24 564.865 51.24ZM578.176 39.74V51H575.136V39.74H571.356V37.04H581.956V39.74H578.176ZM581.495 54.8V52.34H591.415V54.8H581.495ZM597.248 42.56C597.994 42.56 598.534 42.42 598.868 42.14C599.214 41.8467 599.388 41.4867 599.388 41.06V40.92C599.388 40.4133 599.221 40.0067 598.888 39.7C598.568 39.3933 598.108 39.24 597.508 39.24C596.948 39.24 596.421 39.3867 595.928 39.68C595.434 39.96 595.014 40.3667 594.668 40.9L592.788 39.14C593.054 38.7933 593.341 38.48 593.648 38.2C593.954 37.9067 594.301 37.66 594.688 37.46C595.074 37.2467 595.508 37.0867 595.988 36.98C596.468 36.86 597.008 36.8 597.608 36.8C598.354 36.8 599.028 36.8867 599.628 37.06C600.241 37.2333 600.761 37.4867 601.188 37.82C601.628 38.14 601.961 38.5267 602.188 38.98C602.428 39.4333 602.548 39.94 602.548 40.5C602.548 40.94 602.474 41.34 602.328 41.7C602.194 42.06 602.001 42.3733 601.748 42.64C601.508 42.9067 601.228 43.1267 600.908 43.3C600.588 43.46 600.248 43.5733 599.888 43.64V43.76C600.301 43.84 600.681 43.9733 601.028 44.16C601.388 44.3333 601.694 44.56 601.948 44.84C602.214 45.12 602.421 45.4533 602.568 45.84C602.714 46.2133 602.788 46.64 602.788 47.12C602.788 47.7467 602.661 48.3133 602.408 48.82C602.154 49.3267 601.794 49.76 601.328 50.12C600.861 50.48 600.301 50.76 599.648 50.96C598.994 51.1467 598.274 51.24 597.488 51.24C596.781 51.24 596.154 51.1667 595.608 51.02C595.061 50.8733 594.581 50.68 594.168 50.44C593.768 50.1867 593.414 49.9 593.108 49.58C592.814 49.26 592.554 48.92 592.328 48.56L594.548 46.84C594.854 47.4133 595.228 47.8867 595.668 48.26C596.121 48.62 596.728 48.8 597.488 48.8C598.168 48.8 598.694 48.6333 599.068 48.3C599.454 47.9533 599.648 47.4867 599.648 46.9V46.78C599.648 46.2067 599.428 45.78 598.988 45.5C598.561 45.2067 597.968 45.06 597.208 45.06H595.948V42.56H597.248ZM38.3658 81L37.1058 77.22H31.8858L30.6658 81H28.3658L33.1258 67.04H35.9658L40.7258 81H38.3658ZM34.5458 69.12H34.4458L32.4258 75.28H36.5458L34.5458 69.12ZM44.4997 81L40.9597 70.6H43.1197L44.6997 75.34L45.7597 78.98H45.8797L46.9397 75.34L48.5597 70.6H50.6397L47.0597 81H44.4997ZM56.3978 81.24C55.6511 81.24 54.9845 81.1133 54.3978 80.86C53.8111 80.6067 53.3111 80.2467 52.8978 79.78C52.4845 79.3 52.1645 78.7267 51.9378 78.06C51.7245 77.38 51.6178 76.6267 51.6178 75.8C51.6178 74.9733 51.7245 74.2267 51.9378 73.56C52.1645 72.88 52.4845 72.3067 52.8978 71.84C53.3111 71.36 53.8111 70.9933 54.3978 70.74C54.9845 70.4867 55.6511 70.36 56.3978 70.36C57.1578 70.36 57.8245 70.4933 58.3978 70.76C58.9845 71.0267 59.4711 71.4 59.8578 71.88C60.2445 72.3467 60.5311 72.8933 60.7178 73.52C60.9178 74.1467 61.0178 74.82 61.0178 75.54V76.36H53.8778V76.7C53.8778 77.5 54.1111 78.16 54.5778 78.68C55.0578 79.1867 55.7378 79.44 56.6178 79.44C57.2578 79.44 57.7978 79.3 58.2378 79.02C58.6778 78.74 59.0511 78.36 59.3578 77.88L60.6378 79.14C60.2511 79.78 59.6911 80.2933 58.9578 80.68C58.2245 81.0533 57.3711 81.24 56.3978 81.24ZM56.3978 72.06C56.0245 72.06 55.6778 72.1267 55.3578 72.26C55.0511 72.3933 54.7845 72.58 54.5578 72.82C54.3445 73.06 54.1778 73.3467 54.0578 73.68C53.9378 74.0133 53.8778 74.38 53.8778 74.78V74.92H58.7178V74.72C58.7178 73.92 58.5111 73.28 58.0978 72.8C57.6845 72.3067 57.1178 72.06 56.3978 72.06ZM63.4311 81V70.6H65.6111V72.6H65.7111C65.8578 72.0667 66.1644 71.6 66.6311 71.2C67.0978 70.8 67.7444 70.6 68.5711 70.6H69.1511V72.7H68.2911C67.4244 72.7 66.7578 72.84 66.2911 73.12C65.8378 73.4 65.6111 73.8133 65.6111 74.36V81H63.4311ZM78.5511 81C77.9778 81 77.5378 80.84 77.2311 80.52C76.9244 80.1867 76.7378 79.7667 76.6711 79.26H76.5711C76.3711 79.9133 76.0044 80.4067 75.4711 80.74C74.9378 81.0733 74.2911 81.24 73.5311 81.24C72.4511 81.24 71.6178 80.96 71.0311 80.4C70.4578 79.84 70.1711 79.0867 70.1711 78.14C70.1711 77.1 70.5444 76.32 71.2911 75.8C72.0511 75.28 73.1578 75.02 74.6111 75.02H76.4911V74.14C76.4911 73.5 76.3178 73.0067 75.9711 72.66C75.6244 72.3133 75.0844 72.14 74.3511 72.14C73.7378 72.14 73.2378 72.2733 72.8511 72.54C72.4644 72.8067 72.1378 73.1467 71.8711 73.56L70.5711 72.38C70.9178 71.7933 71.4044 71.3133 72.0311 70.94C72.6578 70.5533 73.4778 70.36 74.4911 70.36C75.8378 70.36 76.8711 70.6733 77.5911 71.3C78.3111 71.9267 78.6711 72.8267 78.6711 74V79.22H79.7711V81H78.5511ZM74.1511 79.58C74.8311 79.58 75.3911 79.4333 75.8311 79.14C76.2711 78.8333 76.4911 78.4267 76.4911 77.92V76.42H74.6511C73.1444 76.42 72.3911 76.8867 72.3911 77.82V78.18C72.3911 78.6467 72.5444 79 72.8511 79.24C73.1711 79.4667 73.6044 79.58 74.1511 79.58ZM91.0277 81.98C91.0277 83.06 90.6143 83.8733 89.7877 84.42C88.961 84.9667 87.6143 85.24 85.7477 85.24C84.8943 85.24 84.1677 85.18 83.5677 85.06C82.981 84.9533 82.4943 84.7933 82.1077 84.58C81.7343 84.3667 81.461 84.1067 81.2877 83.8C81.1143 83.4933 81.0277 83.14 81.0277 82.74C81.0277 82.1667 81.181 81.72 81.4877 81.4C81.8077 81.08 82.2477 80.86 82.8077 80.74V80.52C82.021 80.2667 81.6277 79.7333 81.6277 78.92C81.6277 78.3867 81.8077 77.98 82.1677 77.7C82.5277 77.4067 82.961 77.2 83.4677 77.08V77C82.8543 76.7067 82.381 76.3 82.0477 75.78C81.7277 75.2467 81.5677 74.6267 81.5677 73.92C81.5677 72.8533 81.921 71.9933 82.6277 71.34C83.3477 70.6867 84.3743 70.36 85.7077 70.36C86.441 70.36 87.0677 70.4667 87.5877 70.68V70.4C87.5877 69.9333 87.6943 69.5733 87.9077 69.32C88.1343 69.0533 88.481 68.92 88.9477 68.92H90.5477V70.68H88.4277V71.1C88.8943 71.4067 89.2543 71.8067 89.5077 72.3C89.761 72.78 89.8877 73.32 89.8877 73.92C89.8877 74.9733 89.5277 75.8267 88.8077 76.48C88.0877 77.12 87.061 77.44 85.7277 77.44C85.221 77.44 84.7677 77.3867 84.3677 77.28C84.101 77.3733 83.8677 77.5067 83.6677 77.68C83.4677 77.84 83.3677 78.0533 83.3677 78.32C83.3677 78.6 83.4943 78.8 83.7477 78.92C84.001 79.04 84.361 79.1 84.8277 79.1H87.3877C88.6677 79.1 89.5943 79.36 90.1677 79.88C90.741 80.3867 91.0277 81.0867 91.0277 81.98ZM88.9877 82.22C88.9877 81.86 88.8477 81.5733 88.5677 81.36C88.301 81.1467 87.8077 81.04 87.0877 81.04H83.5677C83.0877 81.32 82.8477 81.72 82.8477 82.24C82.8477 82.6667 83.0143 83.0067 83.3477 83.26C83.6943 83.5267 84.2743 83.66 85.0877 83.66H86.4477C88.141 83.66 88.9877 83.18 88.9877 82.22ZM85.7277 75.86C86.3677 75.86 86.861 75.72 87.2077 75.44C87.5677 75.1467 87.7477 74.7 87.7477 74.1V73.7C87.7477 73.1 87.5677 72.66 87.2077 72.38C86.861 72.0867 86.3677 71.94 85.7277 71.94C85.0877 71.94 84.5877 72.0867 84.2277 72.38C83.881 72.66 83.7077 73.1 83.7077 73.7V74.1C83.7077 74.7 83.881 75.1467 84.2277 75.44C84.5877 75.72 85.0877 75.86 85.7277 75.86ZM96.6127 81.24C95.866 81.24 95.1993 81.1133 94.6127 80.86C94.026 80.6067 93.526 80.2467 93.1127 79.78C92.6993 79.3 92.3793 78.7267 92.1527 78.06C91.9393 77.38 91.8327 76.6267 91.8327 75.8C91.8327 74.9733 91.9393 74.2267 92.1527 73.56C92.3793 72.88 92.6993 72.3067 93.1127 71.84C93.526 71.36 94.026 70.9933 94.6127 70.74C95.1993 70.4867 95.866 70.36 96.6127 70.36C97.3727 70.36 98.0393 70.4933 98.6127 70.76C99.1993 71.0267 99.686 71.4 100.073 71.88C100.459 72.3467 100.746 72.8933 100.933 73.52C101.133 74.1467 101.233 74.82 101.233 75.54V76.36H94.0927V76.7C94.0927 77.5 94.326 78.16 94.7927 78.68C95.2727 79.1867 95.9527 79.44 96.8327 79.44C97.4727 79.44 98.0127 79.3 98.4527 79.02C98.8927 78.74 99.266 78.36 99.5727 77.88L100.853 79.14C100.466 79.78 99.906 80.2933 99.1727 80.68C98.4393 81.0533 97.586 81.24 96.6127 81.24ZM96.6127 72.06C96.2393 72.06 95.8927 72.1267 95.5727 72.26C95.266 72.3933 94.9993 72.58 94.7727 72.82C94.5593 73.06 94.3927 73.3467 94.2727 73.68C94.1527 74.0133 94.0927 74.38 94.0927 74.78V74.92H98.9327V74.72C98.9327 73.92 98.726 73.28 98.3127 72.8C97.8993 72.3067 97.3327 72.06 96.6127 72.06ZM108.373 81V70.6H110.553V72.6H110.653C110.799 72.0667 111.106 71.6 111.573 71.2C112.039 70.8 112.686 70.6 113.513 70.6H114.093V72.7H113.233C112.366 72.7 111.699 72.84 111.233 73.12C110.779 73.4 110.553 73.8133 110.553 74.36V81H108.373ZM123.493 81C122.919 81 122.479 80.84 122.173 80.52C121.866 80.1867 121.679 79.7667 121.613 79.26H121.513C121.313 79.9133 120.946 80.4067 120.413 80.74C119.879 81.0733 119.233 81.24 118.473 81.24C117.393 81.24 116.559 80.96 115.973 80.4C115.399 79.84 115.113 79.0867 115.113 78.14C115.113 77.1 115.486 76.32 116.233 75.8C116.993 75.28 118.099 75.02 119.553 75.02H121.433V74.14C121.433 73.5 121.259 73.0067 120.913 72.66C120.566 72.3133 120.026 72.14 119.293 72.14C118.679 72.14 118.179 72.2733 117.793 72.54C117.406 72.8067 117.079 73.1467 116.812 73.56L115.513 72.38C115.859 71.7933 116.346 71.3133 116.973 70.94C117.599 70.5533 118.419 70.36 119.433 70.36C120.779 70.36 121.813 70.6733 122.533 71.3C123.253 71.9267 123.613 72.8267 123.613 74V79.22H124.713V81H123.493ZM119.093 79.58C119.773 79.58 120.333 79.4333 120.773 79.14C121.213 78.8333 121.433 78.4267 121.433 77.92V76.42H119.592C118.086 76.42 117.333 76.8867 117.333 77.82V78.18C117.333 78.6467 117.486 79 117.793 79.24C118.113 79.4667 118.546 79.58 119.093 79.58ZM129.67 81C128.91 81 128.337 80.8067 127.95 80.42C127.564 80.02 127.37 79.46 127.37 78.74V72.38H125.75V70.6H126.63C126.99 70.6 127.237 70.52 127.37 70.36C127.517 70.2 127.59 69.94 127.59 69.58V67.76H129.55V70.6H131.73V72.38H129.55V79.22H131.57V81H129.67ZM135.195 68.74C134.742 68.74 134.408 68.6333 134.195 68.42C133.995 68.2067 133.895 67.9333 133.895 67.6V67.26C133.895 66.9267 133.995 66.6533 134.195 66.44C134.408 66.2267 134.742 66.12 135.195 66.12C135.648 66.12 135.975 66.2267 136.175 66.44C136.375 66.6533 136.475 66.9267 136.475 67.26V67.6C136.475 67.9333 136.375 68.2067 136.175 68.42C135.975 68.6333 135.648 68.74 135.195 68.74ZM134.095 70.6H136.275V81H134.095V70.6ZM139.388 81V70.6H141.568V72.32H141.668C141.895 71.76 142.235 71.2933 142.688 70.92C143.155 70.5467 143.788 70.36 144.588 70.36C145.655 70.36 146.481 70.7133 147.068 71.42C147.668 72.1133 147.968 73.1067 147.968 74.4V81H145.788V74.68C145.788 73.0533 145.135 72.24 143.828 72.24C143.548 72.24 143.268 72.28 142.988 72.36C142.721 72.4267 142.481 72.5333 142.268 72.68C142.055 72.8267 141.881 73.0133 141.748 73.24C141.628 73.4667 141.568 73.7333 141.568 74.04V81H139.388ZM160.11 81.98C160.11 83.06 159.696 83.8733 158.87 84.42C158.043 84.9667 156.696 85.24 154.83 85.24C153.976 85.24 153.25 85.18 152.65 85.06C152.063 84.9533 151.576 84.7933 151.19 84.58C150.816 84.3667 150.543 84.1067 150.37 83.8C150.196 83.4933 150.11 83.14 150.11 82.74C150.11 82.1667 150.263 81.72 150.57 81.4C150.89 81.08 151.33 80.86 151.89 80.74V80.52C151.103 80.2667 150.71 79.7333 150.71 78.92C150.71 78.3867 150.89 77.98 151.25 77.7C151.61 77.4067 152.043 77.2 152.55 77.08V77C151.936 76.7067 151.463 76.3 151.13 75.78C150.81 75.2467 150.65 74.6267 150.65 73.92C150.65 72.8533 151.003 71.9933 151.71 71.34C152.43 70.6867 153.456 70.36 154.79 70.36C155.523 70.36 156.15 70.4667 156.67 70.68V70.4C156.67 69.9333 156.776 69.5733 156.99 69.32C157.216 69.0533 157.563 68.92 158.03 68.92H159.63V70.68H157.51V71.1C157.976 71.4067 158.336 71.8067 158.59 72.3C158.843 72.78 158.97 73.32 158.97 73.92C158.97 74.9733 158.61 75.8267 157.89 76.48C157.17 77.12 156.143 77.44 154.81 77.44C154.303 77.44 153.85 77.3867 153.45 77.28C153.183 77.3733 152.95 77.5067 152.75 77.68C152.55 77.84 152.45 78.0533 152.45 78.32C152.45 78.6 152.576 78.8 152.83 78.92C153.083 79.04 153.443 79.1 153.91 79.1H156.47C157.75 79.1 158.676 79.36 159.25 79.88C159.823 80.3867 160.11 81.0867 160.11 81.98ZM158.07 82.22C158.07 81.86 157.93 81.5733 157.65 81.36C157.383 81.1467 156.89 81.04 156.17 81.04H152.65C152.17 81.32 151.93 81.72 151.93 82.24C151.93 82.6667 152.096 83.0067 152.43 83.26C152.776 83.5267 153.356 83.66 154.17 83.66H155.53C157.223 83.66 158.07 83.18 158.07 82.22ZM154.81 75.86C155.45 75.86 155.943 75.72 156.29 75.44C156.65 75.1467 156.83 74.7 156.83 74.1V73.7C156.83 73.1 156.65 72.66 156.29 72.38C155.943 72.0867 155.45 71.94 154.81 71.94C154.17 71.94 153.67 72.0867 153.31 72.38C152.963 72.66 152.79 73.1 152.79 73.7V74.1C152.79 74.7 152.963 75.1467 153.31 75.44C153.67 75.72 154.17 75.86 154.81 75.86ZM174.078 81C173.505 81 173.065 80.84 172.758 80.52C172.452 80.1867 172.265 79.7667 172.198 79.26H172.098C171.898 79.9133 171.532 80.4067 170.998 80.74C170.465 81.0733 169.818 81.24 169.058 81.24C167.978 81.24 167.145 80.96 166.558 80.4C165.985 79.84 165.698 79.0867 165.698 78.14C165.698 77.1 166.072 76.32 166.818 75.8C167.578 75.28 168.685 75.02 170.138 75.02H172.018V74.14C172.018 73.5 171.845 73.0067 171.498 72.66C171.152 72.3133 170.612 72.14 169.878 72.14C169.265 72.14 168.765 72.2733 168.378 72.54C167.992 72.8067 167.665 73.1467 167.398 73.56L166.098 72.38C166.445 71.7933 166.932 71.3133 167.558 70.94C168.185 70.5533 169.005 70.36 170.018 70.36C171.365 70.36 172.398 70.6733 173.118 71.3C173.838 71.9267 174.198 72.8267 174.198 74V79.22H175.298V81H174.078ZM169.678 79.58C170.358 79.58 170.918 79.4333 171.358 79.14C171.798 78.8333 172.018 78.4267 172.018 77.92V76.42H170.178C168.672 76.42 167.918 76.8867 167.918 77.82V78.18C167.918 78.6467 168.072 79 168.378 79.24C168.698 79.4667 169.132 79.58 169.678 79.58ZM177.435 81V70.6H179.615V72.32H179.715C179.942 71.76 180.282 71.2933 180.735 70.92C181.202 70.5467 181.835 70.36 182.635 70.36C183.702 70.36 184.528 70.7133 185.115 71.42C185.715 72.1133 186.015 73.1067 186.015 74.4V81H183.835V74.68C183.835 73.0533 183.182 72.24 181.875 72.24C181.595 72.24 181.315 72.28 181.035 72.36C180.768 72.4267 180.528 72.5333 180.315 72.68C180.102 72.8267 179.928 73.0133 179.795 73.24C179.675 73.4667 179.615 73.7333 179.615 74.04V81H177.435ZM195.577 79.28H195.477C195.25 79.8933 194.877 80.3733 194.357 80.72C193.85 81.0667 193.25 81.24 192.557 81.24C191.237 81.24 190.217 80.7667 189.497 79.82C188.777 78.86 188.417 77.52 188.417 75.8C188.417 74.08 188.777 72.7467 189.497 71.8C190.217 70.84 191.237 70.36 192.557 70.36C193.25 70.36 193.85 70.5333 194.357 70.88C194.877 71.2133 195.25 71.6933 195.477 72.32H195.577V66.2H197.757V81H195.577V79.28ZM193.217 79.36C193.883 79.36 194.443 79.2 194.897 78.88C195.35 78.5467 195.577 78.1133 195.577 77.58V74.02C195.577 73.4867 195.35 73.06 194.897 72.74C194.443 72.4067 193.883 72.24 193.217 72.24C192.457 72.24 191.85 72.4867 191.397 72.98C190.943 73.46 190.717 74.1 190.717 74.9V76.7C190.717 77.5 190.943 78.1467 191.397 78.64C191.85 79.12 192.457 79.36 193.217 79.36ZM208.899 81.24C207.912 81.24 207.086 81.0667 206.419 80.72C205.752 80.3733 205.172 79.8933 204.679 79.28L206.079 78C206.466 78.4667 206.892 78.8333 207.359 79.1C207.839 79.3533 208.392 79.48 209.019 79.48C209.659 79.48 210.132 79.36 210.439 79.12C210.759 78.8667 210.919 78.52 210.919 78.08C210.919 77.7467 210.806 77.4667 210.579 77.24C210.366 77 209.986 76.8467 209.439 76.78L208.479 76.66C207.412 76.5267 206.572 76.22 205.959 75.74C205.359 75.2467 205.059 74.52 205.059 73.56C205.059 73.0533 205.152 72.6067 205.339 72.22C205.526 71.82 205.786 71.4867 206.119 71.22C206.466 70.94 206.872 70.7267 207.339 70.58C207.819 70.4333 208.346 70.36 208.919 70.36C209.852 70.36 210.612 70.5067 211.199 70.8C211.799 71.0933 212.332 71.5 212.799 72.02L211.459 73.3C211.192 72.98 210.839 72.7067 210.399 72.48C209.972 72.24 209.479 72.12 208.919 72.12C208.319 72.12 207.872 72.24 207.579 72.48C207.299 72.72 207.159 73.0333 207.159 73.42C207.159 73.82 207.286 74.12 207.539 74.32C207.792 74.52 208.199 74.6667 208.759 74.76L209.719 74.88C210.866 75.0533 211.699 75.3933 212.219 75.9C212.752 76.3933 213.019 77.06 213.019 77.9C213.019 78.4067 212.919 78.8667 212.719 79.28C212.532 79.68 212.259 80.0267 211.899 80.32C211.539 80.6133 211.106 80.84 210.599 81C210.092 81.16 209.526 81.24 208.899 81.24ZM218.225 81C217.465 81 216.892 80.8067 216.505 80.42C216.118 80.02 215.925 79.46 215.925 78.74V72.38H214.305V70.6H215.185C215.545 70.6 215.792 70.52 215.925 70.36C216.072 70.2 216.145 69.94 216.145 69.58V67.76H218.105V70.6H220.285V72.38H218.105V79.22H220.125V81H218.225ZM230.27 81C229.697 81 229.257 80.84 228.95 80.52C228.643 80.1867 228.457 79.7667 228.39 79.26H228.29C228.09 79.9133 227.723 80.4067 227.19 80.74C226.657 81.0733 226.01 81.24 225.25 81.24C224.17 81.24 223.337 80.96 222.75 80.4C222.177 79.84 221.89 79.0867 221.89 78.14C221.89 77.1 222.263 76.32 223.01 75.8C223.77 75.28 224.877 75.02 226.33 75.02H228.21V74.14C228.21 73.5 228.037 73.0067 227.69 72.66C227.343 72.3133 226.803 72.14 226.07 72.14C225.457 72.14 224.957 72.2733 224.57 72.54C224.183 72.8067 223.857 73.1467 223.59 73.56L222.29 72.38C222.637 71.7933 223.123 71.3133 223.75 70.94C224.377 70.5533 225.197 70.36 226.21 70.36C227.557 70.36 228.59 70.6733 229.31 71.3C230.03 71.9267 230.39 72.8267 230.39 74V79.22H231.49V81H230.27ZM225.87 79.58C226.55 79.58 227.11 79.4333 227.55 79.14C227.99 78.8333 228.21 78.4267 228.21 77.92V76.42H226.37C224.863 76.42 224.11 76.8867 224.11 77.82V78.18C224.11 78.6467 224.263 79 224.57 79.24C224.89 79.4667 225.323 79.58 225.87 79.58ZM233.626 81V70.6H235.806V72.32H235.906C236.133 71.76 236.473 71.2933 236.926 70.92C237.393 70.5467 238.026 70.36 238.826 70.36C239.893 70.36 240.72 70.7133 241.306 71.42C241.906 72.1133 242.206 73.1067 242.206 74.4V81H240.026V74.68C240.026 73.0533 239.373 72.24 238.066 72.24C237.786 72.24 237.506 72.28 237.226 72.36C236.96 72.4267 236.72 72.5333 236.506 72.68C236.293 72.8267 236.12 73.0133 235.986 73.24C235.866 73.4667 235.806 73.7333 235.806 74.04V81H233.626ZM251.768 79.28H251.668C251.441 79.8933 251.068 80.3733 250.548 80.72C250.041 81.0667 249.441 81.24 248.748 81.24C247.428 81.24 246.408 80.7667 245.688 79.82C244.968 78.86 244.608 77.52 244.608 75.8C244.608 74.08 244.968 72.7467 245.688 71.8C246.408 70.84 247.428 70.36 248.748 70.36C249.441 70.36 250.041 70.5333 250.548 70.88C251.068 71.2133 251.441 71.6933 251.668 72.32H251.768V66.2H253.948V81H251.768V79.28ZM249.408 79.36C250.075 79.36 250.635 79.2 251.088 78.88C251.541 78.5467 251.768 78.1133 251.768 77.58V74.02C251.768 73.4867 251.541 73.06 251.088 72.74C250.635 72.4067 250.075 72.24 249.408 72.24C248.648 72.24 248.041 72.4867 247.588 72.98C247.135 73.46 246.908 74.1 246.908 74.9V76.7C246.908 77.5 247.135 78.1467 247.588 78.64C248.041 79.12 248.648 79.36 249.408 79.36ZM264.684 81C264.111 81 263.671 80.84 263.364 80.52C263.057 80.1867 262.871 79.7667 262.804 79.26H262.704C262.504 79.9133 262.137 80.4067 261.604 80.74C261.071 81.0733 260.424 81.24 259.664 81.24C258.584 81.24 257.751 80.96 257.164 80.4C256.591 79.84 256.304 79.0867 256.304 78.14C256.304 77.1 256.677 76.32 257.424 75.8C258.184 75.28 259.291 75.02 260.744 75.02H262.624V74.14C262.624 73.5 262.451 73.0067 262.104 72.66C261.757 72.3133 261.217 72.14 260.484 72.14C259.871 72.14 259.371 72.2733 258.984 72.54C258.597 72.8067 258.271 73.1467 258.004 73.56L256.704 72.38C257.051 71.7933 257.537 71.3133 258.164 70.94C258.791 70.5533 259.611 70.36 260.624 70.36C261.971 70.36 263.004 70.6733 263.724 71.3C264.444 71.9267 264.804 72.8267 264.804 74V79.22H265.904V81H264.684ZM260.284 79.58C260.964 79.58 261.524 79.4333 261.964 79.14C262.404 78.8333 262.624 78.4267 262.624 77.92V76.42H260.784C259.277 76.42 258.524 76.8867 258.524 77.82V78.18C258.524 78.6467 258.677 79 258.984 79.24C259.304 79.4667 259.737 79.58 260.284 79.58ZM268.04 81V70.6H270.22V72.6H270.32C270.467 72.0667 270.774 71.6 271.24 71.2C271.707 70.8 272.354 70.6 273.18 70.6H273.76V72.7H272.9C272.034 72.7 271.367 72.84 270.9 73.12C270.447 73.4 270.22 73.8133 270.22 74.36V81H268.04ZM282.139 79.28H282.039C281.812 79.8933 281.439 80.3733 280.919 80.72C280.412 81.0667 279.812 81.24 279.119 81.24C277.799 81.24 276.779 80.7667 276.059 79.82C275.339 78.86 274.979 77.52 274.979 75.8C274.979 74.08 275.339 72.7467 276.059 71.8C276.779 70.84 277.799 70.36 279.119 70.36C279.812 70.36 280.412 70.5333 280.919 70.88C281.439 71.2133 281.812 71.6933 282.039 72.32H282.139V66.2H284.319V81H282.139V79.28ZM279.779 79.36C280.446 79.36 281.006 79.2 281.459 78.88C281.912 78.5467 282.139 78.1133 282.139 77.58V74.02C282.139 73.4867 281.912 73.06 281.459 72.74C281.006 72.4067 280.446 72.24 279.779 72.24C279.019 72.24 278.412 72.4867 277.959 72.98C277.506 73.46 277.279 74.1 277.279 74.9V76.7C277.279 77.5 277.506 78.1467 277.959 78.64C278.412 79.12 279.019 79.36 279.779 79.36ZM298.702 79.28H298.602C298.375 79.8933 298.002 80.3733 297.482 80.72C296.975 81.0667 296.375 81.24 295.682 81.24C294.362 81.24 293.342 80.7667 292.622 79.82C291.902 78.86 291.542 77.52 291.542 75.8C291.542 74.08 291.902 72.7467 292.622 71.8C293.342 70.84 294.362 70.36 295.682 70.36C296.375 70.36 296.975 70.5333 297.482 70.88C298.002 71.2133 298.375 71.6933 298.602 72.32H298.702V66.2H300.882V81H298.702V79.28ZM296.342 79.36C297.008 79.36 297.568 79.2 298.022 78.88C298.475 78.5467 298.702 78.1133 298.702 77.58V74.02C298.702 73.4867 298.475 73.06 298.022 72.74C297.568 72.4067 297.008 72.24 296.342 72.24C295.582 72.24 294.975 72.4867 294.522 72.98C294.068 73.46 293.842 74.1 293.842 74.9V76.7C293.842 77.5 294.068 78.1467 294.522 78.64C294.975 79.12 295.582 79.36 296.342 79.36ZM308.078 81.24C307.331 81.24 306.664 81.1133 306.078 80.86C305.491 80.6067 304.991 80.2467 304.578 79.78C304.164 79.3 303.844 78.7267 303.618 78.06C303.404 77.38 303.298 76.6267 303.298 75.8C303.298 74.9733 303.404 74.2267 303.618 73.56C303.844 72.88 304.164 72.3067 304.578 71.84C304.991 71.36 305.491 70.9933 306.078 70.74C306.664 70.4867 307.331 70.36 308.078 70.36C308.838 70.36 309.504 70.4933 310.078 70.76C310.664 71.0267 311.151 71.4 311.538 71.88C311.924 72.3467 312.211 72.8933 312.398 73.52C312.598 74.1467 312.698 74.82 312.698 75.54V76.36H305.558V76.7C305.558 77.5 305.791 78.16 306.258 78.68C306.738 79.1867 307.418 79.44 308.298 79.44C308.938 79.44 309.478 79.3 309.918 79.02C310.358 78.74 310.731 78.36 311.038 77.88L312.318 79.14C311.931 79.78 311.371 80.2933 310.638 80.68C309.904 81.0533 309.051 81.24 308.078 81.24ZM308.078 72.06C307.704 72.06 307.358 72.1267 307.038 72.26C306.731 72.3933 306.464 72.58 306.238 72.82C306.024 73.06 305.858 73.3467 305.738 73.68C305.618 74.0133 305.558 74.38 305.558 74.78V74.92H310.398V74.72C310.398 73.92 310.191 73.28 309.778 72.8C309.364 72.3067 308.798 72.06 308.078 72.06ZM317.195 81L313.655 70.6H315.815L317.395 75.34L318.455 78.98H318.575L319.635 75.34L321.255 70.6H323.335L319.755 81H317.195ZM326.269 68.74C325.816 68.74 325.483 68.6333 325.269 68.42C325.069 68.2067 324.969 67.9333 324.969 67.6V67.26C324.969 66.9267 325.069 66.6533 325.269 66.44C325.483 66.2267 325.816 66.12 326.269 66.12C326.723 66.12 327.049 66.2267 327.249 66.44C327.449 66.6533 327.549 66.9267 327.549 67.26V67.6C327.549 67.9333 327.449 68.2067 327.249 68.42C327.049 68.6333 326.723 68.74 326.269 68.74ZM325.169 70.6H327.349V81H325.169V70.6ZM338.082 81C337.509 81 337.069 80.84 336.762 80.52C336.456 80.1867 336.269 79.7667 336.202 79.26H336.102C335.902 79.9133 335.536 80.4067 335.002 80.74C334.469 81.0733 333.822 81.24 333.062 81.24C331.982 81.24 331.149 80.96 330.562 80.4C329.989 79.84 329.702 79.0867 329.702 78.14C329.702 77.1 330.076 76.32 330.822 75.8C331.582 75.28 332.689 75.02 334.142 75.02H336.022V74.14C336.022 73.5 335.849 73.0067 335.502 72.66C335.156 72.3133 334.616 72.14 333.882 72.14C333.269 72.14 332.769 72.2733 332.382 72.54C331.996 72.8067 331.669 73.1467 331.402 73.56L330.102 72.38C330.449 71.7933 330.936 71.3133 331.562 70.94C332.189 70.5533 333.009 70.36 334.022 70.36C335.369 70.36 336.402 70.6733 337.122 71.3C337.842 71.9267 338.202 72.8267 338.202 74V79.22H339.302V81H338.082ZM333.682 79.58C334.362 79.58 334.922 79.4333 335.362 79.14C335.802 78.8333 336.022 78.4267 336.022 77.92V76.42H334.182C332.676 76.42 331.922 76.8867 331.922 77.82V78.18C331.922 78.6467 332.076 79 332.382 79.24C332.702 79.4667 333.136 79.58 333.682 79.58ZM344.26 81C343.5 81 342.927 80.8067 342.54 80.42C342.154 80.02 341.96 79.46 341.96 78.74V72.38H340.34V70.6H341.22C341.58 70.6 341.827 70.52 341.96 70.36C342.107 70.2 342.18 69.94 342.18 69.58V67.76H344.14V70.6H346.32V72.38H344.14V79.22H346.16V81H344.26ZM349.785 68.74C349.332 68.74 348.998 68.6333 348.785 68.42C348.585 68.2067 348.485 67.9333 348.485 67.6V67.26C348.485 66.9267 348.585 66.6533 348.785 66.44C348.998 66.2267 349.332 66.12 349.785 66.12C350.238 66.12 350.565 66.2267 350.765 66.44C350.965 66.6533 351.065 66.9267 351.065 67.26V67.6C351.065 67.9333 350.965 68.2067 350.765 68.42C350.565 68.6333 350.238 68.74 349.785 68.74ZM348.685 70.6H350.865V81H348.685V70.6ZM358.058 81.24C357.338 81.24 356.678 81.1133 356.078 80.86C355.491 80.6067 354.991 80.2467 354.578 79.78C354.165 79.3 353.845 78.7267 353.618 78.06C353.391 77.38 353.278 76.6267 353.278 75.8C353.278 74.9733 353.391 74.2267 353.618 73.56C353.845 72.88 354.165 72.3067 354.578 71.84C354.991 71.36 355.491 70.9933 356.078 70.74C356.678 70.4867 357.338 70.36 358.058 70.36C358.778 70.36 359.431 70.4867 360.018 70.74C360.618 70.9933 361.125 71.36 361.538 71.84C361.951 72.3067 362.271 72.88 362.498 73.56C362.725 74.2267 362.838 74.9733 362.838 75.8C362.838 76.6267 362.725 77.38 362.498 78.06C362.271 78.7267 361.951 79.3 361.538 79.78C361.125 80.2467 360.618 80.6067 360.018 80.86C359.431 81.1133 358.778 81.24 358.058 81.24ZM358.058 79.44C358.805 79.44 359.405 79.2133 359.858 78.76C360.311 78.2933 360.538 77.6 360.538 76.68V74.92C360.538 74 360.311 73.3133 359.858 72.86C359.405 72.3933 358.805 72.16 358.058 72.16C357.311 72.16 356.711 72.3933 356.258 72.86C355.805 73.3133 355.578 74 355.578 74.92V76.68C355.578 77.6 355.805 78.2933 356.258 78.76C356.711 79.2133 357.311 79.44 358.058 79.44ZM365.267 81V70.6H367.447V72.32H367.547C367.774 71.76 368.114 71.2933 368.567 70.92C369.034 70.5467 369.667 70.36 370.467 70.36C371.534 70.36 372.36 70.7133 372.947 71.42C373.547 72.1133 373.847 73.1067 373.847 74.4V81H371.667V74.68C371.667 73.0533 371.014 72.24 369.707 72.24C369.427 72.24 369.147 72.28 368.867 72.36C368.6 72.4267 368.36 72.5333 368.147 72.68C367.934 72.8267 367.76 73.0133 367.627 73.24C367.507 73.4667 367.447 73.7333 367.447 74.04V81H365.267ZM380.169 81.24C379.182 81.24 378.355 81.0667 377.689 80.72C377.022 80.3733 376.442 79.8933 375.949 79.28L377.349 78C377.735 78.4667 378.162 78.8333 378.629 79.1C379.109 79.3533 379.662 79.48 380.289 79.48C380.929 79.48 381.402 79.36 381.709 79.12C382.029 78.8667 382.189 78.52 382.189 78.08C382.189 77.7467 382.075 77.4667 381.849 77.24C381.635 77 381.255 76.8467 380.709 76.78L379.749 76.66C378.682 76.5267 377.842 76.22 377.229 75.74C376.629 75.2467 376.329 74.52 376.329 73.56C376.329 73.0533 376.422 72.6067 376.609 72.22C376.795 71.82 377.055 71.4867 377.389 71.22C377.735 70.94 378.142 70.7267 378.609 70.58C379.089 70.4333 379.615 70.36 380.189 70.36C381.122 70.36 381.882 70.5067 382.469 70.8C383.069 71.0933 383.602 71.5 384.069 72.02L382.729 73.3C382.462 72.98 382.109 72.7067 381.669 72.48C381.242 72.24 380.749 72.12 380.189 72.12C379.589 72.12 379.142 72.24 378.849 72.48C378.569 72.72 378.429 73.0333 378.429 73.42C378.429 73.82 378.555 74.12 378.809 74.32C379.062 74.52 379.469 74.6667 380.029 74.76L380.989 74.88C382.135 75.0533 382.969 75.3933 383.489 75.9C384.022 76.3933 384.289 77.06 384.289 77.9C384.289 78.4067 384.189 78.8667 383.989 79.28C383.802 79.68 383.529 80.0267 383.169 80.32C382.809 80.6133 382.375 80.84 381.869 81C381.362 81.16 380.795 81.24 380.169 81.24ZM391.158 76.02V73.8H396.698V76.02H391.158ZM404.232 81V70.6H406.412V72.32H406.512C406.739 71.76 407.079 71.2933 407.532 70.92C407.999 70.5467 408.632 70.36 409.432 70.36C410.499 70.36 411.325 70.7133 411.912 71.42C412.512 72.1133 412.812 73.1067 412.812 74.4V81H410.632V74.68C410.632 73.0533 409.979 72.24 408.672 72.24C408.392 72.24 408.112 72.28 407.832 72.36C407.565 72.4267 407.325 72.5333 407.112 72.68C406.899 72.8267 406.725 73.0133 406.592 73.24C406.472 73.4667 406.412 73.7333 406.412 74.04V81H404.232ZM419.913 81.24C419.193 81.24 418.533 81.1133 417.933 80.86C417.347 80.6067 416.847 80.2467 416.433 79.78C416.02 79.3 415.7 78.7267 415.473 78.06C415.247 77.38 415.133 76.6267 415.133 75.8C415.133 74.9733 415.247 74.2267 415.473 73.56C415.7 72.88 416.02 72.3067 416.433 71.84C416.847 71.36 417.347 70.9933 417.933 70.74C418.533 70.4867 419.193 70.36 419.913 70.36C420.633 70.36 421.287 70.4867 421.873 70.74C422.473 70.9933 422.98 71.36 423.393 71.84C423.807 72.3067 424.127 72.88 424.353 73.56C424.58 74.2267 424.693 74.9733 424.693 75.8C424.693 76.6267 424.58 77.38 424.353 78.06C424.127 78.7267 423.807 79.3 423.393 79.78C422.98 80.2467 422.473 80.6067 421.873 80.86C421.287 81.1133 420.633 81.24 419.913 81.24ZM419.913 79.44C420.66 79.44 421.26 79.2133 421.713 78.76C422.167 78.2933 422.393 77.6 422.393 76.68V74.92C422.393 74 422.167 73.3133 421.713 72.86C421.26 72.3933 420.66 72.16 419.913 72.16C419.167 72.16 418.567 72.3933 418.113 72.86C417.66 73.3133 417.433 74 417.433 74.92V76.68C417.433 77.6 417.66 78.2933 418.113 78.76C418.567 79.2133 419.167 79.44 419.913 79.44ZM427.123 81V70.6H429.303V72.6H429.403C429.549 72.0667 429.856 71.6 430.323 71.2C430.789 70.8 431.436 70.6 432.263 70.6H432.843V72.7H431.983C431.116 72.7 430.449 72.84 429.983 73.12C429.529 73.4 429.303 73.8133 429.303 74.36V81H427.123ZM434.779 81V70.6H436.959V72.32H437.059C437.165 72.0533 437.292 71.8 437.439 71.56C437.599 71.32 437.785 71.1133 437.999 70.94C438.225 70.7533 438.485 70.6133 438.779 70.52C439.085 70.4133 439.439 70.36 439.839 70.36C440.545 70.36 441.172 70.5333 441.719 70.88C442.265 71.2267 442.665 71.76 442.919 72.48H442.979C443.165 71.8933 443.525 71.3933 444.059 70.98C444.592 70.5667 445.279 70.36 446.119 70.36C447.159 70.36 447.965 70.7133 448.539 71.42C449.112 72.1133 449.399 73.1067 449.399 74.4V81H447.219V74.66C447.219 73.86 447.065 73.26 446.759 72.86C446.452 72.4467 445.965 72.24 445.299 72.24C445.019 72.24 444.752 72.28 444.499 72.36C444.245 72.4267 444.019 72.5333 443.819 72.68C443.632 72.8267 443.479 73.0133 443.359 73.24C443.239 73.4667 443.179 73.7267 443.179 74.02V81H440.999V74.66C440.999 73.0467 440.365 72.24 439.099 72.24C438.832 72.24 438.565 72.28 438.299 72.36C438.045 72.4267 437.819 72.5333 437.619 72.68C437.419 72.8267 437.259 73.0133 437.139 73.24C437.019 73.4667 436.959 73.7267 436.959 74.02V81H434.779ZM460.035 81C459.462 81 459.022 80.84 458.715 80.52C458.409 80.1867 458.222 79.7667 458.155 79.26H458.055C457.855 79.9133 457.489 80.4067 456.955 80.74C456.422 81.0733 455.775 81.24 455.015 81.24C453.935 81.24 453.102 80.96 452.515 80.4C451.942 79.84 451.655 79.0867 451.655 78.14C451.655 77.1 452.029 76.32 452.775 75.8C453.535 75.28 454.642 75.02 456.095 75.02H457.975V74.14C457.975 73.5 457.802 73.0067 457.455 72.66C457.109 72.3133 456.569 72.14 455.835 72.14C455.222 72.14 454.722 72.2733 454.335 72.54C453.949 72.8067 453.622 73.1467 453.355 73.56L452.055 72.38C452.402 71.7933 452.889 71.3133 453.515 70.94C454.142 70.5533 454.962 70.36 455.975 70.36C457.322 70.36 458.355 70.6733 459.075 71.3C459.795 71.9267 460.155 72.8267 460.155 74V79.22H461.255V81H460.035ZM455.635 79.58C456.315 79.58 456.875 79.4333 457.315 79.14C457.755 78.8333 457.975 78.4267 457.975 77.92V76.42H456.135C454.629 76.42 453.875 76.8867 453.875 77.82V78.18C453.875 78.6467 454.029 79 454.335 79.24C454.655 79.4667 455.089 79.58 455.635 79.58ZM465.612 81C464.865 81 464.305 80.8133 463.932 80.44C463.572 80.0533 463.392 79.52 463.392 78.84V66.2H465.572V79.22H467.012V81H465.612ZM476.082 81L472.542 70.6H474.702L476.282 75.34L477.342 78.98H477.462L478.522 75.34L480.142 70.6H482.222L478.642 81H476.082ZM487.337 81.24C486.35 81.24 485.523 81.0667 484.857 80.72C484.19 80.3733 483.61 79.8933 483.117 79.28L484.517 78C484.903 78.4667 485.33 78.8333 485.797 79.1C486.277 79.3533 486.83 79.48 487.457 79.48C488.097 79.48 488.57 79.36 488.877 79.12C489.197 78.8667 489.357 78.52 489.357 78.08C489.357 77.7467 489.243 77.4667 489.017 77.24C488.803 77 488.423 76.8467 487.877 76.78L486.917 76.66C485.85 76.5267 485.01 76.22 484.397 75.74C483.797 75.2467 483.497 74.52 483.497 73.56C483.497 73.0533 483.59 72.6067 483.777 72.22C483.963 71.82 484.223 71.4867 484.557 71.22C484.903 70.94 485.31 70.7267 485.777 70.58C486.257 70.4333 486.783 70.36 487.357 70.36C488.29 70.36 489.05 70.5067 489.637 70.8C490.237 71.0933 490.77 71.5 491.237 72.02L489.897 73.3C489.63 72.98 489.277 72.7067 488.837 72.48C488.41 72.24 487.917 72.12 487.357 72.12C486.757 72.12 486.31 72.24 486.017 72.48C485.737 72.72 485.597 73.0333 485.597 73.42C485.597 73.82 485.723 74.12 485.977 74.32C486.23 74.52 486.637 74.6667 487.197 74.76L488.157 74.88C489.303 75.0533 490.137 75.3933 490.657 75.9C491.19 76.3933 491.457 77.06 491.457 77.9C491.457 78.4067 491.357 78.8667 491.157 79.28C490.97 79.68 490.697 80.0267 490.337 80.32C489.977 80.6133 489.543 80.84 489.037 81C488.53 81.16 487.963 81.24 487.337 81.24ZM507.393 81.24C506.646 81.24 505.979 81.1133 505.393 80.86C504.806 80.6067 504.313 80.2467 503.913 79.78C503.513 79.3 503.206 78.7267 502.993 78.06C502.779 77.38 502.673 76.6267 502.673 75.8C502.673 74.9733 502.779 74.2267 502.993 73.56C503.206 72.88 503.513 72.3067 503.913 71.84C504.313 71.36 504.806 70.9933 505.393 70.74C505.979 70.4867 506.646 70.36 507.393 70.36C508.433 70.36 509.286 70.5933 509.953 71.06C510.619 71.5267 511.106 72.1467 511.413 72.92L509.613 73.76C509.466 73.28 509.206 72.9 508.833 72.62C508.473 72.3267 507.993 72.18 507.393 72.18C506.593 72.18 505.986 72.4333 505.573 72.94C505.173 73.4333 504.973 74.08 504.973 74.88V76.74C504.973 77.54 505.173 78.1933 505.573 78.7C505.986 79.1933 506.593 79.44 507.393 79.44C508.033 79.44 508.539 79.2867 508.913 78.98C509.299 78.66 509.606 78.24 509.833 77.72L511.493 78.6C511.146 79.4533 510.626 80.1067 509.933 80.56C509.239 81.0133 508.393 81.24 507.393 81.24ZM519.868 79.28H519.788C519.694 79.5333 519.568 79.78 519.408 80.02C519.261 80.26 519.068 80.4733 518.828 80.66C518.601 80.8333 518.321 80.9733 517.988 81.08C517.668 81.1867 517.294 81.24 516.868 81.24C515.788 81.24 514.948 80.8933 514.348 80.2C513.761 79.5067 513.468 78.5133 513.468 77.22V70.6H515.648V76.94C515.648 78.5533 516.314 79.36 517.648 79.36C517.928 79.36 518.201 79.3267 518.468 79.26C518.734 79.18 518.968 79.0667 519.168 78.92C519.381 78.7733 519.548 78.5867 519.668 78.36C519.801 78.1333 519.868 77.8667 519.868 77.56V70.6H522.048V81H519.868V79.28ZM528.469 81.24C527.483 81.24 526.656 81.0667 525.989 80.72C525.323 80.3733 524.743 79.8933 524.249 79.28L525.649 78C526.036 78.4667 526.463 78.8333 526.929 79.1C527.409 79.3533 527.963 79.48 528.589 79.48C529.229 79.48 529.703 79.36 530.009 79.12C530.329 78.8667 530.489 78.52 530.489 78.08C530.489 77.7467 530.376 77.4667 530.149 77.24C529.936 77 529.556 76.8467 529.009 76.78L528.049 76.66C526.983 76.5267 526.143 76.22 525.529 75.74C524.929 75.2467 524.629 74.52 524.629 73.56C524.629 73.0533 524.723 72.6067 524.909 72.22C525.096 71.82 525.356 71.4867 525.689 71.22C526.036 70.94 526.443 70.7267 526.909 70.58C527.389 70.4333 527.916 70.36 528.489 70.36C529.423 70.36 530.183 70.5067 530.769 70.8C531.369 71.0933 531.903 71.5 532.369 72.02L531.029 73.3C530.763 72.98 530.409 72.7067 529.969 72.48C529.543 72.24 529.049 72.12 528.489 72.12C527.889 72.12 527.443 72.24 527.149 72.48C526.869 72.72 526.729 73.0333 526.729 73.42C526.729 73.82 526.856 74.12 527.109 74.32C527.363 74.52 527.769 74.6667 528.329 74.76L529.289 74.88C530.436 75.0533 531.269 75.3933 531.789 75.9C532.323 76.3933 532.589 77.06 532.589 77.9C532.589 78.4067 532.489 78.8667 532.289 79.28C532.103 79.68 531.829 80.0267 531.469 80.32C531.109 80.6133 530.676 80.84 530.169 81C529.663 81.16 529.096 81.24 528.469 81.24ZM537.795 81C537.035 81 536.462 80.8067 536.075 80.42C535.689 80.02 535.495 79.46 535.495 78.74V72.38H533.875V70.6H534.755C535.115 70.6 535.362 70.52 535.495 70.36C535.642 70.2 535.715 69.94 535.715 69.58V67.76H537.675V70.6H539.855V72.38H537.675V79.22H539.695V81H537.795ZM546.222 81.24C545.502 81.24 544.842 81.1133 544.242 80.86C543.655 80.6067 543.155 80.2467 542.742 79.78C542.329 79.3 542.009 78.7267 541.782 78.06C541.555 77.38 541.442 76.6267 541.442 75.8C541.442 74.9733 541.555 74.2267 541.782 73.56C542.009 72.88 542.329 72.3067 542.742 71.84C543.155 71.36 543.655 70.9933 544.242 70.74C544.842 70.4867 545.502 70.36 546.222 70.36C546.942 70.36 547.595 70.4867 548.182 70.74C548.782 70.9933 549.289 71.36 549.702 71.84C550.115 72.3067 550.435 72.88 550.662 73.56C550.889 74.2267 551.002 74.9733 551.002 75.8C551.002 76.6267 550.889 77.38 550.662 78.06C550.435 78.7267 550.115 79.3 549.702 79.78C549.289 80.2467 548.782 80.6067 548.182 80.86C547.595 81.1133 546.942 81.24 546.222 81.24ZM546.222 79.44C546.969 79.44 547.569 79.2133 548.022 78.76C548.475 78.2933 548.702 77.6 548.702 76.68V74.92C548.702 74 548.475 73.3133 548.022 72.86C547.569 72.3933 546.969 72.16 546.222 72.16C545.475 72.16 544.875 72.3933 544.422 72.86C543.969 73.3133 543.742 74 543.742 74.92V76.68C543.742 77.6 543.969 78.2933 544.422 78.76C544.875 79.2133 545.475 79.44 546.222 79.44ZM553.431 81V70.6H555.611V72.32H555.711C555.818 72.0533 555.944 71.8 556.091 71.56C556.251 71.32 556.438 71.1133 556.651 70.94C556.878 70.7533 557.138 70.6133 557.431 70.52C557.738 70.4133 558.091 70.36 558.491 70.36C559.198 70.36 559.824 70.5333 560.371 70.88C560.918 71.2267 561.318 71.76 561.571 72.48H561.631C561.818 71.8933 562.178 71.3933 562.711 70.98C563.244 70.5667 563.931 70.36 564.771 70.36C565.811 70.36 566.618 70.7133 567.191 71.42C567.764 72.1133 568.051 73.1067 568.051 74.4V81H565.871V74.66C565.871 73.86 565.718 73.26 565.411 72.86C565.104 72.4467 564.618 72.24 563.951 72.24C563.671 72.24 563.404 72.28 563.151 72.36C562.898 72.4267 562.671 72.5333 562.471 72.68C562.284 72.8267 562.131 73.0133 562.011 73.24C561.891 73.4667 561.831 73.7267 561.831 74.02V81H559.651V74.66C559.651 73.0467 559.018 72.24 557.751 72.24C557.484 72.24 557.218 72.28 556.951 72.36C556.698 72.4267 556.471 72.5333 556.271 72.68C556.071 72.8267 555.911 73.0133 555.791 73.24C555.671 73.4667 555.611 73.7267 555.611 74.02V81H553.431ZM584.914 81.98C584.914 83.06 584.501 83.8733 583.674 84.42C582.848 84.9667 581.501 85.24 579.634 85.24C578.781 85.24 578.054 85.18 577.454 85.06C576.868 84.9533 576.381 84.7933 575.994 84.58C575.621 84.3667 575.348 84.1067 575.174 83.8C575.001 83.4933 574.914 83.14 574.914 82.74C574.914 82.1667 575.068 81.72 575.374 81.4C575.694 81.08 576.134 80.86 576.694 80.74V80.52C575.908 80.2667 575.514 79.7333 575.514 78.92C575.514 78.3867 575.694 77.98 576.054 77.7C576.414 77.4067 576.848 77.2 577.354 77.08V77C576.741 76.7067 576.268 76.3 575.934 75.78C575.614 75.2467 575.454 74.6267 575.454 73.92C575.454 72.8533 575.808 71.9933 576.514 71.34C577.234 70.6867 578.261 70.36 579.594 70.36C580.328 70.36 580.954 70.4667 581.474 70.68V70.4C581.474 69.9333 581.581 69.5733 581.794 69.32C582.021 69.0533 582.368 68.92 582.834 68.92H584.434V70.68H582.314V71.1C582.781 71.4067 583.141 71.8067 583.394 72.3C583.648 72.78 583.774 73.32 583.774 73.92C583.774 74.9733 583.414 75.8267 582.694 76.48C581.974 77.12 580.948 77.44 579.614 77.44C579.108 77.44 578.654 77.3867 578.254 77.28C577.988 77.3733 577.754 77.5067 577.554 77.68C577.354 77.84 577.254 78.0533 577.254 78.32C577.254 78.6 577.381 78.8 577.634 78.92C577.888 79.04 578.248 79.1 578.714 79.1H581.274C582.554 79.1 583.481 79.36 584.054 79.88C584.628 80.3867 584.914 81.0867 584.914 81.98ZM582.874 82.22C582.874 81.86 582.734 81.5733 582.454 81.36C582.188 81.1467 581.694 81.04 580.974 81.04H577.454C576.974 81.32 576.734 81.72 576.734 82.24C576.734 82.6667 576.901 83.0067 577.234 83.26C577.581 83.5267 578.161 83.66 578.974 83.66H580.334C582.028 83.66 582.874 83.18 582.874 82.22ZM579.614 75.86C580.254 75.86 580.748 75.72 581.094 75.44C581.454 75.1467 581.634 74.7 581.634 74.1V73.7C581.634 73.1 581.454 72.66 581.094 72.38C580.748 72.0867 580.254 71.94 579.614 71.94C578.974 71.94 578.474 72.0867 578.114 72.38C577.768 72.66 577.594 73.1 577.594 73.7V74.1C577.594 74.7 577.768 75.1467 578.114 75.44C578.474 75.72 578.974 75.86 579.614 75.86ZM586.537 70.6H588.717V72.32H588.817C589.043 71.6933 589.41 71.2133 589.917 70.88C590.437 70.5333 591.043 70.36 591.737 70.36C593.057 70.36 594.077 70.84 594.797 71.8C595.517 72.7467 595.877 74.08 595.877 75.8C595.877 77.52 595.517 78.86 594.797 79.82C594.077 80.7667 593.057 81.24 591.737 81.24C591.043 81.24 590.437 81.0667 589.917 80.72C589.41 80.3733 589.043 79.8933 588.817 79.28H588.717V85H586.537V70.6ZM591.077 79.36C591.837 79.36 592.443 79.12 592.897 78.64C593.35 78.1467 593.577 77.5 593.577 76.7V74.9C593.577 74.1 593.35 73.46 592.897 72.98C592.443 72.4867 591.837 72.24 591.077 72.24C590.41 72.24 589.85 72.4067 589.397 72.74C588.943 73.06 588.717 73.4867 588.717 74.02V77.58C588.717 78.1133 588.943 78.5467 589.397 78.88C589.85 79.2 590.41 79.36 591.077 79.36ZM601.135 81C600.375 81 599.802 80.8067 599.415 80.42C599.029 80.02 598.835 79.46 598.835 78.74V72.38H597.215V70.6H598.095C598.455 70.6 598.702 70.52 598.835 70.36C598.982 70.2 599.055 69.94 599.055 69.58V67.76H601.015V70.6H603.195V72.38H601.015V79.22H603.035V81H601.135Z" fill="#020203"/>
<rect x="195" y="216" width="110" height="264" fill="#F1D9EA"/>
<rect x="415" y="253" width="110" height="227" fill="#D8DF69"/>
<path d="M85 360.72L81.44 361.84V366.8L85 367.9V370.58L71.04 365.9V362.62L85 357.98V360.72ZM73.44 364.28V364.38L79.18 366.16V362.48L73.44 364.28ZM85 354.389L74.56 357.869V355.349L79.06 353.889L82.78 352.869V352.729L79.06 351.709L74.56 350.289V347.849L85 351.349V354.389ZM85.24 342.077C85.24 342.851 85.1133 343.544 84.86 344.157C84.5933 344.757 84.2267 345.271 83.76 345.697C83.28 346.111 82.7067 346.431 82.04 346.657C81.36 346.884 80.6 346.997 79.76 346.997C78.9333 346.997 78.1867 346.891 77.52 346.677C76.8533 346.451 76.2867 346.131 75.82 345.717C75.34 345.304 74.9733 344.797 74.72 344.197C74.4533 343.597 74.32 342.917 74.32 342.157C74.32 341.344 74.46 340.637 74.74 340.037C75.02 339.437 75.4 338.944 75.88 338.557C76.36 338.171 76.92 337.884 77.56 337.697C78.1867 337.497 78.86 337.397 79.58 337.397H80.42V344.337H80.68C81.44 344.337 82.0533 344.124 82.52 343.697C82.9733 343.271 83.2 342.637 83.2 341.797C83.2 341.157 83.0667 340.637 82.8 340.237C82.5333 339.824 82.1933 339.457 81.78 339.137L83.32 337.757C83.92 338.184 84.3933 338.771 84.74 339.517C85.0733 340.251 85.24 341.104 85.24 342.077ZM76.24 342.117C76.24 342.797 76.4667 343.337 76.92 343.737C77.3733 344.137 77.96 344.337 78.68 344.337H78.84V340.057H78.66C77.94 340.057 77.36 340.237 76.92 340.597C76.4667 340.944 76.24 341.451 76.24 342.117ZM85 335.145H74.56V332.585H76.72V332.485C76.44 332.418 76.1733 332.318 75.92 332.185C75.6533 332.038 75.42 331.852 75.22 331.625C75.02 331.398 74.86 331.132 74.74 330.825C74.62 330.505 74.56 330.138 74.56 329.725V329.165H76.98V329.965C76.98 330.832 77.1067 331.485 77.36 331.925C77.6133 332.365 78.0267 332.585 78.6 332.585H85V335.145ZM85 319.828C85 320.388 84.84 320.835 84.52 321.168C84.1867 321.488 83.7467 321.688 83.2 321.768V321.888C83.88 322.062 84.3933 322.415 84.74 322.948C85.0733 323.482 85.24 324.142 85.24 324.928C85.24 325.995 84.96 326.815 84.4 327.388C83.84 327.962 83.0933 328.248 82.16 328.248C81.08 328.248 80.28 327.862 79.76 327.088C79.2267 326.315 78.96 325.215 78.96 323.788V322.008H78.2C77.6133 322.008 77.16 322.162 76.84 322.468C76.52 322.775 76.36 323.268 76.36 323.948C76.36 324.548 76.4933 325.035 76.76 325.408C77.0133 325.768 77.32 326.075 77.68 326.328L76.32 327.848C75.72 327.462 75.24 326.948 74.88 326.308C74.5067 325.668 74.32 324.822 74.32 323.768C74.32 322.355 74.64 321.282 75.28 320.548C75.92 319.815 76.84 319.448 78.04 319.448H82.96V318.408H85V319.828ZM83.38 324.068C83.38 323.495 83.2533 323.008 83 322.608C82.7467 322.208 82.3733 322.008 81.88 322.008H80.5V323.648C80.5 324.982 80.9267 325.648 81.78 325.648H82.12C82.5467 325.648 82.8667 325.515 83.08 325.248C83.28 324.968 83.38 324.575 83.38 324.068ZM85.88 306.916C86.4267 306.916 86.9067 307.016 87.32 307.216C87.7467 307.403 88.1 307.716 88.38 308.156C88.66 308.596 88.8733 309.163 89.02 309.856C89.1667 310.55 89.24 311.396 89.24 312.396C89.24 313.276 89.18 314.023 89.06 314.636C88.9533 315.25 88.7933 315.756 88.58 316.156C88.38 316.543 88.1267 316.823 87.82 316.996C87.5133 317.17 87.1667 317.256 86.78 317.256C86.1933 317.256 85.7333 317.096 85.4 316.776C85.08 316.443 84.8733 315.983 84.78 315.396H84.56C84.4533 315.823 84.2467 316.156 83.94 316.396C83.62 316.623 83.2467 316.736 82.82 316.736C82.5533 316.736 82.32 316.683 82.12 316.576C81.9067 316.47 81.7267 316.33 81.58 316.156C81.4333 315.97 81.3133 315.763 81.22 315.536C81.1133 315.31 81.0333 315.07 80.98 314.816H80.9C80.6067 315.456 80.2 315.936 79.68 316.256C79.16 316.563 78.5533 316.716 77.86 316.716C76.7933 316.716 75.94 316.35 75.3 315.616C74.6467 314.883 74.32 313.81 74.32 312.396C74.32 312.076 74.34 311.763 74.38 311.456C74.42 311.136 74.4867 310.843 74.58 310.576H74.24C73.2267 310.576 72.72 310.083 72.72 309.096V307.476H74.68V309.696H74.96C75.2667 309.15 75.6667 308.743 76.16 308.476C76.6533 308.21 77.22 308.076 77.86 308.076C78.9133 308.076 79.76 308.443 80.4 309.176C81.04 309.896 81.36 310.97 81.36 312.396C81.36 313.01 81.3 313.543 81.18 313.996C81.2733 314.196 81.4 314.37 81.56 314.516C81.7067 314.663 81.8933 314.736 82.12 314.736C82.64 314.736 82.9 314.283 82.9 313.376V310.576C82.9 309.296 83.1667 308.37 83.7 307.796C84.22 307.21 84.9467 306.916 85.88 306.916ZM86.18 309.316C85.8467 309.316 85.5867 309.45 85.4 309.716C85.2133 309.983 85.12 310.443 85.12 311.096V314.656C85.3867 315.016 85.7467 315.196 86.2 315.196C86.6 315.196 86.9133 315.03 87.14 314.696C87.3667 314.363 87.48 313.796 87.48 312.996V311.716C87.48 310.876 87.3733 310.27 87.16 309.896C86.9467 309.51 86.62 309.316 86.18 309.316ZM79.62 312.396C79.62 311.143 79.0867 310.516 78.02 310.516H77.68C76.6133 310.516 76.08 311.143 76.08 312.396C76.08 313.65 76.6133 314.276 77.68 314.276H78.02C79.0867 314.276 79.62 313.65 79.62 312.396ZM85.24 301.335C85.24 302.108 85.1133 302.802 84.86 303.415C84.5933 304.015 84.2267 304.528 83.76 304.955C83.28 305.368 82.7067 305.688 82.04 305.915C81.36 306.142 80.6 306.255 79.76 306.255C78.9333 306.255 78.1867 306.148 77.52 305.935C76.8533 305.708 76.2867 305.388 75.82 304.975C75.34 304.562 74.9733 304.055 74.72 303.455C74.4533 302.855 74.32 302.175 74.32 301.415C74.32 300.602 74.46 299.895 74.74 299.295C75.02 298.695 75.4 298.202 75.88 297.815C76.36 297.428 76.92 297.142 77.56 296.955C78.1867 296.755 78.86 296.655 79.58 296.655H80.42V303.595H80.68C81.44 303.595 82.0533 303.382 82.52 302.955C82.9733 302.528 83.2 301.895 83.2 301.055C83.2 300.415 83.0667 299.895 82.8 299.495C82.5333 299.082 82.1933 298.715 81.78 298.395L83.32 297.015C83.92 297.442 84.3933 298.028 84.74 298.775C85.0733 299.508 85.24 300.362 85.24 301.335ZM76.24 301.375C76.24 302.055 76.4667 302.595 76.92 302.995C77.3733 303.395 77.96 303.595 78.68 303.595H78.84V299.315H78.66C77.94 299.315 77.36 299.495 76.92 299.855C76.4667 300.202 76.24 300.708 76.24 301.375ZM85.24 285.176C85.24 286.376 85.0267 287.396 84.6 288.236C84.1733 289.063 83.6133 289.776 82.92 290.376L81.2 288.596C81.76 288.116 82.1867 287.583 82.48 286.996C82.7733 286.396 82.92 285.736 82.92 285.016C82.92 284.203 82.7467 283.59 82.4 283.176C82.04 282.763 81.56 282.556 80.96 282.556C80.4933 282.556 80.1133 282.69 79.82 282.956C79.5267 283.223 79.3133 283.723 79.18 284.456L78.98 285.776C78.54 288.563 77.1867 289.956 74.92 289.956C74.2933 289.956 73.7267 289.843 73.22 289.616C72.7133 289.376 72.28 289.036 71.92 288.596C71.56 288.156 71.2867 287.63 71.1 287.016C70.9 286.39 70.8 285.683 70.8 284.896C70.8 283.843 70.9733 282.923 71.32 282.136C71.6667 281.35 72.18 280.676 72.86 280.116L74.56 281.916C74.1333 282.263 73.7867 282.683 73.52 283.176C73.2533 283.67 73.12 284.29 73.12 285.036C73.12 285.796 73.2667 286.37 73.56 286.756C73.84 287.13 74.24 287.316 74.76 287.316C75.2933 287.316 75.6867 287.163 75.94 286.856C76.1933 286.55 76.38 286.056 76.5 285.376L76.74 284.076C76.9933 282.663 77.4467 281.623 78.1 280.956C78.74 280.276 79.64 279.936 80.8 279.936C81.4667 279.936 82.0733 280.056 82.62 280.296C83.1533 280.523 83.62 280.863 84.02 281.316C84.4067 281.756 84.7067 282.303 84.92 282.956C85.1333 283.596 85.24 284.336 85.24 285.176ZM85.24 273.33C85.24 274.103 85.1133 274.79 84.86 275.39C84.6067 275.99 84.24 276.496 83.76 276.91C83.28 277.31 82.7067 277.616 82.04 277.83C81.36 278.043 80.6 278.15 79.76 278.15C78.92 278.15 78.1667 278.043 77.5 277.83C76.8333 277.616 76.2667 277.31 75.8 276.91C75.32 276.496 74.9533 275.99 74.7 275.39C74.4467 274.79 74.32 274.103 74.32 273.33C74.32 272.276 74.5533 271.41 75.02 270.73C75.4867 270.036 76.1333 269.536 76.96 269.23L77.9 271.33C77.46 271.45 77.1 271.676 76.82 272.01C76.5267 272.33 76.38 272.77 76.38 273.33C76.38 274.05 76.6067 274.59 77.06 274.95C77.5133 275.296 78.1067 275.47 78.84 275.47H80.74C81.4733 275.47 82.0667 275.296 82.52 274.95C82.96 274.59 83.18 274.05 83.18 273.33C83.18 272.716 83.0267 272.243 82.72 271.91C82.4 271.576 82.0067 271.316 81.54 271.13L82.48 269.17C83.4 269.516 84.0933 270.043 84.56 270.75C85.0133 271.456 85.24 272.316 85.24 273.33ZM85.24 263.153C85.24 263.9 85.1133 264.573 84.86 265.173C84.6067 265.76 84.24 266.267 83.76 266.693C83.28 267.107 82.7067 267.427 82.04 267.653C81.36 267.88 80.6 267.993 79.76 267.993C78.92 267.993 78.1667 267.88 77.5 267.653C76.8333 267.427 76.2667 267.107 75.8 266.693C75.32 266.267 74.9533 265.76 74.7 265.173C74.4467 264.573 74.32 263.9 74.32 263.153C74.32 262.407 74.4467 261.733 74.7 261.133C74.9533 260.533 75.32 260.027 75.8 259.613C76.2667 259.187 76.8333 258.86 77.5 258.633C78.1667 258.407 78.92 258.293 79.76 258.293C80.6 258.293 81.36 258.407 82.04 258.633C82.7067 258.86 83.28 259.187 83.76 259.613C84.24 260.027 84.6067 260.533 84.86 261.133C85.1133 261.733 85.24 262.407 85.24 263.153ZM83.18 263.153C83.18 262.473 82.9733 261.94 82.56 261.553C82.1467 261.167 81.54 260.973 80.74 260.973H78.8C78.0133 260.973 77.4133 261.167 77 261.553C76.5867 261.94 76.38 262.473 76.38 263.153C76.38 263.82 76.5867 264.347 77 264.733C77.4133 265.12 78.0133 265.313 78.8 265.313H80.74C81.54 265.313 82.1467 265.12 82.56 264.733C82.9733 264.347 83.18 263.82 83.18 263.153ZM85 256.024H74.56V253.464H76.72V253.364C76.44 253.297 76.1733 253.197 75.92 253.064C75.6533 252.917 75.42 252.731 75.22 252.504C75.02 252.277 74.86 252.011 74.74 251.704C74.62 251.384 74.56 251.017 74.56 250.604V250.044H76.98V250.844C76.98 251.711 77.1067 252.364 77.36 252.804C77.6133 253.244 78.0267 253.464 78.6 253.464H85V256.024ZM85.24 244.05C85.24 244.823 85.1133 245.517 84.86 246.13C84.5933 246.73 84.2267 247.243 83.76 247.67C83.28 248.083 82.7067 248.403 82.04 248.63C81.36 248.857 80.6 248.97 79.76 248.97C78.9333 248.97 78.1867 248.863 77.52 248.65C76.8533 248.423 76.2867 248.103 75.82 247.69C75.34 247.277 74.9733 246.77 74.72 246.17C74.4533 245.57 74.32 244.89 74.32 244.13C74.32 243.317 74.46 242.61 74.74 242.01C75.02 241.41 75.4 240.917 75.88 240.53C76.36 240.143 76.92 239.857 77.56 239.67C78.1867 239.47 78.86 239.37 79.58 239.37H80.42V246.31H80.68C81.44 246.31 82.0533 246.097 82.52 245.67C82.9733 245.243 83.2 244.61 83.2 243.77C83.2 243.13 83.0667 242.61 82.8 242.21C82.5333 241.797 82.1933 241.43 81.78 241.11L83.32 239.73C83.92 240.157 84.3933 240.743 84.74 241.49C85.0733 242.223 85.24 243.077 85.24 244.05ZM76.24 244.09C76.24 244.77 76.4667 245.31 76.92 245.71C77.3733 246.11 77.96 246.31 78.68 246.31H78.84V242.03H78.66C77.94 242.03 77.36 242.21 76.92 242.57C76.4667 242.917 76.24 243.423 76.24 244.09ZM85.24 233.698C85.24 234.698 85.0733 235.538 84.74 236.218C84.3933 236.898 83.92 237.498 83.32 238.018L81.8 236.458C82.24 236.071 82.5867 235.651 82.84 235.198C83.0933 234.731 83.22 234.198 83.22 233.598C83.22 232.984 83.1133 232.544 82.9 232.278C82.6867 231.998 82.3933 231.858 82.02 231.858C81.7133 231.858 81.4733 231.958 81.3 232.158C81.1133 232.344 80.9867 232.671 80.92 233.138L80.78 234.178C80.6333 235.311 80.3133 236.178 79.82 236.778C79.3133 237.364 78.58 237.658 77.62 237.658C77.1133 237.658 76.66 237.564 76.26 237.378C75.8467 237.191 75.5 236.924 75.22 236.578C74.9267 236.231 74.7067 235.818 74.56 235.338C74.4 234.844 74.32 234.298 74.32 233.698C74.32 233.191 74.36 232.744 74.44 232.358C74.5067 231.958 74.6133 231.598 74.76 231.278C74.8933 230.958 75.0667 230.664 75.28 230.398C75.48 230.131 75.7067 229.871 75.96 229.618L77.46 231.118C77.14 231.424 76.8733 231.791 76.66 232.218C76.4467 232.644 76.34 233.111 76.34 233.618C76.34 234.178 76.44 234.584 76.64 234.838C76.84 235.078 77.1 235.198 77.42 235.198C77.7667 235.198 78.0333 235.098 78.22 234.898C78.3933 234.684 78.52 234.331 78.6 233.838L78.74 232.778C79.06 230.524 80.0867 229.398 81.82 229.398C82.3267 229.398 82.7933 229.504 83.22 229.718C83.6333 229.918 83.9933 230.204 84.3 230.578C84.5933 230.951 84.8267 231.404 85 231.938C85.16 232.458 85.24 233.044 85.24 233.698Z" fill="#020203"/>
<path d="M212.813 501.18C211.443 501.18 210.368 500.72 209.588 499.8C208.808 498.87 208.418 497.525 208.418 495.765C208.418 494.885 208.518 494.11 208.718 493.44C208.918 492.77 209.208 492.205 209.588 491.745C209.968 491.285 210.428 490.94 210.968 490.71C211.518 490.47 212.133 490.35 212.813 490.35C213.723 490.35 214.483 490.55 215.093 490.95C215.713 491.35 216.198 491.94 216.548 492.72L215.123 493.5C214.943 493 214.663 492.605 214.283 492.315C213.913 492.015 213.423 491.865 212.813 491.865C212.003 491.865 211.368 492.14 210.908 492.69C210.448 493.24 210.218 494 210.218 494.97V496.56C210.218 497.53 210.448 498.29 210.908 498.84C211.368 499.39 212.003 499.665 212.813 499.665C213.443 499.665 213.953 499.505 214.343 499.185C214.743 498.855 215.038 498.435 215.228 497.925L216.593 498.75C216.243 499.51 215.753 500.105 215.123 500.535C214.493 500.965 213.723 501.18 212.813 501.18ZM222.995 499.71H222.935C222.865 499.9 222.77 500.085 222.65 500.265C222.54 500.445 222.395 500.605 222.215 500.745C222.045 500.875 221.835 500.98 221.585 501.06C221.345 501.14 221.065 501.18 220.745 501.18C219.935 501.18 219.305 500.92 218.855 500.4C218.415 499.88 218.195 499.135 218.195 498.165V493.2H219.83V497.955C219.83 499.165 220.33 499.77 221.33 499.77C221.54 499.77 221.745 499.745 221.945 499.695C222.145 499.635 222.32 499.55 222.47 499.44C222.63 499.33 222.755 499.19 222.845 499.02C222.945 498.85 222.995 498.65 222.995 498.42V493.2H224.63V501H222.995V499.71ZM229.446 501.18C228.706 501.18 228.086 501.05 227.586 500.79C227.086 500.53 226.651 500.17 226.281 499.71L227.331 498.75C227.621 499.1 227.941 499.375 228.291 499.575C228.651 499.765 229.066 499.86 229.536 499.86C230.016 499.86 230.371 499.77 230.601 499.59C230.841 499.4 230.961 499.14 230.961 498.81C230.961 498.56 230.876 498.35 230.706 498.18C230.546 498 230.261 497.885 229.851 497.835L229.131 497.745C228.331 497.645 227.701 497.415 227.241 497.055C226.791 496.685 226.566 496.14 226.566 495.42C226.566 495.04 226.636 494.705 226.776 494.415C226.916 494.115 227.111 493.865 227.361 493.665C227.621 493.455 227.926 493.295 228.276 493.185C228.636 493.075 229.031 493.02 229.461 493.02C230.161 493.02 230.731 493.13 231.171 493.35C231.621 493.57 232.021 493.875 232.371 494.265L231.366 495.225C231.166 494.985 230.901 494.78 230.571 494.61C230.251 494.43 229.881 494.34 229.461 494.34C229.011 494.34 228.676 494.43 228.456 494.61C228.246 494.79 228.141 495.025 228.141 495.315C228.141 495.615 228.236 495.84 228.426 495.99C228.616 496.14 228.921 496.25 229.341 496.32L230.061 496.41C230.921 496.54 231.546 496.795 231.936 497.175C232.336 497.545 232.536 498.045 232.536 498.675C232.536 499.055 232.461 499.4 232.311 499.71C232.171 500.01 231.966 500.27 231.696 500.49C231.426 500.71 231.101 500.88 230.721 501C230.341 501.12 229.916 501.18 229.446 501.18ZM236.44 501C235.87 501 235.44 500.855 235.15 500.565C234.86 500.265 234.715 499.845 234.715 499.305V494.535H233.5V493.2H234.16C234.43 493.2 234.615 493.14 234.715 493.02C234.825 492.9 234.88 492.705 234.88 492.435V491.07H236.35V493.2H237.985V494.535H236.35V499.665H237.865V501H236.44ZM242.76 501.18C242.22 501.18 241.725 501.085 241.275 500.895C240.835 500.705 240.46 500.435 240.15 500.085C239.84 499.725 239.6 499.295 239.43 498.795C239.26 498.285 239.175 497.72 239.175 497.1C239.175 496.48 239.26 495.92 239.43 495.42C239.6 494.91 239.84 494.48 240.15 494.13C240.46 493.77 240.835 493.495 241.275 493.305C241.725 493.115 242.22 493.02 242.76 493.02C243.3 493.02 243.79 493.115 244.23 493.305C244.68 493.495 245.06 493.77 245.37 494.13C245.68 494.48 245.92 494.91 246.09 495.42C246.26 495.92 246.345 496.48 246.345 497.1C246.345 497.72 246.26 498.285 246.09 498.795C245.92 499.295 245.68 499.725 245.37 500.085C245.06 500.435 244.68 500.705 244.23 500.895C243.79 501.085 243.3 501.18 242.76 501.18ZM242.76 499.83C243.32 499.83 243.77 499.66 244.11 499.32C244.45 498.97 244.62 498.45 244.62 497.76V496.44C244.62 495.75 244.45 495.235 244.11 494.895C243.77 494.545 243.32 494.37 242.76 494.37C242.2 494.37 241.75 494.545 241.41 494.895C241.07 495.235 240.9 495.75 240.9 496.44V497.76C240.9 498.45 241.07 498.97 241.41 499.32C241.75 499.66 242.2 499.83 242.76 499.83ZM248.167 501V493.2H249.802V494.49H249.877C249.957 494.29 250.052 494.1 250.162 493.92C250.282 493.74 250.422 493.585 250.582 493.455C250.752 493.315 250.947 493.21 251.167 493.14C251.397 493.06 251.662 493.02 251.962 493.02C252.492 493.02 252.962 493.15 253.372 493.41C253.782 493.67 254.082 494.07 254.272 494.61H254.317C254.457 494.17 254.727 493.795 255.127 493.485C255.527 493.175 256.042 493.02 256.672 493.02C257.452 493.02 258.057 493.285 258.487 493.815C258.917 494.335 259.132 495.08 259.132 496.05V501H257.497V496.245C257.497 495.645 257.382 495.195 257.152 494.895C256.922 494.585 256.557 494.43 256.057 494.43C255.847 494.43 255.647 494.46 255.457 494.52C255.267 494.57 255.097 494.65 254.947 494.76C254.807 494.87 254.692 495.01 254.602 495.18C254.512 495.35 254.467 495.545 254.467 495.765V501H252.832V496.245C252.832 495.035 252.357 494.43 251.407 494.43C251.207 494.43 251.007 494.46 250.807 494.52C250.617 494.57 250.447 494.65 250.297 494.76C250.147 494.87 250.027 495.01 249.937 495.18C249.847 495.35 249.802 495.545 249.802 495.765V501H248.167ZM271.795 499.41H271.735C271.625 499.92 271.325 500.345 270.835 500.685C270.355 501.015 269.715 501.18 268.915 501.18C268.295 501.18 267.72 501.065 267.19 500.835C266.66 500.595 266.2 500.25 265.81 499.8C265.43 499.34 265.13 498.775 264.91 498.105C264.7 497.425 264.595 496.645 264.595 495.765C264.595 494.895 264.705 494.125 264.925 493.455C265.145 492.775 265.455 492.205 265.855 491.745C266.255 491.285 266.735 490.94 267.295 490.71C267.855 490.47 268.48 490.35 269.17 490.35C270.11 490.35 270.905 490.56 271.555 490.98C272.205 491.39 272.71 491.965 273.07 492.705L271.69 493.515C271.49 493.025 271.18 492.63 270.76 492.33C270.34 492.02 269.81 491.865 269.17 491.865C268.34 491.865 267.67 492.13 267.16 492.66C266.66 493.19 266.41 493.94 266.41 494.91V496.62C266.41 497.59 266.66 498.34 267.16 498.87C267.67 499.4 268.34 499.665 269.17 499.665C269.5 499.665 269.815 499.625 270.115 499.545C270.415 499.455 270.675 499.33 270.895 499.17C271.125 499 271.305 498.795 271.435 498.555C271.575 498.305 271.645 498.015 271.645 497.685V496.875H269.485V495.42H273.28V501H271.795V499.41ZM275.636 501V490.53H280.136C281.106 490.53 281.856 490.815 282.386 491.385C282.916 491.955 283.181 492.72 283.181 493.68C283.181 494.64 282.916 495.405 282.386 495.975C281.856 496.545 281.106 496.83 280.136 496.83H277.331V501H275.636ZM277.331 495.345H280.031C280.461 495.345 280.796 495.235 281.036 495.015C281.276 494.785 281.396 494.46 281.396 494.04V493.32C281.396 492.9 281.276 492.58 281.036 492.36C280.796 492.13 280.461 492.015 280.031 492.015H277.331V495.345ZM288.925 492.03V501H287.23V492.03H284.11V490.53H292.045V492.03H288.925Z" fill="#020203"/>
<path d="M432.692 495.21L431.537 492.99H431.492V501H429.872V490.53H431.762L435.182 496.32L436.337 498.54H436.382V490.53H438.002V501H436.112L432.692 495.21ZM443.52 501.18C442.98 501.18 442.485 501.085 442.035 500.895C441.595 500.705 441.22 500.435 440.91 500.085C440.6 499.725 440.36 499.295 440.19 498.795C440.02 498.285 439.935 497.72 439.935 497.1C439.935 496.48 440.02 495.92 440.19 495.42C440.36 494.91 440.6 494.48 440.91 494.13C441.22 493.77 441.595 493.495 442.035 493.305C442.485 493.115 442.98 493.02 443.52 493.02C444.06 493.02 444.55 493.115 444.99 493.305C445.44 493.495 445.82 493.77 446.13 494.13C446.44 494.48 446.68 494.91 446.85 495.42C447.02 495.92 447.105 496.48 447.105 497.1C447.105 497.72 447.02 498.285 446.85 498.795C446.68 499.295 446.44 499.725 446.13 500.085C445.82 500.435 445.44 500.705 444.99 500.895C444.55 501.085 444.06 501.18 443.52 501.18ZM443.52 499.83C444.08 499.83 444.53 499.66 444.87 499.32C445.21 498.97 445.38 498.45 445.38 497.76V496.44C445.38 495.75 445.21 495.235 444.87 494.895C444.53 494.545 444.08 494.37 443.52 494.37C442.96 494.37 442.51 494.545 442.17 494.895C441.83 495.235 441.66 495.75 441.66 496.44V497.76C441.66 498.45 441.83 498.97 442.17 499.32C442.51 499.66 442.96 499.83 443.52 499.83ZM448.926 501V493.2H450.561V494.7H450.636C450.746 494.3 450.976 493.95 451.326 493.65C451.676 493.35 452.161 493.2 452.781 493.2H453.216V494.775H452.571C451.921 494.775 451.421 494.88 451.071 495.09C450.731 495.3 450.561 495.61 450.561 496.02V501H448.926ZM454.669 501V493.2H456.304V494.49H456.379C456.459 494.29 456.554 494.1 456.664 493.92C456.784 493.74 456.924 493.585 457.084 493.455C457.254 493.315 457.449 493.21 457.669 493.14C457.899 493.06 458.164 493.02 458.464 493.02C458.994 493.02 459.464 493.15 459.874 493.41C460.284 493.67 460.584 494.07 460.774 494.61H460.819C460.959 494.17 461.229 493.795 461.629 493.485C462.029 493.175 462.544 493.02 463.174 493.02C463.954 493.02 464.559 493.285 464.989 493.815C465.419 494.335 465.634 495.08 465.634 496.05V501H463.999V496.245C463.999 495.645 463.884 495.195 463.654 494.895C463.424 494.585 463.059 494.43 462.559 494.43C462.349 494.43 462.149 494.46 461.959 494.52C461.769 494.57 461.599 494.65 461.449 494.76C461.309 494.87 461.194 495.01 461.104 495.18C461.014 495.35 460.969 495.545 460.969 495.765V501H459.334V496.245C459.334 495.035 458.859 494.43 457.909 494.43C457.709 494.43 457.509 494.46 457.309 494.52C457.119 494.57 456.949 494.65 456.799 494.76C456.649 494.87 456.529 495.01 456.439 495.18C456.349 495.35 456.304 495.545 456.304 495.765V501H454.669ZM473.611 501C473.181 501 472.851 500.88 472.621 500.64C472.391 500.39 472.251 500.075 472.201 499.695H472.126C471.976 500.185 471.701 500.555 471.301 500.805C470.901 501.055 470.416 501.18 469.846 501.18C469.036 501.18 468.411 500.97 467.971 500.55C467.541 500.13 467.326 499.565 467.326 498.855C467.326 498.075 467.606 497.49 468.166 497.1C468.736 496.71 469.566 496.515 470.656 496.515H472.066V495.855C472.066 495.375 471.936 495.005 471.676 494.745C471.416 494.485 471.011 494.355 470.461 494.355C470.001 494.355 469.626 494.455 469.336 494.655C469.046 494.855 468.801 495.11 468.601 495.42L467.626 494.535C467.886 494.095 468.251 493.735 468.721 493.455C469.191 493.165 469.806 493.02 470.566 493.02C471.576 493.02 472.351 493.255 472.891 493.725C473.431 494.195 473.701 494.87 473.701 495.75V499.665H474.526V501H473.611ZM470.311 499.935C470.821 499.935 471.241 499.825 471.571 499.605C471.901 499.375 472.066 499.07 472.066 498.69V497.565H470.686C469.556 497.565 468.991 497.915 468.991 498.615V498.885C468.991 499.235 469.106 499.5 469.336 499.68C469.576 499.85 469.901 499.935 470.311 499.935ZM477.793 501C477.233 501 476.813 500.86 476.533 500.58C476.263 500.29 476.128 499.89 476.128 499.38V489.9H477.763V499.665H478.843V501H477.793ZM490.806 499.41H490.746C490.636 499.92 490.336 500.345 489.846 500.685C489.366 501.015 488.726 501.18 487.926 501.18C487.306 501.18 486.731 501.065 486.201 500.835C485.671 500.595 485.211 500.25 484.821 499.8C484.441 499.34 484.141 498.775 483.921 498.105C483.711 497.425 483.606 496.645 483.606 495.765C483.606 494.895 483.716 494.125 483.936 493.455C484.156 492.775 484.466 492.205 484.866 491.745C485.266 491.285 485.746 490.94 486.306 490.71C486.866 490.47 487.491 490.35 488.181 490.35C489.121 490.35 489.916 490.56 490.566 490.98C491.216 491.39 491.721 491.965 492.081 492.705L490.701 493.515C490.501 493.025 490.191 492.63 489.771 492.33C489.351 492.02 488.821 491.865 488.181 491.865C487.351 491.865 486.681 492.13 486.171 492.66C485.671 493.19 485.421 493.94 485.421 494.91V496.62C485.421 497.59 485.671 498.34 486.171 498.87C486.681 499.4 487.351 499.665 488.181 499.665C488.511 499.665 488.826 499.625 489.126 499.545C489.426 499.455 489.686 499.33 489.906 499.17C490.136 499 490.316 498.795 490.446 498.555C490.586 498.305 490.656 498.015 490.656 497.685V496.875H488.496V495.42H492.291V501H490.806V499.41ZM494.647 501V490.53H499.147C500.117 490.53 500.867 490.815 501.397 491.385C501.927 491.955 502.192 492.72 502.192 493.68C502.192 494.64 501.927 495.405 501.397 495.975C500.867 496.545 500.117 496.83 499.147 496.83H496.342V501H494.647ZM496.342 495.345H499.042C499.472 495.345 499.807 495.235 500.047 495.015C500.287 494.785 500.407 494.46 500.407 494.04V493.32C500.407 492.9 500.287 492.58 500.047 492.36C499.807 492.13 499.472 492.015 499.042 492.015H496.342V495.345ZM507.936 492.03V501H506.241V492.03H503.121V490.53H511.056V492.03H507.936Z" fill="#020203"/>
<path d="M579 480L140 480" stroke="#020203" stroke-width="2" stroke-linecap="round"/>
<path d="M140 119V480" stroke="#020203" stroke-width="2" stroke-linecap="round"/>
<path d="M470 135V496" stroke="#020203" stroke-width="0.5" stroke-linecap="round" stroke-dasharray="5 5"/>
<path d="M250 128V489" stroke="#020203" stroke-width="0.5" stroke-linecap="round" stroke-dasharray="5 5"/>
<path d="M579 414L140 414" stroke="#020203" stroke-width="0.5" stroke-linecap="round" stroke-dasharray="5 5"/>
<path d="M579 348L140 348" stroke="#020203" stroke-width="0.5" stroke-linecap="round" stroke-dasharray="5 5"/>
<path d="M579 282L140 282" stroke="#020203" stroke-width="0.5" stroke-linecap="round" stroke-dasharray="5 5"/>
<path d="M579 216L140 216" stroke="#020203" stroke-width="0.5" stroke-linecap="round" stroke-dasharray="5 5"/>
<path d="M579 150L140 150" stroke="#020203" stroke-width="0.5" stroke-linecap="round" stroke-dasharray="5 5"/>
<path d="M113.32 420V418.59H116.26V410.76H116.14L113.71 413.355L112.675 412.425L115.345 409.53H117.925V418.59H120.475V420H113.32Z" fill="#020203"/>
<path d="M116.5 480.18C115.85 480.18 115.285 480.06 114.805 479.82C114.325 479.57 113.93 479.215 113.62 478.755C113.31 478.295 113.08 477.73 112.93 477.06C112.78 476.39 112.705 475.625 112.705 474.765C112.705 473.915 112.78 473.155 112.93 472.485C113.08 471.805 113.31 471.235 113.62 470.775C113.93 470.315 114.325 469.965 114.805 469.725C115.285 469.475 115.85 469.35 116.5 469.35C117.8 469.35 118.755 469.825 119.365 470.775C119.985 471.725 120.295 473.055 120.295 474.765C120.295 476.475 119.985 477.805 119.365 478.755C118.755 479.705 117.8 480.18 116.5 480.18ZM116.5 478.74C116.86 478.74 117.165 478.67 117.415 478.53C117.675 478.38 117.885 478.17 118.045 477.9C118.205 477.63 118.32 477.31 118.39 476.94C118.46 476.56 118.495 476.14 118.495 475.68V473.85C118.495 473.39 118.46 472.975 118.39 472.605C118.32 472.225 118.205 471.9 118.045 471.63C117.885 471.36 117.675 471.155 117.415 471.015C117.165 470.865 116.86 470.79 116.5 470.79C116.14 470.79 115.83 470.865 115.57 471.015C115.32 471.155 115.115 471.36 114.955 471.63C114.795 471.9 114.68 472.225 114.61 472.605C114.54 472.975 114.505 473.39 114.505 473.85V475.68C114.505 476.14 114.54 476.56 114.61 476.94C114.68 477.31 114.795 477.63 114.955 477.9C115.115 478.17 115.32 478.38 115.57 478.53C115.83 478.67 116.14 478.74 116.5 478.74Z" fill="#020203"/>
<path d="M120.115 354H113.005V352.38L116.35 349.395C116.88 348.915 117.285 348.46 117.565 348.03C117.855 347.59 118 347.13 118 346.65V346.455C118 345.945 117.845 345.545 117.535 345.255C117.235 344.965 116.825 344.82 116.305 344.82C116.015 344.82 115.76 344.865 115.54 344.955C115.33 345.035 115.145 345.15 114.985 345.3C114.825 345.45 114.69 345.625 114.58 345.825C114.48 346.025 114.4 346.24 114.34 346.47L112.855 345.9C112.965 345.57 113.115 345.255 113.305 344.955C113.495 344.645 113.735 344.37 114.025 344.13C114.315 343.89 114.655 343.7 115.045 343.56C115.445 343.42 115.91 343.35 116.44 343.35C116.97 343.35 117.445 343.43 117.865 343.59C118.285 343.74 118.635 343.955 118.915 344.235C119.205 344.505 119.425 344.83 119.575 345.21C119.725 345.59 119.8 346.005 119.8 346.455C119.8 346.875 119.735 347.265 119.605 347.625C119.475 347.985 119.295 348.325 119.065 348.645C118.835 348.965 118.565 349.27 118.255 349.56C117.955 349.85 117.635 350.145 117.295 350.445L114.835 352.56H120.115V354Z" fill="#020203"/>
<path d="M115.93 281.835C116.58 281.835 117.06 281.7 117.37 281.43C117.68 281.15 117.835 280.795 117.835 280.365V280.26C117.835 279.78 117.685 279.415 117.385 279.165C117.085 278.905 116.68 278.775 116.17 278.775C115.67 278.775 115.245 278.89 114.895 279.12C114.545 279.34 114.25 279.65 114.01 280.05L112.885 279.075C113.045 278.845 113.225 278.625 113.425 278.415C113.625 278.205 113.86 278.025 114.13 277.875C114.4 277.715 114.705 277.59 115.045 277.5C115.385 277.4 115.775 277.35 116.215 277.35C116.705 277.35 117.16 277.41 117.58 277.53C118 277.65 118.36 277.83 118.66 278.07C118.96 278.3 119.195 278.585 119.365 278.925C119.535 279.255 119.62 279.63 119.62 280.05C119.62 280.38 119.565 280.68 119.455 280.95C119.355 281.22 119.21 281.46 119.02 281.67C118.84 281.87 118.625 282.035 118.375 282.165C118.135 282.295 117.88 282.39 117.61 282.45V282.525C117.91 282.585 118.19 282.685 118.45 282.825C118.72 282.955 118.955 283.13 119.155 283.35C119.355 283.56 119.51 283.815 119.62 284.115C119.74 284.405 119.8 284.74 119.8 285.12C119.8 285.58 119.71 286 119.53 286.38C119.35 286.75 119.095 287.07 118.765 287.34C118.445 287.61 118.055 287.82 117.595 287.97C117.135 288.11 116.625 288.18 116.065 288.18C115.575 288.18 115.145 288.125 114.775 288.015C114.405 287.915 114.075 287.78 113.785 287.61C113.505 287.43 113.255 287.23 113.035 287.01C112.825 286.78 112.64 286.545 112.48 286.305L113.725 285.33C113.855 285.54 113.99 285.735 114.13 285.915C114.28 286.085 114.445 286.235 114.625 286.365C114.815 286.485 115.025 286.58 115.255 286.65C115.495 286.72 115.765 286.755 116.065 286.755C116.705 286.755 117.195 286.605 117.535 286.305C117.875 285.995 118.045 285.57 118.045 285.03V284.925C118.045 284.385 117.865 283.975 117.505 283.695C117.145 283.415 116.635 283.275 115.975 283.275H114.865V281.835H115.93Z" fill="#020203"/>
<path d="M117.385 222V219.96H112.525V218.505L116.77 211.53H118.99V218.625H120.415V219.96H118.99V222H117.385ZM113.965 218.625H117.385V213.075H117.28L113.965 218.625Z" fill="#020203"/>
<path d="M119.62 147H114.97L114.7 150.705H114.805C114.925 150.495 115.05 150.31 115.18 150.15C115.31 149.98 115.46 149.835 115.63 149.715C115.8 149.595 115.995 149.505 116.215 149.445C116.435 149.375 116.695 149.34 116.995 149.34C117.445 149.34 117.86 149.415 118.24 149.565C118.63 149.715 118.965 149.93 119.245 150.21C119.535 150.49 119.76 150.835 119.92 151.245C120.08 151.645 120.16 152.1 120.16 152.61C120.16 153.13 120.075 153.61 119.905 154.05C119.745 154.49 119.505 154.87 119.185 155.19C118.865 155.5 118.47 155.745 118 155.925C117.54 156.095 117.015 156.18 116.425 156.18C115.955 156.18 115.54 156.125 115.18 156.015C114.82 155.915 114.5 155.78 114.22 155.61C113.95 155.43 113.71 155.23 113.5 155.01C113.3 154.78 113.12 154.545 112.96 154.305L114.19 153.33C114.32 153.54 114.455 153.73 114.595 153.9C114.735 154.07 114.895 154.22 115.075 154.35C115.255 154.48 115.455 154.58 115.675 154.65C115.905 154.72 116.165 154.755 116.455 154.755C117.075 154.755 117.55 154.585 117.88 154.245C118.22 153.905 118.39 153.435 118.39 152.835V152.655C118.39 152.055 118.22 151.585 117.88 151.245C117.55 150.905 117.075 150.735 116.455 150.735C116.005 150.735 115.645 150.82 115.375 150.99C115.105 151.16 114.875 151.35 114.685 151.56L113.29 151.365L113.68 145.53H119.62V147Z" fill="#020203"/>
<path d="M330.98 548.24C329.78 548.24 328.76 548.027 327.92 547.6C327.093 547.173 326.38 546.613 325.78 545.92L327.56 544.2C328.04 544.76 328.573 545.187 329.16 545.48C329.76 545.773 330.42 545.92 331.14 545.92C331.953 545.92 332.567 545.747 332.98 545.4C333.393 545.04 333.6 544.56 333.6 543.96C333.6 543.493 333.467 543.113 333.2 542.82C332.933 542.527 332.433 542.313 331.7 542.18L330.38 541.98C327.593 541.54 326.2 540.187 326.2 537.92C326.2 537.293 326.313 536.727 326.54 536.22C326.78 535.713 327.12 535.28 327.56 534.92C328 534.56 328.527 534.287 329.14 534.1C329.767 533.9 330.473 533.8 331.26 533.8C332.313 533.8 333.233 533.973 334.02 534.32C334.807 534.667 335.48 535.18 336.04 535.86L334.24 537.56C333.893 537.133 333.473 536.787 332.98 536.52C332.487 536.253 331.867 536.12 331.12 536.12C330.36 536.12 329.787 536.267 329.4 536.56C329.027 536.84 328.84 537.24 328.84 537.76C328.84 538.293 328.993 538.687 329.3 538.94C329.607 539.193 330.1 539.38 330.78 539.5L332.08 539.74C333.493 539.993 334.533 540.447 335.2 541.1C335.88 541.74 336.22 542.64 336.22 543.8C336.22 544.467 336.1 545.073 335.86 545.62C335.633 546.153 335.293 546.62 334.84 547.02C334.4 547.407 333.853 547.707 333.2 547.92C332.56 548.133 331.82 548.24 330.98 548.24ZM345.107 537.56H347.507L343.307 549.86C343.173 550.233 343.02 550.553 342.847 550.82C342.687 551.1 342.493 551.327 342.267 551.5C342.04 551.673 341.767 551.8 341.447 551.88C341.127 551.96 340.753 552 340.327 552H338.787V549.96H340.667L341.147 548.5L337.407 537.56H339.947L341.767 543.08L342.447 545.72H342.567L343.287 543.08L345.107 537.56ZM352.459 548.24C351.459 548.24 350.619 548.073 349.939 547.74C349.259 547.393 348.659 546.92 348.139 546.32L349.699 544.8C350.085 545.24 350.505 545.587 350.959 545.84C351.425 546.093 351.959 546.22 352.559 546.22C353.172 546.22 353.612 546.113 353.879 545.9C354.159 545.687 354.299 545.393 354.299 545.02C354.299 544.713 354.199 544.473 353.999 544.3C353.812 544.113 353.485 543.987 353.019 543.92L351.979 543.78C350.845 543.633 349.979 543.313 349.379 542.82C348.792 542.313 348.499 541.58 348.499 540.62C348.499 540.113 348.592 539.66 348.779 539.26C348.965 538.847 349.232 538.5 349.579 538.22C349.925 537.927 350.339 537.707 350.819 537.56C351.312 537.4 351.859 537.32 352.459 537.32C352.965 537.32 353.412 537.36 353.799 537.44C354.199 537.507 354.559 537.613 354.879 537.76C355.199 537.893 355.492 538.067 355.759 538.28C356.025 538.48 356.285 538.707 356.539 538.96L355.039 540.46C354.732 540.14 354.365 539.873 353.939 539.66C353.512 539.447 353.045 539.34 352.539 539.34C351.979 539.34 351.572 539.44 351.319 539.64C351.079 539.84 350.959 540.1 350.959 540.42C350.959 540.767 351.059 541.033 351.259 541.22C351.472 541.393 351.825 541.52 352.319 541.6L353.379 541.74C355.632 542.06 356.759 543.087 356.759 544.82C356.759 545.327 356.652 545.793 356.439 546.22C356.239 546.633 355.952 546.993 355.579 547.3C355.205 547.593 354.752 547.827 354.219 548C353.699 548.16 353.112 548.24 352.459 548.24ZM362.123 548C361.243 548 360.569 547.773 360.103 547.32C359.649 546.853 359.423 546.193 359.423 545.34V539.6H357.883V537.56H358.683C359.069 537.56 359.329 537.473 359.463 537.3C359.609 537.113 359.683 536.84 359.683 536.48V534.7H361.983V537.56H364.123V539.6H361.983V545.96H363.963V548H362.123ZM370.485 548.24C369.712 548.24 369.018 548.113 368.405 547.86C367.805 547.593 367.292 547.227 366.865 546.76C366.452 546.28 366.132 545.707 365.905 545.04C365.678 544.36 365.565 543.6 365.565 542.76C365.565 541.933 365.672 541.187 365.885 540.52C366.112 539.853 366.432 539.287 366.845 538.82C367.258 538.34 367.765 537.973 368.365 537.72C368.965 537.453 369.645 537.32 370.405 537.32C371.218 537.32 371.925 537.46 372.525 537.74C373.125 538.02 373.618 538.4 374.005 538.88C374.392 539.36 374.678 539.92 374.865 540.56C375.065 541.187 375.165 541.86 375.165 542.58V543.42H368.225V543.68C368.225 544.44 368.438 545.053 368.865 545.52C369.292 545.973 369.925 546.2 370.765 546.2C371.405 546.2 371.925 546.067 372.325 545.8C372.738 545.533 373.105 545.193 373.425 544.78L374.805 546.32C374.378 546.92 373.792 547.393 373.045 547.74C372.312 548.073 371.458 548.24 370.485 548.24ZM370.445 539.24C369.765 539.24 369.225 539.467 368.825 539.92C368.425 540.373 368.225 540.96 368.225 541.68V541.84H372.505V541.66C372.505 540.94 372.325 540.36 371.965 539.92C371.618 539.467 371.112 539.24 370.445 539.24ZM377.418 548V537.56H379.978V539.3H380.078C380.278 538.753 380.598 538.287 381.038 537.9C381.478 537.513 382.091 537.32 382.878 537.32C383.598 537.32 384.218 537.493 384.738 537.84C385.258 538.187 385.644 538.713 385.898 539.42H385.938C386.124 538.833 386.491 538.34 387.038 537.94C387.598 537.527 388.298 537.32 389.138 537.32C390.164 537.32 390.951 537.673 391.498 538.38C392.058 539.087 392.338 540.093 392.338 541.4V548H389.778V541.66C389.778 540.167 389.218 539.42 388.098 539.42C387.844 539.42 387.598 539.46 387.358 539.54C387.131 539.607 386.924 539.713 386.738 539.86C386.564 539.993 386.424 540.167 386.318 540.38C386.211 540.58 386.158 540.82 386.158 541.1V548H383.598V541.66C383.598 540.167 383.038 539.42 381.918 539.42C381.678 539.42 381.438 539.46 381.198 539.54C380.971 539.607 380.764 539.713 380.578 539.86C380.404 539.993 380.258 540.167 380.138 540.38C380.031 540.58 379.978 540.82 379.978 541.1V548H377.418Z" fill="#020203"/>
</svg>
