<svg width="1920" height="565" viewBox="0 0 1920 565" fill="none" xmlns="http://www.w3.org/2000/svg">
<rect width="1920" height="565" fill="#06584B"/>
<path d="M57 281.5C56.1716 281.5 55.5 282.172 55.5 283C55.5 283.828 56.1716 284.5 57 284.5V281.5ZM1657.06 284.061C1657.65 283.475 1657.65 282.525 1657.06 281.939L1647.51 272.393C1646.93 271.808 1645.98 271.808 1645.39 272.393C1644.81 272.979 1644.81 273.929 1645.39 274.515L1653.88 283L1645.39 291.485C1644.81 292.071 1644.81 293.021 1645.39 293.607C1645.98 294.192 1646.93 294.192 1647.51 293.607L1657.06 284.061ZM57 284.5H61.9969V281.5H57V284.5ZM71.9906 284.5H81.9844V281.5H71.9906V284.5ZM91.9781 284.5H101.972V281.5H91.9781V284.5ZM111.966 284.5H121.959V281.5H111.966V284.5ZM131.953 284.5H141.947V281.5H131.953V284.5ZM151.941 284.5H161.934V281.5H151.941V284.5ZM171.928 284.5H181.922V281.5H171.928V284.5ZM191.916 284.5H201.909V281.5H191.916V284.5ZM211.903 284.5H221.897V281.5H211.903V284.5ZM231.891 284.5H241.884V281.5H231.891V284.5ZM251.878 284.5H261.872V281.5H251.878V284.5ZM271.866 284.5H281.859V281.5H271.866V284.5ZM291.853 284.5H301.847V281.5H291.853V284.5ZM311.841 284.5H321.834V281.5H311.841V284.5ZM331.828 284.5H341.822V281.5H331.828V284.5ZM351.816 284.5H361.809V281.5H351.816V284.5ZM371.803 284.5H381.797V281.5H371.803V284.5ZM391.791 284.5H401.784V281.5H391.791V284.5ZM411.778 284.5H421.772V281.5H411.778V284.5ZM431.766 284.5H441.759V281.5H431.766V284.5ZM451.753 284.5H461.747V281.5H451.753V284.5ZM471.74 284.5H481.734V281.5H471.74V284.5ZM491.728 284.5H501.722V281.5H491.728V284.5ZM511.715 284.5H521.709V281.5H511.715V284.5ZM531.703 284.5H541.697V281.5H531.703V284.5ZM551.69 284.5H561.684V281.5H551.69V284.5ZM571.678 284.5H581.672V281.5H571.678V284.5ZM591.665 284.5H601.659V281.5H591.665V284.5ZM611.653 284.5H621.647V281.5H611.653V284.5ZM631.641 284.5H641.634V281.5H631.641V284.5ZM651.628 284.5H661.622V281.5H651.628V284.5ZM671.616 284.5H681.609V281.5H671.616V284.5ZM691.603 284.5H701.597V281.5H691.603V284.5ZM711.591 284.5H721.585V281.5H711.591V284.5ZM731.578 284.5H741.572V281.5H731.578V284.5ZM751.566 284.5H761.56V281.5H751.566V284.5ZM771.553 284.5H781.547V281.5H771.553V284.5ZM791.541 284.5H801.535V281.5H791.541V284.5ZM811.529 284.5H821.522V281.5H811.529V284.5ZM831.516 284.5H841.51V281.5H831.516V284.5ZM851.504 284.5H861.497V281.5H851.504V284.5ZM871.491 284.5H881.485V281.5H871.491V284.5ZM891.479 284.5H901.472V281.5H891.479V284.5ZM911.466 284.5H921.46V281.5H911.466V284.5ZM931.454 284.5H941.448V281.5H931.454V284.5ZM951.441 284.5H961.435V281.5H951.441V284.5ZM971.429 284.5H981.423V281.5H971.429V284.5ZM991.416 284.5H1001.41V281.5H991.416V284.5ZM1011.4 284.5H1021.4V281.5H1011.4V284.5ZM1031.39 284.5H1041.39V281.5H1031.39V284.5ZM1051.38 284.5H1061.37V281.5H1051.38V284.5ZM1071.37 284.5H1081.36V281.5H1071.37V284.5ZM1091.35 284.5H1101.35V281.5H1091.35V284.5ZM1111.34 284.5H1121.34V281.5H1111.34V284.5ZM1131.33 284.5H1141.32V281.5H1131.33V284.5ZM1151.32 284.5H1161.31V281.5H1151.32V284.5ZM1171.3 284.5H1181.3V281.5H1171.3V284.5ZM1191.29 284.5H1201.29V281.5H1191.29V284.5ZM1211.28 284.5H1221.27V281.5H1211.28V284.5ZM1231.27 284.5H1241.26V281.5H1231.27V284.5ZM1251.25 284.5H1261.25V281.5H1251.25V284.5ZM1271.24 284.5H1281.24V281.5H1271.24V284.5ZM1291.23 284.5H1301.22V281.5H1291.23V284.5ZM1311.22 284.5H1321.21V281.5H1311.22V284.5ZM1331.2 284.5H1341.2V281.5H1331.2V284.5ZM1351.19 284.5H1361.19V281.5H1351.19V284.5ZM1371.18 284.5H1381.17V281.5H1371.18V284.5ZM1391.17 284.5H1401.16V281.5H1391.17V284.5ZM1411.15 284.5H1421.15V281.5H1411.15V284.5ZM1431.14 284.5H1441.14V281.5H1431.14V284.5ZM1451.13 284.5H1461.12V281.5H1451.13V284.5ZM1471.12 284.5H1481.11V281.5H1471.12V284.5ZM1491.11 284.5H1501.1V281.5H1491.11V284.5ZM1511.09 284.5H1521.09V281.5H1511.09V284.5ZM1531.08 284.5H1541.07V281.5H1531.08V284.5ZM1551.07 284.5H1561.06V281.5H1551.07V284.5ZM1571.06 284.5H1581.05V281.5H1571.06V284.5ZM1591.04 284.5H1601.04V281.5H1591.04V284.5ZM1611.03 284.5H1621.02V281.5H1611.03V284.5ZM1631.02 284.5H1641.01V281.5H1631.02V284.5ZM1651.01 284.5H1656V281.5H1651.01V284.5Z" fill="#FDFBF3"/>
<rect x="51" y="243" width="407" height="80" rx="40" fill="#FDFBF3"/>
<path d="M95.85 285.42H87.87V294H83.31V273.06H87.87V281.4H95.85V273.06H100.41V294H95.85V285.42ZM114.079 291.36H113.929C113.789 291.76 113.599 292.14 113.359 292.5C113.139 292.86 112.849 293.18 112.489 293.46C112.129 293.74 111.699 293.96 111.199 294.12C110.719 294.28 110.159 294.36 109.519 294.36C107.899 294.36 106.669 293.83 105.829 292.77C105.009 291.69 104.599 290.15 104.599 288.15V278.25H109.039V287.76C109.039 288.72 109.209 289.46 109.549 289.98C109.889 290.5 110.469 290.76 111.289 290.76C111.629 290.76 111.969 290.71 112.309 290.61C112.649 290.51 112.949 290.37 113.209 290.19C113.469 289.99 113.679 289.75 113.839 289.47C113.999 289.19 114.079 288.86 114.079 288.48V278.25H118.519V294H114.079V291.36ZM122.65 294V278.25H127.09V280.92H127.27C127.55 280.08 128.03 279.37 128.71 278.79C129.39 278.19 130.32 277.89 131.5 277.89C132.58 277.89 133.5 278.16 134.26 278.7C135.02 279.24 135.57 280.03 135.91 281.07H136C136.14 280.63 136.35 280.22 136.63 279.84C136.93 279.44 137.29 279.1 137.71 278.82C138.13 278.54 138.6 278.32 139.12 278.16C139.64 277.98 140.2 277.89 140.8 277.89C142.32 277.89 143.48 278.43 144.28 279.51C145.1 280.59 145.51 282.13 145.51 284.13V294H141.07V284.49C141.07 282.49 140.35 281.49 138.91 281.49C138.25 281.49 137.65 281.68 137.11 282.06C136.57 282.44 136.3 283.02 136.3 283.8V294H131.86V284.49C131.86 282.49 131.14 281.49 129.7 281.49C129.38 281.49 129.06 281.54 128.74 281.64C128.44 281.72 128.16 281.86 127.9 282.06C127.66 282.26 127.46 282.51 127.3 282.81C127.16 283.09 127.09 283.42 127.09 283.8V294H122.65ZM161.097 294C160.297 294 159.627 293.75 159.087 293.25C158.567 292.75 158.237 292.08 158.097 291.24H157.917C157.677 292.26 157.147 293.04 156.327 293.58C155.507 294.1 154.497 294.36 153.297 294.36C151.717 294.36 150.507 293.94 149.667 293.1C148.827 292.26 148.407 291.15 148.407 289.77C148.407 288.11 149.007 286.88 150.207 286.08C151.427 285.26 153.077 284.85 155.157 284.85H157.647V283.86C157.647 283.1 157.447 282.5 157.047 282.06C156.647 281.6 155.977 281.37 155.037 281.37C154.157 281.37 153.457 281.56 152.937 281.94C152.417 282.32 151.987 282.75 151.647 283.23L149.007 280.89C149.647 279.95 150.447 279.22 151.407 278.7C152.387 278.16 153.707 277.89 155.367 277.89C157.607 277.89 159.287 278.38 160.407 279.36C161.527 280.34 162.087 281.77 162.087 283.65V290.55H163.557V294H161.097ZM154.947 291.27C155.687 291.27 156.317 291.11 156.837 290.79C157.377 290.47 157.647 289.95 157.647 289.23V287.37H155.487C153.747 287.37 152.877 287.96 152.877 289.14V289.59C152.877 290.17 153.057 290.6 153.417 290.88C153.777 291.14 154.287 291.27 154.947 291.27ZM166.537 294V278.25H170.977V280.92H171.157C171.437 280.1 171.927 279.39 172.627 278.79C173.327 278.19 174.297 277.89 175.537 277.89C177.157 277.89 178.377 278.43 179.197 279.51C180.037 280.59 180.457 282.13 180.457 284.13V294H176.017V284.49C176.017 283.47 175.857 282.72 175.537 282.24C175.217 281.74 174.647 281.49 173.827 281.49C173.467 281.49 173.117 281.54 172.777 281.64C172.437 281.72 172.127 281.86 171.847 282.06C171.587 282.26 171.377 282.51 171.217 282.81C171.057 283.09 170.977 283.42 170.977 283.8V294H166.537ZM183.928 287.01V282.69H192.838V287.01H183.928ZM205.647 294.36C204.227 294.36 202.947 294.14 201.807 293.7C200.667 293.24 199.697 292.57 198.897 291.69C198.097 290.79 197.477 289.68 197.037 288.36C196.597 287.02 196.377 285.46 196.377 283.68C196.377 281.92 196.597 280.36 197.037 279C197.477 277.62 198.097 276.47 198.897 275.55C199.697 274.61 200.667 273.9 201.807 273.42C202.947 272.94 204.227 272.7 205.647 272.7C207.587 272.7 209.187 273.1 210.447 273.9C211.707 274.68 212.717 275.92 213.477 277.62L209.547 279.66C209.267 278.78 208.827 278.08 208.227 277.56C207.647 277.02 206.787 276.75 205.647 276.75C204.307 276.75 203.227 277.19 202.407 278.07C201.607 278.93 201.207 280.19 201.207 281.85V285.21C201.207 286.87 201.607 288.14 202.407 289.02C203.227 289.88 204.307 290.31 205.647 290.31C206.767 290.31 207.657 290.01 208.317 289.41C208.997 288.79 209.497 288.05 209.817 287.19L213.537 289.35C212.757 290.95 211.727 292.19 210.447 293.07C209.187 293.93 207.587 294.36 205.647 294.36ZM228.128 294C227.328 294 226.658 293.75 226.118 293.25C225.598 292.75 225.268 292.08 225.128 291.24H224.948C224.708 292.26 224.178 293.04 223.358 293.58C222.538 294.1 221.528 294.36 220.328 294.36C218.748 294.36 217.538 293.94 216.698 293.1C215.858 292.26 215.438 291.15 215.438 289.77C215.438 288.11 216.038 286.88 217.238 286.08C218.458 285.26 220.108 284.85 222.188 284.85H224.678V283.86C224.678 283.1 224.478 282.5 224.078 282.06C223.678 281.6 223.008 281.37 222.068 281.37C221.188 281.37 220.488 281.56 219.968 281.94C219.448 282.32 219.018 282.75 218.678 283.23L216.038 280.89C216.678 279.95 217.478 279.22 218.438 278.7C219.418 278.16 220.738 277.89 222.398 277.89C224.638 277.89 226.318 278.38 227.438 279.36C228.558 280.34 229.118 281.77 229.118 283.65V290.55H230.588V294H228.128ZM221.978 291.27C222.718 291.27 223.348 291.11 223.868 290.79C224.408 290.47 224.678 289.95 224.678 289.23V287.37H222.518C220.778 287.37 219.908 287.96 219.908 289.14V289.59C219.908 290.17 220.088 290.6 220.448 290.88C220.808 291.14 221.318 291.27 221.978 291.27ZM233.568 294V278.25H238.008V280.92H238.188C238.468 280.1 238.958 279.39 239.658 278.79C240.358 278.19 241.328 277.89 242.568 277.89C244.188 277.89 245.408 278.43 246.228 279.51C247.068 280.59 247.488 282.13 247.488 284.13V294H243.048V284.49C243.048 283.47 242.888 282.72 242.568 282.24C242.248 281.74 241.678 281.49 240.858 281.49C240.498 281.49 240.148 281.54 239.808 281.64C239.468 281.72 239.158 281.86 238.878 282.06C238.618 282.26 238.408 282.51 238.248 282.81C238.088 283.09 238.008 283.42 238.008 283.8V294H233.568ZM256.959 294C255.419 294 254.249 293.61 253.449 292.83C252.669 292.05 252.279 290.91 252.279 289.41V281.7H250.059V278.25H251.169C251.769 278.25 252.179 278.11 252.399 277.83C252.619 277.53 252.729 277.11 252.729 276.57V273.99H256.719V278.25H259.839V281.7H256.719V290.55H259.599V294H256.959ZM269.376 294.36C268.176 294.36 267.106 294.17 266.166 293.79C265.226 293.39 264.426 292.84 263.766 292.14C263.126 291.42 262.636 290.55 262.296 289.53C261.976 288.51 261.816 287.37 261.816 286.11C261.816 284.87 261.976 283.75 262.296 282.75C262.616 281.73 263.086 280.86 263.706 280.14C264.346 279.42 265.126 278.87 266.046 278.49C266.966 278.09 268.016 277.89 269.196 277.89C270.496 277.89 271.606 278.11 272.526 278.55C273.466 278.99 274.226 279.58 274.806 280.32C275.406 281.06 275.836 281.92 276.096 282.9C276.376 283.86 276.516 284.87 276.516 285.93V287.25H266.406V287.49C266.406 288.53 266.686 289.36 267.246 289.98C267.806 290.58 268.686 290.88 269.886 290.88C270.806 290.88 271.556 290.7 272.136 290.34C272.716 289.96 273.256 289.51 273.756 288.99L275.976 291.75C275.276 292.57 274.356 293.21 273.216 293.67C272.096 294.13 270.816 294.36 269.376 294.36ZM269.286 281.16C268.386 281.16 267.676 281.46 267.156 282.06C266.656 282.64 266.406 283.42 266.406 284.4V284.64H271.926V284.37C271.926 283.41 271.706 282.64 271.266 282.06C270.846 281.46 270.186 281.16 269.286 281.16ZM279.652 294V278.25H284.092V281.67H284.242C284.322 281.23 284.462 280.81 284.662 280.41C284.862 279.99 285.122 279.62 285.442 279.3C285.782 278.98 286.182 278.73 286.642 278.55C287.102 278.35 287.642 278.25 288.262 278.25H289.042V282.39H287.932C286.632 282.39 285.662 282.56 285.022 282.9C284.402 283.24 284.092 283.87 284.092 284.79V294H279.652ZM298.204 294.36C297.004 294.36 295.934 294.17 294.994 293.79C294.054 293.39 293.254 292.84 292.594 292.14C291.954 291.42 291.464 290.55 291.124 289.53C290.804 288.51 290.644 287.37 290.644 286.11C290.644 284.87 290.804 283.75 291.124 282.75C291.444 281.73 291.914 280.86 292.534 280.14C293.174 279.42 293.954 278.87 294.874 278.49C295.794 278.09 296.844 277.89 298.024 277.89C299.324 277.89 300.434 278.11 301.354 278.55C302.294 278.99 303.054 279.58 303.634 280.32C304.234 281.06 304.664 281.92 304.924 282.9C305.204 283.86 305.344 284.87 305.344 285.93V287.25H295.234V287.49C295.234 288.53 295.514 289.36 296.074 289.98C296.634 290.58 297.514 290.88 298.714 290.88C299.634 290.88 300.384 290.7 300.964 290.34C301.544 289.96 302.084 289.51 302.584 288.99L304.804 291.75C304.104 292.57 303.184 293.21 302.044 293.67C300.924 294.13 299.644 294.36 298.204 294.36ZM298.114 281.16C297.214 281.16 296.504 281.46 295.984 282.06C295.484 282.64 295.234 283.42 295.234 284.4V284.64H300.754V284.37C300.754 283.41 300.534 282.64 300.094 282.06C299.674 281.46 299.014 281.16 298.114 281.16ZM318.14 291.36H317.99C317.87 291.78 317.68 292.18 317.42 292.56C317.16 292.92 316.84 293.24 316.46 293.52C316.1 293.78 315.68 293.98 315.2 294.12C314.74 294.28 314.26 294.36 313.76 294.36C311.76 294.36 310.25 293.66 309.23 292.26C308.21 290.84 307.7 288.79 307.7 286.11C307.7 283.43 308.21 281.39 309.23 279.99C310.25 278.59 311.76 277.89 313.76 277.89C314.78 277.89 315.68 278.17 316.46 278.73C317.26 279.29 317.77 280.01 317.99 280.89H318.14V271.8H322.58V294H318.14V291.36ZM315.23 290.76C316.07 290.76 316.76 290.56 317.3 290.16C317.86 289.74 318.14 289.17 318.14 288.45V283.8C318.14 283.08 317.86 282.52 317.3 282.12C316.76 281.7 316.07 281.49 315.23 281.49C314.39 281.49 313.69 281.79 313.13 282.39C312.59 282.97 312.32 283.76 312.32 284.76V287.49C312.32 288.49 312.59 289.29 313.13 289.89C313.69 290.47 314.39 290.76 315.23 290.76ZM334.062 273.06H341.952C343.332 273.06 344.592 273.28 345.732 273.72C346.872 274.16 347.842 274.82 348.642 275.7C349.442 276.56 350.062 277.65 350.502 278.97C350.942 280.27 351.162 281.79 351.162 283.53C351.162 285.27 350.942 286.8 350.502 288.12C350.062 289.42 349.442 290.51 348.642 291.39C347.842 292.25 346.872 292.9 345.732 293.34C344.592 293.78 343.332 294 341.952 294H334.062V273.06ZM341.952 289.95C343.312 289.95 344.382 289.57 345.162 288.81C345.942 288.05 346.332 286.83 346.332 285.15V281.91C346.332 280.23 345.942 279.01 345.162 278.25C344.382 277.49 343.312 277.11 341.952 277.11H338.622V289.95H341.952ZM361.31 294.36C360.11 294.36 359.04 294.17 358.1 293.79C357.16 293.39 356.36 292.84 355.7 292.14C355.06 291.42 354.57 290.55 354.23 289.53C353.91 288.51 353.75 287.37 353.75 286.11C353.75 284.87 353.91 283.75 354.23 282.75C354.55 281.73 355.02 280.86 355.64 280.14C356.28 279.42 357.06 278.87 357.98 278.49C358.9 278.09 359.95 277.89 361.13 277.89C362.43 277.89 363.54 278.11 364.46 278.55C365.4 278.99 366.16 279.58 366.74 280.32C367.34 281.06 367.77 281.92 368.03 282.9C368.31 283.86 368.45 284.87 368.45 285.93V287.25H358.34V287.49C358.34 288.53 358.62 289.36 359.18 289.98C359.74 290.58 360.62 290.88 361.82 290.88C362.74 290.88 363.49 290.7 364.07 290.34C364.65 289.96 365.19 289.51 365.69 288.99L367.91 291.75C367.21 292.57 366.29 293.21 365.15 293.67C364.03 294.13 362.75 294.36 361.31 294.36ZM361.22 281.16C360.32 281.16 359.61 281.46 359.09 282.06C358.59 282.64 358.34 283.42 358.34 284.4V284.64H363.86V284.37C363.86 283.41 363.64 282.64 363.2 282.06C362.78 281.46 362.12 281.16 361.22 281.16ZM376.926 294.36C375.406 294.36 374.126 294.12 373.086 293.64C372.046 293.14 371.116 292.44 370.296 291.54L372.906 288.9C373.466 289.52 374.086 290.01 374.766 290.37C375.446 290.73 376.216 290.91 377.076 290.91C377.956 290.91 378.566 290.78 378.906 290.52C379.246 290.24 379.416 289.87 379.416 289.41C379.416 288.67 378.886 288.23 377.826 288.09L376.116 287.88C372.576 287.44 370.806 285.82 370.806 283.02C370.806 282.26 370.946 281.57 371.226 280.95C371.526 280.31 371.936 279.77 372.456 279.33C372.996 278.87 373.636 278.52 374.376 278.28C375.136 278.02 375.986 277.89 376.926 277.89C377.746 277.89 378.466 277.95 379.086 278.07C379.726 278.17 380.286 278.33 380.766 278.55C381.266 278.75 381.716 279.01 382.116 279.33C382.536 279.63 382.946 279.97 383.346 280.35L380.796 282.96C380.296 282.46 379.726 282.07 379.086 281.79C378.466 281.49 377.826 281.34 377.166 281.34C376.406 281.34 375.866 281.46 375.546 281.7C375.226 281.94 375.066 282.26 375.066 282.66C375.066 283.08 375.176 283.41 375.396 283.65C375.636 283.87 376.076 284.03 376.716 284.13L378.486 284.37C381.946 284.83 383.676 286.41 383.676 289.11C383.676 289.87 383.516 290.57 383.196 291.21C382.876 291.85 382.416 292.41 381.816 292.89C381.236 293.35 380.526 293.71 379.686 293.97C378.866 294.23 377.946 294.36 376.926 294.36ZM388.923 276.57C388.023 276.57 387.363 276.37 386.943 275.97C386.543 275.55 386.343 275.02 386.343 274.38V273.72C386.343 273.08 386.543 272.56 386.943 272.16C387.363 271.74 388.023 271.53 388.923 271.53C389.823 271.53 390.473 271.74 390.873 272.16C391.293 272.56 391.503 273.08 391.503 273.72V274.38C391.503 275.02 391.293 275.55 390.873 275.97C390.473 276.37 389.823 276.57 388.923 276.57ZM386.703 278.25H391.143V294H386.703V278.25ZM409.867 295.14C409.867 295.98 409.717 296.72 409.417 297.36C409.137 298 408.667 298.54 408.007 298.98C407.347 299.44 406.467 299.78 405.367 300C404.287 300.24 402.947 300.36 401.347 300.36C399.987 300.36 398.827 300.27 397.867 300.09C396.927 299.93 396.157 299.69 395.557 299.37C394.977 299.07 394.547 298.69 394.267 298.23C394.007 297.79 393.877 297.28 393.877 296.7C393.877 295.82 394.137 295.13 394.657 294.63C395.177 294.13 395.897 293.82 396.817 293.7V293.37C396.057 293.23 395.487 292.91 395.107 292.41C394.727 291.89 394.537 291.29 394.537 290.61C394.537 290.19 394.617 289.83 394.777 289.53C394.957 289.21 395.177 288.94 395.437 288.72C395.717 288.48 396.037 288.29 396.397 288.15C396.757 288.01 397.117 287.9 397.477 287.82V287.7C396.517 287.26 395.807 286.66 395.347 285.9C394.887 285.12 394.657 284.22 394.657 283.2C394.657 281.6 395.207 280.32 396.307 279.36C397.427 278.38 399.127 277.89 401.407 277.89C402.447 277.89 403.337 277.99 404.077 278.19V277.59C404.077 276.75 404.277 276.15 404.677 275.79C405.097 275.41 405.687 275.22 406.447 275.22H408.937V278.52H405.457V278.7C406.377 279.14 407.057 279.75 407.497 280.53C407.937 281.29 408.157 282.18 408.157 283.2C408.157 284.78 407.597 286.05 406.477 287.01C405.377 287.95 403.687 288.42 401.407 288.42C400.387 288.42 399.457 288.31 398.617 288.09C398.157 288.39 397.927 288.81 397.927 289.35C397.927 289.73 398.067 290.03 398.347 290.25C398.647 290.45 399.137 290.55 399.817 290.55H404.377C406.297 290.55 407.687 290.95 408.547 291.75C409.427 292.55 409.867 293.68 409.867 295.14ZM405.697 295.74C405.697 295.28 405.517 294.93 405.157 294.69C404.797 294.45 404.167 294.33 403.267 294.33H397.867C397.667 294.53 397.517 294.75 397.417 294.99C397.337 295.25 397.297 295.5 397.297 295.74C397.297 296.32 397.547 296.74 398.047 297C398.547 297.28 399.397 297.42 400.597 297.42H402.397C403.597 297.42 404.447 297.28 404.947 297C405.447 296.74 405.697 296.32 405.697 295.74ZM401.407 285.51C402.287 285.51 402.937 285.33 403.357 284.97C403.797 284.59 404.017 284.05 404.017 283.35V282.99C404.017 282.29 403.797 281.76 403.357 281.4C402.937 281.02 402.287 280.83 401.407 280.83C400.527 280.83 399.867 281.02 399.427 281.4C399.007 281.76 398.797 282.29 398.797 282.99V283.35C398.797 284.05 399.007 284.59 399.427 284.97C399.867 285.33 400.527 285.51 401.407 285.51ZM411.84 294V278.25H416.28V280.92H416.46C416.74 280.1 417.23 279.39 417.93 278.79C418.63 278.19 419.6 277.89 420.84 277.89C422.46 277.89 423.68 278.43 424.5 279.51C425.34 280.59 425.76 282.13 425.76 284.13V294H421.32V284.49C421.32 283.47 421.16 282.72 420.84 282.24C420.52 281.74 419.95 281.49 419.13 281.49C418.77 281.49 418.42 281.54 418.08 281.64C417.74 281.72 417.43 281.86 417.15 282.06C416.89 282.26 416.68 282.51 416.52 282.81C416.36 283.09 416.28 283.42 416.28 283.8V294H411.84Z" fill="#06584B"/>
<rect x="1684" y="243" width="185" height="80" rx="40" fill="#F1D9EA"/>
<path d="M1721.31 273.06H1729.2C1730.58 273.06 1731.84 273.28 1732.98 273.72C1734.12 274.16 1735.09 274.82 1735.89 275.7C1736.69 276.56 1737.31 277.65 1737.75 278.97C1738.19 280.27 1738.41 281.79 1738.41 283.53C1738.41 285.27 1738.19 286.8 1737.75 288.12C1737.31 289.42 1736.69 290.51 1735.89 291.39C1735.09 292.25 1734.12 292.9 1732.98 293.34C1731.84 293.78 1730.58 294 1729.2 294H1721.31V273.06ZM1729.2 289.95C1730.56 289.95 1731.63 289.57 1732.41 288.81C1733.19 288.05 1733.58 286.83 1733.58 285.15V281.91C1733.58 280.23 1733.19 279.01 1732.41 278.25C1731.63 277.49 1730.56 277.11 1729.2 277.11H1725.87V289.95H1729.2ZM1742.23 294V273.06H1756.48V277.11H1746.79V281.4H1755.1V285.42H1746.79V289.95H1756.48V294H1742.23ZM1767.23 294.36C1765.39 294.36 1763.83 294.05 1762.55 293.43C1761.27 292.79 1760.18 291.97 1759.28 290.97L1762.28 287.94C1763.7 289.54 1765.45 290.34 1767.53 290.34C1768.65 290.34 1769.48 290.11 1770.02 289.65C1770.56 289.19 1770.83 288.58 1770.83 287.82C1770.83 287.24 1770.67 286.76 1770.35 286.38C1770.03 285.98 1769.38 285.71 1768.4 285.57L1766.33 285.3C1764.11 285.02 1762.48 284.35 1761.44 283.29C1760.42 282.23 1759.91 280.82 1759.91 279.06C1759.91 278.12 1760.09 277.26 1760.45 276.48C1760.81 275.7 1761.32 275.03 1761.98 274.47C1762.66 273.91 1763.48 273.48 1764.44 273.18C1765.42 272.86 1766.53 272.7 1767.77 272.7C1769.35 272.7 1770.74 272.95 1771.94 273.45C1773.14 273.95 1774.17 274.68 1775.03 275.64L1772 278.7C1771.5 278.12 1770.89 277.65 1770.17 277.29C1769.47 276.91 1768.58 276.72 1767.5 276.72C1766.48 276.72 1765.72 276.9 1765.22 277.26C1764.72 277.62 1764.47 278.12 1764.47 278.76C1764.47 279.48 1764.66 280 1765.04 280.32C1765.44 280.64 1766.08 280.87 1766.96 281.01L1769.03 281.34C1771.19 281.68 1772.79 282.35 1773.83 283.35C1774.87 284.33 1775.39 285.73 1775.39 287.55C1775.39 288.55 1775.21 289.47 1774.85 290.31C1774.49 291.15 1773.96 291.87 1773.26 292.47C1772.58 293.07 1771.73 293.54 1770.71 293.88C1769.69 294.2 1768.53 294.36 1767.23 294.36ZM1778.36 294V290.37H1781.06V276.69H1778.36V273.06H1788.32V276.69H1785.62V290.37H1788.32V294H1778.36ZM1805.41 290.67H1805.26C1805.1 291.73 1804.56 292.61 1803.64 293.31C1802.72 294.01 1801.47 294.36 1799.89 294.36C1798.69 294.36 1797.57 294.13 1796.53 293.67C1795.49 293.21 1794.58 292.53 1793.8 291.63C1793.02 290.73 1792.41 289.61 1791.97 288.27C1791.53 286.93 1791.31 285.38 1791.31 283.62C1791.31 281.86 1791.54 280.3 1792 278.94C1792.46 277.58 1793.1 276.44 1793.92 275.52C1794.76 274.6 1795.76 273.9 1796.92 273.42C1798.08 272.94 1799.37 272.7 1800.79 272.7C1802.67 272.7 1804.29 273.11 1805.65 273.93C1807.01 274.73 1808.08 275.94 1808.86 277.56L1805.14 279.69C1804.82 278.87 1804.32 278.18 1803.64 277.62C1802.96 277.04 1802.01 276.75 1800.79 276.75C1799.37 276.75 1798.24 277.16 1797.4 277.98C1796.56 278.8 1796.14 280.09 1796.14 281.85V285.21C1796.14 286.95 1796.56 288.24 1797.4 289.08C1798.24 289.9 1799.37 290.31 1800.79 290.31C1801.35 290.31 1801.88 290.25 1802.38 290.13C1802.88 289.99 1803.32 289.79 1803.7 289.53C1804.08 289.25 1804.37 288.92 1804.57 288.54C1804.79 288.16 1804.9 287.71 1804.9 287.19V286.14H1801V282.33H1809.25V294H1805.41V290.67ZM1820.07 284.1L1818.06 279.9H1817.97V294H1813.68V273.06H1818.66L1824.39 282.96L1826.4 287.16H1826.49V273.06H1830.78V294H1825.8L1820.07 284.1Z" fill="#06584B"/>
<circle cx="636" cy="283" r="82" fill="#D8DF69"/>
<path d="M596.908 289H593.868V275.04H600.488C601.128 275.04 601.708 275.147 602.228 275.36C602.748 275.573 603.188 275.88 603.548 276.28C603.921 276.667 604.208 277.133 604.408 277.68C604.608 278.227 604.708 278.833 604.708 279.5C604.708 280.447 604.495 281.273 604.068 281.98C603.655 282.687 603.021 283.2 602.168 283.52L604.908 289H601.528L599.088 283.88H596.908V289ZM600.108 281.32C600.561 281.32 600.915 281.207 601.168 280.98C601.435 280.74 601.568 280.393 601.568 279.94V279.06C601.568 278.607 601.435 278.267 601.168 278.04C600.915 277.8 600.561 277.68 600.108 277.68H596.908V281.32H600.108ZM611.272 289.24C610.472 289.24 609.758 289.113 609.132 288.86C608.505 288.593 607.972 288.227 607.532 287.76C607.105 287.28 606.778 286.7 606.552 286.02C606.338 285.34 606.232 284.58 606.232 283.74C606.232 282.913 606.338 282.167 606.552 281.5C606.765 280.82 607.078 280.24 607.492 279.76C607.918 279.28 608.438 278.913 609.052 278.66C609.665 278.393 610.365 278.26 611.152 278.26C612.018 278.26 612.758 278.407 613.372 278.7C613.998 278.993 614.505 279.387 614.892 279.88C615.292 280.373 615.578 280.947 615.752 281.6C615.938 282.24 616.032 282.913 616.032 283.62V284.5H609.292V284.66C609.292 285.353 609.478 285.907 609.852 286.32C610.225 286.72 610.812 286.92 611.612 286.92C612.225 286.92 612.725 286.8 613.112 286.56C613.498 286.307 613.858 286.007 614.192 285.66L615.672 287.5C615.205 288.047 614.592 288.473 613.832 288.78C613.085 289.087 612.232 289.24 611.272 289.24ZM611.212 280.44C610.612 280.44 610.138 280.64 609.792 281.04C609.458 281.427 609.292 281.947 609.292 282.6V282.76H612.972V282.58C612.972 281.94 612.825 281.427 612.532 281.04C612.252 280.64 611.812 280.44 611.212 280.44ZM621.682 289.24C620.669 289.24 619.816 289.08 619.122 288.76C618.429 288.427 617.809 287.96 617.262 287.36L619.002 285.6C619.376 286.013 619.789 286.34 620.242 286.58C620.696 286.82 621.209 286.94 621.782 286.94C622.369 286.94 622.776 286.853 623.002 286.68C623.229 286.493 623.342 286.247 623.342 285.94C623.342 285.447 622.989 285.153 622.282 285.06L621.142 284.92C618.782 284.627 617.602 283.547 617.602 281.68C617.602 281.173 617.696 280.713 617.882 280.3C618.082 279.873 618.356 279.513 618.702 279.22C619.062 278.913 619.489 278.68 619.982 278.52C620.489 278.347 621.056 278.26 621.682 278.26C622.229 278.26 622.709 278.3 623.122 278.38C623.549 278.447 623.922 278.553 624.242 278.7C624.576 278.833 624.876 279.007 625.142 279.22C625.422 279.42 625.696 279.647 625.962 279.9L624.262 281.64C623.929 281.307 623.549 281.047 623.122 280.86C622.709 280.66 622.282 280.56 621.842 280.56C621.336 280.56 620.976 280.64 620.762 280.8C620.549 280.96 620.442 281.173 620.442 281.44C620.442 281.72 620.516 281.94 620.662 282.1C620.822 282.247 621.116 282.353 621.542 282.42L622.722 282.58C625.029 282.887 626.182 283.94 626.182 285.74C626.182 286.247 626.076 286.713 625.862 287.14C625.649 287.567 625.342 287.94 624.942 288.26C624.556 288.567 624.082 288.807 623.522 288.98C622.976 289.153 622.362 289.24 621.682 289.24ZM632.58 289.24C631.78 289.24 631.067 289.113 630.44 288.86C629.814 288.593 629.28 288.227 628.84 287.76C628.414 287.28 628.087 286.7 627.86 286.02C627.647 285.34 627.54 284.58 627.54 283.74C627.54 282.913 627.647 282.167 627.86 281.5C628.074 280.82 628.387 280.24 628.8 279.76C629.227 279.28 629.747 278.913 630.36 278.66C630.974 278.393 631.674 278.26 632.46 278.26C633.327 278.26 634.067 278.407 634.68 278.7C635.307 278.993 635.814 279.387 636.2 279.88C636.6 280.373 636.887 280.947 637.06 281.6C637.247 282.24 637.34 282.913 637.34 283.62V284.5H630.6V284.66C630.6 285.353 630.787 285.907 631.16 286.32C631.534 286.72 632.12 286.92 632.92 286.92C633.534 286.92 634.034 286.8 634.42 286.56C634.807 286.307 635.167 286.007 635.5 285.66L636.98 287.5C636.514 288.047 635.9 288.473 635.14 288.78C634.394 289.087 633.54 289.24 632.58 289.24ZM632.52 280.44C631.92 280.44 631.447 280.64 631.1 281.04C630.767 281.427 630.6 281.947 630.6 282.6V282.76H634.28V282.58C634.28 281.94 634.134 281.427 633.84 281.04C633.56 280.64 633.12 280.44 632.52 280.44ZM647.191 289C646.657 289 646.211 288.833 645.851 288.5C645.504 288.167 645.284 287.72 645.191 287.16H645.071C644.911 287.84 644.557 288.36 644.011 288.72C643.464 289.067 642.791 289.24 641.991 289.24C640.937 289.24 640.131 288.96 639.571 288.4C639.011 287.84 638.731 287.1 638.731 286.18C638.731 285.073 639.131 284.253 639.931 283.72C640.744 283.173 641.844 282.9 643.231 282.9H644.891V282.24C644.891 281.733 644.757 281.333 644.491 281.04C644.224 280.733 643.777 280.58 643.151 280.58C642.564 280.58 642.097 280.707 641.751 280.96C641.404 281.213 641.117 281.5 640.891 281.82L639.131 280.26C639.557 279.633 640.091 279.147 640.731 278.8C641.384 278.44 642.264 278.26 643.371 278.26C644.864 278.26 645.984 278.587 646.731 279.24C647.477 279.893 647.851 280.847 647.851 282.1V286.7H648.831V289H647.191ZM643.091 287.18C643.584 287.18 644.004 287.073 644.351 286.86C644.711 286.647 644.891 286.3 644.891 285.82V284.58H643.451C642.291 284.58 641.711 284.973 641.711 285.76V286.06C641.711 286.447 641.831 286.733 642.071 286.92C642.311 287.093 642.651 287.18 643.091 287.18ZM650.818 289V278.5H653.778V280.78H653.878C653.931 280.487 654.024 280.207 654.158 279.94C654.291 279.66 654.464 279.413 654.678 279.2C654.904 278.987 655.171 278.82 655.478 278.7C655.784 278.567 656.144 278.5 656.558 278.5H657.078V281.26H656.338C655.471 281.26 654.824 281.373 654.398 281.6C653.984 281.827 653.778 282.247 653.778 282.86V289H650.818ZM663.046 289.24C662.259 289.24 661.559 289.113 660.946 288.86C660.332 288.593 659.819 288.227 659.406 287.76C658.992 287.28 658.679 286.7 658.466 286.02C658.252 285.34 658.146 284.58 658.146 283.74C658.146 282.9 658.252 282.147 658.466 281.48C658.679 280.8 658.992 280.22 659.406 279.74C659.819 279.26 660.332 278.893 660.946 278.64C661.559 278.387 662.259 278.26 663.046 278.26C664.112 278.26 664.999 278.5 665.706 278.98C666.426 279.46 666.939 280.133 667.246 281L664.846 282.04C664.752 281.64 664.559 281.3 664.266 281.02C663.972 280.74 663.566 280.6 663.046 280.6C662.446 280.6 661.992 280.8 661.686 281.2C661.379 281.587 661.226 282.113 661.226 282.78V284.74C661.226 285.407 661.379 285.933 661.686 286.32C661.992 286.707 662.446 286.9 663.046 286.9C663.579 286.9 663.999 286.76 664.306 286.48C664.626 286.187 664.859 285.807 665.006 285.34L667.306 286.34C666.959 287.34 666.419 288.073 665.686 288.54C664.966 289.007 664.086 289.24 663.046 289.24ZM669.138 274.2H672.098V280.28H672.218C672.404 279.733 672.731 279.26 673.198 278.86C673.664 278.46 674.311 278.26 675.138 278.26C676.218 278.26 677.031 278.62 677.578 279.34C678.138 280.06 678.418 281.087 678.418 282.42V289H675.458V282.66C675.458 281.98 675.351 281.48 675.138 281.16C674.924 280.827 674.544 280.66 673.998 280.66C673.758 280.66 673.524 280.693 673.298 280.76C673.071 280.813 672.864 280.907 672.678 281.04C672.504 281.173 672.364 281.34 672.258 281.54C672.151 281.727 672.098 281.947 672.098 282.2V289H669.138V274.2Z" fill="#06584B"/>
<circle cx="896" cy="283" r="82" fill="#D8DF69"/>
<path d="M846.494 281V278.58H848.294V269.46H846.494V267.04H853.134V269.46H851.334V278.58H853.134V281H846.494ZM855.507 281V270.5H858.467V272.28H858.587C858.774 271.733 859.1 271.26 859.567 270.86C860.034 270.46 860.68 270.26 861.507 270.26C862.587 270.26 863.4 270.62 863.947 271.34C864.507 272.06 864.787 273.087 864.787 274.42V281H861.827V274.66C861.827 273.98 861.72 273.48 861.507 273.16C861.294 272.827 860.914 272.66 860.367 272.66C860.127 272.66 859.894 272.693 859.667 272.76C859.44 272.813 859.234 272.907 859.047 273.04C858.874 273.173 858.734 273.34 858.627 273.54C858.52 273.727 858.467 273.947 858.467 274.2V281H855.507ZM871.101 281C870.074 281 869.294 280.74 868.761 280.22C868.241 279.7 867.981 278.94 867.981 277.94V272.8H866.501V270.5H867.241C867.641 270.5 867.914 270.407 868.061 270.22C868.208 270.02 868.281 269.74 868.281 269.38V267.66H870.941V270.5H873.021V272.8H870.941V278.7H872.861V281H871.101ZM879.379 281.24C878.579 281.24 877.866 281.113 877.239 280.86C876.612 280.593 876.079 280.227 875.639 279.76C875.212 279.28 874.886 278.7 874.659 278.02C874.446 277.34 874.339 276.58 874.339 275.74C874.339 274.913 874.446 274.167 874.659 273.5C874.872 272.82 875.186 272.24 875.599 271.76C876.026 271.28 876.546 270.913 877.159 270.66C877.772 270.393 878.472 270.26 879.259 270.26C880.126 270.26 880.866 270.407 881.479 270.7C882.106 270.993 882.612 271.387 882.999 271.88C883.399 272.373 883.686 272.947 883.859 273.6C884.046 274.24 884.139 274.913 884.139 275.62V276.5H877.399V276.66C877.399 277.353 877.586 277.907 877.959 278.32C878.332 278.72 878.919 278.92 879.719 278.92C880.332 278.92 880.832 278.8 881.219 278.56C881.606 278.307 881.966 278.007 882.299 277.66L883.779 279.5C883.312 280.047 882.699 280.473 881.939 280.78C881.192 281.087 880.339 281.24 879.379 281.24ZM879.319 272.44C878.719 272.44 878.246 272.64 877.899 273.04C877.566 273.427 877.399 273.947 877.399 274.6V274.76H881.079V274.58C881.079 273.94 880.932 273.427 880.639 273.04C880.359 272.64 879.919 272.44 879.319 272.44ZM886.23 281V270.5H889.19V272.78H889.29C889.343 272.487 889.436 272.207 889.57 271.94C889.703 271.66 889.876 271.413 890.09 271.2C890.316 270.987 890.583 270.82 890.89 270.7C891.196 270.567 891.556 270.5 891.97 270.5H892.49V273.26H891.75C890.883 273.26 890.236 273.373 889.81 273.6C889.396 273.827 889.19 274.247 889.19 274.86V281H886.23ZM896.692 281L893.252 270.5H896.172L897.472 274.74L898.452 278.54H898.612L899.592 274.74L900.852 270.5H903.652L900.212 281H896.692ZM906.694 269.38C906.094 269.38 905.654 269.247 905.374 268.98C905.107 268.7 904.974 268.347 904.974 267.92V267.48C904.974 267.053 905.107 266.707 905.374 266.44C905.654 266.16 906.094 266.02 906.694 266.02C907.294 266.02 907.727 266.16 907.994 266.44C908.274 266.707 908.414 267.053 908.414 267.48V267.92C908.414 268.347 908.274 268.7 907.994 268.98C907.727 269.247 907.294 269.38 906.694 269.38ZM905.214 270.5H908.174V281H905.214V270.5ZM915.317 281.24C914.517 281.24 913.803 281.113 913.177 280.86C912.55 280.593 912.017 280.227 911.577 279.76C911.15 279.28 910.823 278.7 910.597 278.02C910.383 277.34 910.277 276.58 910.277 275.74C910.277 274.913 910.383 274.167 910.597 273.5C910.81 272.82 911.123 272.24 911.537 271.76C911.963 271.28 912.483 270.913 913.097 270.66C913.71 270.393 914.41 270.26 915.197 270.26C916.063 270.26 916.803 270.407 917.417 270.7C918.043 270.993 918.55 271.387 918.937 271.88C919.337 272.373 919.623 272.947 919.797 273.6C919.983 274.24 920.077 274.913 920.077 275.62V276.5H913.337V276.66C913.337 277.353 913.523 277.907 913.897 278.32C914.27 278.72 914.857 278.92 915.657 278.92C916.27 278.92 916.77 278.8 917.157 278.56C917.543 278.307 917.903 278.007 918.237 277.66L919.717 279.5C919.25 280.047 918.637 280.473 917.877 280.78C917.13 281.087 916.277 281.24 915.317 281.24ZM915.257 272.44C914.657 272.44 914.183 272.64 913.837 273.04C913.503 273.427 913.337 273.947 913.337 274.6V274.76H917.017V274.58C917.017 273.94 916.87 273.427 916.577 273.04C916.297 272.64 915.857 272.44 915.257 272.44ZM921.069 270.5H923.929L924.949 274.74L925.669 277.94H925.749L926.589 274.74L927.789 270.5H930.489L931.709 274.74L932.569 277.94H932.649L933.369 274.74L934.389 270.5H937.129L934.229 281H931.129L929.849 276.56L929.109 273.84H929.049L928.329 276.56L927.049 281H924.009L921.069 270.5ZM942.368 281.24C941.354 281.24 940.501 281.08 939.808 280.76C939.114 280.427 938.494 279.96 937.948 279.36L939.688 277.6C940.061 278.013 940.474 278.34 940.928 278.58C941.381 278.82 941.894 278.94 942.468 278.94C943.054 278.94 943.461 278.853 943.688 278.68C943.914 278.493 944.028 278.247 944.028 277.94C944.028 277.447 943.674 277.153 942.968 277.06L941.828 276.92C939.468 276.627 938.288 275.547 938.288 273.68C938.288 273.173 938.381 272.713 938.568 272.3C938.768 271.873 939.041 271.513 939.388 271.22C939.748 270.913 940.174 270.68 940.668 270.52C941.174 270.347 941.741 270.26 942.368 270.26C942.914 270.26 943.394 270.3 943.808 270.38C944.234 270.447 944.608 270.553 944.928 270.7C945.261 270.833 945.561 271.007 945.828 271.22C946.108 271.42 946.381 271.647 946.648 271.9L944.948 273.64C944.614 273.307 944.234 273.047 943.808 272.86C943.394 272.66 942.968 272.56 942.528 272.56C942.021 272.56 941.661 272.64 941.448 272.8C941.234 272.96 941.128 273.173 941.128 273.44C941.128 273.72 941.201 273.94 941.348 274.1C941.508 274.247 941.801 274.353 942.228 274.42L943.408 274.58C945.714 274.887 946.868 275.94 946.868 277.74C946.868 278.247 946.761 278.713 946.548 279.14C946.334 279.567 946.028 279.94 945.628 280.26C945.241 280.567 944.768 280.807 944.208 280.98C943.661 281.153 943.048 281.24 942.368 281.24ZM837.144 290.5H840.004L841.024 294.74L841.744 297.94H841.824L842.664 294.74L843.864 290.5H846.564L847.784 294.74L848.644 297.94H848.724L849.444 294.74L850.464 290.5H853.204L850.304 301H847.204L845.924 296.56L845.184 293.84H845.124L844.404 296.56L843.124 301H840.084L837.144 290.5ZM856.44 289.38C855.84 289.38 855.4 289.247 855.12 288.98C854.853 288.7 854.72 288.347 854.72 287.92V287.48C854.72 287.053 854.853 286.707 855.12 286.44C855.4 286.16 855.84 286.02 856.44 286.02C857.04 286.02 857.473 286.16 857.74 286.44C858.02 286.707 858.16 287.053 858.16 287.48V287.92C858.16 288.347 858.02 288.7 857.74 288.98C857.473 289.247 857.04 289.38 856.44 289.38ZM854.96 290.5H857.92V301H854.96V290.5ZM864.363 301C863.336 301 862.556 300.74 862.023 300.22C861.503 299.7 861.243 298.94 861.243 297.94V292.8H859.763V290.5H860.503C860.903 290.5 861.176 290.407 861.323 290.22C861.469 290.02 861.543 289.74 861.543 289.38V287.66H864.203V290.5H866.283V292.8H864.203V298.7H866.123V301H864.363ZM868.339 286.2H871.299V292.28H871.419C871.606 291.733 871.932 291.26 872.399 290.86C872.866 290.46 873.512 290.26 874.339 290.26C875.419 290.26 876.232 290.62 876.779 291.34C877.339 292.06 877.619 293.087 877.619 294.42V301H874.659V294.66C874.659 293.98 874.552 293.48 874.339 293.16C874.126 292.827 873.746 292.66 873.199 292.66C872.959 292.66 872.726 292.693 872.499 292.76C872.272 292.813 872.066 292.907 871.879 293.04C871.706 293.173 871.566 293.34 871.459 293.54C871.352 293.727 871.299 293.947 871.299 294.2V301H868.339V286.2ZM885.14 301V287.04H894.64V289.74H888.18V292.6H893.72V295.28H888.18V298.3H894.64V301H885.14ZM896.108 301L899.568 295.66L896.148 290.5H899.508L901.468 293.8H901.548L903.448 290.5H906.568L903.088 295.76L906.588 301H903.228L901.208 297.58H901.128L899.188 301H896.108ZM908.319 290.5H911.279V292.26H911.379C911.526 291.673 911.859 291.193 912.379 290.82C912.913 290.447 913.519 290.26 914.199 290.26C915.533 290.26 916.539 290.727 917.219 291.66C917.899 292.593 918.239 293.953 918.239 295.74C918.239 297.527 917.899 298.893 917.219 299.84C916.539 300.773 915.533 301.24 914.199 301.24C913.853 301.24 913.526 301.187 913.219 301.08C912.913 300.987 912.633 300.853 912.379 300.68C912.139 300.493 911.933 300.28 911.759 300.04C911.586 299.787 911.459 299.52 911.379 299.24H911.279V305H908.319V290.5ZM913.219 298.84C913.779 298.84 914.239 298.647 914.599 298.26C914.973 297.86 915.159 297.327 915.159 296.66V294.84C915.159 294.173 914.973 293.647 914.599 293.26C914.239 292.86 913.779 292.66 913.219 292.66C912.659 292.66 912.193 292.8 911.819 293.08C911.459 293.347 911.279 293.72 911.279 294.2V297.3C911.279 297.78 911.459 298.16 911.819 298.44C912.193 298.707 912.659 298.84 913.219 298.84ZM924.867 301.24C924.067 301.24 923.354 301.113 922.727 300.86C922.101 300.593 921.567 300.227 921.127 299.76C920.701 299.28 920.374 298.7 920.147 298.02C919.934 297.34 919.827 296.58 919.827 295.74C919.827 294.913 919.934 294.167 920.147 293.5C920.361 292.82 920.674 292.24 921.087 291.76C921.514 291.28 922.034 290.913 922.647 290.66C923.261 290.393 923.961 290.26 924.747 290.26C925.614 290.26 926.354 290.407 926.967 290.7C927.594 290.993 928.101 291.387 928.487 291.88C928.887 292.373 929.174 292.947 929.347 293.6C929.534 294.24 929.627 294.913 929.627 295.62V296.5H922.887V296.66C922.887 297.353 923.074 297.907 923.447 298.32C923.821 298.72 924.407 298.92 925.207 298.92C925.821 298.92 926.321 298.8 926.707 298.56C927.094 298.307 927.454 298.007 927.787 297.66L929.267 299.5C928.801 300.047 928.187 300.473 927.427 300.78C926.681 301.087 925.827 301.24 924.867 301.24ZM924.807 292.44C924.207 292.44 923.734 292.64 923.387 293.04C923.054 293.427 922.887 293.947 922.887 294.6V294.76H926.567V294.58C926.567 293.94 926.421 293.427 926.127 293.04C925.847 292.64 925.407 292.44 924.807 292.44ZM931.718 301V290.5H934.678V292.78H934.778C934.831 292.487 934.925 292.207 935.058 291.94C935.191 291.66 935.365 291.413 935.578 291.2C935.805 290.987 936.071 290.82 936.378 290.7C936.685 290.567 937.045 290.5 937.458 290.5H937.978V293.26H937.238C936.371 293.26 935.725 293.373 935.298 293.6C934.885 293.827 934.678 294.247 934.678 294.86V301H931.718ZM943.562 301C942.535 301 941.755 300.74 941.222 300.22C940.702 299.7 940.442 298.94 940.442 297.94V292.8H938.962V290.5H939.702C940.102 290.5 940.375 290.407 940.522 290.22C940.669 290.02 940.742 289.74 940.742 289.38V287.66H943.402V290.5H945.482V292.8H943.402V298.7H945.322V301H943.562ZM951.098 301.24C950.085 301.24 949.232 301.08 948.538 300.76C947.845 300.427 947.225 299.96 946.678 299.36L948.418 297.6C948.792 298.013 949.205 298.34 949.658 298.58C950.112 298.82 950.625 298.94 951.198 298.94C951.785 298.94 952.192 298.853 952.418 298.68C952.645 298.493 952.758 298.247 952.758 297.94C952.758 297.447 952.405 297.153 951.698 297.06L950.558 296.92C948.198 296.627 947.018 295.547 947.018 293.68C947.018 293.173 947.112 292.713 947.298 292.3C947.498 291.873 947.772 291.513 948.118 291.22C948.478 290.913 948.905 290.68 949.398 290.52C949.905 290.347 950.472 290.26 951.098 290.26C951.645 290.26 952.125 290.3 952.538 290.38C952.965 290.447 953.338 290.553 953.658 290.7C953.992 290.833 954.292 291.007 954.558 291.22C954.838 291.42 955.112 291.647 955.378 291.9L953.678 293.64C953.345 293.307 952.965 293.047 952.538 292.86C952.125 292.66 951.698 292.56 951.258 292.56C950.752 292.56 950.392 292.64 950.178 292.8C949.965 292.96 949.858 293.173 949.858 293.44C949.858 293.72 949.932 293.94 950.078 294.1C950.238 294.247 950.532 294.353 950.958 294.42L952.138 294.58C954.445 294.887 955.598 295.94 955.598 297.74C955.598 298.247 955.492 298.713 955.278 299.14C955.065 299.567 954.758 299.94 954.358 300.26C953.972 300.567 953.498 300.807 952.938 300.98C952.392 301.153 951.778 301.24 951.098 301.24Z" fill="#06584B"/>
<circle cx="1506" cy="283" r="82" fill="#D8DF69"/>
<path d="M1462.18 289L1459.02 275.04H1462.02L1463.34 281.74L1464.08 285.62H1464.14L1465.02 281.74L1466.56 275.04H1469.88L1471.44 281.74L1472.3 285.62H1472.36L1473.1 281.74L1474.44 275.04H1477.32L1474.08 289H1470.62L1468.86 281.44L1468.18 278.38H1468.12L1467.42 281.44L1465.66 289H1462.18ZM1483.03 289.24C1482.25 289.24 1481.56 289.113 1480.95 288.86C1480.35 288.607 1479.83 288.24 1479.41 287.76C1478.99 287.28 1478.67 286.7 1478.45 286.02C1478.22 285.34 1478.11 284.58 1478.11 283.74C1478.11 282.9 1478.22 282.14 1478.45 281.46C1478.67 280.78 1478.99 280.207 1479.41 279.74C1479.83 279.26 1480.35 278.893 1480.95 278.64C1481.56 278.387 1482.25 278.26 1483.03 278.26C1483.8 278.26 1484.49 278.387 1485.09 278.64C1485.7 278.893 1486.21 279.26 1486.63 279.74C1487.05 280.207 1487.38 280.78 1487.61 281.46C1487.83 282.14 1487.95 282.9 1487.95 283.74C1487.95 284.58 1487.83 285.34 1487.61 286.02C1487.38 286.7 1487.05 287.28 1486.63 287.76C1486.21 288.24 1485.7 288.607 1485.09 288.86C1484.49 289.113 1483.8 289.24 1483.03 289.24ZM1483.03 286.9C1483.61 286.9 1484.07 286.72 1484.39 286.36C1484.71 286 1484.87 285.487 1484.87 284.82V282.68C1484.87 282.013 1484.71 281.5 1484.39 281.14C1484.07 280.78 1483.61 280.6 1483.03 280.6C1482.44 280.6 1481.99 280.78 1481.67 281.14C1481.35 281.5 1481.19 282.013 1481.19 282.68V284.82C1481.19 285.487 1481.35 286 1481.67 286.36C1481.99 286.72 1482.44 286.9 1483.03 286.9ZM1490.06 289V278.5H1493.02V280.78H1493.12C1493.17 280.487 1493.26 280.207 1493.4 279.94C1493.53 279.66 1493.7 279.413 1493.92 279.2C1494.14 278.987 1494.41 278.82 1494.72 278.7C1495.02 278.567 1495.38 278.5 1495.8 278.5H1496.32V281.26H1495.58C1494.71 281.26 1494.06 281.373 1493.64 281.6C1493.22 281.827 1493.02 282.247 1493.02 282.86V289H1490.06ZM1498.14 274.2H1501.1V282.94H1501.22L1502.52 281L1504.62 278.5H1507.9L1504.4 282.52L1508.3 289H1504.78L1502.42 284.56L1501.1 286.04V289H1498.14V274.2ZM1513.05 289.24C1512.04 289.24 1511.18 289.08 1510.49 288.76C1509.8 288.427 1509.18 287.96 1508.63 287.36L1510.37 285.6C1510.74 286.013 1511.16 286.34 1511.61 286.58C1512.06 286.82 1512.58 286.94 1513.15 286.94C1513.74 286.94 1514.14 286.853 1514.37 286.68C1514.6 286.493 1514.71 286.247 1514.71 285.94C1514.71 285.447 1514.36 285.153 1513.65 285.06L1512.51 284.92C1510.15 284.627 1508.97 283.547 1508.97 281.68C1508.97 281.173 1509.06 280.713 1509.25 280.3C1509.45 279.873 1509.72 279.513 1510.07 279.22C1510.43 278.913 1510.86 278.68 1511.35 278.52C1511.86 278.347 1512.42 278.26 1513.05 278.26C1513.6 278.26 1514.08 278.3 1514.49 278.38C1514.92 278.447 1515.29 278.553 1515.61 278.7C1515.94 278.833 1516.24 279.007 1516.51 279.22C1516.79 279.42 1517.06 279.647 1517.33 279.9L1515.63 281.64C1515.3 281.307 1514.92 281.047 1514.49 280.86C1514.08 280.66 1513.65 280.56 1513.21 280.56C1512.7 280.56 1512.34 280.64 1512.13 280.8C1511.92 280.96 1511.81 281.173 1511.81 281.44C1511.81 281.72 1511.88 281.94 1512.03 282.1C1512.19 282.247 1512.48 282.353 1512.91 282.42L1514.09 282.58C1516.4 282.887 1517.55 283.94 1517.55 285.74C1517.55 286.247 1517.44 286.713 1517.23 287.14C1517.02 287.567 1516.71 287.94 1516.31 288.26C1515.92 288.567 1515.45 288.807 1514.89 288.98C1514.34 289.153 1513.73 289.24 1513.05 289.24ZM1519.57 274.2H1522.53V280.28H1522.65C1522.83 279.733 1523.16 279.26 1523.63 278.86C1524.09 278.46 1524.74 278.26 1525.57 278.26C1526.65 278.26 1527.46 278.62 1528.01 279.34C1528.57 280.06 1528.85 281.087 1528.85 282.42V289H1525.89V282.66C1525.89 281.98 1525.78 281.48 1525.57 281.16C1525.35 280.827 1524.97 280.66 1524.43 280.66C1524.19 280.66 1523.95 280.693 1523.73 280.76C1523.5 280.813 1523.29 280.907 1523.11 281.04C1522.93 281.173 1522.79 281.34 1522.69 281.54C1522.58 281.727 1522.53 281.947 1522.53 282.2V289H1519.57V274.2ZM1535.74 289.24C1534.97 289.24 1534.27 289.113 1533.66 288.86C1533.06 288.607 1532.55 288.24 1532.12 287.76C1531.71 287.28 1531.39 286.7 1531.16 286.02C1530.93 285.34 1530.82 284.58 1530.82 283.74C1530.82 282.9 1530.93 282.14 1531.16 281.46C1531.39 280.78 1531.71 280.207 1532.12 279.74C1532.55 279.26 1533.06 278.893 1533.66 278.64C1534.27 278.387 1534.97 278.26 1535.74 278.26C1536.51 278.26 1537.2 278.387 1537.8 278.64C1538.41 278.893 1538.93 279.26 1539.34 279.74C1539.77 280.207 1540.09 280.78 1540.32 281.46C1540.55 282.14 1540.66 282.9 1540.66 283.74C1540.66 284.58 1540.55 285.34 1540.32 286.02C1540.09 286.7 1539.77 287.28 1539.34 287.76C1538.93 288.24 1538.41 288.607 1537.8 288.86C1537.2 289.113 1536.51 289.24 1535.74 289.24ZM1535.74 286.9C1536.33 286.9 1536.78 286.72 1537.1 286.36C1537.42 286 1537.58 285.487 1537.58 284.82V282.68C1537.58 282.013 1537.42 281.5 1537.1 281.14C1536.78 280.78 1536.33 280.6 1535.74 280.6C1535.15 280.6 1534.7 280.78 1534.38 281.14C1534.06 281.5 1533.9 282.013 1533.9 282.68V284.82C1533.9 285.487 1534.06 286 1534.38 286.36C1534.7 286.72 1535.15 286.9 1535.74 286.9ZM1542.77 278.5H1545.73V280.26H1545.83C1545.98 279.673 1546.31 279.193 1546.83 278.82C1547.36 278.447 1547.97 278.26 1548.65 278.26C1549.98 278.26 1550.99 278.727 1551.67 279.66C1552.35 280.593 1552.69 281.953 1552.69 283.74C1552.69 285.527 1552.35 286.893 1551.67 287.84C1550.99 288.773 1549.98 289.24 1548.65 289.24C1548.3 289.24 1547.98 289.187 1547.67 289.08C1547.36 288.987 1547.08 288.853 1546.83 288.68C1546.59 288.493 1546.38 288.28 1546.21 288.04C1546.04 287.787 1545.91 287.52 1545.83 287.24H1545.73V293H1542.77V278.5ZM1547.67 286.84C1548.23 286.84 1548.69 286.647 1549.05 286.26C1549.42 285.86 1549.61 285.327 1549.61 284.66V282.84C1549.61 282.173 1549.42 281.647 1549.05 281.26C1548.69 280.86 1548.23 280.66 1547.67 280.66C1547.11 280.66 1546.64 280.8 1546.27 281.08C1545.91 281.347 1545.73 281.72 1545.73 282.2V285.3C1545.73 285.78 1545.91 286.16 1546.27 286.44C1546.64 286.707 1547.11 286.84 1547.67 286.84Z" fill="#06584B"/>
<circle cx="1201" cy="283" r="127" fill="#D8DF69"/>
<path d="M1106.99 289V286.58H1110.75V277.22H1110.57L1107.73 280.94L1105.81 279.44L1109.15 275.04H1113.75V286.58H1116.71V289H1106.99ZM1120.41 289.22C1119.81 289.22 1119.36 289.073 1119.07 288.78C1118.79 288.473 1118.65 288.087 1118.65 287.62V287.22C1118.65 286.753 1118.79 286.373 1119.07 286.08C1119.36 285.773 1119.81 285.62 1120.41 285.62C1121.01 285.62 1121.45 285.773 1121.73 286.08C1122.02 286.373 1122.17 286.753 1122.17 287.22V287.62C1122.17 288.087 1122.02 288.473 1121.73 288.78C1121.45 289.073 1121.01 289.22 1120.41 289.22ZM1120.41 281.88C1119.81 281.88 1119.36 281.733 1119.07 281.44C1118.79 281.133 1118.65 280.747 1118.65 280.28V279.88C1118.65 279.413 1118.79 279.033 1119.07 278.74C1119.36 278.433 1119.81 278.28 1120.41 278.28C1121.01 278.28 1121.45 278.433 1121.73 278.74C1122.02 279.033 1122.17 279.413 1122.17 279.88V280.28C1122.17 280.747 1122.02 281.133 1121.73 281.44C1121.45 281.733 1121.01 281.88 1120.41 281.88ZM1125.59 289V286.58H1129.35V277.22H1129.17L1126.33 280.94L1124.41 279.44L1127.75 275.04H1132.35V286.58H1135.31V289H1125.59ZM1148.01 287.24H1147.91C1147.81 287.507 1147.69 287.76 1147.53 288C1147.38 288.24 1147.19 288.453 1146.95 288.64C1146.71 288.827 1146.42 288.973 1146.09 289.08C1145.77 289.187 1145.39 289.24 1144.97 289.24C1143.89 289.24 1143.07 288.887 1142.51 288.18C1141.96 287.46 1141.69 286.433 1141.69 285.1V278.5H1144.65V284.84C1144.65 285.48 1144.76 285.973 1144.99 286.32C1145.21 286.667 1145.6 286.84 1146.15 286.84C1146.37 286.84 1146.6 286.807 1146.83 286.74C1147.05 286.673 1147.25 286.58 1147.43 286.46C1147.6 286.327 1147.74 286.167 1147.85 285.98C1147.95 285.793 1148.01 285.573 1148.01 285.32V278.5H1150.97V289H1148.01V287.24ZM1157.28 289.24C1156.27 289.24 1155.41 289.08 1154.72 288.76C1154.03 288.427 1153.41 287.96 1152.86 287.36L1154.6 285.6C1154.97 286.013 1155.39 286.34 1155.84 286.58C1156.29 286.82 1156.81 286.94 1157.38 286.94C1157.97 286.94 1158.37 286.853 1158.6 286.68C1158.83 286.493 1158.94 286.247 1158.94 285.94C1158.94 285.447 1158.59 285.153 1157.88 285.06L1156.74 284.92C1154.38 284.627 1153.2 283.547 1153.2 281.68C1153.2 281.173 1153.29 280.713 1153.48 280.3C1153.68 279.873 1153.95 279.513 1154.3 279.22C1154.66 278.913 1155.09 278.68 1155.58 278.52C1156.09 278.347 1156.65 278.26 1157.28 278.26C1157.83 278.26 1158.31 278.3 1158.72 278.38C1159.15 278.447 1159.52 278.553 1159.84 278.7C1160.17 278.833 1160.47 279.007 1160.74 279.22C1161.02 279.42 1161.29 279.647 1161.56 279.9L1159.86 281.64C1159.53 281.307 1159.15 281.047 1158.72 280.86C1158.31 280.66 1157.88 280.56 1157.44 280.56C1156.93 280.56 1156.57 280.64 1156.36 280.8C1156.15 280.96 1156.04 281.173 1156.04 281.44C1156.04 281.72 1156.11 281.94 1156.26 282.1C1156.42 282.247 1156.71 282.353 1157.14 282.42L1158.32 282.58C1160.63 282.887 1161.78 283.94 1161.78 285.74C1161.78 286.247 1161.67 286.713 1161.46 287.14C1161.25 287.567 1160.94 287.94 1160.54 288.26C1160.15 288.567 1159.68 288.807 1159.12 288.98C1158.57 289.153 1157.96 289.24 1157.28 289.24ZM1168.18 289.24C1167.38 289.24 1166.66 289.113 1166.04 288.86C1165.41 288.593 1164.88 288.227 1164.44 287.76C1164.01 287.28 1163.68 286.7 1163.46 286.02C1163.24 285.34 1163.14 284.58 1163.14 283.74C1163.14 282.913 1163.24 282.167 1163.46 281.5C1163.67 280.82 1163.98 280.24 1164.4 279.76C1164.82 279.28 1165.34 278.913 1165.96 278.66C1166.57 278.393 1167.27 278.26 1168.06 278.26C1168.92 278.26 1169.66 278.407 1170.28 278.7C1170.9 278.993 1171.41 279.387 1171.8 279.88C1172.2 280.373 1172.48 280.947 1172.66 281.6C1172.84 282.24 1172.94 282.913 1172.94 283.62V284.5H1166.2V284.66C1166.2 285.353 1166.38 285.907 1166.76 286.32C1167.13 286.72 1167.72 286.92 1168.52 286.92C1169.13 286.92 1169.63 286.8 1170.02 286.56C1170.4 286.307 1170.76 286.007 1171.1 285.66L1172.58 287.5C1172.11 288.047 1171.5 288.473 1170.74 288.78C1169.99 289.087 1169.14 289.24 1168.18 289.24ZM1168.12 280.44C1167.52 280.44 1167.04 280.64 1166.7 281.04C1166.36 281.427 1166.2 281.947 1166.2 282.6V282.76H1169.88V282.58C1169.88 281.94 1169.73 281.427 1169.44 281.04C1169.16 280.64 1168.72 280.44 1168.12 280.44ZM1175.03 289V278.5H1177.99V280.78H1178.09C1178.14 280.487 1178.24 280.207 1178.37 279.94C1178.5 279.66 1178.68 279.413 1178.89 279.2C1179.12 278.987 1179.38 278.82 1179.69 278.7C1180 278.567 1180.36 278.5 1180.77 278.5H1181.29V281.26H1180.55C1179.68 281.26 1179.04 281.373 1178.61 281.6C1178.2 281.827 1177.99 282.247 1177.99 282.86V289H1175.03ZM1192.1 289.24C1191.33 289.24 1190.63 289.113 1190.02 288.86C1189.42 288.607 1188.91 288.24 1188.48 287.76C1188.07 287.28 1187.75 286.7 1187.52 286.02C1187.29 285.34 1187.18 284.58 1187.18 283.74C1187.18 282.9 1187.29 282.14 1187.52 281.46C1187.75 280.78 1188.07 280.207 1188.48 279.74C1188.91 279.26 1189.42 278.893 1190.02 278.64C1190.63 278.387 1191.33 278.26 1192.1 278.26C1192.87 278.26 1193.56 278.387 1194.16 278.64C1194.77 278.893 1195.29 279.26 1195.7 279.74C1196.13 280.207 1196.45 280.78 1196.68 281.46C1196.91 282.14 1197.02 282.9 1197.02 283.74C1197.02 284.58 1196.91 285.34 1196.68 286.02C1196.45 286.7 1196.13 287.28 1195.7 287.76C1195.29 288.24 1194.77 288.607 1194.16 288.86C1193.56 289.113 1192.87 289.24 1192.1 289.24ZM1192.1 286.9C1192.69 286.9 1193.14 286.72 1193.46 286.36C1193.78 286 1193.94 285.487 1193.94 284.82V282.68C1193.94 282.013 1193.78 281.5 1193.46 281.14C1193.14 280.78 1192.69 280.6 1192.1 280.6C1191.51 280.6 1191.06 280.78 1190.74 281.14C1190.42 281.5 1190.26 282.013 1190.26 282.68V284.82C1190.26 285.487 1190.42 286 1190.74 286.36C1191.06 286.72 1191.51 286.9 1192.1 286.9ZM1199.13 274.2H1202.09V280.26H1202.19C1202.34 279.673 1202.67 279.193 1203.19 278.82C1203.72 278.447 1204.33 278.26 1205.01 278.26C1206.34 278.26 1207.35 278.727 1208.03 279.66C1208.71 280.593 1209.05 281.953 1209.05 283.74C1209.05 285.527 1208.71 286.893 1208.03 287.84C1207.35 288.773 1206.34 289.24 1205.01 289.24C1204.66 289.24 1204.34 289.187 1204.03 289.08C1203.72 288.987 1203.44 288.853 1203.19 288.68C1202.95 288.493 1202.74 288.28 1202.57 288.04C1202.4 287.787 1202.27 287.52 1202.19 287.24H1202.09V289H1199.13V274.2ZM1204.03 286.84C1204.59 286.84 1205.05 286.647 1205.41 286.26C1205.78 285.86 1205.97 285.327 1205.97 284.66V282.84C1205.97 282.173 1205.78 281.647 1205.41 281.26C1205.05 280.86 1204.59 280.66 1204.03 280.66C1203.47 280.66 1203 280.8 1202.63 281.08C1202.27 281.347 1202.09 281.72 1202.09 282.2V285.3C1202.09 285.78 1202.27 286.16 1202.63 286.44C1203 286.707 1203.47 286.84 1204.03 286.84ZM1214.86 289.24C1213.84 289.24 1212.99 289.08 1212.3 288.76C1211.6 288.427 1210.98 287.96 1210.44 287.36L1212.18 285.6C1212.55 286.013 1212.96 286.34 1213.42 286.58C1213.87 286.82 1214.38 286.94 1214.96 286.94C1215.54 286.94 1215.95 286.853 1216.18 286.68C1216.4 286.493 1216.52 286.247 1216.52 285.94C1216.52 285.447 1216.16 285.153 1215.46 285.06L1214.32 284.92C1211.96 284.627 1210.78 283.547 1210.78 281.68C1210.78 281.173 1210.87 280.713 1211.06 280.3C1211.26 279.873 1211.53 279.513 1211.88 279.22C1212.24 278.913 1212.66 278.68 1213.16 278.52C1213.66 278.347 1214.23 278.26 1214.86 278.26C1215.4 278.26 1215.88 278.3 1216.3 278.38C1216.72 278.447 1217.1 278.553 1217.42 278.7C1217.75 278.833 1218.05 279.007 1218.32 279.22C1218.6 279.42 1218.87 279.647 1219.14 279.9L1217.44 281.64C1217.1 281.307 1216.72 281.047 1216.3 280.86C1215.88 280.66 1215.46 280.56 1215.02 280.56C1214.51 280.56 1214.15 280.64 1213.94 280.8C1213.72 280.96 1213.62 281.173 1213.62 281.44C1213.62 281.72 1213.69 281.94 1213.84 282.1C1214 282.247 1214.29 282.353 1214.72 282.42L1215.9 282.58C1218.2 282.887 1219.36 283.94 1219.36 285.74C1219.36 286.247 1219.25 286.713 1219.04 287.14C1218.82 287.567 1218.52 287.94 1218.12 288.26C1217.73 288.567 1217.26 288.807 1216.7 288.98C1216.15 289.153 1215.54 289.24 1214.86 289.24ZM1225.76 289.24C1224.96 289.24 1224.24 289.113 1223.62 288.86C1222.99 288.593 1222.46 288.227 1222.02 287.76C1221.59 287.28 1221.26 286.7 1221.04 286.02C1220.82 285.34 1220.72 284.58 1220.72 283.74C1220.72 282.913 1220.82 282.167 1221.04 281.5C1221.25 280.82 1221.56 280.24 1221.98 279.76C1222.4 279.28 1222.92 278.913 1223.54 278.66C1224.15 278.393 1224.85 278.26 1225.64 278.26C1226.5 278.26 1227.24 278.407 1227.86 278.7C1228.48 278.993 1228.99 279.387 1229.38 279.88C1229.78 280.373 1230.06 280.947 1230.24 281.6C1230.42 282.24 1230.52 282.913 1230.52 283.62V284.5H1223.78V284.66C1223.78 285.353 1223.96 285.907 1224.34 286.32C1224.71 286.72 1225.3 286.92 1226.1 286.92C1226.71 286.92 1227.21 286.8 1227.6 286.56C1227.98 286.307 1228.34 286.007 1228.68 285.66L1230.16 287.5C1229.69 288.047 1229.08 288.473 1228.32 288.78C1227.57 289.087 1226.72 289.24 1225.76 289.24ZM1225.7 280.44C1225.1 280.44 1224.62 280.64 1224.28 281.04C1223.94 281.427 1223.78 281.947 1223.78 282.6V282.76H1227.46V282.58C1227.46 281.94 1227.31 281.427 1227.02 281.04C1226.74 280.64 1226.3 280.44 1225.7 280.44ZM1232.61 289V278.5H1235.57V280.78H1235.67C1235.72 280.487 1235.81 280.207 1235.95 279.94C1236.08 279.66 1236.25 279.413 1236.47 279.2C1236.69 278.987 1236.96 278.82 1237.27 278.7C1237.57 278.567 1237.93 278.5 1238.35 278.5H1238.87V281.26H1238.13C1237.26 281.26 1236.61 281.373 1236.19 281.6C1235.77 281.827 1235.57 282.247 1235.57 282.86V289H1232.61ZM1243.07 289L1239.63 278.5H1242.55L1243.85 282.74L1244.83 286.54H1244.99L1245.97 282.74L1247.23 278.5H1250.03L1246.59 289H1243.07ZM1259.18 289C1258.64 289 1258.2 288.833 1257.84 288.5C1257.49 288.167 1257.27 287.72 1257.18 287.16H1257.06C1256.9 287.84 1256.54 288.36 1256 288.72C1255.45 289.067 1254.78 289.24 1253.98 289.24C1252.92 289.24 1252.12 288.96 1251.56 288.4C1251 287.84 1250.72 287.1 1250.72 286.18C1250.72 285.073 1251.12 284.253 1251.92 283.72C1252.73 283.173 1253.83 282.9 1255.22 282.9H1256.88V282.24C1256.88 281.733 1256.74 281.333 1256.48 281.04C1256.21 280.733 1255.76 280.58 1255.14 280.58C1254.55 280.58 1254.08 280.707 1253.74 280.96C1253.39 281.213 1253.1 281.5 1252.88 281.82L1251.12 280.26C1251.54 279.633 1252.08 279.147 1252.72 278.8C1253.37 278.44 1254.25 278.26 1255.36 278.26C1256.85 278.26 1257.97 278.587 1258.72 279.24C1259.46 279.893 1259.84 280.847 1259.84 282.1V286.7H1260.82V289H1259.18ZM1255.08 287.18C1255.57 287.18 1255.99 287.073 1256.34 286.86C1256.7 286.647 1256.88 286.3 1256.88 285.82V284.58H1255.44C1254.28 284.58 1253.7 284.973 1253.7 285.76V286.06C1253.7 286.447 1253.82 286.733 1254.06 286.92C1254.3 287.093 1254.64 287.18 1255.08 287.18ZM1266.36 289C1265.34 289 1264.56 288.74 1264.02 288.22C1263.5 287.7 1263.24 286.94 1263.24 285.94V280.8H1261.76V278.5H1262.5C1262.9 278.5 1263.18 278.407 1263.32 278.22C1263.47 278.02 1263.54 277.74 1263.54 277.38V275.66H1266.2V278.5H1268.28V280.8H1266.2V286.7H1268.12V289H1266.36ZM1271.82 277.38C1271.22 277.38 1270.78 277.247 1270.5 276.98C1270.23 276.7 1270.1 276.347 1270.1 275.92V275.48C1270.1 275.053 1270.23 274.707 1270.5 274.44C1270.78 274.16 1271.22 274.02 1271.82 274.02C1272.42 274.02 1272.85 274.16 1273.12 274.44C1273.4 274.707 1273.54 275.053 1273.54 275.48V275.92C1273.54 276.347 1273.4 276.7 1273.12 276.98C1272.85 277.247 1272.42 277.38 1271.82 277.38ZM1270.34 278.5H1273.3V289H1270.34V278.5ZM1280.32 289.24C1279.55 289.24 1278.86 289.113 1278.24 288.86C1277.64 288.607 1277.13 288.24 1276.7 287.76C1276.29 287.28 1275.97 286.7 1275.74 286.02C1275.52 285.34 1275.4 284.58 1275.4 283.74C1275.4 282.9 1275.52 282.14 1275.74 281.46C1275.97 280.78 1276.29 280.207 1276.7 279.74C1277.13 279.26 1277.64 278.893 1278.24 278.64C1278.86 278.387 1279.55 278.26 1280.32 278.26C1281.1 278.26 1281.78 278.387 1282.38 278.64C1283 278.893 1283.51 279.26 1283.92 279.74C1284.35 280.207 1284.68 280.78 1284.9 281.46C1285.13 282.14 1285.24 282.9 1285.24 283.74C1285.24 284.58 1285.13 285.34 1284.9 286.02C1284.68 286.7 1284.35 287.28 1283.92 287.76C1283.51 288.24 1283 288.607 1282.38 288.86C1281.78 289.113 1281.1 289.24 1280.32 289.24ZM1280.32 286.9C1280.91 286.9 1281.36 286.72 1281.68 286.36C1282 286 1282.16 285.487 1282.16 284.82V282.68C1282.16 282.013 1282 281.5 1281.68 281.14C1281.36 280.78 1280.91 280.6 1280.32 280.6C1279.74 280.6 1279.28 280.78 1278.96 281.14C1278.64 281.5 1278.48 282.013 1278.48 282.68V284.82C1278.48 285.487 1278.64 286 1278.96 286.36C1279.28 286.72 1279.74 286.9 1280.32 286.9ZM1287.35 289V278.5H1290.31V280.28H1290.43C1290.62 279.733 1290.95 279.26 1291.41 278.86C1291.88 278.46 1292.53 278.26 1293.35 278.26C1294.43 278.26 1295.25 278.62 1295.79 279.34C1296.35 280.06 1296.63 281.087 1296.63 282.42V289H1293.67V282.66C1293.67 281.98 1293.57 281.48 1293.35 281.16C1293.14 280.827 1292.76 280.66 1292.21 280.66C1291.97 280.66 1291.74 280.693 1291.51 280.76C1291.29 280.813 1291.08 280.907 1290.89 281.04C1290.72 281.173 1290.58 281.34 1290.47 281.54C1290.37 281.727 1290.31 281.947 1290.31 282.2V289H1287.35Z" fill="#06584B"/>
</svg>
