<svg width="1920" height="565" viewBox="0 0 1920 565" fill="none" xmlns="http://www.w3.org/2000/svg">
<g clip-path="url(#clip0_146_39)">
<rect width="1920" height="565" fill="#C25341"/>
<path d="M1863.94 226.092C1863.94 226.092 1648.81 189.434 1513.1 209.379C1454.6 217.977 1415.16 276.052 1365.64 243.739C1346.75 231.415 1326.11 215.863 1337.43 198.317C1347.1 183.332 1365.5 188.657 1382.79 193.036C1417.75 201.891 1332.5 219.237 1304.33 241.761C1282.25 259.415 1261.11 271.971 1234.2 262.43C1205.57 252.28 1221.04 208.431 1193.16 196.361C1172.1 187.237 1157.25 196.131 1134.42 198.512C1076.26 204.578 1287.8 150.385 1283.81 208.727C1280.58 256.074 1228.04 272.859 1180.58 272.84C1132.18 272.82 1124.21 211.937 1076.17 206.075C1039.22 201.567 989.352 189.982 983.112 226.678C977.171 261.614 1055.39 246.839 1054.83 282.272C1054.14 326.43 968.749 324.541 941.971 289.422C926.252 268.807 927.992 246.915 930.252 236.436C940.549 188.688 969.285 189.485 979.178 160.457C1011.87 64.5297 832.252 99.7123 726.877 99.7123C680.69 99.7123 617.709 98.5565 617.516 144.743C617.404 171.319 634.132 184.27 653.419 202.554C709.497 255.716 773.776 182.498 850.8 188.688C899.041 192.566 973.752 206.075 973.752 206.075C973.752 206.075 1038.75 217.415 1044.14 237.415C1048.45 253.42 1029.25 267.915 1014.75 275.915C958.775 306.799 918.279 296.374 855.103 306.178C808.964 313.339 736.048 317.175 736.048 317.175C736.048 317.175 673.672 321.284 651.093 295.55C638.252 280.915 644.497 269.003 655.57 261.299C667.153 253.241 680.111 261.449 690.322 271.188C705.069 285.252 712.892 324.847 690.322 331.454C667.752 338.06 652.158 334.249 629.252 325.216C594.715 311.596 582.088 280.337 587.35 243.586C591.08 217.531 604.642 205.034 623.579 186.754C658.694 152.859 749.754 99.7123 737.752 132.915C726.877 163 766.666 149.084 786.209 163C805.752 176.915 806.724 200.643 797.119 222.027C783.463 252.43 746.476 245.026 713.598 239.566C694.752 236.436 645.252 226.678 617.516 226.678C583.215 226.678 551.734 234.381 528.822 259.908C505.024 286.422 497.396 333.105 513.109 349.775C528.822 366.444 552.824 373.709 582.641 379.571C612.091 385.362 636.78 388.401 661.252 389.415C685.724 390.429 717.752 370.415 731.072 346.015C745.236 320.068 749.799 302.669 751.631 273.165C755.116 217.057 743.899 175.548 702.036 138.028C664.469 104.358 625.826 82.8961 578.483 100.321C535.312 116.209 514.552 136.971 512.252 182.915C510.111 225.668 567.071 249.698 560.161 291.943C553.546 332.384 526.28 357.596 486.268 366.444C435.288 377.717 422.672 309.174 371.821 297.332C348.711 291.951 334.76 288.485 311.294 292.008C280.191 296.676 251.727 299.231 239.313 328.128C230.432 348.802 232.305 367.266 243.529 385.591C254.754 403.915 275.961 416.685 302.427 420.538C332.497 424.916 356.254 411.915 376.689 397.305C397.124 382.695 425.252 363.415 425.252 363.415C425.252 363.415 459.513 338.625 483.552 325.216C517.68 306.178 571.645 294.385 593.283 331.454C606.166 353.525 604.344 373.581 593.869 396.893C573.563 442.087 518.388 431.315 469.62 422.559C420.737 413.783 391.254 385.591 358.754 360.415C358.754 360.415 324.379 335.939 318.705 313.154C313.008 290.276 310.316 273.541 337.417 255.756C364.519 237.971 422.068 203.184 422.068 203.184C422.068 203.184 464.26 179.026 483.552 159.415C502.843 139.804 474.636 102.676 454.082 88.8887C422.068 67.415 370.7 49.5254 333.754 57.8977C290.247 67.7566 259.72 80.4149 239.313 117.915C229.24 136.426 228.66 156.52 234.076 176.886C239.491 197.253 245.033 206.154 259.721 218.18C297.662 249.242 334.719 170.415 383.754 170.415C417.754 170.415 438.754 181.915 448.754 209.465C454.419 225.072 453.848 236.461 446.149 251.171C433.316 275.688 385.754 271.415 376.689 269.415C334.044 260.006 288.571 212.131 259.721 244.915C248.933 257.174 250.267 272.415 250.267 281.271C250.267 310.309 265.446 336.622 291.754 348.915C306.515 355.813 355.445 356.719 379.949 338.06C395.499 326.22 404.672 313.787 409.752 294.915C415.507 273.538 415.234 258.659 404.29 239.415C395.229 223.48 383.754 220.415 365.888 209.465C337.277 191.929 315.468 176.828 310.686 143.613C302.559 87.1752 375.374 74.2039 430.718 60.4833C463.743 52.2963 486.148 48.2887 517.68 61.0705C554.129 75.8455 583.424 98.7064 582.641 138.028C582.148 162.774 572.211 176.49 556.252 195.186C537.15 217.565 519.454 223.206 491.289 231.72C467.719 238.844 428.414 236.436 428.414 236.436" stroke="url(#paint0_linear_146_39)" stroke-width="10" stroke-linecap="round" stroke-linejoin="round"/>
<rect x="224.252" y="474" width="701" height="44" rx="10" fill="white"/>
<path d="M249.832 489.54V491.68H243.422V495.96H248.832V498.11H243.422V504H240.712V489.54H249.832ZM253.457 493.74V500.26C253.457 500.887 253.6 501.373 253.887 501.72C254.18 502.06 254.617 502.23 255.197 502.23C255.624 502.23 256.024 502.137 256.397 501.95C256.77 501.757 257.124 501.493 257.457 501.16V493.74H259.927V504H258.417C258.097 504 257.887 503.85 257.787 503.55L257.617 502.73C257.404 502.943 257.184 503.14 256.957 503.32C256.73 503.493 256.487 503.643 256.227 503.77C255.974 503.89 255.697 503.983 255.397 504.05C255.104 504.123 254.787 504.16 254.447 504.16C253.887 504.16 253.39 504.067 252.957 503.88C252.53 503.687 252.17 503.417 251.877 503.07C251.584 502.723 251.36 502.313 251.207 501.84C251.06 501.36 250.987 500.833 250.987 500.26V493.74H253.457ZM269.984 494.76C269.984 494.933 269.951 495.103 269.884 495.27C269.824 495.43 269.751 495.567 269.664 495.68L264.784 502.1H269.844V504H261.914V502.97C261.914 502.857 261.941 502.723 261.994 502.57C262.047 502.41 262.131 502.26 262.244 502.12L267.164 495.63H262.204V493.74H269.984V494.76ZM279.379 494.76C279.379 494.933 279.345 495.103 279.279 495.27C279.219 495.43 279.145 495.567 279.059 495.68L274.179 502.1H279.239V504H271.309V502.97C271.309 502.857 271.335 502.723 271.389 502.57C271.442 502.41 271.525 502.26 271.639 502.12L276.559 495.63H271.599V493.74H279.379V494.76ZM284.993 506.82C284.92 506.993 284.823 507.123 284.703 507.21C284.59 507.303 284.413 507.35 284.173 507.35H282.333L284.253 503.24L280.103 493.74H282.263C282.463 493.74 282.617 493.787 282.723 493.88C282.83 493.973 282.91 494.08 282.963 494.2L285.153 499.52C285.227 499.693 285.29 499.873 285.343 500.06C285.397 500.247 285.443 500.433 285.483 500.62C285.537 500.427 285.593 500.24 285.653 500.06C285.72 499.88 285.79 499.697 285.863 499.51L287.923 494.2C287.977 494.067 288.063 493.957 288.183 493.87C288.31 493.783 288.45 493.74 288.603 493.74H290.583L284.993 506.82ZM305.144 489.54V491.68H298.734V495.96H304.144V498.11H298.734V504H296.024V489.54H305.144ZM306.509 504V493.74H307.959C308.213 493.74 308.389 493.787 308.489 493.88C308.589 493.973 308.656 494.133 308.689 494.36L308.839 495.6C309.206 494.967 309.636 494.467 310.129 494.1C310.623 493.733 311.176 493.55 311.789 493.55C312.296 493.55 312.716 493.667 313.049 493.9L312.729 495.75C312.709 495.87 312.666 495.957 312.599 496.01C312.533 496.057 312.443 496.08 312.329 496.08C312.229 496.08 312.093 496.057 311.919 496.01C311.746 495.963 311.516 495.94 311.229 495.94C310.716 495.94 310.276 496.083 309.909 496.37C309.543 496.65 309.233 497.063 308.979 497.61V504H306.509ZM319.054 493.58C319.82 493.58 320.514 493.703 321.134 493.95C321.76 494.197 322.294 494.547 322.734 495C323.174 495.453 323.514 496.007 323.754 496.66C323.994 497.313 324.114 498.043 324.114 498.85C324.114 499.663 323.994 500.397 323.754 501.05C323.514 501.703 323.174 502.26 322.734 502.72C322.294 503.18 321.76 503.533 321.134 503.78C320.514 504.027 319.82 504.15 319.054 504.15C318.287 504.15 317.59 504.027 316.964 503.78C316.337 503.533 315.8 503.18 315.354 502.72C314.914 502.26 314.57 501.703 314.324 501.05C314.084 500.397 313.964 499.663 313.964 498.85C313.964 498.043 314.084 497.313 314.324 496.66C314.57 496.007 314.914 495.453 315.354 495C315.8 494.547 316.337 494.197 316.964 493.95C317.59 493.703 318.287 493.58 319.054 493.58ZM319.054 502.25C319.907 502.25 320.537 501.963 320.944 501.39C321.357 500.817 321.564 499.977 321.564 498.87C321.564 497.763 321.357 496.92 320.944 496.34C320.537 495.76 319.907 495.47 319.054 495.47C318.187 495.47 317.547 495.763 317.134 496.35C316.72 496.93 316.514 497.77 316.514 498.87C316.514 499.97 316.72 500.81 317.134 501.39C317.547 501.963 318.187 502.25 319.054 502.25ZM326.041 504V493.74H327.551C327.871 493.74 328.081 493.89 328.181 494.19L328.351 495C328.557 494.787 328.774 494.593 329.001 494.42C329.234 494.247 329.477 494.097 329.731 493.97C329.991 493.843 330.267 493.747 330.561 493.68C330.854 493.613 331.174 493.58 331.521 493.58C332.081 493.58 332.577 493.677 333.011 493.87C333.444 494.057 333.804 494.323 334.091 494.67C334.384 495.01 334.604 495.42 334.751 495.9C334.904 496.373 334.981 496.897 334.981 497.47V504H332.511V497.47C332.511 496.843 332.364 496.36 332.071 496.02C331.784 495.673 331.351 495.5 330.771 495.5C330.344 495.5 329.944 495.597 329.571 495.79C329.197 495.983 328.844 496.247 328.511 496.58V504H326.041ZM340.778 504.16C339.891 504.16 339.208 503.91 338.728 503.41C338.248 502.903 338.008 502.207 338.008 501.32V495.59H336.968C336.835 495.59 336.718 495.547 336.618 495.46C336.525 495.373 336.478 495.243 336.478 495.07V494.09L338.128 493.82L338.648 491.02C338.675 490.887 338.735 490.783 338.828 490.71C338.928 490.637 339.051 490.6 339.198 490.6H340.478V493.83H343.178V495.59H340.478V501.15C340.478 501.47 340.558 501.72 340.718 501.9C340.878 502.08 341.091 502.17 341.358 502.17C341.511 502.17 341.638 502.153 341.738 502.12C341.845 502.08 341.935 502.04 342.008 502C342.088 501.96 342.158 501.923 342.218 501.89C342.278 501.85 342.338 501.83 342.398 501.83C342.471 501.83 342.531 501.85 342.578 501.89C342.625 501.923 342.675 501.977 342.728 502.05L343.468 503.25C343.108 503.55 342.695 503.777 342.228 503.93C341.761 504.083 341.278 504.16 340.778 504.16ZM358.269 489.54V491.68H351.859V495.69H356.909V497.76H351.859V501.85H358.269V504H349.149V489.54H358.269ZM360.455 504V493.74H361.965C362.285 493.74 362.495 493.89 362.595 494.19L362.765 495C362.971 494.787 363.188 494.593 363.415 494.42C363.648 494.247 363.891 494.097 364.145 493.97C364.405 493.843 364.681 493.747 364.975 493.68C365.268 493.613 365.588 493.58 365.935 493.58C366.495 493.58 366.991 493.677 367.425 493.87C367.858 494.057 368.218 494.323 368.505 494.67C368.798 495.01 369.018 495.42 369.165 495.9C369.318 496.373 369.395 496.897 369.395 497.47V504H366.925V497.47C366.925 496.843 366.778 496.36 366.485 496.02C366.198 495.673 365.765 495.5 365.185 495.5C364.758 495.5 364.358 495.597 363.985 495.79C363.611 495.983 363.258 496.247 362.925 496.58V504H360.455ZM379.042 504C378.722 504 378.512 503.85 378.412 503.55L378.212 502.56C377.999 502.8 377.775 503.017 377.542 503.21C377.309 503.403 377.055 503.57 376.782 503.71C376.515 503.85 376.225 503.957 375.912 504.03C375.605 504.11 375.272 504.15 374.912 504.15C374.352 504.15 373.839 504.033 373.372 503.8C372.905 503.567 372.502 503.23 372.162 502.79C371.829 502.343 371.569 501.793 371.382 501.14C371.202 500.487 371.112 499.74 371.112 498.9C371.112 498.14 371.215 497.433 371.422 496.78C371.629 496.127 371.925 495.56 372.312 495.08C372.699 494.6 373.162 494.227 373.702 493.96C374.242 493.687 374.849 493.55 375.522 493.55C376.095 493.55 376.585 493.643 376.992 493.83C377.399 494.01 377.762 494.253 378.082 494.56V489.14H380.552V504H379.042ZM375.752 502.19C376.265 502.19 376.702 502.083 377.062 501.87C377.422 501.657 377.762 501.353 378.082 500.96V496.36C377.802 496.02 377.495 495.78 377.162 495.64C376.835 495.5 376.482 495.43 376.102 495.43C375.729 495.43 375.389 495.5 375.082 495.64C374.782 495.78 374.525 495.993 374.312 496.28C374.105 496.56 373.945 496.92 373.832 497.36C373.719 497.793 373.662 498.307 373.662 498.9C373.662 499.5 373.709 500.01 373.802 500.43C373.902 500.843 374.042 501.183 374.222 501.45C374.402 501.71 374.622 501.9 374.882 502.02C375.142 502.133 375.432 502.19 375.752 502.19Z" fill="#C25341"/>
<rect x="946.752" y="475.5" width="155" height="41" rx="8.5" stroke="white" stroke-width="3"/>
<path d="M968.352 502.02C968.959 502.02 969.485 501.967 969.932 501.86C970.385 501.747 970.815 501.593 971.222 501.4V498.77H969.412C969.239 498.77 969.102 498.723 969.002 498.63C968.902 498.53 968.852 498.41 968.852 498.27V496.75H973.662V502.6C973.295 502.867 972.912 503.1 972.512 503.3C972.119 503.493 971.695 503.653 971.242 503.78C970.795 503.907 970.315 504 969.802 504.06C969.289 504.127 968.735 504.16 968.142 504.16C967.089 504.16 966.119 503.977 965.232 503.61C964.345 503.243 963.579 502.733 962.932 502.08C962.285 501.427 961.779 500.647 961.412 499.74C961.052 498.833 960.872 497.843 960.872 496.77C960.872 495.683 961.049 494.687 961.402 493.78C961.755 492.873 962.255 492.093 962.902 491.44C963.555 490.787 964.345 490.28 965.272 489.92C966.199 489.56 967.239 489.38 968.392 489.38C969.572 489.38 970.592 489.557 971.452 489.91C972.319 490.257 973.052 490.71 973.652 491.27L972.872 492.49C972.719 492.737 972.515 492.86 972.262 492.86C972.102 492.86 971.939 492.807 971.772 492.7C971.559 492.573 971.339 492.447 971.112 492.32C970.892 492.193 970.645 492.083 970.372 491.99C970.105 491.897 969.802 491.82 969.462 491.76C969.129 491.7 968.742 491.67 968.302 491.67C967.589 491.67 966.942 491.79 966.362 492.03C965.789 492.27 965.299 492.613 964.892 493.06C964.485 493.507 964.172 494.043 963.952 494.67C963.732 495.297 963.622 495.997 963.622 496.77C963.622 497.603 963.739 498.347 963.972 499C964.205 499.647 964.532 500.193 964.952 500.64C965.372 501.087 965.872 501.43 966.452 501.67C967.032 501.903 967.665 502.02 968.352 502.02ZM984.065 504H982.955C982.722 504 982.538 503.967 982.405 503.9C982.272 503.827 982.172 503.683 982.105 503.47L981.885 502.74C981.625 502.973 981.368 503.18 981.115 503.36C980.868 503.533 980.612 503.68 980.345 503.8C980.078 503.92 979.795 504.01 979.495 504.07C979.195 504.13 978.862 504.16 978.495 504.16C978.062 504.16 977.662 504.103 977.295 503.99C976.928 503.87 976.612 503.693 976.345 503.46C976.085 503.227 975.882 502.937 975.735 502.59C975.588 502.243 975.515 501.84 975.515 501.38C975.515 500.993 975.615 500.613 975.815 500.24C976.022 499.86 976.362 499.52 976.835 499.22C977.308 498.913 977.938 498.66 978.725 498.46C979.512 498.26 980.488 498.147 981.655 498.12V497.52C981.655 496.833 981.508 496.327 981.215 496C980.928 495.667 980.508 495.5 979.955 495.5C979.555 495.5 979.222 495.547 978.955 495.64C978.688 495.733 978.455 495.84 978.255 495.96C978.062 496.073 977.882 496.177 977.715 496.27C977.548 496.363 977.365 496.41 977.165 496.41C976.998 496.41 976.855 496.367 976.735 496.28C976.615 496.193 976.518 496.087 976.445 495.96L975.995 495.17C977.175 494.09 978.598 493.55 980.265 493.55C980.865 493.55 981.398 493.65 981.865 493.85C982.338 494.043 982.738 494.317 983.065 494.67C983.392 495.017 983.638 495.433 983.805 495.92C983.978 496.407 984.065 496.94 984.065 497.52V504ZM979.265 502.46C979.518 502.46 979.752 502.437 979.965 502.39C980.178 502.343 980.378 502.273 980.565 502.18C980.758 502.087 980.942 501.973 981.115 501.84C981.295 501.7 981.475 501.537 981.655 501.35V499.62C980.935 499.653 980.332 499.717 979.845 499.81C979.365 499.897 978.978 500.01 978.685 500.15C978.392 500.29 978.182 500.453 978.055 500.64C977.935 500.827 977.875 501.03 977.875 501.25C977.875 501.683 978.002 501.993 978.255 502.18C978.515 502.367 978.852 502.46 979.265 502.46ZM986.494 507.35V493.74H988.004C988.164 493.74 988.3 493.777 988.414 493.85C988.527 493.923 988.6 494.037 988.634 494.19L988.834 495.14C989.247 494.667 989.72 494.283 990.254 493.99C990.794 493.697 991.424 493.55 992.144 493.55C992.704 493.55 993.214 493.667 993.674 493.9C994.14 494.133 994.54 494.473 994.874 494.92C995.214 495.36 995.474 495.907 995.654 496.56C995.84 497.207 995.934 497.95 995.934 498.79C995.934 499.557 995.83 500.267 995.624 500.92C995.417 501.573 995.12 502.14 994.734 502.62C994.354 503.1 993.89 503.477 993.344 503.75C992.804 504.017 992.197 504.15 991.524 504.15C990.944 504.15 990.45 504.063 990.044 503.89C989.644 503.71 989.284 503.463 988.964 503.15V507.35H986.494ZM991.294 495.5C990.78 495.5 990.34 495.61 989.974 495.83C989.614 496.043 989.277 496.347 988.964 496.74V501.34C989.244 501.687 989.547 501.93 989.874 502.07C990.207 502.203 990.564 502.27 990.944 502.27C991.317 502.27 991.654 502.2 991.954 502.06C992.26 501.92 992.517 501.707 992.724 501.42C992.937 501.133 993.1 500.773 993.214 500.34C993.327 499.9 993.384 499.383 993.384 498.79C993.384 498.19 993.334 497.683 993.234 497.27C993.14 496.85 993.004 496.51 992.824 496.25C992.644 495.99 992.424 495.8 992.164 495.68C991.91 495.56 991.62 495.5 991.294 495.5Z" fill="white"/>
<rect x="1123.25" y="474" width="747" height="44" rx="10" fill="#ECC9C3"/>
<path d="M1149.9 489.54V491.75H1145.55V504H1142.86V491.75H1138.49V489.54H1149.9ZM1149.86 504V493.74H1151.31C1151.57 493.74 1151.74 493.787 1151.84 493.88C1151.94 493.973 1152.01 494.133 1152.04 494.36L1152.19 495.6C1152.56 494.967 1152.99 494.467 1153.48 494.1C1153.98 493.733 1154.53 493.55 1155.14 493.55C1155.65 493.55 1156.07 493.667 1156.4 493.9L1156.08 495.75C1156.06 495.87 1156.02 495.957 1155.95 496.01C1155.89 496.057 1155.8 496.08 1155.68 496.08C1155.58 496.08 1155.45 496.057 1155.27 496.01C1155.1 495.963 1154.87 495.94 1154.58 495.94C1154.07 495.94 1153.63 496.083 1153.26 496.37C1152.9 496.65 1152.59 497.063 1152.33 497.61V504H1149.86ZM1165.78 504H1164.67C1164.43 504 1164.25 503.967 1164.12 503.9C1163.98 503.827 1163.88 503.683 1163.82 503.47L1163.6 502.74C1163.34 502.973 1163.08 503.18 1162.83 503.36C1162.58 503.533 1162.32 503.68 1162.06 503.8C1161.79 503.92 1161.51 504.01 1161.21 504.07C1160.91 504.13 1160.57 504.16 1160.21 504.16C1159.77 504.16 1159.37 504.103 1159.01 503.99C1158.64 503.87 1158.32 503.693 1158.06 503.46C1157.8 503.227 1157.59 502.937 1157.45 502.59C1157.3 502.243 1157.23 501.84 1157.23 501.38C1157.23 500.993 1157.33 500.613 1157.53 500.24C1157.73 499.86 1158.07 499.52 1158.55 499.22C1159.02 498.913 1159.65 498.66 1160.44 498.46C1161.22 498.26 1162.2 498.147 1163.37 498.12V497.52C1163.37 496.833 1163.22 496.327 1162.93 496C1162.64 495.667 1162.22 495.5 1161.67 495.5C1161.27 495.5 1160.93 495.547 1160.67 495.64C1160.4 495.733 1160.17 495.84 1159.97 495.96C1159.77 496.073 1159.59 496.177 1159.43 496.27C1159.26 496.363 1159.08 496.41 1158.88 496.41C1158.71 496.41 1158.57 496.367 1158.45 496.28C1158.33 496.193 1158.23 496.087 1158.16 495.96L1157.71 495.17C1158.89 494.09 1160.31 493.55 1161.98 493.55C1162.58 493.55 1163.11 493.65 1163.58 493.85C1164.05 494.043 1164.45 494.317 1164.78 494.67C1165.1 495.017 1165.35 495.433 1165.52 495.92C1165.69 496.407 1165.78 496.94 1165.78 497.52V504ZM1160.98 502.46C1161.23 502.46 1161.46 502.437 1161.68 502.39C1161.89 502.343 1162.09 502.273 1162.28 502.18C1162.47 502.087 1162.65 501.973 1162.83 501.84C1163.01 501.7 1163.19 501.537 1163.37 501.35V499.62C1162.65 499.653 1162.04 499.717 1161.56 499.81C1161.08 499.897 1160.69 500.01 1160.4 500.15C1160.1 500.29 1159.89 500.453 1159.77 500.64C1159.65 500.827 1159.59 501.03 1159.59 501.25C1159.59 501.683 1159.71 501.993 1159.97 502.18C1160.23 502.367 1160.56 502.46 1160.98 502.46ZM1175.42 504C1175.1 504 1174.89 503.85 1174.79 503.55L1174.59 502.56C1174.38 502.8 1174.16 503.017 1173.92 503.21C1173.69 503.403 1173.44 503.57 1173.16 503.71C1172.9 503.85 1172.61 503.957 1172.29 504.03C1171.99 504.11 1171.65 504.15 1171.29 504.15C1170.73 504.15 1170.22 504.033 1169.75 503.8C1169.29 503.567 1168.88 503.23 1168.54 502.79C1168.21 502.343 1167.95 501.793 1167.76 501.14C1167.58 500.487 1167.49 499.74 1167.49 498.9C1167.49 498.14 1167.6 497.433 1167.8 496.78C1168.01 496.127 1168.31 495.56 1168.69 495.08C1169.08 494.6 1169.54 494.227 1170.08 493.96C1170.62 493.687 1171.23 493.55 1171.9 493.55C1172.48 493.55 1172.97 493.643 1173.37 493.83C1173.78 494.01 1174.14 494.253 1174.46 494.56V489.14H1176.93V504H1175.42ZM1172.13 502.19C1172.65 502.19 1173.08 502.083 1173.44 501.87C1173.8 501.657 1174.14 501.353 1174.46 500.96V496.36C1174.18 496.02 1173.88 495.78 1173.54 495.64C1173.22 495.5 1172.86 495.43 1172.48 495.43C1172.11 495.43 1171.77 495.5 1171.46 495.64C1171.16 495.78 1170.91 495.993 1170.69 496.28C1170.49 496.56 1170.33 496.92 1170.21 497.36C1170.1 497.793 1170.04 498.307 1170.04 498.9C1170.04 499.5 1170.09 500.01 1170.18 500.43C1170.28 500.843 1170.42 501.183 1170.6 501.45C1170.78 501.71 1171 501.9 1171.26 502.02C1171.52 502.133 1171.81 502.19 1172.13 502.19ZM1182.24 493.74V504H1179.77V493.74H1182.24ZM1182.61 490.75C1182.61 490.963 1182.57 491.163 1182.48 491.35C1182.39 491.537 1182.28 491.7 1182.13 491.84C1181.99 491.98 1181.82 492.093 1181.63 492.18C1181.44 492.26 1181.23 492.3 1181.01 492.3C1180.8 492.3 1180.59 492.26 1180.4 492.18C1180.21 492.093 1180.05 491.98 1179.91 491.84C1179.77 491.7 1179.66 491.537 1179.57 491.35C1179.49 491.163 1179.45 490.963 1179.45 490.75C1179.45 490.53 1179.49 490.323 1179.57 490.13C1179.66 489.937 1179.77 489.77 1179.91 489.63C1180.05 489.49 1180.21 489.38 1180.4 489.3C1180.59 489.213 1180.8 489.17 1181.01 489.17C1181.23 489.17 1181.44 489.213 1181.63 489.3C1181.82 489.38 1181.99 489.49 1182.13 489.63C1182.28 489.77 1182.39 489.937 1182.48 490.13C1182.57 490.323 1182.61 490.53 1182.61 490.75ZM1188.41 504.16C1187.52 504.16 1186.84 503.91 1186.36 503.41C1185.88 502.903 1185.64 502.207 1185.64 501.32V495.59H1184.6C1184.47 495.59 1184.35 495.547 1184.25 495.46C1184.16 495.373 1184.11 495.243 1184.11 495.07V494.09L1185.76 493.82L1186.28 491.02C1186.31 490.887 1186.37 490.783 1186.46 490.71C1186.56 490.637 1186.68 490.6 1186.83 490.6H1188.11V493.83H1190.81V495.59H1188.11V501.15C1188.11 501.47 1188.19 501.72 1188.35 501.9C1188.51 502.08 1188.72 502.17 1188.99 502.17C1189.14 502.17 1189.27 502.153 1189.37 502.12C1189.48 502.08 1189.57 502.04 1189.64 502C1189.72 501.96 1189.79 501.923 1189.85 501.89C1189.91 501.85 1189.97 501.83 1190.03 501.83C1190.1 501.83 1190.16 501.85 1190.21 501.89C1190.26 501.923 1190.31 501.977 1190.36 502.05L1191.1 503.25C1190.74 503.55 1190.33 503.777 1189.86 503.93C1189.39 504.083 1188.91 504.16 1188.41 504.16ZM1195.41 493.74V504H1192.94V493.74H1195.41ZM1195.78 490.75C1195.78 490.963 1195.73 491.163 1195.65 491.35C1195.56 491.537 1195.44 491.7 1195.3 491.84C1195.16 491.98 1194.99 492.093 1194.8 492.18C1194.6 492.26 1194.4 492.3 1194.18 492.3C1193.96 492.3 1193.76 492.26 1193.57 492.18C1193.38 492.093 1193.22 491.98 1193.08 491.84C1192.94 491.7 1192.82 491.537 1192.74 491.35C1192.66 491.163 1192.62 490.963 1192.62 490.75C1192.62 490.53 1192.66 490.323 1192.74 490.13C1192.82 489.937 1192.94 489.77 1193.08 489.63C1193.22 489.49 1193.38 489.38 1193.57 489.3C1193.76 489.213 1193.96 489.17 1194.18 489.17C1194.4 489.17 1194.6 489.213 1194.8 489.3C1194.99 489.38 1195.16 489.49 1195.3 489.63C1195.44 489.77 1195.56 489.937 1195.65 490.13C1195.73 490.323 1195.78 490.53 1195.78 490.75ZM1202.58 493.58C1203.35 493.58 1204.04 493.703 1204.66 493.95C1205.29 494.197 1205.82 494.547 1206.26 495C1206.7 495.453 1207.04 496.007 1207.28 496.66C1207.52 497.313 1207.64 498.043 1207.64 498.85C1207.64 499.663 1207.52 500.397 1207.28 501.05C1207.04 501.703 1206.7 502.26 1206.26 502.72C1205.82 503.18 1205.29 503.533 1204.66 503.78C1204.04 504.027 1203.35 504.15 1202.58 504.15C1201.82 504.15 1201.12 504.027 1200.49 503.78C1199.87 503.533 1199.33 503.18 1198.88 502.72C1198.44 502.26 1198.1 501.703 1197.85 501.05C1197.61 500.397 1197.49 499.663 1197.49 498.85C1197.49 498.043 1197.61 497.313 1197.85 496.66C1198.1 496.007 1198.44 495.453 1198.88 495C1199.33 494.547 1199.87 494.197 1200.49 493.95C1201.12 493.703 1201.82 493.58 1202.58 493.58ZM1202.58 502.25C1203.44 502.25 1204.07 501.963 1204.47 501.39C1204.89 500.817 1205.09 499.977 1205.09 498.87C1205.09 497.763 1204.89 496.92 1204.47 496.34C1204.07 495.76 1203.44 495.47 1202.58 495.47C1201.72 495.47 1201.08 495.763 1200.66 496.35C1200.25 496.93 1200.04 497.77 1200.04 498.87C1200.04 499.97 1200.25 500.81 1200.66 501.39C1201.08 501.963 1201.72 502.25 1202.58 502.25ZM1209.57 504V493.74H1211.08C1211.4 493.74 1211.61 493.89 1211.71 494.19L1211.88 495C1212.09 494.787 1212.31 494.593 1212.53 494.42C1212.77 494.247 1213.01 494.097 1213.26 493.97C1213.52 493.843 1213.8 493.747 1214.09 493.68C1214.39 493.613 1214.71 493.58 1215.05 493.58C1215.61 493.58 1216.11 493.677 1216.54 493.87C1216.98 494.057 1217.34 494.323 1217.62 494.67C1217.92 495.01 1218.14 495.42 1218.28 495.9C1218.44 496.373 1218.51 496.897 1218.51 497.47V504H1216.04V497.47C1216.04 496.843 1215.9 496.36 1215.6 496.02C1215.32 495.673 1214.88 495.5 1214.3 495.5C1213.88 495.5 1213.48 495.597 1213.1 495.79C1212.73 495.983 1212.38 496.247 1212.04 496.58V504H1209.57ZM1228.98 504H1227.87C1227.64 504 1227.45 503.967 1227.32 503.9C1227.19 503.827 1227.09 503.683 1227.02 503.47L1226.8 502.74C1226.54 502.973 1226.28 503.18 1226.03 503.36C1225.78 503.533 1225.53 503.68 1225.26 503.8C1224.99 503.92 1224.71 504.01 1224.41 504.07C1224.11 504.13 1223.78 504.16 1223.41 504.16C1222.98 504.16 1222.58 504.103 1222.21 503.99C1221.84 503.87 1221.53 503.693 1221.26 503.46C1221 503.227 1220.8 502.937 1220.65 502.59C1220.5 502.243 1220.43 501.84 1220.43 501.38C1220.43 500.993 1220.53 500.613 1220.73 500.24C1220.94 499.86 1221.28 499.52 1221.75 499.22C1222.22 498.913 1222.85 498.66 1223.64 498.46C1224.43 498.26 1225.4 498.147 1226.57 498.12V497.52C1226.57 496.833 1226.42 496.327 1226.13 496C1225.84 495.667 1225.42 495.5 1224.87 495.5C1224.47 495.5 1224.14 495.547 1223.87 495.64C1223.6 495.733 1223.37 495.84 1223.17 495.96C1222.98 496.073 1222.8 496.177 1222.63 496.27C1222.46 496.363 1222.28 496.41 1222.08 496.41C1221.91 496.41 1221.77 496.367 1221.65 496.28C1221.53 496.193 1221.43 496.087 1221.36 495.96L1220.91 495.17C1222.09 494.09 1223.51 493.55 1225.18 493.55C1225.78 493.55 1226.31 493.65 1226.78 493.85C1227.25 494.043 1227.65 494.317 1227.98 494.67C1228.31 495.017 1228.55 495.433 1228.72 495.92C1228.89 496.407 1228.98 496.94 1228.98 497.52V504ZM1224.18 502.46C1224.43 502.46 1224.67 502.437 1224.88 502.39C1225.09 502.343 1225.29 502.273 1225.48 502.18C1225.67 502.087 1225.86 501.973 1226.03 501.84C1226.21 501.7 1226.39 501.537 1226.57 501.35V499.62C1225.85 499.653 1225.25 499.717 1224.76 499.81C1224.28 499.897 1223.89 500.01 1223.6 500.15C1223.31 500.29 1223.1 500.453 1222.97 500.64C1222.85 500.827 1222.79 501.03 1222.79 501.25C1222.79 501.683 1222.92 501.993 1223.17 502.18C1223.43 502.367 1223.77 502.46 1224.18 502.46ZM1234.04 489.14V504H1231.57V489.14H1234.04ZM1253.68 496.77C1253.68 497.83 1253.51 498.803 1253.15 499.69C1252.8 500.577 1252.3 501.34 1251.66 501.98C1251.02 502.62 1250.25 503.117 1249.35 503.47C1248.45 503.823 1247.46 504 1246.36 504H1240.84V489.54H1246.36C1247.46 489.54 1248.45 489.72 1249.35 490.08C1250.25 490.433 1251.02 490.93 1251.66 491.57C1252.3 492.203 1252.8 492.963 1253.15 493.85C1253.51 494.737 1253.68 495.71 1253.68 496.77ZM1250.93 496.77C1250.93 495.977 1250.83 495.267 1250.61 494.64C1250.4 494.007 1250.1 493.473 1249.7 493.04C1249.31 492.6 1248.83 492.263 1248.26 492.03C1247.7 491.797 1247.07 491.68 1246.36 491.68H1243.55V501.86H1246.36C1247.07 501.86 1247.7 501.743 1248.26 501.51C1248.83 501.277 1249.31 500.943 1249.7 500.51C1250.1 500.07 1250.4 499.537 1250.61 498.91C1250.83 498.277 1250.93 497.563 1250.93 496.77ZM1259.89 493.58C1260.53 493.58 1261.13 493.683 1261.67 493.89C1262.21 494.097 1262.68 494.4 1263.08 494.8C1263.47 495.193 1263.78 495.68 1264 496.26C1264.22 496.833 1264.33 497.49 1264.33 498.23C1264.33 498.417 1264.32 498.573 1264.3 498.7C1264.28 498.82 1264.25 498.917 1264.21 498.99C1264.17 499.057 1264.11 499.107 1264.04 499.14C1263.96 499.167 1263.87 499.18 1263.76 499.18H1257.42C1257.49 500.233 1257.77 501.007 1258.27 501.5C1258.76 501.993 1259.41 502.24 1260.23 502.24C1260.63 502.24 1260.97 502.193 1261.26 502.1C1261.55 502.007 1261.8 501.903 1262.02 501.79C1262.24 501.677 1262.43 501.573 1262.59 501.48C1262.75 501.387 1262.91 501.34 1263.07 501.34C1263.17 501.34 1263.25 501.36 1263.33 501.4C1263.4 501.44 1263.46 501.497 1263.52 501.57L1264.24 502.47C1263.96 502.79 1263.66 503.06 1263.32 503.28C1262.98 503.493 1262.62 503.667 1262.25 503.8C1261.88 503.927 1261.5 504.017 1261.12 504.07C1260.74 504.123 1260.37 504.15 1260.01 504.15C1259.29 504.15 1258.63 504.033 1258.02 503.8C1257.4 503.56 1256.87 503.21 1256.42 502.75C1255.96 502.283 1255.61 501.71 1255.35 501.03C1255.09 500.343 1254.96 499.55 1254.96 498.65C1254.96 497.95 1255.07 497.293 1255.3 496.68C1255.52 496.06 1255.85 495.523 1256.27 495.07C1256.69 494.61 1257.21 494.247 1257.82 493.98C1258.43 493.713 1259.12 493.58 1259.89 493.58ZM1259.94 495.35C1259.22 495.35 1258.65 495.553 1258.25 495.96C1257.84 496.367 1257.58 496.943 1257.47 497.69H1262.11C1262.11 497.37 1262.06 497.07 1261.98 496.79C1261.89 496.503 1261.76 496.253 1261.58 496.04C1261.4 495.827 1261.17 495.66 1260.9 495.54C1260.62 495.413 1260.3 495.35 1259.94 495.35ZM1272.42 495.74C1272.35 495.847 1272.28 495.923 1272.21 495.97C1272.14 496.01 1272.04 496.03 1271.93 496.03C1271.81 496.03 1271.68 495.997 1271.54 495.93C1271.41 495.863 1271.25 495.79 1271.07 495.71C1270.89 495.623 1270.68 495.547 1270.45 495.48C1270.22 495.413 1269.95 495.38 1269.64 495.38C1269.15 495.38 1268.77 495.483 1268.49 495.69C1268.21 495.897 1268.07 496.167 1268.07 496.5C1268.07 496.72 1268.14 496.907 1268.28 497.06C1268.43 497.207 1268.62 497.337 1268.85 497.45C1269.09 497.563 1269.36 497.667 1269.66 497.76C1269.96 497.847 1270.27 497.943 1270.58 498.05C1270.89 498.157 1271.2 498.28 1271.5 498.42C1271.8 498.553 1272.07 498.727 1272.3 498.94C1272.54 499.147 1272.73 499.397 1272.87 499.69C1273.02 499.983 1273.09 500.337 1273.09 500.75C1273.09 501.243 1273 501.7 1272.82 502.12C1272.64 502.533 1272.38 502.893 1272.03 503.2C1271.68 503.5 1271.25 503.737 1270.74 503.91C1270.23 504.077 1269.65 504.16 1268.99 504.16C1268.64 504.16 1268.29 504.127 1267.95 504.06C1267.62 504 1267.29 503.913 1266.98 503.8C1266.67 503.687 1266.39 503.553 1266.12 503.4C1265.86 503.247 1265.63 503.08 1265.43 502.9L1266 501.96C1266.07 501.847 1266.16 501.76 1266.26 501.7C1266.36 501.64 1266.49 501.61 1266.64 501.61C1266.79 501.61 1266.94 501.653 1267.07 501.74C1267.21 501.827 1267.37 501.92 1267.55 502.02C1267.73 502.12 1267.94 502.213 1268.18 502.3C1268.43 502.387 1268.74 502.43 1269.11 502.43C1269.4 502.43 1269.65 502.397 1269.86 502.33C1270.07 502.257 1270.25 502.163 1270.38 502.05C1270.52 501.937 1270.62 501.807 1270.68 501.66C1270.75 501.507 1270.78 501.35 1270.78 501.19C1270.78 500.95 1270.71 500.753 1270.56 500.6C1270.42 500.447 1270.23 500.313 1269.99 500.2C1269.76 500.087 1269.49 499.987 1269.18 499.9C1268.88 499.807 1268.57 499.707 1268.25 499.6C1267.94 499.493 1267.63 499.37 1267.32 499.23C1267.02 499.083 1266.75 498.9 1266.51 498.68C1266.28 498.46 1266.09 498.19 1265.94 497.87C1265.8 497.55 1265.73 497.163 1265.73 496.71C1265.73 496.29 1265.81 495.89 1265.98 495.51C1266.15 495.13 1266.39 494.8 1266.71 494.52C1267.04 494.233 1267.44 494.007 1267.92 493.84C1268.41 493.667 1268.97 493.58 1269.6 493.58C1270.31 493.58 1270.95 493.697 1271.53 493.93C1272.11 494.163 1272.59 494.47 1272.98 494.85L1272.42 495.74ZM1277.69 493.74V504H1275.22V493.74H1277.69ZM1278.06 490.75C1278.06 490.963 1278.02 491.163 1277.93 491.35C1277.84 491.537 1277.73 491.7 1277.58 491.84C1277.44 491.98 1277.27 492.093 1277.08 492.18C1276.89 492.26 1276.68 492.3 1276.46 492.3C1276.25 492.3 1276.04 492.26 1275.85 492.18C1275.66 492.093 1275.5 491.98 1275.36 491.84C1275.22 491.7 1275.11 491.537 1275.02 491.35C1274.94 491.163 1274.9 490.963 1274.9 490.75C1274.9 490.53 1274.94 490.323 1275.02 490.13C1275.11 489.937 1275.22 489.77 1275.36 489.63C1275.5 489.49 1275.66 489.38 1275.85 489.3C1276.04 489.213 1276.25 489.17 1276.46 489.17C1276.68 489.17 1276.89 489.213 1277.08 489.3C1277.27 489.38 1277.44 489.49 1277.58 489.63C1277.73 489.77 1277.84 489.937 1277.93 490.13C1278.02 490.323 1278.06 490.53 1278.06 490.75ZM1284.04 493.56C1284.48 493.56 1284.89 493.607 1285.28 493.7C1285.67 493.787 1286.02 493.917 1286.34 494.09H1289.29V495.01C1289.29 495.163 1289.25 495.283 1289.17 495.37C1289.09 495.457 1288.95 495.517 1288.76 495.55L1287.84 495.72C1287.91 495.893 1287.96 496.077 1287.99 496.27C1288.03 496.463 1288.05 496.667 1288.05 496.88C1288.05 497.387 1287.95 497.847 1287.74 498.26C1287.54 498.667 1287.26 499.013 1286.9 499.3C1286.55 499.587 1286.12 499.81 1285.63 499.97C1285.14 500.123 1284.61 500.2 1284.04 500.2C1283.65 500.2 1283.28 500.163 1282.91 500.09C1282.59 500.283 1282.43 500.5 1282.43 500.74C1282.43 500.947 1282.52 501.1 1282.71 501.2C1282.9 501.293 1283.15 501.36 1283.46 501.4C1283.77 501.44 1284.13 501.467 1284.52 501.48C1284.91 501.487 1285.32 501.507 1285.73 501.54C1286.14 501.573 1286.55 501.633 1286.94 501.72C1287.33 501.8 1287.68 501.93 1287.99 502.11C1288.3 502.29 1288.55 502.537 1288.74 502.85C1288.93 503.157 1289.03 503.553 1289.03 504.04C1289.03 504.493 1288.92 504.933 1288.69 505.36C1288.47 505.787 1288.15 506.167 1287.72 506.5C1287.3 506.833 1286.78 507.1 1286.17 507.3C1285.56 507.507 1284.86 507.61 1284.07 507.61C1283.29 507.61 1282.61 507.533 1282.04 507.38C1281.47 507.233 1280.99 507.033 1280.61 506.78C1280.24 506.533 1279.96 506.247 1279.77 505.92C1279.58 505.593 1279.49 505.253 1279.49 504.9C1279.49 504.42 1279.64 504.017 1279.93 503.69C1280.22 503.363 1280.63 503.103 1281.15 502.91C1280.9 502.77 1280.69 502.583 1280.54 502.35C1280.39 502.117 1280.31 501.813 1280.31 501.44C1280.31 501.287 1280.34 501.13 1280.39 500.97C1280.44 500.803 1280.52 500.64 1280.63 500.48C1280.74 500.32 1280.88 500.17 1281.05 500.03C1281.22 499.883 1281.41 499.753 1281.64 499.64C1281.12 499.36 1280.71 498.987 1280.41 498.52C1280.12 498.053 1279.97 497.507 1279.97 496.88C1279.97 496.373 1280.07 495.917 1280.27 495.51C1280.48 495.097 1280.76 494.747 1281.12 494.46C1281.49 494.167 1281.92 493.943 1282.41 493.79C1282.91 493.637 1283.45 493.56 1284.04 493.56ZM1286.75 504.46C1286.75 504.26 1286.69 504.097 1286.57 503.97C1286.45 503.843 1286.29 503.747 1286.08 503.68C1285.87 503.607 1285.63 503.553 1285.35 503.52C1285.08 503.487 1284.78 503.463 1284.47 503.45C1284.16 503.43 1283.84 503.413 1283.51 503.4C1283.18 503.38 1282.87 503.35 1282.56 503.31C1282.28 503.463 1282.05 503.647 1281.88 503.86C1281.71 504.067 1281.63 504.307 1281.63 504.58C1281.63 504.76 1281.67 504.927 1281.76 505.08C1281.85 505.24 1282 505.377 1282.19 505.49C1282.39 505.603 1282.65 505.69 1282.96 505.75C1283.27 505.817 1283.66 505.85 1284.11 505.85C1284.57 505.85 1284.97 505.813 1285.3 505.74C1285.63 505.673 1285.91 505.577 1286.12 505.45C1286.34 505.33 1286.5 505.183 1286.6 505.01C1286.7 504.843 1286.75 504.66 1286.75 504.46ZM1284.04 498.62C1284.35 498.62 1284.61 498.58 1284.84 498.5C1285.07 498.413 1285.25 498.297 1285.4 498.15C1285.55 498.003 1285.67 497.827 1285.74 497.62C1285.82 497.413 1285.86 497.187 1285.86 496.94C1285.86 496.433 1285.71 496.033 1285.4 495.74C1285.1 495.44 1284.65 495.29 1284.04 495.29C1283.43 495.29 1282.98 495.44 1282.67 495.74C1282.37 496.033 1282.22 496.433 1282.22 496.94C1282.22 497.18 1282.26 497.403 1282.33 497.61C1282.41 497.817 1282.52 497.997 1282.67 498.15C1282.82 498.297 1283.01 498.413 1283.24 498.5C1283.47 498.58 1283.74 498.62 1284.04 498.62ZM1290.84 504V493.74H1292.35C1292.67 493.74 1292.88 493.89 1292.98 494.19L1293.15 495C1293.36 494.787 1293.57 494.593 1293.8 494.42C1294.03 494.247 1294.28 494.097 1294.53 493.97C1294.79 493.843 1295.07 493.747 1295.36 493.68C1295.65 493.613 1295.97 493.58 1296.32 493.58C1296.88 493.58 1297.38 493.677 1297.81 493.87C1298.24 494.057 1298.6 494.323 1298.89 494.67C1299.18 495.01 1299.4 495.42 1299.55 495.9C1299.7 496.373 1299.78 496.897 1299.78 497.47V504H1297.31V497.47C1297.31 496.843 1297.16 496.36 1296.87 496.02C1296.58 495.673 1296.15 495.5 1295.57 495.5C1295.14 495.5 1294.74 495.597 1294.37 495.79C1294 495.983 1293.64 496.247 1293.31 496.58V504H1290.84ZM1319.06 496.77C1319.06 497.83 1318.88 498.803 1318.53 499.69C1318.17 500.577 1317.68 501.34 1317.04 501.98C1316.4 502.62 1315.63 503.117 1314.73 503.47C1313.83 503.823 1312.83 504 1311.74 504H1306.22V489.54H1311.74C1312.83 489.54 1313.83 489.72 1314.73 490.08C1315.63 490.433 1316.4 490.93 1317.04 491.57C1317.68 492.203 1318.17 492.963 1318.53 493.85C1318.88 494.737 1319.06 495.71 1319.06 496.77ZM1316.31 496.77C1316.31 495.977 1316.2 495.267 1315.99 494.64C1315.77 494.007 1315.47 493.473 1315.08 493.04C1314.68 492.6 1314.2 492.263 1313.64 492.03C1313.08 491.797 1312.44 491.68 1311.74 491.68H1308.93V501.86H1311.74C1312.44 501.86 1313.08 501.743 1313.64 501.51C1314.2 501.277 1314.68 500.943 1315.08 500.51C1315.47 500.07 1315.77 499.537 1315.99 498.91C1316.2 498.277 1316.31 497.563 1316.31 496.77ZM1325.26 493.58C1325.9 493.58 1326.5 493.683 1327.04 493.89C1327.58 494.097 1328.05 494.4 1328.45 494.8C1328.84 495.193 1329.15 495.68 1329.37 496.26C1329.59 496.833 1329.7 497.49 1329.7 498.23C1329.7 498.417 1329.69 498.573 1329.67 498.7C1329.65 498.82 1329.62 498.917 1329.58 498.99C1329.54 499.057 1329.48 499.107 1329.41 499.14C1329.33 499.167 1329.24 499.18 1329.13 499.18H1322.79C1322.86 500.233 1323.14 501.007 1323.64 501.5C1324.13 501.993 1324.78 502.24 1325.6 502.24C1326 502.24 1326.34 502.193 1326.63 502.1C1326.92 502.007 1327.17 501.903 1327.39 501.79C1327.61 501.677 1327.8 501.573 1327.96 501.48C1328.12 501.387 1328.28 501.34 1328.44 501.34C1328.54 501.34 1328.62 501.36 1328.7 501.4C1328.77 501.44 1328.83 501.497 1328.89 501.57L1329.61 502.47C1329.33 502.79 1329.03 503.06 1328.69 503.28C1328.35 503.493 1327.99 503.667 1327.62 503.8C1327.25 503.927 1326.87 504.017 1326.49 504.07C1326.11 504.123 1325.74 504.15 1325.38 504.15C1324.66 504.15 1324 504.033 1323.39 503.8C1322.77 503.56 1322.24 503.21 1321.79 502.75C1321.33 502.283 1320.98 501.71 1320.72 501.03C1320.46 500.343 1320.33 499.55 1320.33 498.65C1320.33 497.95 1320.44 497.293 1320.67 496.68C1320.89 496.06 1321.22 495.523 1321.64 495.07C1322.06 494.61 1322.58 494.247 1323.19 493.98C1323.8 493.713 1324.49 493.58 1325.26 493.58ZM1325.31 495.35C1324.59 495.35 1324.02 495.553 1323.62 495.96C1323.21 496.367 1322.95 496.943 1322.84 497.69H1327.48C1327.48 497.37 1327.43 497.07 1327.35 496.79C1327.26 496.503 1327.13 496.253 1326.95 496.04C1326.77 495.827 1326.54 495.66 1326.27 495.54C1325.99 495.413 1325.67 495.35 1325.31 495.35ZM1336.51 504H1334.27L1330.19 493.74H1332.24C1332.42 493.74 1332.57 493.783 1332.69 493.87C1332.82 493.957 1332.9 494.067 1332.95 494.2L1334.93 499.68C1335.04 500 1335.14 500.313 1335.21 500.62C1335.29 500.927 1335.36 501.233 1335.42 501.54C1335.48 501.233 1335.55 500.927 1335.62 500.62C1335.7 500.313 1335.8 500 1335.92 499.68L1337.95 494.2C1338 494.067 1338.08 493.957 1338.2 493.87C1338.32 493.783 1338.46 493.74 1338.63 493.74H1340.58L1336.51 504ZM1345.94 493.58C1346.59 493.58 1347.18 493.683 1347.72 493.89C1348.27 494.097 1348.74 494.4 1349.13 494.8C1349.52 495.193 1349.83 495.68 1350.05 496.26C1350.27 496.833 1350.38 497.49 1350.38 498.23C1350.38 498.417 1350.37 498.573 1350.35 498.7C1350.34 498.82 1350.31 498.917 1350.26 498.99C1350.22 499.057 1350.16 499.107 1350.09 499.14C1350.02 499.167 1349.92 499.18 1349.81 499.18H1343.47C1343.54 500.233 1343.83 501.007 1344.32 501.5C1344.81 501.993 1345.47 502.24 1346.28 502.24C1346.68 502.24 1347.02 502.193 1347.31 502.1C1347.6 502.007 1347.86 501.903 1348.07 501.79C1348.29 501.677 1348.48 501.573 1348.64 501.48C1348.81 501.387 1348.97 501.34 1349.12 501.34C1349.22 501.34 1349.31 501.36 1349.38 501.4C1349.45 501.44 1349.52 501.497 1349.57 501.57L1350.29 502.47C1350.02 502.79 1349.71 503.06 1349.37 503.28C1349.03 503.493 1348.67 503.667 1348.3 503.8C1347.93 503.927 1347.56 504.017 1347.17 504.07C1346.79 504.123 1346.42 504.15 1346.06 504.15C1345.35 504.15 1344.68 504.033 1344.07 503.8C1343.46 503.56 1342.92 503.21 1342.47 502.75C1342.02 502.283 1341.66 501.71 1341.4 501.03C1341.14 500.343 1341.01 499.55 1341.01 498.65C1341.01 497.95 1341.12 497.293 1341.35 496.68C1341.58 496.06 1341.9 495.523 1342.32 495.07C1342.75 494.61 1343.26 494.247 1343.87 493.98C1344.48 493.713 1345.17 493.58 1345.94 493.58ZM1345.99 495.35C1345.27 495.35 1344.71 495.553 1344.3 495.96C1343.89 496.367 1343.63 496.943 1343.52 497.69H1348.16C1348.16 497.37 1348.12 497.07 1348.03 496.79C1347.94 496.503 1347.81 496.253 1347.63 496.04C1347.45 495.827 1347.22 495.66 1346.95 495.54C1346.68 495.413 1346.36 495.35 1345.99 495.35ZM1355.01 489.14V504H1352.54V489.14H1355.01ZM1362.19 493.58C1362.96 493.58 1363.65 493.703 1364.27 493.95C1364.9 494.197 1365.43 494.547 1365.87 495C1366.31 495.453 1366.65 496.007 1366.89 496.66C1367.13 497.313 1367.25 498.043 1367.25 498.85C1367.25 499.663 1367.13 500.397 1366.89 501.05C1366.65 501.703 1366.31 502.26 1365.87 502.72C1365.43 503.18 1364.9 503.533 1364.27 503.78C1363.65 504.027 1362.96 504.15 1362.19 504.15C1361.43 504.15 1360.73 504.027 1360.1 503.78C1359.48 503.533 1358.94 503.18 1358.49 502.72C1358.05 502.26 1357.71 501.703 1357.46 501.05C1357.22 500.397 1357.1 499.663 1357.1 498.85C1357.1 498.043 1357.22 497.313 1357.46 496.66C1357.71 496.007 1358.05 495.453 1358.49 495C1358.94 494.547 1359.48 494.197 1360.1 493.95C1360.73 493.703 1361.43 493.58 1362.19 493.58ZM1362.19 502.25C1363.05 502.25 1363.68 501.963 1364.08 501.39C1364.5 500.817 1364.7 499.977 1364.7 498.87C1364.7 497.763 1364.5 496.92 1364.08 496.34C1363.68 495.76 1363.05 495.47 1362.19 495.47C1361.33 495.47 1360.69 495.763 1360.27 496.35C1359.86 496.93 1359.65 497.77 1359.65 498.87C1359.65 499.97 1359.86 500.81 1360.27 501.39C1360.69 501.963 1361.33 502.25 1362.19 502.25ZM1369.18 507.35V493.74H1370.69C1370.85 493.74 1370.99 493.777 1371.1 493.85C1371.21 493.923 1371.29 494.037 1371.32 494.19L1371.52 495.14C1371.93 494.667 1372.41 494.283 1372.94 493.99C1373.48 493.697 1374.11 493.55 1374.83 493.55C1375.39 493.55 1375.9 493.667 1376.36 493.9C1376.83 494.133 1377.23 494.473 1377.56 494.92C1377.9 495.36 1378.16 495.907 1378.34 496.56C1378.53 497.207 1378.62 497.95 1378.62 498.79C1378.62 499.557 1378.52 500.267 1378.31 500.92C1378.1 501.573 1377.81 502.14 1377.42 502.62C1377.04 503.1 1376.58 503.477 1376.03 503.75C1375.49 504.017 1374.88 504.15 1374.21 504.15C1373.63 504.15 1373.14 504.063 1372.73 503.89C1372.33 503.71 1371.97 503.463 1371.65 503.15V507.35H1369.18ZM1373.98 495.5C1373.47 495.5 1373.03 495.61 1372.66 495.83C1372.3 496.043 1371.96 496.347 1371.65 496.74V501.34C1371.93 501.687 1372.23 501.93 1372.56 502.07C1372.89 502.203 1373.25 502.27 1373.63 502.27C1374 502.27 1374.34 502.2 1374.64 502.06C1374.95 501.92 1375.2 501.707 1375.41 501.42C1375.62 501.133 1375.79 500.773 1375.9 500.34C1376.01 499.9 1376.07 499.383 1376.07 498.79C1376.07 498.19 1376.02 497.683 1375.92 497.27C1375.83 496.85 1375.69 496.51 1375.51 496.25C1375.33 495.99 1375.11 495.8 1374.85 495.68C1374.6 495.56 1374.31 495.5 1373.98 495.5ZM1380.49 504V493.74H1382C1382.32 493.74 1382.53 493.89 1382.63 494.19L1382.79 494.95C1382.97 494.75 1383.16 494.567 1383.35 494.4C1383.55 494.233 1383.76 494.09 1383.98 493.97C1384.21 493.85 1384.45 493.757 1384.7 493.69C1384.96 493.617 1385.24 493.58 1385.55 493.58C1386.2 493.58 1386.73 493.757 1387.14 494.11C1387.56 494.457 1387.87 494.92 1388.08 495.5C1388.24 495.16 1388.44 494.87 1388.68 494.63C1388.92 494.383 1389.18 494.183 1389.47 494.03C1389.76 493.877 1390.06 493.763 1390.38 493.69C1390.71 493.617 1391.03 493.58 1391.36 493.58C1391.93 493.58 1392.43 493.667 1392.87 493.84C1393.31 494.013 1393.68 494.267 1393.98 494.6C1394.28 494.933 1394.51 495.34 1394.66 495.82C1394.82 496.3 1394.9 496.85 1394.9 497.47V504H1392.43V497.47C1392.43 496.817 1392.29 496.327 1392 496C1391.71 495.667 1391.29 495.5 1390.74 495.5C1390.49 495.5 1390.25 495.543 1390.03 495.63C1389.82 495.717 1389.63 495.843 1389.46 496.01C1389.3 496.17 1389.17 496.373 1389.08 496.62C1388.99 496.867 1388.94 497.15 1388.94 497.47V504H1386.46V497.47C1386.46 496.783 1386.32 496.283 1386.04 495.97C1385.77 495.657 1385.36 495.5 1384.82 495.5C1384.47 495.5 1384.13 495.59 1383.82 495.77C1383.51 495.943 1383.23 496.183 1382.96 496.49V504H1380.49ZM1401.57 493.58C1402.21 493.58 1402.81 493.683 1403.35 493.89C1403.89 494.097 1404.36 494.4 1404.76 494.8C1405.15 495.193 1405.46 495.68 1405.68 496.26C1405.9 496.833 1406.01 497.49 1406.01 498.23C1406.01 498.417 1406 498.573 1405.98 498.7C1405.96 498.82 1405.93 498.917 1405.89 498.99C1405.85 499.057 1405.79 499.107 1405.72 499.14C1405.64 499.167 1405.55 499.18 1405.44 499.18H1399.1C1399.17 500.233 1399.45 501.007 1399.95 501.5C1400.44 501.993 1401.09 502.24 1401.91 502.24C1402.31 502.24 1402.65 502.193 1402.94 502.1C1403.23 502.007 1403.48 501.903 1403.7 501.79C1403.92 501.677 1404.11 501.573 1404.27 501.48C1404.43 501.387 1404.59 501.34 1404.75 501.34C1404.85 501.34 1404.93 501.36 1405.01 501.4C1405.08 501.44 1405.14 501.497 1405.2 501.57L1405.92 502.47C1405.64 502.79 1405.34 503.06 1405 503.28C1404.66 503.493 1404.3 503.667 1403.93 503.8C1403.56 503.927 1403.18 504.017 1402.8 504.07C1402.42 504.123 1402.05 504.15 1401.69 504.15C1400.97 504.15 1400.31 504.033 1399.7 503.8C1399.08 503.56 1398.55 503.21 1398.1 502.75C1397.64 502.283 1397.29 501.71 1397.03 501.03C1396.77 500.343 1396.64 499.55 1396.64 498.65C1396.64 497.95 1396.75 497.293 1396.98 496.68C1397.2 496.06 1397.53 495.523 1397.95 495.07C1398.37 494.61 1398.89 494.247 1399.5 493.98C1400.11 493.713 1400.8 493.58 1401.57 493.58ZM1401.62 495.35C1400.9 495.35 1400.33 495.553 1399.93 495.96C1399.52 496.367 1399.26 496.943 1399.15 497.69H1403.79C1403.79 497.37 1403.74 497.07 1403.66 496.79C1403.57 496.503 1403.44 496.253 1403.26 496.04C1403.08 495.827 1402.85 495.66 1402.58 495.54C1402.3 495.413 1401.98 495.35 1401.62 495.35ZM1408.01 504V493.74H1409.52C1409.84 493.74 1410.05 493.89 1410.15 494.19L1410.32 495C1410.53 494.787 1410.74 494.593 1410.97 494.42C1411.2 494.247 1411.45 494.097 1411.7 493.97C1411.96 493.843 1412.24 493.747 1412.53 493.68C1412.82 493.613 1413.14 493.58 1413.49 493.58C1414.05 493.58 1414.55 493.677 1414.98 493.87C1415.41 494.057 1415.77 494.323 1416.06 494.67C1416.35 495.01 1416.57 495.42 1416.72 495.9C1416.87 496.373 1416.95 496.897 1416.95 497.47V504H1414.48V497.47C1414.48 496.843 1414.33 496.36 1414.04 496.02C1413.75 495.673 1413.32 495.5 1412.74 495.5C1412.31 495.5 1411.91 495.597 1411.54 495.79C1411.17 495.983 1410.81 496.247 1410.48 496.58V504H1408.01ZM1422.75 504.16C1421.86 504.16 1421.18 503.91 1420.7 503.41C1420.22 502.903 1419.98 502.207 1419.98 501.32V495.59H1418.94C1418.8 495.59 1418.69 495.547 1418.59 495.46C1418.49 495.373 1418.45 495.243 1418.45 495.07V494.09L1420.1 493.82L1420.62 491.02C1420.64 490.887 1420.7 490.783 1420.8 490.71C1420.9 490.637 1421.02 490.6 1421.17 490.6H1422.45V493.83H1425.15V495.59H1422.45V501.15C1422.45 501.47 1422.53 501.72 1422.69 501.9C1422.85 502.08 1423.06 502.17 1423.33 502.17C1423.48 502.17 1423.61 502.153 1423.71 502.12C1423.81 502.08 1423.9 502.04 1423.98 502C1424.06 501.96 1424.13 501.923 1424.19 501.89C1424.25 501.85 1424.31 501.83 1424.37 501.83C1424.44 501.83 1424.5 501.85 1424.55 501.89C1424.59 501.923 1424.64 501.977 1424.7 502.05L1425.44 503.25C1425.08 503.55 1424.66 503.777 1424.2 503.93C1423.73 504.083 1423.25 504.16 1422.75 504.16ZM1433.9 498.91V504H1431.21V489.54H1435.92C1436.88 489.54 1437.72 489.653 1438.43 489.88C1439.13 490.107 1439.72 490.423 1440.18 490.83C1440.64 491.237 1440.98 491.723 1441.2 492.29C1441.42 492.857 1441.53 493.477 1441.53 494.15C1441.53 494.85 1441.41 495.493 1441.18 496.08C1440.94 496.66 1440.59 497.16 1440.13 497.58C1439.66 498 1439.08 498.327 1438.38 498.56C1437.68 498.793 1436.86 498.91 1435.92 498.91H1433.9ZM1433.9 496.81H1435.92C1436.41 496.81 1436.84 496.75 1437.21 496.63C1437.57 496.503 1437.88 496.327 1438.12 496.1C1438.36 495.867 1438.54 495.587 1438.66 495.26C1438.78 494.927 1438.84 494.557 1438.84 494.15C1438.84 493.763 1438.78 493.413 1438.66 493.1C1438.54 492.787 1438.36 492.52 1438.12 492.3C1437.88 492.08 1437.57 491.913 1437.21 491.8C1436.84 491.68 1436.41 491.62 1435.92 491.62H1433.9V496.81ZM1443.48 504V493.74H1444.93C1445.18 493.74 1445.36 493.787 1445.46 493.88C1445.56 493.973 1445.62 494.133 1445.66 494.36L1445.81 495.6C1446.17 494.967 1446.6 494.467 1447.1 494.1C1447.59 493.733 1448.14 493.55 1448.76 493.55C1449.26 493.55 1449.68 493.667 1450.02 493.9L1449.7 495.75C1449.68 495.87 1449.63 495.957 1449.57 496.01C1449.5 496.057 1449.41 496.08 1449.3 496.08C1449.2 496.08 1449.06 496.057 1448.89 496.01C1448.71 495.963 1448.48 495.94 1448.2 495.94C1447.68 495.94 1447.24 496.083 1446.88 496.37C1446.51 496.65 1446.2 497.063 1445.95 497.61V504H1443.48ZM1456.02 493.58C1456.79 493.58 1457.48 493.703 1458.1 493.95C1458.73 494.197 1459.26 494.547 1459.7 495C1460.14 495.453 1460.48 496.007 1460.72 496.66C1460.96 497.313 1461.08 498.043 1461.08 498.85C1461.08 499.663 1460.96 500.397 1460.72 501.05C1460.48 501.703 1460.14 502.26 1459.7 502.72C1459.26 503.18 1458.73 503.533 1458.1 503.78C1457.48 504.027 1456.79 504.15 1456.02 504.15C1455.26 504.15 1454.56 504.027 1453.93 503.78C1453.31 503.533 1452.77 503.18 1452.32 502.72C1451.88 502.26 1451.54 501.703 1451.29 501.05C1451.05 500.397 1450.93 499.663 1450.93 498.85C1450.93 498.043 1451.05 497.313 1451.29 496.66C1451.54 496.007 1451.88 495.453 1452.32 495C1452.77 494.547 1453.31 494.197 1453.93 493.95C1454.56 493.703 1455.26 493.58 1456.02 493.58ZM1456.02 502.25C1456.88 502.25 1457.51 501.963 1457.91 501.39C1458.33 500.817 1458.53 499.977 1458.53 498.87C1458.53 497.763 1458.33 496.92 1457.91 496.34C1457.51 495.76 1456.88 495.47 1456.02 495.47C1455.16 495.47 1454.52 495.763 1454.1 496.35C1453.69 496.93 1453.48 497.77 1453.48 498.87C1453.48 499.97 1453.69 500.81 1454.1 501.39C1454.52 501.963 1455.16 502.25 1456.02 502.25ZM1470.22 495.91C1470.15 496.003 1470.07 496.077 1470 496.13C1469.93 496.183 1469.83 496.21 1469.7 496.21C1469.57 496.21 1469.45 496.173 1469.33 496.1C1469.21 496.02 1469.07 495.933 1468.9 495.84C1468.73 495.74 1468.53 495.653 1468.3 495.58C1468.07 495.5 1467.79 495.46 1467.45 495.46C1467.02 495.46 1466.64 495.54 1466.31 495.7C1465.98 495.853 1465.71 496.077 1465.49 496.37C1465.28 496.663 1465.12 497.02 1465.01 497.44C1464.9 497.853 1464.85 498.323 1464.85 498.85C1464.85 499.397 1464.91 499.883 1465.02 500.31C1465.14 500.737 1465.31 501.097 1465.53 501.39C1465.75 501.677 1466.02 501.897 1466.33 502.05C1466.64 502.197 1467 502.27 1467.39 502.27C1467.78 502.27 1468.1 502.223 1468.34 502.13C1468.59 502.03 1468.79 501.923 1468.96 501.81C1469.13 501.69 1469.27 501.583 1469.39 501.49C1469.52 501.39 1469.66 501.34 1469.81 501.34C1470.01 501.34 1470.16 501.417 1470.26 501.57L1470.97 502.47C1470.7 502.79 1470.4 503.06 1470.08 503.28C1469.76 503.493 1469.43 503.667 1469.08 503.8C1468.74 503.927 1468.39 504.017 1468.02 504.07C1467.65 504.123 1467.29 504.15 1466.93 504.15C1466.3 504.15 1465.7 504.033 1465.14 503.8C1464.58 503.56 1464.09 503.213 1463.67 502.76C1463.26 502.307 1462.93 501.753 1462.68 501.1C1462.44 500.44 1462.32 499.69 1462.32 498.85C1462.32 498.097 1462.43 497.4 1462.64 496.76C1462.86 496.113 1463.18 495.557 1463.6 495.09C1464.02 494.617 1464.54 494.247 1465.16 493.98C1465.78 493.713 1466.49 493.58 1467.3 493.58C1468.07 493.58 1468.74 493.703 1469.31 493.95C1469.89 494.197 1470.41 494.55 1470.87 495.01L1470.22 495.91ZM1476.78 493.58C1477.43 493.58 1478.02 493.683 1478.56 493.89C1479.11 494.097 1479.58 494.4 1479.97 494.8C1480.36 495.193 1480.67 495.68 1480.89 496.26C1481.11 496.833 1481.22 497.49 1481.22 498.23C1481.22 498.417 1481.21 498.573 1481.19 498.7C1481.18 498.82 1481.15 498.917 1481.1 498.99C1481.06 499.057 1481 499.107 1480.93 499.14C1480.86 499.167 1480.76 499.18 1480.65 499.18H1474.31C1474.38 500.233 1474.67 501.007 1475.16 501.5C1475.65 501.993 1476.31 502.24 1477.12 502.24C1477.52 502.24 1477.86 502.193 1478.15 502.1C1478.44 502.007 1478.7 501.903 1478.91 501.79C1479.13 501.677 1479.32 501.573 1479.48 501.48C1479.65 501.387 1479.81 501.34 1479.96 501.34C1480.06 501.34 1480.15 501.36 1480.22 501.4C1480.29 501.44 1480.36 501.497 1480.41 501.57L1481.13 502.47C1480.86 502.79 1480.55 503.06 1480.21 503.28C1479.87 503.493 1479.51 503.667 1479.14 503.8C1478.77 503.927 1478.4 504.017 1478.01 504.07C1477.63 504.123 1477.26 504.15 1476.9 504.15C1476.19 504.15 1475.52 504.033 1474.91 503.8C1474.3 503.56 1473.76 503.21 1473.31 502.75C1472.86 502.283 1472.5 501.71 1472.24 501.03C1471.98 500.343 1471.85 499.55 1471.85 498.65C1471.85 497.95 1471.96 497.293 1472.19 496.68C1472.42 496.06 1472.74 495.523 1473.16 495.07C1473.59 494.61 1474.1 494.247 1474.71 493.98C1475.32 493.713 1476.01 493.58 1476.78 493.58ZM1476.83 495.35C1476.11 495.35 1475.55 495.553 1475.14 495.96C1474.73 496.367 1474.47 496.943 1474.36 497.69H1479C1479 497.37 1478.96 497.07 1478.87 496.79C1478.78 496.503 1478.65 496.253 1478.47 496.04C1478.29 495.827 1478.06 495.66 1477.79 495.54C1477.52 495.413 1477.2 495.35 1476.83 495.35ZM1489.31 495.74C1489.25 495.847 1489.18 495.923 1489.1 495.97C1489.03 496.01 1488.94 496.03 1488.82 496.03C1488.7 496.03 1488.57 495.997 1488.43 495.93C1488.3 495.863 1488.14 495.79 1487.96 495.71C1487.78 495.623 1487.58 495.547 1487.34 495.48C1487.12 495.413 1486.85 495.38 1486.53 495.38C1486.05 495.38 1485.66 495.483 1485.38 495.69C1485.1 495.897 1484.96 496.167 1484.96 496.5C1484.96 496.72 1485.03 496.907 1485.17 497.06C1485.32 497.207 1485.51 497.337 1485.74 497.45C1485.98 497.563 1486.25 497.667 1486.55 497.76C1486.85 497.847 1487.16 497.943 1487.47 498.05C1487.79 498.157 1488.09 498.28 1488.39 498.42C1488.69 498.553 1488.96 498.727 1489.19 498.94C1489.43 499.147 1489.62 499.397 1489.76 499.69C1489.91 499.983 1489.98 500.337 1489.98 500.75C1489.98 501.243 1489.89 501.7 1489.71 502.12C1489.53 502.533 1489.27 502.893 1488.92 503.2C1488.58 503.5 1488.15 503.737 1487.63 503.91C1487.13 504.077 1486.54 504.16 1485.88 504.16C1485.53 504.16 1485.18 504.127 1484.84 504.06C1484.51 504 1484.19 503.913 1483.87 503.8C1483.57 503.687 1483.28 503.553 1483.01 503.4C1482.75 503.247 1482.52 503.08 1482.32 502.9L1482.89 501.96C1482.97 501.847 1483.05 501.76 1483.15 501.7C1483.25 501.64 1483.38 501.61 1483.53 501.61C1483.69 501.61 1483.83 501.653 1483.96 501.74C1484.1 501.827 1484.26 501.92 1484.44 502.02C1484.62 502.12 1484.83 502.213 1485.07 502.3C1485.32 502.387 1485.63 502.43 1486 502.43C1486.3 502.43 1486.55 502.397 1486.75 502.33C1486.97 502.257 1487.14 502.163 1487.27 502.05C1487.41 501.937 1487.51 501.807 1487.57 501.66C1487.64 501.507 1487.67 501.35 1487.67 501.19C1487.67 500.95 1487.6 500.753 1487.45 500.6C1487.31 500.447 1487.12 500.313 1486.88 500.2C1486.65 500.087 1486.38 499.987 1486.07 499.9C1485.77 499.807 1485.46 499.707 1485.14 499.6C1484.83 499.493 1484.52 499.37 1484.21 499.23C1483.91 499.083 1483.64 498.9 1483.4 498.68C1483.17 498.46 1482.98 498.19 1482.83 497.87C1482.69 497.55 1482.62 497.163 1482.62 496.71C1482.62 496.29 1482.71 495.89 1482.87 495.51C1483.04 495.13 1483.28 494.8 1483.6 494.52C1483.93 494.233 1484.33 494.007 1484.81 493.84C1485.3 493.667 1485.86 493.58 1486.49 493.58C1487.2 493.58 1487.84 493.697 1488.42 493.93C1489 494.163 1489.49 494.47 1489.87 494.85L1489.31 495.74ZM1498.04 495.74C1497.98 495.847 1497.91 495.923 1497.83 495.97C1497.76 496.01 1497.67 496.03 1497.55 496.03C1497.43 496.03 1497.3 495.997 1497.16 495.93C1497.03 495.863 1496.87 495.79 1496.69 495.71C1496.51 495.623 1496.31 495.547 1496.07 495.48C1495.85 495.413 1495.58 495.38 1495.26 495.38C1494.78 495.38 1494.39 495.483 1494.11 495.69C1493.83 495.897 1493.69 496.167 1493.69 496.5C1493.69 496.72 1493.76 496.907 1493.9 497.06C1494.05 497.207 1494.24 497.337 1494.47 497.45C1494.71 497.563 1494.98 497.667 1495.28 497.76C1495.58 497.847 1495.89 497.943 1496.2 498.05C1496.52 498.157 1496.82 498.28 1497.12 498.42C1497.42 498.553 1497.69 498.727 1497.92 498.94C1498.16 499.147 1498.35 499.397 1498.49 499.69C1498.64 499.983 1498.71 500.337 1498.71 500.75C1498.71 501.243 1498.62 501.7 1498.44 502.12C1498.26 502.533 1498 502.893 1497.65 503.2C1497.31 503.5 1496.88 503.737 1496.36 503.91C1495.86 504.077 1495.27 504.16 1494.61 504.16C1494.26 504.16 1493.91 504.127 1493.57 504.06C1493.24 504 1492.92 503.913 1492.6 503.8C1492.3 503.687 1492.01 503.553 1491.74 503.4C1491.48 503.247 1491.25 503.08 1491.05 502.9L1491.62 501.96C1491.7 501.847 1491.78 501.76 1491.88 501.7C1491.98 501.64 1492.11 501.61 1492.26 501.61C1492.42 501.61 1492.56 501.653 1492.69 501.74C1492.83 501.827 1492.99 501.92 1493.17 502.02C1493.35 502.12 1493.56 502.213 1493.8 502.3C1494.05 502.387 1494.36 502.43 1494.73 502.43C1495.03 502.43 1495.28 502.397 1495.48 502.33C1495.7 502.257 1495.87 502.163 1496 502.05C1496.14 501.937 1496.24 501.807 1496.3 501.66C1496.37 501.507 1496.4 501.35 1496.4 501.19C1496.4 500.95 1496.33 500.753 1496.18 500.6C1496.04 500.447 1495.85 500.313 1495.61 500.2C1495.38 500.087 1495.11 499.987 1494.8 499.9C1494.5 499.807 1494.19 499.707 1493.87 499.6C1493.56 499.493 1493.25 499.37 1492.94 499.23C1492.64 499.083 1492.37 498.9 1492.13 498.68C1491.9 498.46 1491.71 498.19 1491.56 497.87C1491.42 497.55 1491.35 497.163 1491.35 496.71C1491.35 496.29 1491.44 495.89 1491.6 495.51C1491.77 495.13 1492.01 494.8 1492.33 494.52C1492.66 494.233 1493.06 494.007 1493.54 493.84C1494.03 493.667 1494.59 493.58 1495.22 493.58C1495.93 493.58 1496.57 493.697 1497.15 493.93C1497.73 494.163 1498.22 494.47 1498.6 494.85L1498.04 495.74Z" fill="white"/>
<path d="M194 48H154C148.477 48 144 52.4772 144 58V510.5C144 516.023 148.477 520.5 154 520.5H194" stroke="white" stroke-width="3" stroke-linecap="round"/>
<path d="M86.77 394.7C87.83 394.7 88.8033 394.877 89.69 395.23C90.5767 395.583 91.34 396.08 91.98 396.72C92.62 397.36 93.1167 398.13 93.47 399.03C93.8233 399.93 94 400.927 94 402.02V407.54H79.54V402.02C79.54 400.927 79.72 399.93 80.08 399.03C80.4333 398.13 80.93 397.36 81.57 396.72C82.2033 396.08 82.9633 395.583 83.85 395.23C84.7367 394.877 85.71 394.7 86.77 394.7ZM86.77 397.45C85.9767 397.45 85.2667 397.557 84.64 397.77C84.0067 397.983 83.4733 398.287 83.04 398.68C82.6 399.073 82.2633 399.553 82.03 400.12C81.7967 400.68 81.68 401.313 81.68 402.02V404.83H91.86V402.02C91.86 401.313 91.7433 400.68 91.51 400.12C91.2767 399.553 90.9433 399.073 90.51 398.68C90.07 398.287 89.5367 397.983 88.91 397.77C88.2767 397.557 87.5633 397.45 86.77 397.45ZM83.58 388.499C83.58 387.852 83.6833 387.259 83.89 386.719C84.0967 386.172 84.4 385.702 84.8 385.309C85.1933 384.915 85.68 384.609 86.26 384.389C86.8333 384.169 87.49 384.059 88.23 384.059C88.4167 384.059 88.5733 384.069 88.7 384.089C88.82 384.102 88.9167 384.132 88.99 384.179C89.0567 384.219 89.1067 384.275 89.14 384.349C89.1667 384.422 89.18 384.515 89.18 384.629V390.969C90.2333 390.895 91.0067 390.612 91.5 390.119C91.9933 389.625 92.24 388.972 92.24 388.159C92.24 387.759 92.1933 387.415 92.1 387.129C92.0067 386.835 91.9033 386.582 91.79 386.369C91.6767 386.149 91.5733 385.959 91.48 385.799C91.3867 385.632 91.34 385.472 91.34 385.319C91.34 385.219 91.36 385.132 91.4 385.059C91.44 384.985 91.4967 384.922 91.57 384.869L92.47 384.149C92.79 384.422 93.06 384.729 93.28 385.069C93.4933 385.409 93.6667 385.765 93.8 386.139C93.9267 386.505 94.0167 386.882 94.07 387.269C94.1233 387.649 94.15 388.019 94.15 388.379C94.15 389.092 94.0333 389.755 93.8 390.369C93.56 390.982 93.21 391.515 92.75 391.969C92.2833 392.422 91.71 392.779 91.03 393.039C90.3433 393.299 89.55 393.429 88.65 393.429C87.95 393.429 87.2933 393.315 86.68 393.089C86.06 392.862 85.5233 392.539 85.07 392.119C84.61 391.692 84.2467 391.175 83.98 390.569C83.7133 389.955 83.58 389.265 83.58 388.499ZM85.35 388.449C85.35 389.169 85.5533 389.732 85.96 390.139C86.3667 390.545 86.9433 390.805 87.69 390.919V386.279C87.37 386.279 87.07 386.322 86.79 386.409C86.5033 386.495 86.2533 386.629 86.04 386.809C85.8267 386.989 85.66 387.215 85.54 387.489C85.4133 387.762 85.35 388.082 85.35 388.449ZM85.74 375.965C85.8467 376.032 85.9233 376.102 85.97 376.175C86.01 376.248 86.03 376.342 86.03 376.455C86.03 376.575 85.9967 376.705 85.93 376.845C85.8633 376.978 85.79 377.135 85.71 377.315C85.6233 377.495 85.5467 377.702 85.48 377.935C85.4133 378.162 85.38 378.432 85.38 378.745C85.38 379.232 85.4833 379.615 85.69 379.895C85.8967 380.175 86.1667 380.315 86.5 380.315C86.72 380.315 86.9067 380.245 87.06 380.105C87.2067 379.958 87.3367 379.768 87.45 379.535C87.5633 379.295 87.6667 379.025 87.76 378.725C87.8467 378.425 87.9433 378.118 88.05 377.805C88.1567 377.492 88.28 377.185 88.42 376.885C88.5533 376.585 88.7267 376.318 88.94 376.085C89.1467 375.845 89.3967 375.655 89.69 375.515C89.9833 375.368 90.3367 375.295 90.75 375.295C91.2433 375.295 91.7 375.385 92.12 375.565C92.5333 375.745 92.8933 376.008 93.2 376.355C93.5 376.702 93.7367 377.132 93.91 377.645C94.0767 378.152 94.16 378.735 94.16 379.395C94.16 379.748 94.1267 380.095 94.06 380.435C94 380.768 93.9133 381.092 93.8 381.405C93.6867 381.712 93.5533 381.998 93.4 382.265C93.2467 382.525 93.08 382.755 92.9 382.955L91.96 382.385C91.8467 382.312 91.76 382.225 91.7 382.125C91.64 382.025 91.61 381.898 91.61 381.745C91.61 381.592 91.6533 381.448 91.74 381.315C91.8267 381.175 91.92 381.015 92.02 380.835C92.12 380.655 92.2133 380.445 92.3 380.205C92.3867 379.958 92.43 379.648 92.43 379.275C92.43 378.982 92.3967 378.732 92.33 378.525C92.2567 378.312 92.1633 378.138 92.05 378.005C91.9367 377.865 91.8067 377.765 91.66 377.705C91.5067 377.638 91.35 377.605 91.19 377.605C90.95 377.605 90.7533 377.678 90.6 377.825C90.4467 377.965 90.3133 378.155 90.2 378.395C90.0867 378.628 89.9867 378.898 89.9 379.205C89.8067 379.505 89.7067 379.815 89.6 380.135C89.4933 380.448 89.37 380.758 89.23 381.065C89.0833 381.365 88.9 381.635 88.68 381.875C88.46 382.108 88.19 382.298 87.87 382.445C87.55 382.585 87.1633 382.655 86.71 382.655C86.29 382.655 85.89 382.572 85.51 382.405C85.13 382.238 84.8 381.995 84.52 381.675C84.2333 381.348 84.0067 380.945 83.84 380.465C83.6667 379.978 83.58 379.418 83.58 378.785C83.58 378.078 83.6967 377.435 83.93 376.855C84.1633 376.275 84.47 375.792 84.85 375.405L85.74 375.965ZM83.74 370.695H94V373.165H83.74V370.695ZM80.75 370.325C80.9633 370.325 81.1633 370.368 81.35 370.455C81.5367 370.541 81.7 370.658 81.84 370.805C81.98 370.945 82.0933 371.111 82.18 371.305C82.26 371.498 82.3 371.705 82.3 371.925C82.3 372.138 82.26 372.341 82.18 372.535C82.0933 372.721 81.98 372.885 81.84 373.025C81.7 373.165 81.5367 373.278 81.35 373.365C81.1633 373.445 80.9633 373.485 80.75 373.485C80.53 373.485 80.3233 373.445 80.13 373.365C79.9367 373.278 79.77 373.165 79.63 373.025C79.49 372.885 79.38 372.721 79.3 372.535C79.2133 372.341 79.17 372.138 79.17 371.925C79.17 371.705 79.2133 371.498 79.3 371.305C79.38 371.111 79.49 370.945 79.63 370.805C79.77 370.658 79.9367 370.541 80.13 370.455C80.3233 370.368 80.53 370.325 80.75 370.325ZM83.56 364.345C83.56 363.905 83.6067 363.492 83.7 363.105C83.7867 362.718 83.9167 362.365 84.09 362.045V359.095H85.01C85.1633 359.095 85.2833 359.135 85.37 359.215C85.4567 359.295 85.5167 359.432 85.55 359.625L85.72 360.545C85.8933 360.478 86.0767 360.428 86.27 360.395C86.4633 360.355 86.6667 360.335 86.88 360.335C87.3867 360.335 87.8467 360.438 88.26 360.645C88.6667 360.845 89.0133 361.125 89.3 361.485C89.5867 361.838 89.81 362.262 89.97 362.755C90.1233 363.242 90.2 363.772 90.2 364.345C90.2 364.732 90.1633 365.108 90.09 365.475C90.2833 365.795 90.5 365.955 90.74 365.955C90.9467 365.955 91.1 365.862 91.2 365.675C91.2933 365.482 91.36 365.232 91.4 364.925C91.44 364.612 91.4667 364.258 91.48 363.865C91.4867 363.472 91.5067 363.068 91.54 362.655C91.5733 362.242 91.6333 361.838 91.72 361.445C91.8 361.052 91.93 360.702 92.11 360.395C92.29 360.082 92.5367 359.832 92.85 359.645C93.1567 359.452 93.5533 359.355 94.04 359.355C94.4933 359.355 94.9333 359.468 95.36 359.695C95.7867 359.915 96.1667 360.238 96.5 360.665C96.8333 361.085 97.1 361.602 97.3 362.215C97.5067 362.828 97.61 363.528 97.61 364.315C97.61 365.095 97.5333 365.772 97.38 366.345C97.2333 366.918 97.0333 367.395 96.78 367.775C96.5333 368.148 96.2467 368.428 95.92 368.615C95.5933 368.802 95.2533 368.895 94.9 368.895C94.42 368.895 94.0167 368.748 93.69 368.455C93.3633 368.162 93.1033 367.755 92.91 367.235C92.77 367.488 92.5833 367.692 92.35 367.845C92.1167 367.998 91.8133 368.075 91.44 368.075C91.2867 368.075 91.13 368.048 90.97 367.995C90.8033 367.942 90.64 367.862 90.48 367.755C90.32 367.642 90.17 367.502 90.03 367.335C89.8833 367.168 89.7533 366.972 89.64 366.745C89.36 367.265 88.9867 367.675 88.52 367.975C88.0533 368.268 87.5067 368.415 86.88 368.415C86.3733 368.415 85.9167 368.315 85.51 368.115C85.0967 367.908 84.7467 367.625 84.46 367.265C84.1667 366.898 83.9433 366.468 83.79 365.975C83.6367 365.475 83.56 364.932 83.56 364.345ZM94.46 361.635C94.26 361.635 94.0967 361.695 93.97 361.815C93.8433 361.935 93.7467 362.098 93.68 362.305C93.6067 362.512 93.5533 362.755 93.52 363.035C93.4867 363.308 93.4633 363.602 93.45 363.915C93.43 364.222 93.4133 364.542 93.4 364.875C93.38 365.202 93.35 365.518 93.31 365.825C93.4633 366.105 93.6467 366.332 93.86 366.505C94.0667 366.672 94.3067 366.755 94.58 366.755C94.76 366.755 94.9267 366.712 95.08 366.625C95.24 366.532 95.3767 366.388 95.49 366.195C95.6033 365.995 95.69 365.738 95.75 365.425C95.8167 365.112 95.85 364.728 95.85 364.275C95.85 363.815 95.8133 363.418 95.74 363.085C95.6733 362.752 95.5767 362.478 95.45 362.265C95.33 362.045 95.1833 361.885 95.01 361.785C94.8433 361.685 94.66 361.635 94.46 361.635ZM88.62 364.345C88.62 364.038 88.58 363.772 88.5 363.545C88.4133 363.318 88.2967 363.132 88.15 362.985C88.0033 362.832 87.8267 362.718 87.62 362.645C87.4133 362.565 87.1867 362.525 86.94 362.525C86.4333 362.525 86.0333 362.678 85.74 362.985C85.44 363.285 85.29 363.738 85.29 364.345C85.29 364.952 85.44 365.408 85.74 365.715C86.0333 366.015 86.4333 366.165 86.94 366.165C87.18 366.165 87.4033 366.128 87.61 366.055C87.8167 365.975 87.9967 365.862 88.15 365.715C88.2967 365.562 88.4133 365.372 88.5 365.145C88.58 364.912 88.62 364.645 88.62 364.345ZM94 357.543H83.74V356.033C83.74 355.713 83.89 355.503 84.19 355.403L85 355.233C84.7867 355.027 84.5933 354.81 84.42 354.583C84.2467 354.35 84.0967 354.107 83.97 353.853C83.8433 353.593 83.7467 353.317 83.68 353.023C83.6133 352.73 83.58 352.41 83.58 352.063C83.58 351.503 83.6767 351.007 83.87 350.573C84.0567 350.14 84.3233 349.78 84.67 349.493C85.01 349.2 85.42 348.98 85.9 348.833C86.3733 348.68 86.8967 348.603 87.47 348.603H94V351.073H87.47C86.8433 351.073 86.36 351.22 86.02 351.513C85.6733 351.8 85.5 352.233 85.5 352.813C85.5 353.24 85.5967 353.64 85.79 354.013C85.9833 354.387 86.2467 354.74 86.58 355.073H94V357.543ZM88.91 339.389H94V342.079H79.54V337.369C79.54 336.402 79.6533 335.566 79.88 334.859C80.1067 334.152 80.4233 333.569 80.83 333.109C81.2367 332.649 81.7233 332.309 82.29 332.089C82.8567 331.869 83.4767 331.759 84.15 331.759C84.85 331.759 85.4933 331.876 86.08 332.109C86.66 332.342 87.16 332.692 87.58 333.159C88 333.626 88.3267 334.209 88.56 334.909C88.7933 335.609 88.91 336.429 88.91 337.369V339.389ZM86.81 339.389V337.369C86.81 336.876 86.75 336.446 86.63 336.079C86.5033 335.712 86.3267 335.409 86.1 335.169C85.8667 334.929 85.5867 334.749 85.26 334.629C84.9267 334.509 84.5567 334.449 84.15 334.449C83.7633 334.449 83.4133 334.509 83.1 334.629C82.7867 334.749 82.52 334.929 82.3 335.169C82.08 335.409 81.9133 335.712 81.8 336.079C81.68 336.446 81.62 336.876 81.62 337.369V339.389H86.81ZM94 329.809H83.74V328.359C83.74 328.106 83.7867 327.929 83.88 327.829C83.9733 327.729 84.1333 327.662 84.36 327.629L85.6 327.479C84.9667 327.112 84.4667 326.682 84.1 326.189C83.7333 325.696 83.55 325.142 83.55 324.529C83.55 324.022 83.6667 323.602 83.9 323.269L85.75 323.589C85.87 323.609 85.9567 323.652 86.01 323.719C86.0567 323.786 86.08 323.876 86.08 323.989C86.08 324.089 86.0567 324.226 86.01 324.399C85.9633 324.572 85.94 324.802 85.94 325.089C85.94 325.602 86.0833 326.042 86.37 326.409C86.65 326.776 87.0633 327.086 87.61 327.339H94V329.809ZM83.58 317.265C83.58 316.498 83.7033 315.805 83.95 315.185C84.1967 314.558 84.5467 314.025 85 313.585C85.4533 313.145 86.0067 312.805 86.66 312.565C87.3133 312.325 88.0433 312.205 88.85 312.205C89.6633 312.205 90.3967 312.325 91.05 312.565C91.7033 312.805 92.26 313.145 92.72 313.585C93.18 314.025 93.5333 314.558 93.78 315.185C94.0267 315.805 94.15 316.498 94.15 317.265C94.15 318.032 94.0267 318.728 93.78 319.355C93.5333 319.982 93.18 320.518 92.72 320.965C92.26 321.405 91.7033 321.748 91.05 321.995C90.3967 322.235 89.6633 322.355 88.85 322.355C88.0433 322.355 87.3133 322.235 86.66 321.995C86.0067 321.748 85.4533 321.405 85 320.965C84.5467 320.518 84.1967 319.982 83.95 319.355C83.7033 318.728 83.58 318.032 83.58 317.265ZM92.25 317.265C92.25 316.412 91.9633 315.782 91.39 315.375C90.8167 314.962 89.9767 314.755 88.87 314.755C87.7633 314.755 86.92 314.962 86.34 315.375C85.76 315.782 85.47 316.412 85.47 317.265C85.47 318.132 85.7633 318.772 86.35 319.185C86.93 319.598 87.77 319.805 88.87 319.805C89.97 319.805 90.81 319.598 91.39 319.185C91.9633 318.772 92.25 318.132 92.25 317.265ZM85.91 303.068C86.0033 303.141 86.0767 303.214 86.13 303.288C86.1833 303.354 86.21 303.454 86.21 303.588C86.21 303.714 86.1733 303.838 86.1 303.958C86.02 304.078 85.9333 304.221 85.84 304.388C85.74 304.554 85.6533 304.754 85.58 304.988C85.5 305.214 85.46 305.498 85.46 305.838C85.46 306.271 85.54 306.651 85.7 306.978C85.8533 307.304 86.0767 307.578 86.37 307.798C86.6633 308.011 87.02 308.171 87.44 308.278C87.8533 308.384 88.3233 308.438 88.85 308.438C89.3967 308.438 89.8833 308.381 90.31 308.268C90.7367 308.148 91.0967 307.978 91.39 307.758C91.6767 307.538 91.8967 307.271 92.05 306.958C92.1967 306.644 92.27 306.291 92.27 305.898C92.27 305.504 92.2233 305.188 92.13 304.948C92.03 304.701 91.9233 304.494 91.81 304.328C91.69 304.161 91.5833 304.018 91.49 303.898C91.39 303.771 91.34 303.631 91.34 303.478C91.34 303.278 91.4167 303.128 91.57 303.028L92.47 302.318C92.79 302.591 93.06 302.888 93.28 303.208C93.4933 303.528 93.6667 303.861 93.8 304.208C93.9267 304.548 94.0167 304.901 94.07 305.268C94.1233 305.634 94.15 305.998 94.15 306.358C94.15 306.991 94.0333 307.588 93.8 308.148C93.56 308.708 93.2133 309.198 92.76 309.618C92.3067 310.031 91.7533 310.361 91.1 310.608C90.44 310.848 89.69 310.968 88.85 310.968C88.0967 310.968 87.4 310.861 86.76 310.648C86.1133 310.428 85.5567 310.108 85.09 309.688C84.6167 309.268 84.2467 308.748 83.98 308.128C83.7133 307.508 83.58 306.794 83.58 305.988C83.58 305.221 83.7033 304.551 83.95 303.978C84.1967 303.398 84.55 302.878 85.01 302.418L85.91 303.068ZM83.58 296.506C83.58 295.86 83.6833 295.266 83.89 294.726C84.0967 294.18 84.4 293.71 84.8 293.316C85.1933 292.923 85.68 292.616 86.26 292.396C86.8333 292.176 87.49 292.066 88.23 292.066C88.4167 292.066 88.5733 292.076 88.7 292.096C88.82 292.11 88.9167 292.14 88.99 292.186C89.0567 292.226 89.1067 292.283 89.14 292.356C89.1667 292.43 89.18 292.523 89.18 292.636V298.976C90.2333 298.903 91.0067 298.62 91.5 298.126C91.9933 297.633 92.24 296.98 92.24 296.166C92.24 295.766 92.1933 295.423 92.1 295.136C92.0067 294.843 91.9033 294.59 91.79 294.376C91.6767 294.156 91.5733 293.966 91.48 293.806C91.3867 293.64 91.34 293.48 91.34 293.326C91.34 293.226 91.36 293.14 91.4 293.066C91.44 292.993 91.4967 292.93 91.57 292.876L92.47 292.156C92.79 292.43 93.06 292.736 93.28 293.076C93.4933 293.416 93.6667 293.773 93.8 294.146C93.9267 294.513 94.0167 294.89 94.07 295.276C94.1233 295.656 94.15 296.026 94.15 296.386C94.15 297.1 94.0333 297.763 93.8 298.376C93.56 298.99 93.21 299.523 92.75 299.976C92.2833 300.43 91.71 300.786 91.03 301.046C90.3433 301.306 89.55 301.436 88.65 301.436C87.95 301.436 87.2933 301.323 86.68 301.096C86.06 300.87 85.5233 300.546 85.07 300.126C84.61 299.7 84.2467 299.183 83.98 298.576C83.7133 297.963 83.58 297.273 83.58 296.506ZM85.35 296.456C85.35 297.176 85.5533 297.74 85.96 298.146C86.3667 298.553 86.9433 298.813 87.69 298.926V294.286C87.37 294.286 87.07 294.33 86.79 294.416C86.5033 294.503 86.2533 294.636 86.04 294.816C85.8267 294.996 85.66 295.223 85.54 295.496C85.4133 295.77 85.35 296.09 85.35 296.456ZM85.74 283.973C85.8467 284.039 85.9233 284.109 85.97 284.183C86.01 284.256 86.03 284.349 86.03 284.463C86.03 284.583 85.9967 284.713 85.93 284.853C85.8633 284.986 85.79 285.143 85.71 285.323C85.6233 285.503 85.5467 285.709 85.48 285.943C85.4133 286.169 85.38 286.439 85.38 286.753C85.38 287.239 85.4833 287.623 85.69 287.903C85.8967 288.183 86.1667 288.323 86.5 288.323C86.72 288.323 86.9067 288.253 87.06 288.113C87.2067 287.966 87.3367 287.776 87.45 287.543C87.5633 287.303 87.6667 287.033 87.76 286.733C87.8467 286.433 87.9433 286.126 88.05 285.813C88.1567 285.499 88.28 285.193 88.42 284.893C88.5533 284.593 88.7267 284.326 88.94 284.093C89.1467 283.853 89.3967 283.663 89.69 283.523C89.9833 283.376 90.3367 283.303 90.75 283.303C91.2433 283.303 91.7 283.393 92.12 283.573C92.5333 283.753 92.8933 284.016 93.2 284.363C93.5 284.709 93.7367 285.139 93.91 285.653C94.0767 286.159 94.16 286.743 94.16 287.403C94.16 287.756 94.1267 288.103 94.06 288.443C94 288.776 93.9133 289.099 93.8 289.413C93.6867 289.719 93.5533 290.006 93.4 290.273C93.2467 290.533 93.08 290.763 92.9 290.963L91.96 290.393C91.8467 290.319 91.76 290.233 91.7 290.133C91.64 290.033 91.61 289.906 91.61 289.753C91.61 289.599 91.6533 289.456 91.74 289.323C91.8267 289.183 91.92 289.023 92.02 288.843C92.12 288.663 92.2133 288.453 92.3 288.213C92.3867 287.966 92.43 287.656 92.43 287.283C92.43 286.989 92.3967 286.739 92.33 286.533C92.2567 286.319 92.1633 286.146 92.05 286.013C91.9367 285.873 91.8067 285.773 91.66 285.713C91.5067 285.646 91.35 285.613 91.19 285.613C90.95 285.613 90.7533 285.686 90.6 285.833C90.4467 285.973 90.3133 286.163 90.2 286.403C90.0867 286.636 89.9867 286.906 89.9 287.213C89.8067 287.513 89.7067 287.823 89.6 288.143C89.4933 288.456 89.37 288.766 89.23 289.073C89.0833 289.373 88.9 289.643 88.68 289.883C88.46 290.116 88.19 290.306 87.87 290.453C87.55 290.593 87.1633 290.663 86.71 290.663C86.29 290.663 85.89 290.579 85.51 290.413C85.13 290.246 84.8 290.003 84.52 289.683C84.2333 289.356 84.0067 288.953 83.84 288.473C83.6667 287.986 83.58 287.426 83.58 286.793C83.58 286.086 83.6967 285.443 83.93 284.863C84.1633 284.283 84.47 283.799 84.85 283.413L85.74 283.973ZM85.74 275.242C85.8467 275.309 85.9233 275.379 85.97 275.452C86.01 275.526 86.03 275.619 86.03 275.732C86.03 275.852 85.9967 275.982 85.93 276.122C85.8633 276.256 85.79 276.412 85.71 276.592C85.6233 276.772 85.5467 276.979 85.48 277.212C85.4133 277.439 85.38 277.709 85.38 278.022C85.38 278.509 85.4833 278.892 85.69 279.172C85.8967 279.452 86.1667 279.592 86.5 279.592C86.72 279.592 86.9067 279.522 87.06 279.382C87.2067 279.236 87.3367 279.046 87.45 278.812C87.5633 278.572 87.6667 278.302 87.76 278.002C87.8467 277.702 87.9433 277.396 88.05 277.082C88.1567 276.769 88.28 276.462 88.42 276.162C88.5533 275.862 88.7267 275.596 88.94 275.362C89.1467 275.122 89.3967 274.932 89.69 274.792C89.9833 274.646 90.3367 274.572 90.75 274.572C91.2433 274.572 91.7 274.662 92.12 274.842C92.5333 275.022 92.8933 275.286 93.2 275.632C93.5 275.979 93.7367 276.409 93.91 276.922C94.0767 277.429 94.16 278.012 94.16 278.672C94.16 279.026 94.1267 279.372 94.06 279.712C94 280.046 93.9133 280.369 93.8 280.682C93.6867 280.989 93.5533 281.276 93.4 281.542C93.2467 281.802 93.08 282.032 92.9 282.232L91.96 281.662C91.8467 281.589 91.76 281.502 91.7 281.402C91.64 281.302 91.61 281.176 91.61 281.022C91.61 280.869 91.6533 280.726 91.74 280.592C91.8267 280.452 91.92 280.292 92.02 280.112C92.12 279.932 92.2133 279.722 92.3 279.482C92.3867 279.236 92.43 278.926 92.43 278.552C92.43 278.259 92.3967 278.009 92.33 277.802C92.2567 277.589 92.1633 277.416 92.05 277.282C91.9367 277.142 91.8067 277.042 91.66 276.982C91.5067 276.916 91.35 276.882 91.19 276.882C90.95 276.882 90.7533 276.956 90.6 277.102C90.4467 277.242 90.3133 277.432 90.2 277.672C90.0867 277.906 89.9867 278.176 89.9 278.482C89.8067 278.782 89.7067 279.092 89.6 279.412C89.4933 279.726 89.37 280.036 89.23 280.342C89.0833 280.642 88.9 280.912 88.68 281.152C88.46 281.386 88.19 281.576 87.87 281.722C87.55 281.862 87.1633 281.932 86.71 281.932C86.29 281.932 85.89 281.849 85.51 281.682C85.13 281.516 84.8 281.272 84.52 280.952C84.2333 280.626 84.0067 280.222 83.84 279.742C83.6667 279.256 83.58 278.696 83.58 278.062C83.58 277.356 83.6967 276.712 83.93 276.132C84.1633 275.552 84.47 275.069 84.85 274.682L85.74 275.242ZM83.74 266.105H94V268.575H83.74V266.105ZM80.75 265.735C80.9633 265.735 81.1633 265.778 81.35 265.865C81.5367 265.951 81.7 266.068 81.84 266.215C81.98 266.355 82.0933 266.521 82.18 266.715C82.26 266.908 82.3 267.115 82.3 267.335C82.3 267.548 82.26 267.751 82.18 267.945C82.0933 268.131 81.98 268.295 81.84 268.435C81.7 268.575 81.5367 268.688 81.35 268.775C81.1633 268.855 80.9633 268.895 80.75 268.895C80.53 268.895 80.3233 268.855 80.13 268.775C79.9367 268.688 79.77 268.575 79.63 268.435C79.49 268.295 79.38 268.131 79.3 267.945C79.2133 267.751 79.17 267.548 79.17 267.335C79.17 267.115 79.2133 266.908 79.3 266.715C79.38 266.521 79.49 266.355 79.63 266.215C79.77 266.068 79.9367 265.951 80.13 265.865C80.3233 265.778 80.53 265.735 80.75 265.735ZM94 263.305H83.74V261.795C83.74 261.475 83.89 261.265 84.19 261.165L85 260.995C84.7867 260.788 84.5933 260.572 84.42 260.345C84.2467 260.112 84.0967 259.868 83.97 259.615C83.8433 259.355 83.7467 259.078 83.68 258.785C83.6133 258.492 83.58 258.172 83.58 257.825C83.58 257.265 83.6767 256.768 83.87 256.335C84.0567 255.902 84.3233 255.542 84.67 255.255C85.01 254.962 85.42 254.742 85.9 254.595C86.3733 254.442 86.8967 254.365 87.47 254.365H94V256.835H87.47C86.8433 256.835 86.36 256.982 86.02 257.275C85.6733 257.562 85.5 257.995 85.5 258.575C85.5 259.002 85.5967 259.402 85.79 259.775C85.9833 260.148 86.2467 260.502 86.58 260.835H94V263.305ZM79.54 237.741H81.75V242.091H94V244.781H81.75V249.151H79.54V237.741ZM94 237.778H83.74V236.328C83.74 236.074 83.7867 235.898 83.88 235.798C83.9733 235.698 84.1333 235.631 84.36 235.598L85.6 235.448C84.9667 235.081 84.4667 234.651 84.1 234.158C83.7333 233.664 83.55 233.111 83.55 232.498C83.55 231.991 83.6667 231.571 83.9 231.238L85.75 231.558C85.87 231.578 85.9567 231.621 86.01 231.688C86.0567 231.754 86.08 231.844 86.08 231.958C86.08 232.058 86.0567 232.194 86.01 232.368C85.9633 232.541 85.94 232.771 85.94 233.058C85.94 233.571 86.0833 234.011 86.37 234.378C86.65 234.744 87.0633 235.054 87.61 235.308H94V237.778ZM94 221.867V222.977C94 223.21 93.9667 223.393 93.9 223.527C93.8267 223.66 93.6833 223.76 93.47 223.827L92.74 224.047C92.9733 224.307 93.18 224.563 93.36 224.817C93.5333 225.063 93.68 225.32 93.8 225.587C93.92 225.853 94.01 226.137 94.07 226.437C94.13 226.737 94.16 227.07 94.16 227.437C94.16 227.87 94.1033 228.27 93.99 228.637C93.87 229.003 93.6933 229.32 93.46 229.587C93.2267 229.847 92.9367 230.05 92.59 230.197C92.2433 230.343 91.84 230.417 91.38 230.417C90.9933 230.417 90.6133 230.317 90.24 230.117C89.86 229.91 89.52 229.57 89.22 229.097C88.9133 228.623 88.66 227.993 88.46 227.207C88.26 226.42 88.1467 225.443 88.12 224.277H87.52C86.8333 224.277 86.3267 224.423 86 224.717C85.6667 225.003 85.5 225.423 85.5 225.977C85.5 226.377 85.5467 226.71 85.64 226.977C85.7333 227.243 85.84 227.477 85.96 227.677C86.0733 227.87 86.1767 228.05 86.27 228.217C86.3633 228.383 86.41 228.567 86.41 228.767C86.41 228.933 86.3667 229.077 86.28 229.197C86.1933 229.317 86.0867 229.413 85.96 229.487L85.17 229.937C84.09 228.757 83.55 227.333 83.55 225.667C83.55 225.067 83.65 224.533 83.85 224.067C84.0433 223.593 84.3167 223.193 84.67 222.867C85.0167 222.54 85.4333 222.293 85.92 222.127C86.4067 221.953 86.94 221.867 87.52 221.867H94ZM92.46 226.667C92.46 226.413 92.4367 226.18 92.39 225.967C92.3433 225.753 92.2733 225.553 92.18 225.367C92.0867 225.173 91.9733 224.99 91.84 224.817C91.7 224.637 91.5367 224.457 91.35 224.277H89.62C89.6533 224.997 89.7167 225.6 89.81 226.087C89.8967 226.567 90.01 226.953 90.15 227.247C90.29 227.54 90.4533 227.75 90.64 227.877C90.8267 227.997 91.03 228.057 91.25 228.057C91.6833 228.057 91.9933 227.93 92.18 227.677C92.3667 227.417 92.46 227.08 92.46 226.667ZM94 219.438H83.74V217.928C83.74 217.608 83.89 217.398 84.19 217.298L85 217.128C84.7867 216.921 84.5933 216.704 84.42 216.478C84.2467 216.244 84.0967 216.001 83.97 215.748C83.8433 215.488 83.7467 215.211 83.68 214.918C83.6133 214.624 83.58 214.304 83.58 213.958C83.58 213.398 83.6767 212.901 83.87 212.468C84.0567 212.034 84.3233 211.674 84.67 211.388C85.01 211.094 85.42 210.874 85.9 210.728C86.3733 210.574 86.8967 210.498 87.47 210.498H94V212.968H87.47C86.8433 212.968 86.36 213.114 86.02 213.408C85.6733 213.694 85.5 214.128 85.5 214.708C85.5 215.134 85.5967 215.534 85.79 215.908C85.9833 216.281 86.2467 216.634 86.58 216.968H94V219.438ZM85.74 201.981C85.8467 202.047 85.9233 202.117 85.97 202.191C86.01 202.264 86.03 202.357 86.03 202.471C86.03 202.591 85.9967 202.721 85.93 202.861C85.8633 202.994 85.79 203.151 85.71 203.331C85.6233 203.511 85.5467 203.717 85.48 203.951C85.4133 204.177 85.38 204.447 85.38 204.761C85.38 205.247 85.4833 205.631 85.69 205.911C85.8967 206.191 86.1667 206.331 86.5 206.331C86.72 206.331 86.9067 206.261 87.06 206.121C87.2067 205.974 87.3367 205.784 87.45 205.551C87.5633 205.311 87.6667 205.041 87.76 204.741C87.8467 204.441 87.9433 204.134 88.05 203.821C88.1567 203.507 88.28 203.201 88.42 202.901C88.5533 202.601 88.7267 202.334 88.94 202.101C89.1467 201.861 89.3967 201.671 89.69 201.531C89.9833 201.384 90.3367 201.311 90.75 201.311C91.2433 201.311 91.7 201.401 92.12 201.581C92.5333 201.761 92.8933 202.024 93.2 202.371C93.5 202.717 93.7367 203.147 93.91 203.661C94.0767 204.167 94.16 204.751 94.16 205.411C94.16 205.764 94.1267 206.111 94.06 206.451C94 206.784 93.9133 207.107 93.8 207.421C93.6867 207.727 93.5533 208.014 93.4 208.281C93.2467 208.541 93.08 208.771 92.9 208.971L91.96 208.401C91.8467 208.327 91.76 208.241 91.7 208.141C91.64 208.041 91.61 207.914 91.61 207.761C91.61 207.607 91.6533 207.464 91.74 207.331C91.8267 207.191 91.92 207.031 92.02 206.851C92.12 206.671 92.2133 206.461 92.3 206.221C92.3867 205.974 92.43 205.664 92.43 205.291C92.43 204.997 92.3967 204.747 92.33 204.541C92.2567 204.327 92.1633 204.154 92.05 204.021C91.9367 203.881 91.8067 203.781 91.66 203.721C91.5067 203.654 91.35 203.621 91.19 203.621C90.95 203.621 90.7533 203.694 90.6 203.841C90.4467 203.981 90.3133 204.171 90.2 204.411C90.0867 204.644 89.9867 204.914 89.9 205.221C89.8067 205.521 89.7067 205.831 89.6 206.151C89.4933 206.464 89.37 206.774 89.23 207.081C89.0833 207.381 88.9 207.651 88.68 207.891C88.46 208.124 88.19 208.314 87.87 208.461C87.55 208.601 87.1633 208.671 86.71 208.671C86.29 208.671 85.89 208.587 85.51 208.421C85.13 208.254 84.8 208.011 84.52 207.691C84.2333 207.364 84.0067 206.961 83.84 206.481C83.6667 205.994 83.58 205.434 83.58 204.801C83.58 204.094 83.6967 203.451 83.93 202.871C84.1633 202.291 84.47 201.807 84.85 201.421L85.74 201.981ZM83.74 196.71H94V199.18H83.74V196.71ZM80.75 196.34C80.9633 196.34 81.1633 196.383 81.35 196.47C81.5367 196.557 81.7 196.673 81.84 196.82C81.98 196.96 82.0933 197.127 82.18 197.32C82.26 197.513 82.3 197.72 82.3 197.94C82.3 198.153 82.26 198.357 82.18 198.55C82.0933 198.737 81.98 198.9 81.84 199.04C81.7 199.18 81.5367 199.293 81.35 199.38C81.1633 199.46 80.9633 199.5 80.75 199.5C80.53 199.5 80.3233 199.46 80.13 199.38C79.9367 199.293 79.77 199.18 79.63 199.04C79.49 198.9 79.38 198.737 79.3 198.55C79.2133 198.357 79.17 198.153 79.17 197.94C79.17 197.72 79.2133 197.513 79.3 197.32C79.38 197.127 79.49 196.96 79.63 196.82C79.77 196.673 79.9367 196.557 80.13 196.47C80.3233 196.383 80.53 196.34 80.75 196.34ZM94.16 190.54C94.16 191.427 93.91 192.11 93.41 192.59C92.9033 193.07 92.2067 193.31 91.32 193.31H85.59V194.35C85.59 194.484 85.5467 194.6 85.46 194.7C85.3733 194.794 85.2433 194.84 85.07 194.84H84.09L83.82 193.19L81.02 192.67C80.8867 192.644 80.7833 192.584 80.71 192.49C80.6367 192.39 80.6 192.267 80.6 192.12V190.84H83.83V188.14H85.59V190.84H91.15C91.47 190.84 91.72 190.76 91.9 190.6C92.08 190.44 92.17 190.227 92.17 189.96C92.17 189.807 92.1533 189.68 92.12 189.58C92.08 189.474 92.04 189.384 92 189.31C91.96 189.23 91.9233 189.16 91.89 189.1C91.85 189.04 91.83 188.98 91.83 188.92C91.83 188.847 91.85 188.787 91.89 188.74C91.9233 188.694 91.9767 188.644 92.05 188.59L93.25 187.85C93.55 188.21 93.7767 188.624 93.93 189.09C94.0833 189.557 94.16 190.04 94.16 190.54ZM83.74 183.546H94V186.016H83.74V183.546ZM80.75 183.176C80.9633 183.176 81.1633 183.219 81.35 183.306C81.5367 183.393 81.7 183.509 81.84 183.656C81.98 183.796 82.0933 183.963 82.18 184.156C82.26 184.349 82.3 184.556 82.3 184.776C82.3 184.989 82.26 185.193 82.18 185.386C82.0933 185.573 81.98 185.736 81.84 185.876C81.7 186.016 81.5367 186.129 81.35 186.216C81.1633 186.296 80.9633 186.336 80.75 186.336C80.53 186.336 80.3233 186.296 80.13 186.216C79.9367 186.129 79.77 186.016 79.63 185.876C79.49 185.736 79.38 185.573 79.3 185.386C79.2133 185.193 79.17 184.989 79.17 184.776C79.17 184.556 79.2133 184.349 79.3 184.156C79.38 183.963 79.49 183.796 79.63 183.656C79.77 183.509 79.9367 183.393 80.13 183.306C80.3233 183.219 80.53 183.176 80.75 183.176ZM83.58 176.366C83.58 175.6 83.7033 174.906 83.95 174.286C84.1967 173.66 84.5467 173.126 85 172.686C85.4533 172.246 86.0067 171.906 86.66 171.666C87.3133 171.426 88.0433 171.306 88.85 171.306C89.6633 171.306 90.3967 171.426 91.05 171.666C91.7033 171.906 92.26 172.246 92.72 172.686C93.18 173.126 93.5333 173.66 93.78 174.286C94.0267 174.906 94.15 175.6 94.15 176.366C94.15 177.133 94.0267 177.83 93.78 178.456C93.5333 179.083 93.18 179.62 92.72 180.066C92.26 180.506 91.7033 180.85 91.05 181.096C90.3967 181.336 89.6633 181.456 88.85 181.456C88.0433 181.456 87.3133 181.336 86.66 181.096C86.0067 180.85 85.4533 180.506 85 180.066C84.5467 179.62 84.1967 179.083 83.95 178.456C83.7033 177.83 83.58 177.133 83.58 176.366ZM92.25 176.366C92.25 175.513 91.9633 174.883 91.39 174.476C90.8167 174.063 89.9767 173.856 88.87 173.856C87.7633 173.856 86.92 174.063 86.34 174.476C85.76 174.883 85.47 175.513 85.47 176.366C85.47 177.233 85.7633 177.873 86.35 178.286C86.93 178.7 87.77 178.906 88.87 178.906C89.97 178.906 90.81 178.7 91.39 178.286C91.9633 177.873 92.25 177.233 92.25 176.366ZM94 169.379H83.74V167.869C83.74 167.549 83.89 167.339 84.19 167.239L85 167.069C84.7867 166.863 84.5933 166.646 84.42 166.419C84.2467 166.186 84.0967 165.943 83.97 165.689C83.8433 165.429 83.7467 165.153 83.68 164.859C83.6133 164.566 83.58 164.246 83.58 163.899C83.58 163.339 83.6767 162.843 83.87 162.409C84.0567 161.976 84.3233 161.616 84.67 161.329C85.01 161.036 85.42 160.816 85.9 160.669C86.3733 160.516 86.8967 160.439 87.47 160.439H94V162.909H87.47C86.8433 162.909 86.36 163.056 86.02 163.349C85.6733 163.636 85.5 164.069 85.5 164.649C85.5 165.076 85.5967 165.476 85.79 165.849C85.9833 166.223 86.2467 166.576 86.58 166.909H94V169.379Z" fill="white"/>
</g>
<defs>
<linearGradient id="paint0_linear_146_39" x1="263.752" y1="230" x2="1852.86" y2="368.635" gradientUnits="userSpaceOnUse">
<stop stop-color="white"/>
<stop offset="1" stop-color="#ECC9C3"/>
</linearGradient>
<clipPath id="clip0_146_39">
<rect width="1920" height="565" fill="white"/>
</clipPath>
</defs>
</svg>
