<svg width="640" height="640" viewBox="0 0 640 640" fill="none" xmlns="http://www.w3.org/2000/svg">
<rect width="640" height="640" fill="#ADC7D8"/>
<rect x="202" y="202" width="236" height="236" rx="50" fill="white"/>
<path d="M321.061 93.9393C320.475 93.3536 319.525 93.3536 318.939 93.9393L309.393 103.485C308.808 104.071 308.808 105.021 309.393 105.607C309.979 106.192 310.929 106.192 311.515 105.607L320 97.1213L328.485 105.607C329.071 106.192 330.021 106.192 330.607 105.607C331.192 105.021 331.192 104.071 330.607 103.485L321.061 93.9393ZM318.939 544.061C319.525 544.646 320.475 544.646 321.061 544.061L330.607 534.515C331.192 533.929 331.192 532.979 330.607 532.393C330.021 531.808 329.071 531.808 328.485 532.393L320 540.879L311.515 532.393C310.929 531.808 309.979 531.808 309.393 532.393C308.808 532.979 308.808 533.929 309.393 534.515L318.939 544.061ZM318.5 95V543H321.5V95H318.5Z" fill="white"/>
<path d="M58.0607 173.439C57.4749 172.854 56.5251 172.854 55.9393 173.439L46.3934 182.985C45.8076 183.571 45.8076 184.521 46.3934 185.107C46.9792 185.692 47.9289 185.692 48.5147 185.107L57 176.621L65.4853 185.107C66.0711 185.692 67.0208 185.692 67.6066 185.107C68.1924 184.521 68.1924 183.571 67.6066 182.985L58.0607 173.439ZM57 61.5H527V58.5H57V61.5ZM575.5 110V530H578.5V110H575.5ZM527 578.5H107V581.5H527V578.5ZM58.5 530V174.5H55.5V530H58.5ZM107 578.5C80.2142 578.5 58.5 556.786 58.5 530H55.5C55.5 558.443 78.5573 581.5 107 581.5V578.5ZM575.5 530C575.5 556.786 553.786 578.5 527 578.5V581.5C555.443 581.5 578.5 558.443 578.5 530H575.5ZM527 61.5C553.786 61.5 575.5 83.2142 575.5 110H578.5C578.5 81.5573 555.443 58.5 527 58.5V61.5Z" fill="white"/>
<path d="M233.013 296.202H235.834C236.137 296.202 236.384 296.276 236.575 296.423C236.766 296.57 236.909 296.761 237.004 296.995L241.424 308.461C241.571 308.834 241.71 309.245 241.84 309.696C241.979 310.138 242.109 310.606 242.23 311.1C242.429 310.103 242.676 309.224 242.971 308.461L247.378 296.995C247.456 296.796 247.595 296.614 247.794 296.449C247.993 296.284 248.24 296.202 248.535 296.202H251.356L243.764 315H240.605L233.013 296.202ZM261.988 315H260.545C260.242 315 260.004 314.957 259.83 314.87C259.657 314.775 259.527 314.588 259.44 314.311L259.154 313.362C258.816 313.665 258.483 313.934 258.153 314.168C257.833 314.393 257.499 314.584 257.152 314.74C256.806 314.896 256.437 315.013 256.047 315.091C255.657 315.169 255.224 315.208 254.747 315.208C254.184 315.208 253.664 315.134 253.187 314.987C252.711 314.831 252.299 314.601 251.952 314.298C251.614 313.995 251.35 313.618 251.159 313.167C250.969 312.716 250.873 312.192 250.873 311.594C250.873 311.091 251.003 310.597 251.263 310.112C251.532 309.618 251.974 309.176 252.589 308.786C253.205 308.387 254.024 308.058 255.046 307.798C256.069 307.538 257.339 307.391 258.855 307.356V306.576C258.855 305.683 258.665 305.025 258.283 304.6C257.911 304.167 257.365 303.95 256.645 303.95C256.125 303.95 255.692 304.011 255.345 304.132C254.999 304.253 254.695 304.392 254.435 304.548C254.184 304.695 253.95 304.83 253.733 304.951C253.517 305.072 253.278 305.133 253.018 305.133C252.802 305.133 252.615 305.077 252.459 304.964C252.303 304.851 252.178 304.713 252.082 304.548L251.497 303.521C253.031 302.117 254.882 301.415 257.048 301.415C257.828 301.415 258.522 301.545 259.128 301.805C259.744 302.056 260.264 302.412 260.688 302.871C261.113 303.322 261.434 303.863 261.65 304.496C261.876 305.129 261.988 305.822 261.988 306.576V315ZM255.748 312.998C256.078 312.998 256.381 312.968 256.658 312.907C256.936 312.846 257.196 312.755 257.438 312.634C257.69 312.513 257.928 312.365 258.153 312.192C258.387 312.01 258.621 311.798 258.855 311.555V309.306C257.919 309.349 257.135 309.432 256.502 309.553C255.878 309.666 255.376 309.813 254.994 309.995C254.613 310.177 254.34 310.389 254.175 310.632C254.019 310.875 253.941 311.139 253.941 311.425C253.941 311.988 254.106 312.391 254.435 312.634C254.773 312.877 255.211 312.998 255.748 312.998ZM268.565 295.682V315H265.354V295.682H268.565ZM275.142 301.662V310.138C275.142 310.953 275.329 311.585 275.701 312.036C276.083 312.478 276.65 312.699 277.404 312.699C277.959 312.699 278.479 312.578 278.964 312.335C279.45 312.084 279.909 311.741 280.342 311.308V301.662H283.553V315H281.59C281.174 315 280.901 314.805 280.771 314.415L280.55 313.349C280.273 313.626 279.987 313.882 279.692 314.116C279.398 314.341 279.081 314.536 278.743 314.701C278.414 314.857 278.054 314.978 277.664 315.065C277.283 315.16 276.871 315.208 276.429 315.208C275.701 315.208 275.056 315.087 274.492 314.844C273.938 314.593 273.47 314.242 273.088 313.791C272.707 313.34 272.417 312.807 272.217 312.192C272.027 311.568 271.931 310.883 271.931 310.138V301.662H275.142ZM292.494 301.454C293.334 301.454 294.106 301.588 294.808 301.857C295.518 302.126 296.129 302.52 296.641 303.04C297.152 303.551 297.551 304.184 297.837 304.938C298.123 305.683 298.266 306.537 298.266 307.499C298.266 307.742 298.253 307.945 298.227 308.11C298.209 308.266 298.17 308.392 298.11 308.487C298.058 308.574 297.984 308.639 297.889 308.682C297.793 308.717 297.672 308.734 297.525 308.734H289.283C289.378 310.103 289.746 311.109 290.388 311.75C291.029 312.391 291.878 312.712 292.936 312.712C293.456 312.712 293.902 312.651 294.275 312.53C294.656 312.409 294.985 312.274 295.263 312.127C295.549 311.98 295.796 311.845 296.004 311.724C296.22 311.603 296.428 311.542 296.628 311.542C296.758 311.542 296.87 311.568 296.966 311.62C297.061 311.672 297.143 311.746 297.213 311.841L298.149 313.011C297.793 313.427 297.395 313.778 296.953 314.064C296.511 314.341 296.047 314.567 295.562 314.74C295.085 314.905 294.595 315.022 294.093 315.091C293.599 315.16 293.118 315.195 292.65 315.195C291.722 315.195 290.86 315.043 290.063 314.74C289.265 314.428 288.572 313.973 287.983 313.375C287.393 312.768 286.93 312.023 286.592 311.139C286.254 310.246 286.085 309.215 286.085 308.045C286.085 307.135 286.232 306.281 286.527 305.484C286.821 304.678 287.242 303.98 287.788 303.391C288.342 302.793 289.014 302.321 289.803 301.974C290.6 301.627 291.497 301.454 292.494 301.454ZM292.559 303.755C291.623 303.755 290.89 304.019 290.362 304.548C289.833 305.077 289.495 305.826 289.348 306.797H295.38C295.38 306.381 295.323 305.991 295.211 305.627C295.098 305.254 294.925 304.929 294.691 304.652C294.457 304.375 294.162 304.158 293.807 304.002C293.451 303.837 293.035 303.755 292.559 303.755ZM313.815 304.262C313.728 304.401 313.637 304.5 313.542 304.561C313.446 304.613 313.325 304.639 313.178 304.639C313.022 304.639 312.853 304.596 312.671 304.509C312.497 304.422 312.294 304.327 312.06 304.223C311.826 304.11 311.557 304.011 311.254 303.924C310.959 303.837 310.608 303.794 310.201 303.794C309.568 303.794 309.07 303.928 308.706 304.197C308.342 304.466 308.16 304.817 308.16 305.25C308.16 305.536 308.251 305.779 308.433 305.978C308.623 306.169 308.87 306.338 309.174 306.485C309.486 306.632 309.837 306.767 310.227 306.888C310.617 307.001 311.015 307.126 311.423 307.265C311.83 307.404 312.229 307.564 312.619 307.746C313.009 307.919 313.355 308.145 313.659 308.422C313.971 308.691 314.218 309.016 314.4 309.397C314.59 309.778 314.686 310.238 314.686 310.775C314.686 311.416 314.569 312.01 314.335 312.556C314.101 313.093 313.758 313.561 313.308 313.96C312.857 314.35 312.298 314.658 311.631 314.883C310.972 315.1 310.214 315.208 309.356 315.208C308.896 315.208 308.446 315.165 308.004 315.078C307.57 315 307.15 314.887 306.743 314.74C306.344 314.593 305.971 314.419 305.625 314.22C305.287 314.021 304.988 313.804 304.728 313.57L305.469 312.348C305.564 312.201 305.677 312.088 305.807 312.01C305.937 311.932 306.101 311.893 306.301 311.893C306.5 311.893 306.686 311.949 306.86 312.062C307.042 312.175 307.25 312.296 307.484 312.426C307.718 312.556 307.991 312.677 308.303 312.79C308.623 312.903 309.026 312.959 309.512 312.959C309.893 312.959 310.218 312.916 310.487 312.829C310.764 312.734 310.989 312.612 311.163 312.465C311.345 312.318 311.475 312.149 311.553 311.958C311.639 311.759 311.683 311.555 311.683 311.347C311.683 311.035 311.587 310.779 311.397 310.58C311.215 310.381 310.968 310.207 310.656 310.06C310.352 309.913 310.001 309.783 309.603 309.67C309.213 309.549 308.81 309.419 308.394 309.28C307.986 309.141 307.583 308.981 307.185 308.799C306.795 308.608 306.444 308.37 306.132 308.084C305.828 307.798 305.581 307.447 305.391 307.031C305.209 306.615 305.118 306.112 305.118 305.523C305.118 304.977 305.226 304.457 305.443 303.963C305.659 303.469 305.976 303.04 306.392 302.676C306.816 302.303 307.341 302.009 307.965 301.792C308.597 301.567 309.325 301.454 310.149 301.454C311.067 301.454 311.904 301.606 312.658 301.909C313.412 302.212 314.04 302.611 314.543 303.105L313.815 304.262ZM322.759 301.454C323.6 301.454 324.371 301.588 325.073 301.857C325.784 302.126 326.395 302.52 326.906 303.04C327.418 303.551 327.816 304.184 328.102 304.938C328.388 305.683 328.531 306.537 328.531 307.499C328.531 307.742 328.518 307.945 328.492 308.11C328.475 308.266 328.436 308.392 328.375 308.487C328.323 308.574 328.25 308.639 328.154 308.682C328.059 308.717 327.938 308.734 327.79 308.734H319.548C319.644 310.103 320.012 311.109 320.653 311.75C321.295 312.391 322.144 312.712 323.201 312.712C323.721 312.712 324.168 312.651 324.54 312.53C324.922 312.409 325.251 312.274 325.528 312.127C325.814 311.98 326.061 311.845 326.269 311.724C326.486 311.603 326.694 311.542 326.893 311.542C327.023 311.542 327.136 311.568 327.231 311.62C327.327 311.672 327.409 311.746 327.478 311.841L328.414 313.011C328.059 313.427 327.66 313.778 327.218 314.064C326.776 314.341 326.313 314.567 325.827 314.74C325.351 314.905 324.861 315.022 324.358 315.091C323.864 315.16 323.383 315.195 322.915 315.195C321.988 315.195 321.126 315.043 320.328 314.74C319.531 314.428 318.838 313.973 318.248 313.375C317.659 312.768 317.195 312.023 316.857 311.139C316.519 310.246 316.35 309.215 316.35 308.045C316.35 307.135 316.498 306.281 316.792 305.484C317.087 304.678 317.507 303.98 318.053 303.391C318.608 302.793 319.28 302.321 320.068 301.974C320.866 301.627 321.763 301.454 322.759 301.454ZM322.824 303.755C321.888 303.755 321.156 304.019 320.627 304.548C320.099 305.077 319.761 305.826 319.613 306.797H325.645C325.645 306.381 325.589 305.991 325.476 305.627C325.364 305.254 325.19 304.929 324.956 304.652C324.722 304.375 324.428 304.158 324.072 304.002C323.717 303.837 323.301 303.755 322.824 303.755ZM331.136 315V301.662H333.099C333.515 301.662 333.788 301.857 333.918 302.247L334.139 303.3C334.408 303.023 334.689 302.771 334.984 302.546C335.287 302.321 335.604 302.126 335.933 301.961C336.271 301.796 336.631 301.671 337.012 301.584C337.393 301.497 337.809 301.454 338.26 301.454C338.988 301.454 339.634 301.58 340.197 301.831C340.76 302.074 341.228 302.42 341.601 302.871C341.982 303.313 342.268 303.846 342.459 304.47C342.658 305.085 342.758 305.766 342.758 306.511V315H339.547V306.511C339.547 305.696 339.356 305.068 338.975 304.626C338.602 304.175 338.039 303.95 337.285 303.95C336.73 303.95 336.21 304.076 335.725 304.327C335.24 304.578 334.78 304.921 334.347 305.354V315H331.136ZM353.83 304.262C353.744 304.401 353.653 304.5 353.557 304.561C353.462 304.613 353.341 304.639 353.193 304.639C353.037 304.639 352.868 304.596 352.686 304.509C352.513 304.422 352.309 304.327 352.075 304.223C351.841 304.11 351.573 304.011 351.269 303.924C350.975 303.837 350.624 303.794 350.216 303.794C349.584 303.794 349.085 303.928 348.721 304.197C348.357 304.466 348.175 304.817 348.175 305.25C348.175 305.536 348.266 305.779 348.448 305.978C348.639 306.169 348.886 306.338 349.189 306.485C349.501 306.632 349.852 306.767 350.242 306.888C350.632 307.001 351.031 307.126 351.438 307.265C351.846 307.404 352.244 307.564 352.634 307.746C353.024 307.919 353.371 308.145 353.674 308.422C353.986 308.691 354.233 309.016 354.415 309.397C354.606 309.778 354.701 310.238 354.701 310.775C354.701 311.416 354.584 312.01 354.35 312.556C354.116 313.093 353.774 313.561 353.323 313.96C352.873 314.35 352.314 314.658 351.646 314.883C350.988 315.1 350.229 315.208 349.371 315.208C348.912 315.208 348.461 315.165 348.019 315.078C347.586 315 347.166 314.887 346.758 314.74C346.36 314.593 345.987 314.419 345.64 314.22C345.302 314.021 345.003 313.804 344.743 313.57L345.484 312.348C345.58 312.201 345.692 312.088 345.822 312.01C345.952 311.932 346.117 311.893 346.316 311.893C346.516 311.893 346.702 311.949 346.875 312.062C347.057 312.175 347.265 312.296 347.499 312.426C347.733 312.556 348.006 312.677 348.318 312.79C348.639 312.903 349.042 312.959 349.527 312.959C349.909 312.959 350.234 312.916 350.502 312.829C350.78 312.734 351.005 312.612 351.178 312.465C351.36 312.318 351.49 312.149 351.568 311.958C351.655 311.759 351.698 311.555 351.698 311.347C351.698 311.035 351.603 310.779 351.412 310.58C351.23 310.381 350.983 310.207 350.671 310.06C350.368 309.913 350.017 309.783 349.618 309.67C349.228 309.549 348.825 309.419 348.409 309.28C348.002 309.141 347.599 308.981 347.2 308.799C346.81 308.608 346.459 308.37 346.147 308.084C345.844 307.798 345.597 307.447 345.406 307.031C345.224 306.615 345.133 306.112 345.133 305.523C345.133 304.977 345.242 304.457 345.458 303.963C345.675 303.469 345.991 303.04 346.407 302.676C346.832 302.303 347.356 302.009 347.98 301.792C348.613 301.567 349.341 301.454 350.164 301.454C351.083 301.454 351.919 301.606 352.673 301.909C353.427 302.212 354.056 302.611 354.558 303.105L353.83 304.262ZM360.682 301.662V315H357.471V301.662H360.682ZM361.163 297.775C361.163 298.052 361.107 298.312 360.994 298.555C360.881 298.798 360.73 299.01 360.539 299.192C360.357 299.374 360.14 299.521 359.889 299.634C359.638 299.738 359.369 299.79 359.083 299.79C358.806 299.79 358.541 299.738 358.29 299.634C358.047 299.521 357.835 299.374 357.653 299.192C357.471 299.01 357.324 298.798 357.211 298.555C357.107 298.312 357.055 298.052 357.055 297.775C357.055 297.489 357.107 297.22 357.211 296.969C357.324 296.718 357.471 296.501 357.653 296.319C357.835 296.137 358.047 295.994 358.29 295.89C358.541 295.777 358.806 295.721 359.083 295.721C359.369 295.721 359.638 295.777 359.889 295.89C360.14 295.994 360.357 296.137 360.539 296.319C360.73 296.501 360.881 296.718 360.994 296.969C361.107 297.22 361.163 297.489 361.163 297.775ZM368.702 315.208C367.55 315.208 366.661 314.883 366.037 314.233C365.413 313.574 365.101 312.669 365.101 311.516V304.067H363.749C363.576 304.067 363.424 304.011 363.294 303.898C363.173 303.785 363.112 303.616 363.112 303.391V302.117L365.257 301.766L365.933 298.126C365.968 297.953 366.046 297.818 366.167 297.723C366.297 297.628 366.458 297.58 366.648 297.58H368.312V301.779H371.822V304.067H368.312V311.295C368.312 311.711 368.416 312.036 368.624 312.27C368.832 312.504 369.11 312.621 369.456 312.621C369.656 312.621 369.82 312.599 369.95 312.556C370.089 312.504 370.206 312.452 370.301 312.4C370.405 312.348 370.496 312.3 370.574 312.257C370.652 312.205 370.73 312.179 370.808 312.179C370.904 312.179 370.982 312.205 371.042 312.257C371.103 312.3 371.168 312.37 371.237 312.465L372.199 314.025C371.731 314.415 371.194 314.71 370.587 314.909C369.981 315.108 369.352 315.208 368.702 315.208ZM377.795 301.662V315H374.584V301.662H377.795ZM378.276 297.775C378.276 298.052 378.22 298.312 378.107 298.555C377.994 298.798 377.843 299.01 377.652 299.192C377.47 299.374 377.253 299.521 377.002 299.634C376.751 299.738 376.482 299.79 376.196 299.79C375.919 299.79 375.654 299.738 375.403 299.634C375.16 299.521 374.948 299.374 374.766 299.192C374.584 299.01 374.437 298.798 374.324 298.555C374.22 298.312 374.168 298.052 374.168 297.775C374.168 297.489 374.22 297.22 374.324 296.969C374.437 296.718 374.584 296.501 374.766 296.319C374.948 296.137 375.16 295.994 375.403 295.89C375.654 295.777 375.919 295.721 376.196 295.721C376.482 295.721 376.751 295.777 377.002 295.89C377.253 295.994 377.47 296.137 377.652 296.319C377.843 296.501 377.994 296.718 378.107 296.969C378.22 297.22 378.276 297.489 378.276 297.775ZM388.117 315H385.205L379.901 301.662H382.566C382.8 301.662 382.995 301.718 383.151 301.831C383.315 301.944 383.428 302.087 383.489 302.26L386.063 309.384C386.21 309.8 386.331 310.207 386.427 310.606C386.531 311.005 386.622 311.403 386.7 311.802C386.778 311.403 386.864 311.005 386.96 310.606C387.064 310.207 387.194 309.8 387.35 309.384L389.989 302.26C390.049 302.087 390.158 301.944 390.314 301.831C390.47 301.718 390.656 301.662 390.873 301.662H393.408L388.117 315ZM400.378 301.454C401.219 301.454 401.99 301.588 402.692 301.857C403.403 302.126 404.014 302.52 404.525 303.04C405.037 303.551 405.435 304.184 405.721 304.938C406.007 305.683 406.15 306.537 406.15 307.499C406.15 307.742 406.137 307.945 406.111 308.11C406.094 308.266 406.055 308.392 405.994 308.487C405.942 308.574 405.869 308.639 405.773 308.682C405.678 308.717 405.557 308.734 405.409 308.734H397.167C397.263 310.103 397.631 311.109 398.272 311.75C398.914 312.391 399.763 312.712 400.82 312.712C401.34 312.712 401.787 312.651 402.159 312.53C402.541 312.409 402.87 312.274 403.147 312.127C403.433 311.98 403.68 311.845 403.888 311.724C404.105 311.603 404.313 311.542 404.512 311.542C404.642 311.542 404.755 311.568 404.85 311.62C404.946 311.672 405.028 311.746 405.097 311.841L406.033 313.011C405.678 313.427 405.279 313.778 404.837 314.064C404.395 314.341 403.932 314.567 403.446 314.74C402.97 314.905 402.48 315.022 401.977 315.091C401.483 315.16 401.002 315.195 400.534 315.195C399.607 315.195 398.745 315.043 397.947 314.74C397.15 314.428 396.457 313.973 395.867 313.375C395.278 312.768 394.814 312.023 394.476 311.139C394.138 310.246 393.969 309.215 393.969 308.045C393.969 307.135 394.117 306.281 394.411 305.484C394.706 304.678 395.126 303.98 395.672 303.391C396.227 302.793 396.899 302.321 397.687 301.974C398.485 301.627 399.382 301.454 400.378 301.454ZM400.443 303.755C399.507 303.755 398.775 304.019 398.246 304.548C397.718 305.077 397.38 305.826 397.232 306.797H403.264C403.264 306.381 403.208 305.991 403.095 305.627C402.983 305.254 402.809 304.929 402.575 304.652C402.341 304.375 402.047 304.158 401.691 304.002C401.336 303.837 400.92 303.755 400.443 303.755ZM255.87 346C255.454 346 255.181 345.805 255.051 345.415L254.791 344.128C254.513 344.44 254.223 344.722 253.92 344.973C253.616 345.224 253.287 345.441 252.932 345.623C252.585 345.805 252.208 345.944 251.801 346.039C251.402 346.143 250.969 346.195 250.501 346.195C249.773 346.195 249.105 346.043 248.499 345.74C247.892 345.437 247.368 344.999 246.926 344.427C246.492 343.846 246.154 343.131 245.912 342.282C245.678 341.433 245.561 340.462 245.561 339.37C245.561 338.382 245.695 337.463 245.964 336.614C246.232 335.765 246.618 335.028 247.121 334.404C247.623 333.78 248.226 333.295 248.928 332.948C249.63 332.593 250.418 332.415 251.294 332.415C252.039 332.415 252.676 332.536 253.205 332.779C253.733 333.013 254.206 333.329 254.622 333.728V326.682H257.833V346H255.87ZM251.593 343.647C252.26 343.647 252.828 343.508 253.296 343.231C253.764 342.954 254.206 342.559 254.622 342.048V336.068C254.258 335.626 253.859 335.314 253.426 335.132C253.001 334.95 252.542 334.859 252.048 334.859C251.562 334.859 251.12 334.95 250.722 335.132C250.332 335.314 249.998 335.591 249.721 335.964C249.452 336.328 249.244 336.796 249.097 337.368C248.949 337.931 248.876 338.599 248.876 339.37C248.876 340.15 248.936 340.813 249.058 341.359C249.188 341.896 249.37 342.338 249.604 342.685C249.838 343.023 250.124 343.27 250.462 343.426C250.8 343.573 251.177 343.647 251.593 343.647ZM266.824 332.454C267.664 332.454 268.436 332.588 269.138 332.857C269.848 333.126 270.459 333.52 270.971 334.04C271.482 334.551 271.881 335.184 272.167 335.938C272.453 336.683 272.596 337.537 272.596 338.499C272.596 338.742 272.583 338.945 272.557 339.11C272.539 339.266 272.5 339.392 272.44 339.487C272.388 339.574 272.314 339.639 272.219 339.682C272.123 339.717 272.002 339.734 271.855 339.734H263.613C263.708 341.103 264.076 342.109 264.718 342.75C265.359 343.391 266.208 343.712 267.266 343.712C267.786 343.712 268.232 343.651 268.605 343.53C268.986 343.409 269.315 343.274 269.593 343.127C269.879 342.98 270.126 342.845 270.334 342.724C270.55 342.603 270.758 342.542 270.958 342.542C271.088 342.542 271.2 342.568 271.296 342.62C271.391 342.672 271.473 342.746 271.543 342.841L272.479 344.011C272.123 344.427 271.725 344.778 271.283 345.064C270.841 345.341 270.377 345.567 269.892 345.74C269.415 345.905 268.925 346.022 268.423 346.091C267.929 346.16 267.448 346.195 266.98 346.195C266.052 346.195 265.19 346.043 264.393 345.74C263.595 345.428 262.902 344.973 262.313 344.375C261.723 343.768 261.26 343.023 260.922 342.139C260.584 341.246 260.415 340.215 260.415 339.045C260.415 338.135 260.562 337.281 260.857 336.484C261.151 335.678 261.572 334.98 262.118 334.391C262.672 333.793 263.344 333.321 264.133 332.974C264.93 332.627 265.827 332.454 266.824 332.454ZM266.889 334.755C265.953 334.755 265.22 335.019 264.692 335.548C264.163 336.077 263.825 336.826 263.678 337.797H269.71C269.71 337.381 269.653 336.991 269.541 336.627C269.428 336.254 269.255 335.929 269.021 335.652C268.787 335.375 268.492 335.158 268.137 335.002C267.781 334.837 267.365 334.755 266.889 334.755ZM283.117 335.262C283.031 335.401 282.94 335.5 282.844 335.561C282.749 335.613 282.628 335.639 282.48 335.639C282.324 335.639 282.155 335.596 281.973 335.509C281.8 335.422 281.596 335.327 281.362 335.223C281.128 335.11 280.86 335.011 280.556 334.924C280.262 334.837 279.911 334.794 279.503 334.794C278.871 334.794 278.372 334.928 278.008 335.197C277.644 335.466 277.462 335.817 277.462 336.25C277.462 336.536 277.553 336.779 277.735 336.978C277.926 337.169 278.173 337.338 278.476 337.485C278.788 337.632 279.139 337.767 279.529 337.888C279.919 338.001 280.318 338.126 280.725 338.265C281.133 338.404 281.531 338.564 281.921 338.746C282.311 338.919 282.658 339.145 282.961 339.422C283.273 339.691 283.52 340.016 283.702 340.397C283.893 340.778 283.988 341.238 283.988 341.775C283.988 342.416 283.871 343.01 283.637 343.556C283.403 344.093 283.061 344.561 282.61 344.96C282.16 345.35 281.601 345.658 280.933 345.883C280.275 346.1 279.516 346.208 278.658 346.208C278.199 346.208 277.748 346.165 277.306 346.078C276.873 346 276.453 345.887 276.045 345.74C275.647 345.593 275.274 345.419 274.927 345.22C274.589 345.021 274.29 344.804 274.03 344.57L274.771 343.348C274.867 343.201 274.979 343.088 275.109 343.01C275.239 342.932 275.404 342.893 275.603 342.893C275.803 342.893 275.989 342.949 276.162 343.062C276.344 343.175 276.552 343.296 276.786 343.426C277.02 343.556 277.293 343.677 277.605 343.79C277.926 343.903 278.329 343.959 278.814 343.959C279.196 343.959 279.521 343.916 279.789 343.829C280.067 343.734 280.292 343.612 280.465 343.465C280.647 343.318 280.777 343.149 280.855 342.958C280.942 342.759 280.985 342.555 280.985 342.347C280.985 342.035 280.89 341.779 280.699 341.58C280.517 341.381 280.27 341.207 279.958 341.06C279.655 340.913 279.304 340.783 278.905 340.67C278.515 340.549 278.112 340.419 277.696 340.28C277.289 340.141 276.886 339.981 276.487 339.799C276.097 339.608 275.746 339.37 275.434 339.084C275.131 338.798 274.884 338.447 274.693 338.031C274.511 337.615 274.42 337.112 274.42 336.523C274.42 335.977 274.529 335.457 274.745 334.963C274.962 334.469 275.278 334.04 275.694 333.676C276.119 333.303 276.643 333.009 277.267 332.792C277.9 332.567 278.628 332.454 279.451 332.454C280.37 332.454 281.206 332.606 281.96 332.909C282.714 333.212 283.343 333.611 283.845 334.105L283.117 335.262ZM289.969 332.662V346H286.758V332.662H289.969ZM290.45 328.775C290.45 329.052 290.394 329.312 290.281 329.555C290.168 329.798 290.017 330.01 289.826 330.192C289.644 330.374 289.427 330.521 289.176 330.634C288.925 330.738 288.656 330.79 288.37 330.79C288.093 330.79 287.828 330.738 287.577 330.634C287.334 330.521 287.122 330.374 286.94 330.192C286.758 330.01 286.611 329.798 286.498 329.555C286.394 329.312 286.342 329.052 286.342 328.775C286.342 328.489 286.394 328.22 286.498 327.969C286.611 327.718 286.758 327.501 286.94 327.319C287.122 327.137 287.334 326.994 287.577 326.89C287.828 326.777 288.093 326.721 288.37 326.721C288.656 326.721 288.925 326.777 289.176 326.89C289.427 326.994 289.644 327.137 289.826 327.319C290.017 327.501 290.168 327.718 290.281 327.969C290.394 328.22 290.45 328.489 290.45 328.775ZM298.224 332.428C298.796 332.428 299.333 332.489 299.836 332.61C300.338 332.723 300.798 332.892 301.214 333.117H305.049V334.313C305.049 334.512 304.997 334.668 304.893 334.781C304.789 334.894 304.611 334.972 304.36 335.015L303.164 335.236C303.25 335.461 303.315 335.7 303.359 335.951C303.411 336.202 303.437 336.467 303.437 336.744C303.437 337.403 303.302 338.001 303.034 338.538C302.774 339.067 302.41 339.517 301.942 339.89C301.482 340.263 300.932 340.553 300.291 340.761C299.658 340.96 298.969 341.06 298.224 341.06C297.721 341.06 297.231 341.012 296.755 340.917C296.339 341.168 296.131 341.45 296.131 341.762C296.131 342.031 296.252 342.23 296.495 342.36C296.746 342.481 297.071 342.568 297.47 342.62C297.877 342.672 298.336 342.707 298.848 342.724C299.359 342.733 299.883 342.759 300.421 342.802C300.958 342.845 301.482 342.923 301.994 343.036C302.505 343.14 302.96 343.309 303.359 343.543C303.766 343.777 304.091 344.098 304.334 344.505C304.585 344.904 304.711 345.419 304.711 346.052C304.711 346.641 304.563 347.213 304.269 347.768C303.983 348.323 303.562 348.817 303.008 349.25C302.462 349.683 301.79 350.03 300.993 350.29C300.195 350.559 299.285 350.693 298.263 350.693C297.249 350.693 296.369 350.593 295.624 350.394C294.878 350.203 294.259 349.943 293.765 349.614C293.279 349.293 292.915 348.921 292.673 348.496C292.43 348.071 292.309 347.629 292.309 347.17C292.309 346.546 292.499 346.022 292.881 345.597C293.262 345.172 293.791 344.834 294.467 344.583C294.137 344.401 293.873 344.158 293.674 343.855C293.474 343.552 293.375 343.157 293.375 342.672C293.375 342.473 293.409 342.269 293.479 342.061C293.548 341.844 293.652 341.632 293.791 341.424C293.938 341.216 294.12 341.021 294.337 340.839C294.553 340.648 294.809 340.479 295.104 340.332C294.428 339.968 293.895 339.483 293.505 338.876C293.123 338.269 292.933 337.559 292.933 336.744C292.933 336.085 293.063 335.492 293.323 334.963C293.591 334.426 293.96 333.971 294.428 333.598C294.904 333.217 295.463 332.926 296.105 332.727C296.755 332.528 297.461 332.428 298.224 332.428ZM301.747 346.598C301.747 346.338 301.669 346.126 301.513 345.961C301.357 345.796 301.144 345.671 300.876 345.584C300.607 345.489 300.291 345.419 299.927 345.376C299.571 345.333 299.19 345.302 298.783 345.285C298.384 345.259 297.968 345.237 297.535 345.22C297.11 345.194 296.698 345.155 296.3 345.103C295.936 345.302 295.641 345.541 295.416 345.818C295.199 346.087 295.091 346.399 295.091 346.754C295.091 346.988 295.147 347.205 295.26 347.404C295.381 347.612 295.567 347.79 295.819 347.937C296.079 348.084 296.412 348.197 296.82 348.275C297.227 348.362 297.725 348.405 298.315 348.405C298.913 348.405 299.428 348.357 299.862 348.262C300.295 348.175 300.65 348.05 300.928 347.885C301.214 347.729 301.422 347.538 301.552 347.313C301.682 347.096 301.747 346.858 301.747 346.598ZM298.224 339.006C298.622 339.006 298.969 338.954 299.264 338.85C299.558 338.737 299.801 338.586 299.992 338.395C300.191 338.204 300.338 337.975 300.434 337.706C300.538 337.437 300.59 337.143 300.59 336.822C300.59 336.163 300.39 335.643 299.992 335.262C299.602 334.872 299.012 334.677 298.224 334.677C297.435 334.677 296.841 334.872 296.443 335.262C296.053 335.643 295.858 336.163 295.858 336.822C295.858 337.134 295.905 337.424 296.001 337.693C296.105 337.962 296.252 338.196 296.443 338.395C296.642 338.586 296.889 338.737 297.184 338.85C297.487 338.954 297.834 339.006 298.224 339.006ZM307.066 346V332.662H309.029C309.445 332.662 309.718 332.857 309.848 333.247L310.069 334.3C310.337 334.023 310.619 333.771 310.914 333.546C311.217 333.321 311.533 333.126 311.863 332.961C312.201 332.796 312.56 332.671 312.942 332.584C313.323 332.497 313.739 332.454 314.19 332.454C314.918 332.454 315.563 332.58 316.127 332.831C316.69 333.074 317.158 333.42 317.531 333.871C317.912 334.313 318.198 334.846 318.389 335.47C318.588 336.085 318.688 336.766 318.688 337.511V346H315.477V337.511C315.477 336.696 315.286 336.068 314.905 335.626C314.532 335.175 313.969 334.95 313.215 334.95C312.66 334.95 312.14 335.076 311.655 335.327C311.169 335.578 310.71 335.921 310.277 336.354V346H307.066ZM321.596 344.232C321.596 343.963 321.644 343.708 321.739 343.465C321.843 343.222 321.982 343.014 322.155 342.841C322.337 342.668 322.549 342.529 322.792 342.425C323.035 342.321 323.295 342.269 323.572 342.269C323.841 342.269 324.096 342.321 324.339 342.425C324.582 342.529 324.79 342.668 324.963 342.841C325.136 343.014 325.275 343.222 325.379 343.465C325.483 343.708 325.535 343.963 325.535 344.232C325.535 344.509 325.483 344.769 325.379 345.012C325.275 345.246 325.136 345.45 324.963 345.623C324.79 345.796 324.582 345.931 324.339 346.026C324.096 346.13 323.841 346.182 323.572 346.182C323.295 346.182 323.035 346.13 322.792 346.026C322.549 345.931 322.337 345.796 322.155 345.623C321.982 345.45 321.843 345.246 321.739 345.012C321.644 344.769 321.596 344.509 321.596 344.232ZM321.596 334.963C321.596 334.694 321.644 334.439 321.739 334.196C321.843 333.953 321.982 333.745 322.155 333.572C322.337 333.399 322.549 333.26 322.792 333.156C323.035 333.052 323.295 333 323.572 333C323.841 333 324.096 333.052 324.339 333.156C324.582 333.26 324.79 333.399 324.963 333.572C325.136 333.745 325.275 333.953 325.379 334.196C325.483 334.439 325.535 334.694 325.535 334.963C325.535 335.24 325.483 335.5 325.379 335.743C325.275 335.977 325.136 336.181 324.963 336.354C324.79 336.527 324.582 336.666 324.339 336.77C324.096 336.865 323.841 336.913 323.572 336.913C323.295 336.913 323.035 336.865 322.792 336.77C322.549 336.666 322.337 336.527 322.155 336.354C321.982 336.181 321.843 335.977 321.739 335.743C321.644 335.5 321.596 335.24 321.596 334.963ZM340.433 346H337.521L332.217 332.662H334.882C335.116 332.662 335.311 332.718 335.467 332.831C335.632 332.944 335.744 333.087 335.805 333.26L338.379 340.384C338.526 340.8 338.648 341.207 338.743 341.606C338.847 342.005 338.938 342.403 339.016 342.802C339.094 342.403 339.181 342.005 339.276 341.606C339.38 341.207 339.51 340.8 339.666 340.384L342.305 333.26C342.366 333.087 342.474 332.944 342.63 332.831C342.786 332.718 342.972 332.662 343.189 332.662H345.724L340.433 346ZM358.066 346H356.623C356.32 346 356.082 345.957 355.908 345.87C355.735 345.775 355.605 345.588 355.518 345.311L355.232 344.362C354.894 344.665 354.561 344.934 354.231 345.168C353.911 345.393 353.577 345.584 353.23 345.74C352.884 345.896 352.515 346.013 352.125 346.091C351.735 346.169 351.302 346.208 350.825 346.208C350.262 346.208 349.742 346.134 349.265 345.987C348.789 345.831 348.377 345.601 348.03 345.298C347.692 344.995 347.428 344.618 347.237 344.167C347.047 343.716 346.951 343.192 346.951 342.594C346.951 342.091 347.081 341.597 347.341 341.112C347.61 340.618 348.052 340.176 348.667 339.786C349.283 339.387 350.102 339.058 351.124 338.798C352.147 338.538 353.417 338.391 354.933 338.356V337.576C354.933 336.683 354.743 336.025 354.361 335.6C353.989 335.167 353.443 334.95 352.723 334.95C352.203 334.95 351.77 335.011 351.423 335.132C351.077 335.253 350.773 335.392 350.513 335.548C350.262 335.695 350.028 335.83 349.811 335.951C349.595 336.072 349.356 336.133 349.096 336.133C348.88 336.133 348.693 336.077 348.537 335.964C348.381 335.851 348.256 335.713 348.16 335.548L347.575 334.521C349.109 333.117 350.96 332.415 353.126 332.415C353.906 332.415 354.6 332.545 355.206 332.805C355.822 333.056 356.342 333.412 356.766 333.871C357.191 334.322 357.512 334.863 357.728 335.496C357.954 336.129 358.066 336.822 358.066 337.576V346ZM351.826 343.998C352.156 343.998 352.459 343.968 352.736 343.907C353.014 343.846 353.274 343.755 353.516 343.634C353.768 343.513 354.006 343.365 354.231 343.192C354.465 343.01 354.699 342.798 354.933 342.555V340.306C353.997 340.349 353.213 340.432 352.58 340.553C351.956 340.666 351.454 340.813 351.072 340.995C350.691 341.177 350.418 341.389 350.253 341.632C350.097 341.875 350.019 342.139 350.019 342.425C350.019 342.988 350.184 343.391 350.513 343.634C350.851 343.877 351.289 343.998 351.826 343.998ZM364.643 326.682V346H361.432V326.682H364.643ZM371.22 332.662V341.138C371.22 341.953 371.407 342.585 371.779 343.036C372.161 343.478 372.728 343.699 373.482 343.699C374.037 343.699 374.557 343.578 375.042 343.335C375.528 343.084 375.987 342.741 376.42 342.308V332.662H379.631V346H377.668C377.252 346 376.979 345.805 376.849 345.415L376.628 344.349C376.351 344.626 376.065 344.882 375.77 345.116C375.476 345.341 375.159 345.536 374.821 345.701C374.492 345.857 374.132 345.978 373.742 346.065C373.361 346.16 372.949 346.208 372.507 346.208C371.779 346.208 371.134 346.087 370.57 345.844C370.016 345.593 369.548 345.242 369.166 344.791C368.785 344.34 368.495 343.807 368.295 343.192C368.105 342.568 368.009 341.883 368.009 341.138V332.662H371.22ZM388.572 332.454C389.412 332.454 390.184 332.588 390.886 332.857C391.596 333.126 392.207 333.52 392.719 334.04C393.23 334.551 393.629 335.184 393.915 335.938C394.201 336.683 394.344 337.537 394.344 338.499C394.344 338.742 394.331 338.945 394.305 339.11C394.287 339.266 394.248 339.392 394.188 339.487C394.136 339.574 394.062 339.639 393.967 339.682C393.871 339.717 393.75 339.734 393.603 339.734H385.361C385.456 341.103 385.824 342.109 386.466 342.75C387.107 343.391 387.956 343.712 389.014 343.712C389.534 343.712 389.98 343.651 390.353 343.53C390.734 343.409 391.063 343.274 391.341 343.127C391.627 342.98 391.874 342.845 392.082 342.724C392.298 342.603 392.506 342.542 392.706 342.542C392.836 342.542 392.948 342.568 393.044 342.62C393.139 342.672 393.221 342.746 393.291 342.841L394.227 344.011C393.871 344.427 393.473 344.778 393.031 345.064C392.589 345.341 392.125 345.567 391.64 345.74C391.163 345.905 390.673 346.022 390.171 346.091C389.677 346.16 389.196 346.195 388.728 346.195C387.8 346.195 386.938 346.043 386.141 345.74C385.343 345.428 384.65 344.973 384.061 344.375C383.471 343.768 383.008 343.023 382.67 342.139C382.332 341.246 382.163 340.215 382.163 339.045C382.163 338.135 382.31 337.281 382.605 336.484C382.899 335.678 383.32 334.98 383.866 334.391C384.42 333.793 385.092 333.321 385.881 332.974C386.678 332.627 387.575 332.454 388.572 332.454ZM388.637 334.755C387.701 334.755 386.968 335.019 386.44 335.548C385.911 336.077 385.573 336.826 385.426 337.797H391.458C391.458 337.381 391.401 336.991 391.289 336.627C391.176 336.254 391.003 335.929 390.769 335.652C390.535 335.375 390.24 335.158 389.885 335.002C389.529 334.837 389.113 334.755 388.637 334.755Z" fill="#9A8636"/>
<rect x="535" y="298" width="85" height="44" rx="10" fill="white"/>
<path d="M556.65 313.54V315.75H552.3V328H549.61V315.75H545.24V313.54H556.65ZM560.423 317.58C561.07 317.58 561.663 317.683 562.203 317.89C562.75 318.097 563.22 318.4 563.613 318.8C564.007 319.193 564.313 319.68 564.533 320.26C564.753 320.833 564.863 321.49 564.863 322.23C564.863 322.417 564.853 322.573 564.833 322.7C564.82 322.82 564.79 322.917 564.743 322.99C564.703 323.057 564.647 323.107 564.573 323.14C564.5 323.167 564.407 323.18 564.293 323.18H557.953C558.027 324.233 558.31 325.007 558.803 325.5C559.297 325.993 559.95 326.24 560.763 326.24C561.163 326.24 561.507 326.193 561.793 326.1C562.087 326.007 562.34 325.903 562.553 325.79C562.773 325.677 562.963 325.573 563.123 325.48C563.29 325.387 563.45 325.34 563.603 325.34C563.703 325.34 563.79 325.36 563.863 325.4C563.937 325.44 564 325.497 564.053 325.57L564.773 326.47C564.5 326.79 564.193 327.06 563.853 327.28C563.513 327.493 563.157 327.667 562.783 327.8C562.417 327.927 562.04 328.017 561.653 328.07C561.273 328.123 560.903 328.15 560.543 328.15C559.83 328.15 559.167 328.033 558.553 327.8C557.94 327.56 557.407 327.21 556.953 326.75C556.5 326.283 556.143 325.71 555.883 325.03C555.623 324.343 555.493 323.55 555.493 322.65C555.493 321.95 555.607 321.293 555.833 320.68C556.06 320.06 556.383 319.523 556.803 319.07C557.23 318.61 557.747 318.247 558.353 317.98C558.967 317.713 559.657 317.58 560.423 317.58ZM560.473 319.35C559.753 319.35 559.19 319.553 558.783 319.96C558.377 320.367 558.117 320.943 558.003 321.69H562.643C562.643 321.37 562.6 321.07 562.513 320.79C562.427 320.503 562.293 320.253 562.113 320.04C561.933 319.827 561.707 319.66 561.433 319.54C561.16 319.413 560.84 319.35 560.473 319.35ZM572.957 319.74C572.89 319.847 572.82 319.923 572.747 319.97C572.674 320.01 572.58 320.03 572.467 320.03C572.347 320.03 572.217 319.997 572.077 319.93C571.944 319.863 571.787 319.79 571.607 319.71C571.427 319.623 571.22 319.547 570.987 319.48C570.76 319.413 570.49 319.38 570.177 319.38C569.69 319.38 569.307 319.483 569.027 319.69C568.747 319.897 568.607 320.167 568.607 320.5C568.607 320.72 568.677 320.907 568.817 321.06C568.964 321.207 569.154 321.337 569.387 321.45C569.627 321.563 569.897 321.667 570.197 321.76C570.497 321.847 570.804 321.943 571.117 322.05C571.43 322.157 571.737 322.28 572.037 322.42C572.337 322.553 572.604 322.727 572.837 322.94C573.077 323.147 573.267 323.397 573.407 323.69C573.554 323.983 573.627 324.337 573.627 324.75C573.627 325.243 573.537 325.7 573.357 326.12C573.177 326.533 572.914 326.893 572.567 327.2C572.22 327.5 571.79 327.737 571.277 327.91C570.77 328.077 570.187 328.16 569.527 328.16C569.174 328.16 568.827 328.127 568.487 328.06C568.154 328 567.83 327.913 567.517 327.8C567.21 327.687 566.924 327.553 566.657 327.4C566.397 327.247 566.167 327.08 565.967 326.9L566.537 325.96C566.61 325.847 566.697 325.76 566.797 325.7C566.897 325.64 567.024 325.61 567.177 325.61C567.33 325.61 567.474 325.653 567.607 325.74C567.747 325.827 567.907 325.92 568.087 326.02C568.267 326.12 568.477 326.213 568.717 326.3C568.964 326.387 569.274 326.43 569.647 326.43C569.94 326.43 570.19 326.397 570.397 326.33C570.61 326.257 570.784 326.163 570.917 326.05C571.057 325.937 571.157 325.807 571.217 325.66C571.284 325.507 571.317 325.35 571.317 325.19C571.317 324.95 571.244 324.753 571.097 324.6C570.957 324.447 570.767 324.313 570.527 324.2C570.294 324.087 570.024 323.987 569.717 323.9C569.417 323.807 569.107 323.707 568.787 323.6C568.474 323.493 568.164 323.37 567.857 323.23C567.557 323.083 567.287 322.9 567.047 322.68C566.814 322.46 566.624 322.19 566.477 321.87C566.337 321.55 566.267 321.163 566.267 320.71C566.267 320.29 566.35 319.89 566.517 319.51C566.684 319.13 566.927 318.8 567.247 318.52C567.574 318.233 567.977 318.007 568.457 317.84C568.944 317.667 569.504 317.58 570.137 317.58C570.844 317.58 571.487 317.697 572.067 317.93C572.647 318.163 573.13 318.47 573.517 318.85L572.957 319.74ZM578.967 328.16C578.081 328.16 577.397 327.91 576.917 327.41C576.437 326.903 576.197 326.207 576.197 325.32V319.59H575.157C575.024 319.59 574.907 319.547 574.807 319.46C574.714 319.373 574.667 319.243 574.667 319.07V318.09L576.317 317.82L576.837 315.02C576.864 314.887 576.924 314.783 577.017 314.71C577.117 314.637 577.241 314.6 577.387 314.6H578.667V317.83H581.367V319.59H578.667V325.15C578.667 325.47 578.747 325.72 578.907 325.9C579.067 326.08 579.281 326.17 579.547 326.17C579.701 326.17 579.827 326.153 579.927 326.12C580.034 326.08 580.124 326.04 580.197 326C580.277 325.96 580.347 325.923 580.407 325.89C580.467 325.85 580.527 325.83 580.587 325.83C580.661 325.83 580.721 325.85 580.767 325.89C580.814 325.923 580.864 325.977 580.917 326.05L581.657 327.25C581.297 327.55 580.884 327.777 580.417 327.93C579.951 328.083 579.467 328.16 578.967 328.16ZM585.962 317.74V328H583.492V317.74H585.962ZM586.332 314.75C586.332 314.963 586.288 315.163 586.202 315.35C586.115 315.537 585.998 315.7 585.852 315.84C585.712 315.98 585.545 316.093 585.352 316.18C585.158 316.26 584.952 316.3 584.732 316.3C584.518 316.3 584.315 316.26 584.122 316.18C583.935 316.093 583.772 315.98 583.632 315.84C583.492 315.7 583.378 315.537 583.292 315.35C583.212 315.163 583.172 314.963 583.172 314.75C583.172 314.53 583.212 314.323 583.292 314.13C583.378 313.937 583.492 313.77 583.632 313.63C583.772 313.49 583.935 313.38 584.122 313.3C584.315 313.213 584.518 313.17 584.732 313.17C584.952 313.17 585.158 313.213 585.352 313.3C585.545 313.38 585.712 313.49 585.852 313.63C585.998 313.77 586.115 313.937 586.202 314.13C586.288 314.323 586.332 314.53 586.332 314.75ZM588.761 328V317.74H590.271C590.591 317.74 590.801 317.89 590.901 318.19L591.071 319C591.278 318.787 591.495 318.593 591.721 318.42C591.955 318.247 592.198 318.097 592.451 317.97C592.711 317.843 592.988 317.747 593.281 317.68C593.575 317.613 593.895 317.58 594.241 317.58C594.801 317.58 595.298 317.677 595.731 317.87C596.165 318.057 596.525 318.323 596.811 318.67C597.105 319.01 597.325 319.42 597.471 319.9C597.625 320.373 597.701 320.897 597.701 321.47V328H595.231V321.47C595.231 320.843 595.085 320.36 594.791 320.02C594.505 319.673 594.071 319.5 593.491 319.5C593.065 319.5 592.665 319.597 592.291 319.79C591.918 319.983 591.565 320.247 591.231 320.58V328H588.761ZM603.679 317.56C604.119 317.56 604.532 317.607 604.919 317.7C605.305 317.787 605.659 317.917 605.979 318.09H608.929V319.01C608.929 319.163 608.889 319.283 608.809 319.37C608.729 319.457 608.592 319.517 608.399 319.55L607.479 319.72C607.545 319.893 607.595 320.077 607.629 320.27C607.669 320.463 607.689 320.667 607.689 320.88C607.689 321.387 607.585 321.847 607.379 322.26C607.179 322.667 606.899 323.013 606.539 323.3C606.185 323.587 605.762 323.81 605.269 323.97C604.782 324.123 604.252 324.2 603.679 324.2C603.292 324.2 602.915 324.163 602.549 324.09C602.229 324.283 602.069 324.5 602.069 324.74C602.069 324.947 602.162 325.1 602.349 325.2C602.542 325.293 602.792 325.36 603.099 325.4C603.412 325.44 603.765 325.467 604.159 325.48C604.552 325.487 604.955 325.507 605.369 325.54C605.782 325.573 606.185 325.633 606.579 325.72C606.972 325.8 607.322 325.93 607.629 326.11C607.942 326.29 608.192 326.537 608.379 326.85C608.572 327.157 608.669 327.553 608.669 328.04C608.669 328.493 608.555 328.933 608.329 329.36C608.109 329.787 607.785 330.167 607.359 330.5C606.939 330.833 606.422 331.1 605.809 331.3C605.195 331.507 604.495 331.61 603.709 331.61C602.929 331.61 602.252 331.533 601.679 331.38C601.105 331.233 600.629 331.033 600.249 330.78C599.875 330.533 599.595 330.247 599.409 329.92C599.222 329.593 599.129 329.253 599.129 328.9C599.129 328.42 599.275 328.017 599.569 327.69C599.862 327.363 600.269 327.103 600.789 326.91C600.535 326.77 600.332 326.583 600.179 326.35C600.025 326.117 599.949 325.813 599.949 325.44C599.949 325.287 599.975 325.13 600.029 324.97C600.082 324.803 600.162 324.64 600.269 324.48C600.382 324.32 600.522 324.17 600.689 324.03C600.855 323.883 601.052 323.753 601.279 323.64C600.759 323.36 600.349 322.987 600.049 322.52C599.755 322.053 599.609 321.507 599.609 320.88C599.609 320.373 599.709 319.917 599.909 319.51C600.115 319.097 600.399 318.747 600.759 318.46C601.125 318.167 601.555 317.943 602.049 317.79C602.549 317.637 603.092 317.56 603.679 317.56ZM606.389 328.46C606.389 328.26 606.329 328.097 606.209 327.97C606.089 327.843 605.925 327.747 605.719 327.68C605.512 327.607 605.269 327.553 604.989 327.52C604.715 327.487 604.422 327.463 604.109 327.45C603.802 327.43 603.482 327.413 603.149 327.4C602.822 327.38 602.505 327.35 602.199 327.31C601.919 327.463 601.692 327.647 601.519 327.86C601.352 328.067 601.269 328.307 601.269 328.58C601.269 328.76 601.312 328.927 601.399 329.08C601.492 329.24 601.635 329.377 601.829 329.49C602.029 329.603 602.285 329.69 602.599 329.75C602.912 329.817 603.295 329.85 603.749 329.85C604.209 329.85 604.605 329.813 604.939 329.74C605.272 329.673 605.545 329.577 605.759 329.45C605.979 329.33 606.139 329.183 606.239 329.01C606.339 328.843 606.389 328.66 606.389 328.46ZM603.679 322.62C603.985 322.62 604.252 322.58 604.479 322.5C604.705 322.413 604.892 322.297 605.039 322.15C605.192 322.003 605.305 321.827 605.379 321.62C605.459 321.413 605.499 321.187 605.499 320.94C605.499 320.433 605.345 320.033 605.039 319.74C604.739 319.44 604.285 319.29 603.679 319.29C603.072 319.29 602.615 319.44 602.309 319.74C602.009 320.033 601.859 320.433 601.859 320.94C601.859 321.18 601.895 321.403 601.969 321.61C602.049 321.817 602.162 321.997 602.309 322.15C602.462 322.297 602.652 322.413 602.879 322.5C603.112 322.58 603.379 322.62 603.679 322.62Z" fill="#9A8636"/>
<rect x="270" y="38" width="103" height="44" rx="10" fill="white"/>
<path d="M284.24 62.35V68H281.55V53.54H285.96C286.947 53.54 287.79 53.6433 288.49 53.85C289.197 54.05 289.773 54.3333 290.22 54.7C290.673 55.0667 291.003 55.5067 291.21 56.02C291.423 56.5267 291.53 57.0867 291.53 57.7C291.53 58.1867 291.457 58.6467 291.31 59.08C291.17 59.5133 290.963 59.9067 290.69 60.26C290.423 60.6133 290.09 60.9233 289.69 61.19C289.297 61.4567 288.847 61.67 288.34 61.83C288.68 62.0233 288.973 62.3 289.22 62.66L292.84 68H290.42C290.187 68 289.987 67.9533 289.82 67.86C289.66 67.7667 289.523 67.6333 289.41 67.46L286.37 62.83C286.257 62.6567 286.13 62.5333 285.99 62.46C285.857 62.3867 285.657 62.35 285.39 62.35H284.24ZM284.24 60.42H285.92C286.427 60.42 286.867 60.3567 287.24 60.23C287.62 60.1033 287.93 59.93 288.17 59.71C288.417 59.4833 288.6 59.2167 288.72 58.91C288.84 58.6033 288.9 58.2667 288.9 57.9C288.9 57.1667 288.657 56.6033 288.17 56.21C287.69 55.8167 286.953 55.62 285.96 55.62H284.24V60.42ZM298.665 57.58C299.312 57.58 299.905 57.6833 300.445 57.89C300.992 58.0967 301.462 58.4 301.855 58.8C302.249 59.1933 302.555 59.68 302.775 60.26C302.995 60.8333 303.105 61.49 303.105 62.23C303.105 62.4167 303.095 62.5733 303.075 62.7C303.062 62.82 303.032 62.9167 302.985 62.99C302.945 63.0567 302.889 63.1067 302.815 63.14C302.742 63.1667 302.649 63.18 302.535 63.18H296.195C296.269 64.2333 296.552 65.0067 297.045 65.5C297.539 65.9933 298.192 66.24 299.005 66.24C299.405 66.24 299.749 66.1933 300.035 66.1C300.329 66.0067 300.582 65.9033 300.795 65.79C301.015 65.6767 301.205 65.5733 301.365 65.48C301.532 65.3867 301.692 65.34 301.845 65.34C301.945 65.34 302.032 65.36 302.105 65.4C302.179 65.44 302.242 65.4967 302.295 65.57L303.015 66.47C302.742 66.79 302.435 67.06 302.095 67.28C301.755 67.4933 301.399 67.6667 301.025 67.8C300.659 67.9267 300.282 68.0167 299.895 68.07C299.515 68.1233 299.145 68.15 298.785 68.15C298.072 68.15 297.409 68.0333 296.795 67.8C296.182 67.56 295.649 67.21 295.195 66.75C294.742 66.2833 294.385 65.71 294.125 65.03C293.865 64.3433 293.735 63.55 293.735 62.65C293.735 61.95 293.849 61.2933 294.075 60.68C294.302 60.06 294.625 59.5233 295.045 59.07C295.472 58.61 295.989 58.2467 296.595 57.98C297.209 57.7133 297.899 57.58 298.665 57.58ZM298.715 59.35C297.995 59.35 297.432 59.5533 297.025 59.96C296.619 60.3667 296.359 60.9433 296.245 61.69H300.885C300.885 61.37 300.842 61.07 300.755 60.79C300.669 60.5033 300.535 60.2533 300.355 60.04C300.175 59.8267 299.949 59.66 299.675 59.54C299.402 59.4133 299.082 59.35 298.715 59.35ZM311.199 59.74C311.132 59.8467 311.062 59.9233 310.989 59.97C310.916 60.01 310.822 60.03 310.709 60.03C310.589 60.03 310.459 59.9967 310.319 59.93C310.186 59.8633 310.029 59.79 309.849 59.71C309.669 59.6233 309.462 59.5467 309.229 59.48C309.002 59.4133 308.732 59.38 308.419 59.38C307.932 59.38 307.549 59.4833 307.269 59.69C306.989 59.8967 306.849 60.1667 306.849 60.5C306.849 60.72 306.919 60.9067 307.059 61.06C307.206 61.2067 307.396 61.3367 307.629 61.45C307.869 61.5633 308.139 61.6667 308.439 61.76C308.739 61.8467 309.046 61.9433 309.359 62.05C309.672 62.1567 309.979 62.28 310.279 62.42C310.579 62.5533 310.846 62.7267 311.079 62.94C311.319 63.1467 311.509 63.3967 311.649 63.69C311.796 63.9833 311.869 64.3367 311.869 64.75C311.869 65.2433 311.779 65.7 311.599 66.12C311.419 66.5333 311.156 66.8933 310.809 67.2C310.462 67.5 310.032 67.7367 309.519 67.91C309.012 68.0767 308.429 68.16 307.769 68.16C307.416 68.16 307.069 68.1267 306.729 68.06C306.396 68 306.072 67.9133 305.759 67.8C305.452 67.6867 305.166 67.5533 304.899 67.4C304.639 67.2467 304.409 67.08 304.209 66.9L304.779 65.96C304.852 65.8467 304.939 65.76 305.039 65.7C305.139 65.64 305.266 65.61 305.419 65.61C305.572 65.61 305.716 65.6533 305.849 65.74C305.989 65.8267 306.149 65.92 306.329 66.02C306.509 66.12 306.719 66.2133 306.959 66.3C307.206 66.3867 307.516 66.43 307.889 66.43C308.182 66.43 308.432 66.3967 308.639 66.33C308.852 66.2567 309.026 66.1633 309.159 66.05C309.299 65.9367 309.399 65.8067 309.459 65.66C309.526 65.5067 309.559 65.35 309.559 65.19C309.559 64.95 309.486 64.7533 309.339 64.6C309.199 64.4467 309.009 64.3133 308.769 64.2C308.536 64.0867 308.266 63.9867 307.959 63.9C307.659 63.8067 307.349 63.7067 307.029 63.6C306.716 63.4933 306.406 63.37 306.099 63.23C305.799 63.0833 305.529 62.9 305.289 62.68C305.056 62.46 304.866 62.19 304.719 61.87C304.579 61.55 304.509 61.1633 304.509 60.71C304.509 60.29 304.592 59.89 304.759 59.51C304.926 59.13 305.169 58.8 305.489 58.52C305.816 58.2333 306.219 58.0067 306.699 57.84C307.186 57.6667 307.746 57.58 308.379 57.58C309.086 57.58 309.729 57.6967 310.309 57.93C310.889 58.1633 311.372 58.47 311.759 58.85L311.199 59.74ZM318.08 57.58C318.726 57.58 319.32 57.6833 319.86 57.89C320.406 58.0967 320.876 58.4 321.27 58.8C321.663 59.1933 321.97 59.68 322.19 60.26C322.41 60.8333 322.52 61.49 322.52 62.23C322.52 62.4167 322.51 62.5733 322.49 62.7C322.476 62.82 322.446 62.9167 322.4 62.99C322.36 63.0567 322.303 63.1067 322.23 63.14C322.156 63.1667 322.063 63.18 321.95 63.18H315.61C315.683 64.2333 315.966 65.0067 316.46 65.5C316.953 65.9933 317.606 66.24 318.42 66.24C318.82 66.24 319.163 66.1933 319.45 66.1C319.743 66.0067 319.996 65.9033 320.21 65.79C320.43 65.6767 320.62 65.5733 320.78 65.48C320.946 65.3867 321.106 65.34 321.26 65.34C321.36 65.34 321.446 65.36 321.52 65.4C321.593 65.44 321.656 65.4967 321.71 65.57L322.43 66.47C322.156 66.79 321.85 67.06 321.51 67.28C321.17 67.4933 320.813 67.6667 320.44 67.8C320.073 67.9267 319.696 68.0167 319.31 68.07C318.93 68.1233 318.56 68.15 318.2 68.15C317.486 68.15 316.823 68.0333 316.21 67.8C315.596 67.56 315.063 67.21 314.61 66.75C314.156 66.2833 313.8 65.71 313.54 65.03C313.28 64.3433 313.15 63.55 313.15 62.65C313.15 61.95 313.263 61.2933 313.49 60.68C313.716 60.06 314.04 59.5233 314.46 59.07C314.886 58.61 315.403 58.2467 316.01 57.98C316.623 57.7133 317.313 57.58 318.08 57.58ZM318.13 59.35C317.41 59.35 316.846 59.5533 316.44 59.96C316.033 60.3667 315.773 60.9433 315.66 61.69H320.3C320.3 61.37 320.256 61.07 320.17 60.79C320.083 60.5033 319.95 60.2533 319.77 60.04C319.59 59.8267 319.363 59.66 319.09 59.54C318.816 59.4133 318.496 59.35 318.13 59.35ZM332.563 68H331.453C331.22 68 331.036 67.9667 330.903 67.9C330.77 67.8267 330.67 67.6833 330.603 67.47L330.383 66.74C330.123 66.9733 329.866 67.18 329.613 67.36C329.366 67.5333 329.11 67.68 328.843 67.8C328.576 67.92 328.293 68.01 327.993 68.07C327.693 68.13 327.36 68.16 326.993 68.16C326.56 68.16 326.16 68.1033 325.793 67.99C325.426 67.87 325.11 67.6933 324.843 67.46C324.583 67.2267 324.38 66.9367 324.233 66.59C324.086 66.2433 324.013 65.84 324.013 65.38C324.013 64.9933 324.113 64.6133 324.313 64.24C324.52 63.86 324.86 63.52 325.333 63.22C325.806 62.9133 326.436 62.66 327.223 62.46C328.01 62.26 328.986 62.1467 330.153 62.12V61.52C330.153 60.8333 330.006 60.3267 329.713 60C329.426 59.6667 329.006 59.5 328.453 59.5C328.053 59.5 327.72 59.5467 327.453 59.64C327.186 59.7333 326.953 59.84 326.753 59.96C326.56 60.0733 326.38 60.1767 326.213 60.27C326.046 60.3633 325.863 60.41 325.663 60.41C325.496 60.41 325.353 60.3667 325.233 60.28C325.113 60.1933 325.016 60.0867 324.943 59.96L324.493 59.17C325.673 58.09 327.096 57.55 328.763 57.55C329.363 57.55 329.896 57.65 330.363 57.85C330.836 58.0433 331.236 58.3167 331.563 58.67C331.89 59.0167 332.136 59.4333 332.303 59.92C332.476 60.4067 332.563 60.94 332.563 61.52V68ZM327.763 66.46C328.016 66.46 328.25 66.4367 328.463 66.39C328.676 66.3433 328.876 66.2733 329.063 66.18C329.256 66.0867 329.44 65.9733 329.613 65.84C329.793 65.7 329.973 65.5367 330.153 65.35V63.62C329.433 63.6533 328.83 63.7167 328.343 63.81C327.863 63.8967 327.476 64.01 327.183 64.15C326.89 64.29 326.68 64.4533 326.553 64.64C326.433 64.8267 326.373 65.03 326.373 65.25C326.373 65.6833 326.5 65.9933 326.753 66.18C327.013 66.3667 327.35 66.46 327.763 66.46ZM334.992 68V57.74H336.442C336.695 57.74 336.872 57.7867 336.972 57.88C337.072 57.9733 337.139 58.1333 337.172 58.36L337.322 59.6C337.689 58.9667 338.119 58.4667 338.612 58.1C339.105 57.7333 339.659 57.55 340.272 57.55C340.779 57.55 341.199 57.6667 341.532 57.9L341.212 59.75C341.192 59.87 341.149 59.9567 341.082 60.01C341.015 60.0567 340.925 60.08 340.812 60.08C340.712 60.08 340.575 60.0567 340.402 60.01C340.229 59.9633 339.999 59.94 339.712 59.94C339.199 59.94 338.759 60.0833 338.392 60.37C338.025 60.65 337.715 61.0633 337.462 61.61V68H334.992ZM350.366 59.91C350.293 60.0033 350.219 60.0767 350.146 60.13C350.079 60.1833 349.979 60.21 349.846 60.21C349.719 60.21 349.596 60.1733 349.476 60.1C349.356 60.02 349.213 59.9333 349.046 59.84C348.879 59.74 348.679 59.6533 348.446 59.58C348.219 59.5 347.936 59.46 347.596 59.46C347.163 59.46 346.783 59.54 346.456 59.7C346.129 59.8533 345.856 60.0767 345.636 60.37C345.423 60.6633 345.263 61.02 345.156 61.44C345.049 61.8533 344.996 62.3233 344.996 62.85C344.996 63.3967 345.053 63.8833 345.166 64.31C345.286 64.7367 345.456 65.0967 345.676 65.39C345.896 65.6767 346.163 65.8967 346.476 66.05C346.789 66.1967 347.143 66.27 347.536 66.27C347.929 66.27 348.246 66.2233 348.486 66.13C348.733 66.03 348.939 65.9233 349.106 65.81C349.273 65.69 349.416 65.5833 349.536 65.49C349.663 65.39 349.803 65.34 349.956 65.34C350.156 65.34 350.306 65.4167 350.406 65.57L351.116 66.47C350.843 66.79 350.546 67.06 350.226 67.28C349.906 67.4933 349.573 67.6667 349.226 67.8C348.886 67.9267 348.533 68.0167 348.166 68.07C347.799 68.1233 347.436 68.15 347.076 68.15C346.443 68.15 345.846 68.0333 345.286 67.8C344.726 67.56 344.236 67.2133 343.816 66.76C343.403 66.3067 343.073 65.7533 342.826 65.1C342.586 64.44 342.466 63.69 342.466 62.85C342.466 62.0967 342.573 61.4 342.786 60.76C343.006 60.1133 343.326 59.5567 343.746 59.09C344.166 58.6167 344.686 58.2467 345.306 57.98C345.926 57.7133 346.639 57.58 347.446 57.58C348.213 57.58 348.883 57.7033 349.456 57.95C350.036 58.1967 350.556 58.55 351.016 59.01L350.366 59.91ZM352.687 68V53.14H355.157V58.85C355.557 58.47 355.997 58.1633 356.477 57.93C356.957 57.6967 357.521 57.58 358.167 57.58C358.727 57.58 359.224 57.6767 359.657 57.87C360.091 58.0567 360.451 58.3233 360.737 58.67C361.031 59.01 361.251 59.42 361.397 59.9C361.551 60.3733 361.627 60.8967 361.627 61.47V68H359.157V61.47C359.157 60.8433 359.011 60.36 358.717 60.02C358.431 59.6733 357.997 59.5 357.417 59.5C356.991 59.5 356.591 59.5967 356.217 59.79C355.844 59.9833 355.491 60.2467 355.157 60.58V68H352.687Z" fill="#9A8636"/>
<rect x="244" y="558" width="156" height="44" rx="10" fill="white"/>
<path d="M265.4 584.59C265.547 584.59 265.673 584.647 265.78 584.76L266.84 585.91C266.253 586.637 265.53 587.193 264.67 587.58C263.817 587.967 262.79 588.16 261.59 588.16C260.517 588.16 259.55 587.977 258.69 587.61C257.837 587.243 257.107 586.733 256.5 586.08C255.893 585.427 255.427 584.647 255.1 583.74C254.78 582.833 254.62 581.843 254.62 580.77C254.62 579.683 254.8 578.69 255.16 577.79C255.52 576.883 256.027 576.103 256.68 575.45C257.333 574.797 258.113 574.29 259.02 573.93C259.933 573.563 260.94 573.38 262.04 573.38C263.113 573.38 264.05 573.553 264.85 573.9C265.657 574.24 266.347 574.693 266.92 575.26L266.02 576.51C265.967 576.59 265.897 576.66 265.81 576.72C265.73 576.78 265.617 576.81 265.47 576.81C265.317 576.81 265.16 576.75 265 576.63C264.84 576.51 264.637 576.38 264.39 576.24C264.143 576.1 263.83 575.97 263.45 575.85C263.077 575.73 262.6 575.67 262.02 575.67C261.34 575.67 260.713 575.79 260.14 576.03C259.573 576.263 259.083 576.6 258.67 577.04C258.263 577.48 257.943 578.017 257.71 578.65C257.483 579.277 257.37 579.983 257.37 580.77C257.37 581.583 257.483 582.307 257.71 582.94C257.943 583.573 258.257 584.107 258.65 584.54C259.043 584.973 259.507 585.307 260.04 585.54C260.573 585.767 261.147 585.88 261.76 585.88C262.127 585.88 262.457 585.86 262.75 585.82C263.05 585.78 263.323 585.717 263.57 585.63C263.823 585.543 264.06 585.433 264.28 585.3C264.507 585.16 264.73 584.99 264.95 584.79C265.017 584.73 265.087 584.683 265.16 584.65C265.233 584.61 265.313 584.59 265.4 584.59ZM273.118 577.58C273.885 577.58 274.578 577.703 275.198 577.95C275.825 578.197 276.358 578.547 276.798 579C277.238 579.453 277.578 580.007 277.818 580.66C278.058 581.313 278.178 582.043 278.178 582.85C278.178 583.663 278.058 584.397 277.818 585.05C277.578 585.703 277.238 586.26 276.798 586.72C276.358 587.18 275.825 587.533 275.198 587.78C274.578 588.027 273.885 588.15 273.118 588.15C272.351 588.15 271.655 588.027 271.028 587.78C270.401 587.533 269.865 587.18 269.418 586.72C268.978 586.26 268.635 585.703 268.388 585.05C268.148 584.397 268.028 583.663 268.028 582.85C268.028 582.043 268.148 581.313 268.388 580.66C268.635 580.007 268.978 579.453 269.418 579C269.865 578.547 270.401 578.197 271.028 577.95C271.655 577.703 272.351 577.58 273.118 577.58ZM273.118 586.25C273.971 586.25 274.601 585.963 275.008 585.39C275.421 584.817 275.628 583.977 275.628 582.87C275.628 581.763 275.421 580.92 275.008 580.34C274.601 579.76 273.971 579.47 273.118 579.47C272.251 579.47 271.611 579.763 271.198 580.35C270.785 580.93 270.578 581.77 270.578 582.87C270.578 583.97 270.785 584.81 271.198 585.39C271.611 585.963 272.251 586.25 273.118 586.25ZM280.105 588V577.74H281.615C281.935 577.74 282.145 577.89 282.245 578.19L282.415 579C282.622 578.787 282.838 578.593 283.065 578.42C283.298 578.247 283.542 578.097 283.795 577.97C284.055 577.843 284.332 577.747 284.625 577.68C284.918 577.613 285.238 577.58 285.585 577.58C286.145 577.58 286.642 577.677 287.075 577.87C287.508 578.057 287.868 578.323 288.155 578.67C288.448 579.01 288.668 579.42 288.815 579.9C288.968 580.373 289.045 580.897 289.045 581.47V588H286.575V581.47C286.575 580.843 286.428 580.36 286.135 580.02C285.848 579.673 285.415 579.5 284.835 579.5C284.408 579.5 284.008 579.597 283.635 579.79C283.262 579.983 282.908 580.247 282.575 580.58V588H280.105ZM297.562 579.74C297.496 579.847 297.426 579.923 297.352 579.97C297.279 580.01 297.186 580.03 297.072 580.03C296.952 580.03 296.822 579.997 296.682 579.93C296.549 579.863 296.392 579.79 296.212 579.71C296.032 579.623 295.826 579.547 295.592 579.48C295.366 579.413 295.096 579.38 294.782 579.38C294.296 579.38 293.912 579.483 293.632 579.69C293.352 579.897 293.212 580.167 293.212 580.5C293.212 580.72 293.282 580.907 293.422 581.06C293.569 581.207 293.759 581.337 293.992 581.45C294.232 581.563 294.502 581.667 294.802 581.76C295.102 581.847 295.409 581.943 295.722 582.05C296.036 582.157 296.342 582.28 296.642 582.42C296.942 582.553 297.209 582.727 297.442 582.94C297.682 583.147 297.872 583.397 298.012 583.69C298.159 583.983 298.232 584.337 298.232 584.75C298.232 585.243 298.142 585.7 297.962 586.12C297.782 586.533 297.519 586.893 297.172 587.2C296.826 587.5 296.396 587.737 295.882 587.91C295.376 588.077 294.792 588.16 294.132 588.16C293.779 588.16 293.432 588.127 293.092 588.06C292.759 588 292.436 587.913 292.122 587.8C291.816 587.687 291.529 587.553 291.262 587.4C291.002 587.247 290.772 587.08 290.572 586.9L291.142 585.96C291.216 585.847 291.302 585.76 291.402 585.7C291.502 585.64 291.629 585.61 291.782 585.61C291.936 585.61 292.079 585.653 292.212 585.74C292.352 585.827 292.512 585.92 292.692 586.02C292.872 586.12 293.082 586.213 293.322 586.3C293.569 586.387 293.879 586.43 294.252 586.43C294.546 586.43 294.796 586.397 295.002 586.33C295.216 586.257 295.389 586.163 295.522 586.05C295.662 585.937 295.762 585.807 295.822 585.66C295.889 585.507 295.922 585.35 295.922 585.19C295.922 584.95 295.849 584.753 295.702 584.6C295.562 584.447 295.372 584.313 295.132 584.2C294.899 584.087 294.629 583.987 294.322 583.9C294.022 583.807 293.712 583.707 293.392 583.6C293.079 583.493 292.769 583.37 292.462 583.23C292.162 583.083 291.892 582.9 291.652 582.68C291.419 582.46 291.229 582.19 291.082 581.87C290.942 581.55 290.872 581.163 290.872 580.71C290.872 580.29 290.956 579.89 291.122 579.51C291.289 579.13 291.532 578.8 291.852 578.52C292.179 578.233 292.582 578.007 293.062 577.84C293.549 577.667 294.109 577.58 294.742 577.58C295.449 577.58 296.092 577.697 296.672 577.93C297.252 578.163 297.736 578.47 298.122 578.85L297.562 579.74ZM302.833 577.74V588H300.363V577.74H302.833ZM303.203 574.75C303.203 574.963 303.159 575.163 303.073 575.35C302.986 575.537 302.869 575.7 302.723 575.84C302.583 575.98 302.416 576.093 302.223 576.18C302.029 576.26 301.823 576.3 301.603 576.3C301.389 576.3 301.186 576.26 300.993 576.18C300.806 576.093 300.643 575.98 300.503 575.84C300.363 575.7 300.249 575.537 300.163 575.35C300.083 575.163 300.043 574.963 300.043 574.75C300.043 574.53 300.083 574.323 300.163 574.13C300.249 573.937 300.363 573.77 300.503 573.63C300.643 573.49 300.806 573.38 300.993 573.3C301.186 573.213 301.389 573.17 301.603 573.17C301.823 573.17 302.029 573.213 302.223 573.3C302.416 573.38 302.583 573.49 302.723 573.63C302.869 573.77 302.986 573.937 303.073 574.13C303.159 574.323 303.203 574.53 303.203 574.75ZM312.853 588C312.533 588 312.323 587.85 312.223 587.55L312.023 586.56C311.809 586.8 311.586 587.017 311.353 587.21C311.119 587.403 310.866 587.57 310.593 587.71C310.326 587.85 310.036 587.957 309.723 588.03C309.416 588.11 309.083 588.15 308.723 588.15C308.163 588.15 307.649 588.033 307.183 587.8C306.716 587.567 306.313 587.23 305.973 586.79C305.639 586.343 305.379 585.793 305.193 585.14C305.013 584.487 304.923 583.74 304.923 582.9C304.923 582.14 305.026 581.433 305.233 580.78C305.439 580.127 305.736 579.56 306.123 579.08C306.509 578.6 306.973 578.227 307.513 577.96C308.053 577.687 308.659 577.55 309.333 577.55C309.906 577.55 310.396 577.643 310.803 577.83C311.209 578.01 311.573 578.253 311.893 578.56V573.14H314.362V588H312.853ZM309.563 586.19C310.076 586.19 310.513 586.083 310.873 585.87C311.233 585.657 311.573 585.353 311.893 584.96V580.36C311.613 580.02 311.306 579.78 310.973 579.64C310.646 579.5 310.293 579.43 309.913 579.43C309.539 579.43 309.199 579.5 308.893 579.64C308.593 579.78 308.336 579.993 308.123 580.28C307.916 580.56 307.756 580.92 307.643 581.36C307.529 581.793 307.473 582.307 307.473 582.9C307.473 583.5 307.519 584.01 307.613 584.43C307.713 584.843 307.853 585.183 308.033 585.45C308.213 585.71 308.433 585.9 308.693 586.02C308.953 586.133 309.243 586.19 309.563 586.19ZM321.279 577.58C321.925 577.58 322.519 577.683 323.059 577.89C323.605 578.097 324.075 578.4 324.469 578.8C324.862 579.193 325.169 579.68 325.389 580.26C325.609 580.833 325.719 581.49 325.719 582.23C325.719 582.417 325.709 582.573 325.689 582.7C325.675 582.82 325.645 582.917 325.599 582.99C325.559 583.057 325.502 583.107 325.429 583.14C325.355 583.167 325.262 583.18 325.149 583.18H318.809C318.882 584.233 319.165 585.007 319.659 585.5C320.152 585.993 320.805 586.24 321.619 586.24C322.019 586.24 322.362 586.193 322.649 586.1C322.942 586.007 323.195 585.903 323.409 585.79C323.629 585.677 323.819 585.573 323.979 585.48C324.145 585.387 324.305 585.34 324.459 585.34C324.559 585.34 324.645 585.36 324.719 585.4C324.792 585.44 324.855 585.497 324.909 585.57L325.629 586.47C325.355 586.79 325.049 587.06 324.709 587.28C324.369 587.493 324.012 587.667 323.639 587.8C323.272 587.927 322.895 588.017 322.509 588.07C322.129 588.123 321.759 588.15 321.399 588.15C320.685 588.15 320.022 588.033 319.409 587.8C318.795 587.56 318.262 587.21 317.809 586.75C317.355 586.283 316.999 585.71 316.739 585.03C316.479 584.343 316.349 583.55 316.349 582.65C316.349 581.95 316.462 581.293 316.689 580.68C316.915 580.06 317.239 579.523 317.659 579.07C318.085 578.61 318.602 578.247 319.209 577.98C319.822 577.713 320.512 577.58 321.279 577.58ZM321.329 579.35C320.609 579.35 320.045 579.553 319.639 579.96C319.232 580.367 318.972 580.943 318.859 581.69H323.499C323.499 581.37 323.455 581.07 323.369 580.79C323.282 580.503 323.149 580.253 322.969 580.04C322.789 579.827 322.562 579.66 322.289 579.54C322.015 579.413 321.695 579.35 321.329 579.35ZM327.722 588V577.74H329.172C329.426 577.74 329.602 577.787 329.702 577.88C329.802 577.973 329.869 578.133 329.902 578.36L330.052 579.6C330.419 578.967 330.849 578.467 331.342 578.1C331.836 577.733 332.389 577.55 333.002 577.55C333.509 577.55 333.929 577.667 334.262 577.9L333.942 579.75C333.922 579.87 333.879 579.957 333.812 580.01C333.746 580.057 333.656 580.08 333.542 580.08C333.442 580.08 333.306 580.057 333.132 580.01C332.959 579.963 332.729 579.94 332.442 579.94C331.929 579.94 331.489 580.083 331.122 580.37C330.756 580.65 330.446 581.063 330.192 581.61V588H327.722ZM343.633 588H342.523C342.29 588 342.107 587.967 341.973 587.9C341.84 587.827 341.74 587.683 341.673 587.47L341.453 586.74C341.193 586.973 340.937 587.18 340.683 587.36C340.437 587.533 340.18 587.68 339.913 587.8C339.647 587.92 339.363 588.01 339.063 588.07C338.763 588.13 338.43 588.16 338.063 588.16C337.63 588.16 337.23 588.103 336.863 587.99C336.497 587.87 336.18 587.693 335.913 587.46C335.653 587.227 335.45 586.937 335.303 586.59C335.157 586.243 335.083 585.84 335.083 585.38C335.083 584.993 335.183 584.613 335.383 584.24C335.59 583.86 335.93 583.52 336.403 583.22C336.877 582.913 337.507 582.66 338.293 582.46C339.08 582.26 340.057 582.147 341.223 582.12V581.52C341.223 580.833 341.077 580.327 340.783 580C340.497 579.667 340.077 579.5 339.523 579.5C339.123 579.5 338.79 579.547 338.523 579.64C338.257 579.733 338.023 579.84 337.823 579.96C337.63 580.073 337.45 580.177 337.283 580.27C337.117 580.363 336.933 580.41 336.733 580.41C336.567 580.41 336.423 580.367 336.303 580.28C336.183 580.193 336.087 580.087 336.013 579.96L335.563 579.17C336.743 578.09 338.167 577.55 339.833 577.55C340.433 577.55 340.967 577.65 341.433 577.85C341.907 578.043 342.307 578.317 342.633 578.67C342.96 579.017 343.207 579.433 343.373 579.92C343.547 580.407 343.633 580.94 343.633 581.52V588ZM338.833 586.46C339.087 586.46 339.32 586.437 339.533 586.39C339.747 586.343 339.947 586.273 340.133 586.18C340.327 586.087 340.51 585.973 340.683 585.84C340.863 585.7 341.043 585.537 341.223 585.35V583.62C340.503 583.653 339.9 583.717 339.413 583.81C338.933 583.897 338.547 584.01 338.253 584.15C337.96 584.29 337.75 584.453 337.623 584.64C337.503 584.827 337.443 585.03 337.443 585.25C337.443 585.683 337.57 585.993 337.823 586.18C338.083 586.367 338.42 586.46 338.833 586.46ZM349.432 588.16C348.546 588.16 347.862 587.91 347.382 587.41C346.902 586.903 346.662 586.207 346.662 585.32V579.59H345.622C345.489 579.59 345.372 579.547 345.272 579.46C345.179 579.373 345.132 579.243 345.132 579.07V578.09L346.782 577.82L347.302 575.02C347.329 574.887 347.389 574.783 347.482 574.71C347.582 574.637 347.706 574.6 347.852 574.6H349.132V577.83H351.832V579.59H349.132V585.15C349.132 585.47 349.212 585.72 349.372 585.9C349.532 586.08 349.746 586.17 350.012 586.17C350.166 586.17 350.292 586.153 350.392 586.12C350.499 586.08 350.589 586.04 350.662 586C350.742 585.96 350.812 585.923 350.872 585.89C350.932 585.85 350.992 585.83 351.052 585.83C351.126 585.83 351.186 585.85 351.232 585.89C351.279 585.923 351.329 585.977 351.382 586.05L352.122 587.25C351.762 587.55 351.349 587.777 350.882 587.93C350.416 588.083 349.932 588.16 349.432 588.16ZM356.427 577.74V588H353.957V577.74H356.427ZM356.797 574.75C356.797 574.963 356.753 575.163 356.667 575.35C356.58 575.537 356.463 575.7 356.317 575.84C356.177 575.98 356.01 576.093 355.817 576.18C355.623 576.26 355.417 576.3 355.197 576.3C354.983 576.3 354.78 576.26 354.587 576.18C354.4 576.093 354.237 575.98 354.097 575.84C353.957 575.7 353.843 575.537 353.757 575.35C353.677 575.163 353.637 574.963 353.637 574.75C353.637 574.53 353.677 574.323 353.757 574.13C353.843 573.937 353.957 573.77 354.097 573.63C354.237 573.49 354.4 573.38 354.587 573.3C354.78 573.213 354.983 573.17 355.197 573.17C355.417 573.17 355.623 573.213 355.817 573.3C356.01 573.38 356.177 573.49 356.317 573.63C356.463 573.77 356.58 573.937 356.667 574.13C356.753 574.323 356.797 574.53 356.797 574.75ZM363.606 577.58C364.373 577.58 365.066 577.703 365.686 577.95C366.313 578.197 366.846 578.547 367.286 579C367.726 579.453 368.066 580.007 368.306 580.66C368.546 581.313 368.666 582.043 368.666 582.85C368.666 583.663 368.546 584.397 368.306 585.05C368.066 585.703 367.726 586.26 367.286 586.72C366.846 587.18 366.313 587.533 365.686 587.78C365.066 588.027 364.373 588.15 363.606 588.15C362.84 588.15 362.143 588.027 361.516 587.78C360.89 587.533 360.353 587.18 359.906 586.72C359.466 586.26 359.123 585.703 358.876 585.05C358.636 584.397 358.516 583.663 358.516 582.85C358.516 582.043 358.636 581.313 358.876 580.66C359.123 580.007 359.466 579.453 359.906 579C360.353 578.547 360.89 578.197 361.516 577.95C362.143 577.703 362.84 577.58 363.606 577.58ZM363.606 586.25C364.46 586.25 365.09 585.963 365.496 585.39C365.91 584.817 366.116 583.977 366.116 582.87C366.116 581.763 365.91 580.92 365.496 580.34C365.09 579.76 364.46 579.47 363.606 579.47C362.74 579.47 362.1 579.763 361.686 580.35C361.273 580.93 361.066 581.77 361.066 582.87C361.066 583.97 361.273 584.81 361.686 585.39C362.1 585.963 362.74 586.25 363.606 586.25ZM370.593 588V577.74H372.103C372.423 577.74 372.633 577.89 372.733 578.19L372.903 579C373.11 578.787 373.327 578.593 373.553 578.42C373.787 578.247 374.03 578.097 374.283 577.97C374.543 577.843 374.82 577.747 375.113 577.68C375.407 577.613 375.727 577.58 376.073 577.58C376.633 577.58 377.13 577.677 377.563 577.87C377.997 578.057 378.357 578.323 378.643 578.67C378.937 579.01 379.157 579.42 379.303 579.9C379.457 580.373 379.533 580.897 379.533 581.47V588H377.063V581.47C377.063 580.843 376.917 580.36 376.623 580.02C376.337 579.673 375.903 579.5 375.323 579.5C374.897 579.5 374.497 579.597 374.123 579.79C373.75 579.983 373.397 580.247 373.063 580.58V588H370.593ZM388.051 579.74C387.984 579.847 387.914 579.923 387.841 579.97C387.767 580.01 387.674 580.03 387.561 580.03C387.441 580.03 387.311 579.997 387.171 579.93C387.037 579.863 386.881 579.79 386.701 579.71C386.521 579.623 386.314 579.547 386.081 579.48C385.854 579.413 385.584 579.38 385.271 579.38C384.784 579.38 384.401 579.483 384.121 579.69C383.841 579.897 383.701 580.167 383.701 580.5C383.701 580.72 383.771 580.907 383.911 581.06C384.057 581.207 384.247 581.337 384.481 581.45C384.721 581.563 384.991 581.667 385.291 581.76C385.591 581.847 385.897 581.943 386.211 582.05C386.524 582.157 386.831 582.28 387.131 582.42C387.431 582.553 387.697 582.727 387.931 582.94C388.171 583.147 388.361 583.397 388.501 583.69C388.647 583.983 388.721 584.337 388.721 584.75C388.721 585.243 388.631 585.7 388.451 586.12C388.271 586.533 388.007 586.893 387.661 587.2C387.314 587.5 386.884 587.737 386.371 587.91C385.864 588.077 385.281 588.16 384.621 588.16C384.267 588.16 383.921 588.127 383.581 588.06C383.247 588 382.924 587.913 382.611 587.8C382.304 587.687 382.017 587.553 381.751 587.4C381.491 587.247 381.261 587.08 381.061 586.9L381.631 585.96C381.704 585.847 381.791 585.76 381.891 585.7C381.991 585.64 382.117 585.61 382.271 585.61C382.424 585.61 382.567 585.653 382.701 585.74C382.841 585.827 383.001 585.92 383.181 586.02C383.361 586.12 383.571 586.213 383.811 586.3C384.057 586.387 384.367 586.43 384.741 586.43C385.034 586.43 385.284 586.397 385.491 586.33C385.704 586.257 385.877 586.163 386.011 586.05C386.151 585.937 386.251 585.807 386.311 585.66C386.377 585.507 386.411 585.35 386.411 585.19C386.411 584.95 386.337 584.753 386.191 584.6C386.051 584.447 385.861 584.313 385.621 584.2C385.387 584.087 385.117 583.987 384.811 583.9C384.511 583.807 384.201 583.707 383.881 583.6C383.567 583.493 383.257 583.37 382.951 583.23C382.651 583.083 382.381 582.9 382.141 582.68C381.907 582.46 381.717 582.19 381.571 581.87C381.431 581.55 381.361 581.163 381.361 580.71C381.361 580.29 381.444 579.89 381.611 579.51C381.777 579.13 382.021 578.8 382.341 578.52C382.667 578.233 383.071 578.007 383.551 577.84C384.037 577.667 384.597 577.58 385.231 577.58C385.937 577.58 386.581 577.697 387.161 577.93C387.741 578.163 388.224 578.47 388.611 578.85L388.051 579.74Z" fill="#9A8636"/>
<path d="M518.561 321.061C519.146 320.475 519.146 319.525 518.561 318.939L509.015 309.393C508.429 308.808 507.479 308.808 506.893 309.393C506.308 309.979 506.308 310.929 506.893 311.515L515.379 320L506.893 328.485C506.308 329.071 506.308 330.021 506.893 330.607C507.479 331.192 508.429 331.192 509.015 330.607L518.561 321.061ZM402 321.5H517.5V318.5H402V321.5Z" fill="white"/>
</svg>
