<?xml version="1.0" encoding="UTF-8"?><svg id="Livello_1" xmlns="http://www.w3.org/2000/svg" viewBox="0 0 209.76 297.64"><defs><style>.cls-1{stroke:#000;stroke-width:.5px;}.cls-1,.cls-2{fill:none;stroke-miterlimit:10;}.cls-3{letter-spacing:.01em;}.cls-4{letter-spacing:0em;}.cls-5{letter-spacing:0em;}.cls-2{stroke:red;}.cls-6{fill:blue;}.cls-7{font-family:RobotoMono-Regular, 'Roboto Mono';font-variation-settings:'wght' 400;}.cls-7,.cls-8,.cls-9{fill:#1d1d1b;}.cls-7,.cls-9{font-size:10px;}.cls-10{fill:red;}.cls-11{letter-spacing:0em;}.cls-12{letter-spacing:-.01em;}.cls-8{font-family:Shape-Bold, Shape;font-size:23px;font-weight:700;}.cls-13{letter-spacing:0em;}.cls-9{font-family:Shape-Regular, Shape;}</style></defs><text class="cls-8" transform="translate(70.88 131.28)"><tspan class="cls-13" x="0" y="0">S</tspan><tspan class="cls-11" x="14.72" y="0">a</tspan><tspan class="cls-4" x="28.8" y="0">f</tspan><tspan class="cls-5" x="38.23" y="0">e</tspan><tspan class="cls-3" x="51.52" y="0">t</tspan><tspan class="cls-12" x="62.08" y="0">y</tspan></text><text class="cls-9" transform="translate(32.57 154.87)"><tspan x="0" y="0">The right to be protected from </tspan><tspan x="6.21" y="12">harm or other non-desirable </tspan><tspan x="48.89" y="24">outcomes</tspan></text><path class="cls-6" d="M23.76,41.31c3.43,4.39,9.77,5.17,14.16,1.74,4.39-3.43,5.17-9.77,1.74-14.16-3.43-4.39-9.77-5.17-14.16-1.74-4.39,3.43-5.17,9.77-1.74,14.16Z"/><path class="cls-2" d="M62.76,74.85c-8.78,6.86-21.46,5.3-28.32-3.48-6.86-8.78-5.3-21.46,3.48-28.32"/><path class="cls-2" d="M62.76,74.85c8.78-6.86,10.34-19.54,3.48-28.32-6.86-8.78-19.54-10.34-28.32-3.48"/><path class="cls-10" d="M180.76,74.57c-8.78,6.86-21.46,5.3-28.32-3.48-6.86-8.78-5.3-21.46,3.48-28.32"/><path class="cls-10" d="M180.76,74.57c8.78-6.86,10.34-19.54,3.48-28.32-6.86-8.78-19.54-10.34-28.32-3.48"/><line class="cls-1" x1="138.61" y1="20.45" x2="185.89" y2="80.97"/><path class="cls-6" d="M186.34,256.71c-3.49-4.34-9.84-5.04-14.18-1.55-4.34,3.49-5.04,9.84-1.55,14.18,3.49,4.34,9.84,5.04,14.18,1.55,4.34-3.49,5.04-9.84,1.55-14.18Z"/><path class="cls-2" d="M147.24,223.44c8.78-6.86,21.46-5.3,28.32,3.48,6.86,8.78,5.3,21.46-3.48,28.32"/><path class="cls-2" d="M147.24,223.44c-8.78,6.86-10.34,19.54-3.48,28.32,6.86,8.78,19.54,10.34,28.32,3.48"/><line class="cls-1" x1="142.16" y1="217.02" x2="189.44" y2="277.54"/><path class="cls-6" d="M23.71,256.71c3.49-4.34,9.84-5.04,14.18-1.55,4.34,3.49,5.04,9.84,1.55,14.18-3.49,4.34-9.84,5.04-14.18,1.55-4.34-3.49-5.04-9.84-1.55-14.18Z"/><line class="cls-1" x1="67.73" y1="217.02" x2="20.45" y2="277.54"/><text class="cls-7" transform="translate(86.63 98.44)"><tspan x="0" y="0">VALUES</tspan></text></svg>