<?xml version="1.0" encoding="UTF-8"?><svg id="Livello_1" xmlns="http://www.w3.org/2000/svg" viewBox="0 0 209.76 297.64"><defs><style>.cls-1{letter-spacing:0em;}.cls-2{stroke:#f0f;}.cls-2,.cls-3,.cls-4,.cls-5{fill:none;stroke-miterlimit:10;}.cls-3{stroke:blue;}.cls-6{fill:blue;}.cls-7{letter-spacing:0em;}.cls-8{font-family:RobotoMono-Regular, 'Roboto Mono';font-size:10px;font-variation-settings:'wght' 400;}.cls-8,.cls-9,.cls-10{fill:#1d1d1b;}.cls-11{fill:red;}.cls-4{stroke:#1d1d1b;}.cls-9{font-family:RobotoMono-Light, 'Roboto Mono';font-size:9px;font-variation-settings:'wght' 300;font-weight:300;letter-spacing:.02em;}.cls-10{font-family:Shape-Bold, Shape;font-size:23px;font-weight:700;}.cls-5{stroke:#e20613;}</style></defs><text class="cls-10" transform="translate(56.15 152.61)"><tspan class="cls-1" x="0" y="0">S</tspan><tspan class="cls-7" x="14.49" y="0">ecuring </tspan><tspan class="cls-7"><tspan x="-38.73" y="21">Communication</tspan></tspan></text><text class="cls-8" transform="translate(68.27 108.17)"><tspan x="0" y="0">APPLICATIONS</tspan></text><text class="cls-9" transform="translate(68.09 124.02)"><tspan x="0" y="0">COMMUNICATION</tspan></text><path class="cls-11" d="M136.27,67.53c-9.83-12.58-7.6-30.75,4.98-40.58,12.58-9.83,30.75-7.6,40.58,4.98"/><path class="cls-11" d="M136.27,67.53c9.83,12.58,28,14.81,40.58,4.98,12.58-9.83,14.81-28,4.98-40.58"/><path class="cls-3" d="M136.27,67.53c-6.55-8.39-5.07-20.5,3.32-27.06,8.39-6.55,20.5-5.07,27.06,3.32"/><path class="cls-3" d="M136.27,67.53c6.55,8.39,18.67,9.88,27.06,3.32,8.39-6.55,9.88-18.67,3.32-27.06"/><line class="cls-2" x1="159.06" y1="13.24" x2="159.06" y2="86.45"/><line class="cls-2" x1="195.66" y1="49.84" x2="122.45" y2="49.84"/><line class="cls-4" x1="187.96" y1="27.26" x2="130.15" y2="72.43"/><path class="cls-6" d="M27.67,67.53c-6.55-8.39-5.07-20.5,3.32-27.06,8.39-6.55,20.5-5.07,27.06,3.32"/><path class="cls-6" d="M27.67,67.53c6.55,8.39,18.67,9.88,27.06,3.32,8.39-6.55,9.88-18.67,3.32-27.06"/><line class="cls-2" x1="50.46" y1="13.24" x2="50.46" y2="86.45"/><line class="cls-2" x1="87.06" y1="49.84" x2="13.85" y2="49.84"/><line class="cls-4" x1="79.37" y1="27.26" x2="21.55" y2="72.43"/><path class="cls-11" d="M27.67,265.48c-9.83-12.58-7.6-30.75,4.98-40.58,12.58-9.83,30.75-7.6,40.58,4.98"/><path class="cls-11" d="M27.67,265.48c9.83,12.58,28,14.81,40.58,4.98,12.58-9.83,14.81-28,4.98-40.58"/><line class="cls-2" x1="50.46" y1="211.19" x2="50.46" y2="284.4"/><line class="cls-2" x1="87.06" y1="247.79" x2="13.85" y2="247.79"/><line class="cls-4" x1="79.37" y1="225.21" x2="21.55" y2="270.38"/><path class="cls-5" d="M136.27,265.48c-9.83-12.58-7.6-30.75,4.98-40.58,12.58-9.83,30.75-7.6,40.58,4.98"/><path class="cls-5" d="M136.27,265.48c9.83,12.58,28,14.81,40.58,4.98,12.58-9.83,14.81-28,4.98-40.58"/><path class="cls-6" d="M136.27,265.48c-6.55-8.39-5.07-20.5,3.32-27.06,8.39-6.55,20.5-5.07,27.06,3.32"/><path class="cls-6" d="M136.27,265.48c6.55,8.39,18.67,9.88,27.06,3.32,8.39-6.55,9.88-18.67,3.32-27.06"/><line class="cls-2" x1="159.06" y1="211.19" x2="159.06" y2="284.4"/><line class="cls-2" x1="195.66" y1="247.79" x2="122.45" y2="247.79"/><line class="cls-4" x1="187.96" y1="225.21" x2="130.15" y2="270.38"/></svg>