<?xml version="1.0" encoding="UTF-8"?><svg id="Livello_1" xmlns="http://www.w3.org/2000/svg" viewBox="0 0 209.76 297.64"><defs><style>.cls-1{stroke:#f0f;}.cls-1,.cls-2,.cls-3,.cls-4{fill:none;stroke-miterlimit:10;}.cls-5{letter-spacing:0em;}.cls-6{letter-spacing:0em;}.cls-2{stroke:red;}.cls-3{stroke:blue;}.cls-7{fill:blue;}.cls-8{letter-spacing:0em;}.cls-9{font-family:RobotoMono-Regular, 'Roboto Mono';font-size:10px;font-variation-settings:'wght' 400;}.cls-9,.cls-10,.cls-11{fill:#1d1d1b;}.cls-10{font-family:RobotoMono-Light, 'Roboto Mono';font-size:9px;font-variation-settings:'wght' 300;font-weight:300;letter-spacing:.02em;}.cls-12{letter-spacing:0em;}.cls-11{font-family:Shape-Bold, Shape;font-size:23px;font-weight:700;}.cls-13{letter-spacing:0em;}.cls-14{fill:#f0f;}.cls-4{stroke:#1d1d1b;stroke-width:.5px;}</style></defs><text class="cls-11" transform="translate(29.96 152.61)"><tspan x="0" y="0">Moni</tspan><tspan class="cls-6" x="54.35" y="0">t</tspan><tspan x="64.51" y="0">oring </tspan><tspan class="cls-6" x="126.61" y="0">o</tspan><tspan class="cls-8" x="140.23" y="0">f</tspan><tspan x="149.61" y="0"> </tspan><tspan class="cls-13" x="31.99" y="21">W</tspan><tspan class="cls-12" x="56.44" y="21">i</tspan><tspan x="62.58" y="21">ld</tspan><tspan class="cls-12" x="82.78" y="21">l</tspan><tspan x="88.92" y="21">i</tspan><tspan class="cls-5" x="95.01" y="21">f</tspan><tspan x="104.44" y="21">e</tspan></text><text class="cls-9" transform="translate(69.62 108.17)"><tspan x="0" y="0">APPLICATIONS</tspan></text><text class="cls-10" transform="translate(86.18 122.68)"><tspan x="0" y="0">SENSING</tspan></text><path class="cls-14" d="M68.3,224.44c12.78,9.93,15.09,28.35,5.16,41.13-9.93,12.78-28.35,15.09-41.13,5.16"/><path class="cls-14" d="M68.3,224.44c-12.78-9.93-31.2-7.62-41.13,5.16-9.93,12.78-7.62,31.2,5.16,41.13"/><path class="cls-3" d="M68.3,224.44c8.52,6.62,10.06,18.9,3.44,27.42-6.62,8.52-18.9,10.06-27.42,3.44"/><path class="cls-3" d="M68.3,224.44c-8.52-6.62-20.8-5.08-27.42,3.44-6.62,8.52-5.08,20.8,3.44,27.42"/><line class="cls-2" x1="13.33" y1="247.6" x2="87.54" y2="247.6"/><line class="cls-4" x1="50.43" y1="210.49" x2="50.43" y2="284.71"/><path class="cls-1" d="M68.3,26.89c12.78,9.93,15.09,28.35,5.16,41.13-9.93,12.78-28.35,15.09-41.13,5.16"/><path class="cls-1" d="M68.3,26.89c-12.78-9.93-31.2-7.62-41.13,5.16-9.93,12.78-7.62,31.2,5.16,41.13"/><path class="cls-7" d="M68.3,26.89c8.52,6.62,10.06,18.9,3.44,27.42-6.62,8.52-18.9,10.06-27.42,3.44"/><path class="cls-7" d="M68.3,26.89c-8.52-6.62-20.8-5.08-27.42,3.44-6.62,8.52-5.08,20.8,3.44,27.42"/><line class="cls-2" x1="13.33" y1="50.04" x2="87.54" y2="50.04"/><line class="cls-4" x1="50.43" y1="12.93" x2="50.43" y2="87.15"/><path class="cls-14" d="M178.68,26.89c12.78,9.93,15.09,28.35,5.16,41.13-9.93,12.78-28.35,15.09-41.13,5.16"/><path class="cls-14" d="M178.68,26.89c-12.78-9.93-31.2-7.62-41.13,5.16-9.93,12.78-7.62,31.2,5.16,41.13"/><line class="cls-2" x1="123.7" y1="50.04" x2="197.92" y2="50.04"/><line class="cls-4" x1="160.81" y1="12.93" x2="160.81" y2="87.15"/><path class="cls-7" d="M178.68,224.44c8.52,6.62,10.06,18.9,3.44,27.42s-18.9,10.06-27.42,3.44"/><path class="cls-7" d="M178.68,224.44c-8.52-6.62-20.8-5.08-27.42,3.44-6.62,8.52-5.08,20.8,3.44,27.42"/><line class="cls-2" x1="123.7" y1="247.6" x2="197.92" y2="247.6"/><line class="cls-4" x1="160.81" y1="210.49" x2="160.81" y2="284.71"/></svg>