<?xml version="1.0" encoding="UTF-8"?><svg id="Livello_1" xmlns="http://www.w3.org/2000/svg" viewBox="0 0 209.76 297.64"><defs><style>.cls-1{stroke:#f0f;}.cls-1,.cls-2,.cls-3{fill:none;stroke-miterlimit:10;}.cls-4{letter-spacing:0em;}.cls-2{stroke:red;}.cls-3{stroke:blue;}.cls-5{font-family:RobotoMono-Regular, 'Roboto Mono';font-size:10px;font-variation-settings:'wght' 400;}.cls-5,.cls-6,.cls-7{fill:#1d1d1b;}.cls-8{fill:red;}.cls-6{font-family:RobotoMono-Light, 'Roboto Mono';font-size:9px;font-variation-settings:'wght' 300;font-weight:300;letter-spacing:.02em;}.cls-9{letter-spacing:0em;}.cls-10{letter-spacing:-.02em;}.cls-7{font-family:Shape-Bold, Shape;font-size:23px;font-weight:700;}.cls-11{fill:#f0f;}.cls-12{letter-spacing:-.02em;}</style></defs><text class="cls-7" transform="translate(42.93 152.4)"><tspan x="0" y="0">D</tspan><tspan class="cls-12" x="16.65" y="0">ev</tspan><tspan x="42.07" y="0">eloping </tspan><tspan x="-19.22" y="21">N</tspan><tspan class="cls-10" x="-1.58" y="21">e</tspan><tspan class="cls-9" x="11.4" y="21">w</tspan><tspan x="31.13" y="21" xml:space="preserve"> Ma</tspan><tspan class="cls-4" x="71.52" y="21">t</tspan><tspan x="81.68" y="21">erials </tspan></text><text class="cls-5" transform="translate(68.02 106.34)"><tspan x="0" y="0">APPLICATIONS</tspan></text><text class="cls-6" transform="translate(79.01 122.19)"><tspan x="0" y="0">COMPUTING</tspan></text><path class="cls-2" d="M67.88,74.95c-12.66,9.89-30.93,7.64-40.82-5.01-9.89-12.66-7.64-30.93,5.01-40.82"/><path class="cls-2" d="M67.88,74.95c12.66-9.89,14.9-28.16,5.01-40.82-9.89-12.66-28.16-14.9-40.82-5.01"/><line class="cls-3" x1="13.28" y1="52.02" x2="86.91" y2="52.02"/><path class="cls-8" d="M177.05,74.95c-12.66,9.89-30.93,7.64-40.82-5.01-9.89-12.66-7.64-30.93,5.01-40.82"/><path class="cls-8" d="M177.05,74.95c12.66-9.89,14.9-28.16,5.01-40.82-9.89-12.66-28.16-14.9-40.82-5.01"/><path class="cls-1" d="M177.05,74.95c-8.44,6.59-20.62,5.1-27.21-3.34-6.59-8.44-5.1-20.62,3.34-27.21"/><path class="cls-1" d="M177.05,74.95c8.44-6.59,9.93-18.78,3.34-27.21-6.59-8.44-18.78-9.93-27.21-3.34"/><line class="cls-3" x1="122.44" y1="52.02" x2="196.07" y2="52.02"/><path class="cls-2" d="M68.14,273.43c-12.72,9.93-31.08,7.68-41.01-5.04-9.93-12.72-7.68-31.08,5.04-41.01"/><path class="cls-2" d="M68.14,273.43c12.72-9.93,14.97-28.29,5.04-41.01-9.93-12.72-28.29-14.97-41.01-5.04"/><path class="cls-11" d="M68.14,273.43c-8.48,6.62-20.72,5.12-27.34-3.36-6.62-8.48-5.12-20.72,3.36-27.34"/><path class="cls-11" d="M68.14,273.43c8.48-6.62,9.98-18.86,3.36-27.34-6.62-8.48-18.86-9.98-27.34-3.36"/><line class="cls-3" x1="13.28" y1="250.4" x2="87.25" y2="250.4"/><path class="cls-1" d="M177.7,275.5c-8.48,6.62-20.72,5.12-27.34-3.36-6.62-8.48-5.12-20.72,3.36-27.34"/><path class="cls-1" d="M177.7,275.5c8.48-6.62,9.98-18.86,3.36-27.34s-18.86-9.98-27.34-3.36"/><line class="cls-3" x1="122.84" y1="252.47" x2="196.81" y2="252.47"/></svg>