<?xml version="1.0" encoding="UTF-8"?><svg id="Livello_1" xmlns="http://www.w3.org/2000/svg" viewBox="0 0 209.76 297.64"><defs><style>.cls-1{stroke:#000;stroke-width:.5px;}.cls-1,.cls-2,.cls-3,.cls-4{fill:none;stroke-miterlimit:10;}.cls-2{stroke:#f0f;}.cls-5{letter-spacing:0em;}.cls-3{stroke:red;}.cls-4{stroke:blue;}.cls-6{fill:blue;}.cls-7{font-family:RobotoMono-Regular, 'Roboto Mono';font-size:10px;font-variation-settings:'wght' 400;}.cls-7,.cls-8{fill:#1d1d1b;}.cls-8{font-family:Shape-Bold, Shape;font-size:23px;font-weight:700;}</style></defs><text class="cls-8" transform="translate(62.36 155.08)"><tspan x="0" y="0">Cont</tspan><tspan class="cls-5" x="56.03" y="0">r</tspan><tspan x="65.23" y="0">ol</tspan></text><text class="cls-7" transform="translate(83.88 122.24)"><tspan x="0" y="0">ACTIONS</tspan></text><line class="cls-1" x1="33.99" y1="81.21" x2="27.75" y2="89.2"/><path class="cls-4" d="M177.02,81.16c-.18.16-.34.31-.51.44-4.97,3.99-12.24,3.19-16.22-1.78-3.99-4.97-3.19-12.22,1.78-16.22,9.94-7.97,11.52-22.5,3.54-32.43-7.75-9.67-21.73-11.43-31.63-4.16,14.89-11.26,36.1-8.7,47.85,5.94,11.83,14.73,9.64,36.19-4.81,48.21Z"/><line class="cls-1" x1="127.94" y1="20" x2="182.01" y2="89.2"/><path class="cls-4" d="M32.75,216.48c.18-.16.34-.31.51-.44,4.97-3.99,12.24-3.19,16.22,1.78,3.99,4.97,3.19,12.22-1.78,16.22-9.94,7.97-11.52,22.5-3.54,32.43,7.75,9.67,21.73,11.43,31.63,4.16-14.89,11.26-36.1,8.7-47.85-5.94-11.83-14.73-9.64-36.19,4.81-48.21Z"/><line class="cls-1" x1="81.82" y1="277.64" x2="27.76" y2="208.44"/><path class="cls-6" d="M33.26,81.6c-14.9-11.96-17.29-33.75-5.32-48.65,11.96-14.9,33.75-17.29,48.65-5.32-9.94-7.98-24.46-6.39-32.43,3.55-7.98,9.94-6.39,24.46,3.55,32.43-4.97-3.99-12.23-3.19-16.22,1.77-3.99,4.97-3.19,12.23,1.77,16.22"/><line class="cls-2" x1="47.31" y1="64.16" x2="33.99" y2="81.21"/><line class="cls-1" x1="81.82" y1="20" x2="47.31" y2="64.16"/><path class="cls-3" d="M31.48,65.38c3.99-4.97,11.25-5.76,16.22-1.77,4.97,3.99,5.76,11.25,1.77,16.22-3.99,4.97-11.25,5.76-16.22,1.77-4.97-3.99-5.76-11.25-1.77-16.22Z"/><path class="cls-6" d="M133.18,270.02c9.94,7.98,24.46,6.39,32.43-3.55,7.98-9.94,6.39-24.46-3.55-32.43,4.97,3.99,12.23,3.19,16.22-1.77,3.99-4.97,3.19-12.23-1.77-16.22,14.9,11.96,17.29,33.75,5.32,48.65-11.96,14.9-33.75,17.29-48.65,5.32Z"/><line class="cls-1" x1="175.83" y1="216.35" x2="182.01" y2="208.44"/><line class="cls-2" x1="162.48" y1="233.44" x2="175.83" y2="216.35"/><line class="cls-1" x1="127.95" y1="277.64" x2="162.48" y2="233.44"/><path class="cls-3" d="M178.28,232.26c-3.99,4.97-11.25,5.76-16.22,1.77-4.97-3.99-5.76-11.25-1.77-16.22,3.99-4.97,11.25-5.76,16.22-1.77,4.97,3.99,5.76,11.25,1.77,16.22Z"/></svg>